M48
;Layer_Color=9474304
;FILE_FORMAT=4:4
METRIC,LZ
;TYPE=PLATED
T1F00S00C0.2000
T2F00S00C0.3000
T3F00S00C0.7112
T4F00S00C0.8500
T5F00S00C0.8600
T6F00S00C0.9900
T7F00S00C3.0000
%
T01
X00402212Y00483015
Y00501365
X00411387Y0051054
X00420562Y00501365
X00429737Y0051054
X00438912Y00501365
X00429737Y0049219
X00438912Y00483015
X00420562
X00411387Y0049219
Y0047384
X00429737
T02
X00147992Y00064218
X00157992
X00152992Y00069218
X00147992Y00074218
X00157992
T03
X00099732Y00075488
X0011548Y0006482
X00458216Y00106934
X00472186Y00072136
X00558292Y0006096
X00547878Y00098806
X0048895Y0017526
X00443992Y0016637
X0043917Y003142
X0041377
X0038837Y00314198
X00362966Y003142
X00337566Y00314198
X00373412Y0035687
X0031242Y0042418
X00312166Y00459232
X0030734Y004953
X0029972Y005207
X00245618Y00472948
X00269026Y00386334
X00250444Y0027305
X00295148Y00275844
X0016256Y005461
X0013335Y0056134
T04
X0011176Y0023114
X0018796
X001905Y0033147
X0018923Y0037338
X0011303
X001143Y0033147
T05
X0030877Y0001736
X0032877
X00579374Y00519176
X00133698Y00417742
X00113698
X001143Y00295148
X001343
X00134968Y00178982
X00114968
X00579374Y00539176
T06
X00560324Y0031695
Y0036195
X00625324
Y0031695
T07
X00499364Y00342646
X00289306Y0017399
M30
