G04*
G04 #@! TF.GenerationSoftware,Altium Limited,Altium Designer,20.1.14 (287)*
G04*
G04 Layer_Color=16711935*
%FSLAX25Y25*%
%MOIN*%
G70*
G04*
G04 #@! TF.SameCoordinates,9BBB710E-F05C-4809-8D11-837B32203116*
G04*
G04*
G04 #@! TF.FilePolarity,Positive*
G04*
G01*
G75*
%ADD12C,0.00000*%
D12*
X192816Y11862D02*
G03*
X191832Y10878I0J-984D01*
G01*
X193800D02*
G03*
X192816Y11862I-984J0D01*
G01*
Y7138D02*
G03*
X193800Y8122I0J984D01*
G01*
X191832D02*
G03*
X192816Y7138I984J0D01*
G01*
X158800Y11862D02*
G03*
X157816Y10878I0J-984D01*
G01*
X159784D02*
G03*
X158800Y11862I-984J0D01*
G01*
Y7138D02*
G03*
X159784Y8122I0J984D01*
G01*
X157816D02*
G03*
X158800Y7138I984J0D01*
G01*
X192816Y26823D02*
G03*
X191832Y25839I0J-984D01*
G01*
X193800D02*
G03*
X192816Y26823I-984J0D01*
G01*
Y22098D02*
G03*
X193800Y23083I0J984D01*
G01*
X191832D02*
G03*
X192816Y22098I984J0D01*
G01*
X158800Y26823D02*
G03*
X157816Y25839I0J-984D01*
G01*
X159784D02*
G03*
X158800Y26823I-984J0D01*
G01*
Y22098D02*
G03*
X159784Y23083I0J984D01*
G01*
X157816D02*
G03*
X158800Y22098I984J0D01*
G01*
X193800Y8122D02*
Y10878D01*
X191832Y8122D02*
Y10878D01*
X159784Y8122D02*
Y10878D01*
X157816Y8122D02*
Y10878D01*
X193800Y23083D02*
Y25839D01*
X191832Y23083D02*
Y25839D01*
X159784Y23083D02*
Y25839D01*
X157816Y23083D02*
Y25839D01*
M02*
