G04*
G04 #@! TF.GenerationSoftware,Altium Limited,Altium Designer,20.1.14 (287)*
G04*
G04 Layer_Physical_Order=1*
G04 Layer_Color=255*
%FSLAX25Y25*%
%MOIN*%
G70*
G04*
G04 #@! TF.SameCoordinates,9BBB710E-F05C-4809-8D11-837B32203116*
G04*
G04*
G04 #@! TF.FilePolarity,Positive*
G04*
G01*
G75*
%ADD10C,0.00984*%
%ADD16C,0.01000*%
%ADD17R,0.01968X0.01181*%
%ADD18R,0.02756X0.03543*%
%ADD19R,0.04583X0.01322*%
G04:AMPARAMS|DCode=20|XSize=45.83mil|YSize=13.22mil|CornerRadius=6.61mil|HoleSize=0mil|Usage=FLASHONLY|Rotation=180.000|XOffset=0mil|YOffset=0mil|HoleType=Round|Shape=RoundedRectangle|*
%AMROUNDEDRECTD20*
21,1,0.04583,0.00000,0,0,180.0*
21,1,0.03260,0.01322,0,0,180.0*
1,1,0.01322,-0.01630,0.00000*
1,1,0.01322,0.01630,0.00000*
1,1,0.01322,0.01630,0.00000*
1,1,0.01322,-0.01630,0.00000*
%
%ADD20ROUNDEDRECTD20*%
G04:AMPARAMS|DCode=21|XSize=53.15mil|YSize=23.62mil|CornerRadius=2.95mil|HoleSize=0mil|Usage=FLASHONLY|Rotation=0.000|XOffset=0mil|YOffset=0mil|HoleType=Round|Shape=RoundedRectangle|*
%AMROUNDEDRECTD21*
21,1,0.05315,0.01772,0,0,0.0*
21,1,0.04724,0.02362,0,0,0.0*
1,1,0.00591,0.02362,-0.00886*
1,1,0.00591,-0.02362,-0.00886*
1,1,0.00591,-0.02362,0.00886*
1,1,0.00591,0.02362,0.00886*
%
%ADD21ROUNDEDRECTD21*%
%ADD22R,0.03347X0.03347*%
%ADD23R,0.05000X0.02200*%
%ADD24R,0.05236X0.05236*%
%ADD25R,0.07874X0.03543*%
%ADD26R,0.03543X0.07874*%
%ADD27R,0.01968X0.00787*%
%ADD28R,0.01968X0.01968*%
%ADD29R,0.03543X0.02756*%
%ADD30R,0.03543X0.04528*%
%ADD31R,0.03150X0.04528*%
%ADD32R,0.02756X0.04528*%
%ADD33R,0.00787X0.00787*%
%ADD34R,0.03347X0.03347*%
%ADD64C,0.01968*%
%ADD65C,0.01181*%
%ADD66C,0.07284*%
%ADD67R,0.07284X0.07284*%
%ADD68R,0.05386X0.05386*%
%ADD69C,0.05386*%
%ADD70R,0.05386X0.05386*%
%ADD71C,0.05512*%
%ADD72C,0.01181*%
%ADD73C,0.01575*%
%ADD74C,0.01968*%
%ADD75C,0.07874*%
%ADD76C,0.05000*%
G36*
X63087Y31484D02*
X63579D01*
Y23019D01*
X63087D01*
Y20263D01*
X62103D01*
Y23019D01*
X61513D01*
Y20263D01*
X60528D01*
Y23019D01*
X59938D01*
Y20263D01*
X58953D01*
Y23019D01*
X58363D01*
Y20263D01*
X57379D01*
Y23019D01*
X56887D01*
Y31484D01*
X57379D01*
Y34239D01*
X58363D01*
Y31484D01*
X58953D01*
Y34239D01*
X59938D01*
Y31484D01*
X60528D01*
Y34239D01*
X61513D01*
Y31484D01*
X62103D01*
Y34239D01*
X63087D01*
Y31484D01*
D02*
G37*
G36*
X67713Y30637D02*
X64918D01*
X64889Y30638D01*
X64860Y30640D01*
X64832Y30644D01*
X64803Y30649D01*
X64776Y30656D01*
X64748Y30664D01*
X64721Y30674D01*
X64694Y30685D01*
X64668Y30697D01*
X64643Y30711D01*
X64618Y30726D01*
X64594Y30742D01*
X64571Y30760D01*
X64549Y30779D01*
X64528Y30799D01*
X64508Y30819D01*
X64490Y30841D01*
X64472Y30864D01*
X64456Y30888D01*
X64441Y30913D01*
X64427Y30938D01*
X64415Y30964D01*
X64403Y30991D01*
X64394Y31018D01*
X64386Y31045D01*
X64379Y31074D01*
X64374Y31102D01*
X64370Y31131D01*
X64368Y31159D01*
X64367Y31188D01*
X64368Y31217D01*
X64370Y31246D01*
X64374Y31274D01*
X64379Y31303D01*
X64386Y31331D01*
X64394Y31359D01*
X64403Y31386D01*
X64415Y31412D01*
X64427Y31438D01*
X64441Y31464D01*
X64456Y31488D01*
X64472Y31512D01*
X64490Y31535D01*
X64508Y31557D01*
X64528Y31578D01*
X64549Y31598D01*
X64571Y31617D01*
X64594Y31634D01*
X64618Y31651D01*
X64643Y31666D01*
X64668Y31679D01*
X64694Y31692D01*
X64721Y31703D01*
X64748Y31712D01*
X64776Y31721D01*
X64803Y31727D01*
X64832Y31733D01*
X64860Y31736D01*
X64889Y31739D01*
X64918Y31739D01*
X67713D01*
Y30637D01*
D02*
G37*
G36*
X55577Y31739D02*
X55606Y31736D01*
X55634Y31733D01*
X55663Y31727D01*
X55691Y31721D01*
X55718Y31712D01*
X55746Y31703D01*
X55772Y31692D01*
X55798Y31679D01*
X55824Y31666D01*
X55848Y31651D01*
X55872Y31634D01*
X55895Y31617D01*
X55917Y31598D01*
X55938Y31578D01*
X55958Y31557D01*
X55976Y31535D01*
X55994Y31512D01*
X56010Y31488D01*
X56025Y31464D01*
X56039Y31438D01*
X56052Y31412D01*
X56063Y31386D01*
X56072Y31359D01*
X56080Y31331D01*
X56087Y31303D01*
X56092Y31274D01*
X56096Y31246D01*
X56099Y31217D01*
X56099Y31188D01*
X56099Y31159D01*
X56096Y31131D01*
X56092Y31102D01*
X56087Y31074D01*
X56080Y31045D01*
X56072Y31018D01*
X56063Y30991D01*
X56052Y30964D01*
X56039Y30938D01*
X56025Y30913D01*
X56010Y30888D01*
X55994Y30864D01*
X55976Y30841D01*
X55958Y30819D01*
X55938Y30799D01*
X55917Y30779D01*
X55895Y30760D01*
X55872Y30742D01*
X55848Y30726D01*
X55824Y30711D01*
X55798Y30697D01*
X55772Y30685D01*
X55746Y30674D01*
X55718Y30664D01*
X55691Y30656D01*
X55663Y30649D01*
X55634Y30644D01*
X55606Y30640D01*
X55577Y30638D01*
X55548Y30637D01*
X52753D01*
Y31739D01*
X55548D01*
X55577Y31739D01*
D02*
G37*
G36*
X67713Y28668D02*
X64918D01*
X64889Y28669D01*
X64860Y28672D01*
X64832Y28675D01*
X64803Y28681D01*
X64776Y28687D01*
X64748Y28695D01*
X64721Y28705D01*
X64694Y28716D01*
X64668Y28729D01*
X64643Y28742D01*
X64618Y28757D01*
X64594Y28774D01*
X64571Y28791D01*
X64549Y28810D01*
X64528Y28830D01*
X64508Y28851D01*
X64490Y28873D01*
X64472Y28896D01*
X64456Y28920D01*
X64441Y28944D01*
X64427Y28969D01*
X64415Y28995D01*
X64403Y29022D01*
X64394Y29049D01*
X64386Y29077D01*
X64379Y29105D01*
X64374Y29133D01*
X64370Y29162D01*
X64368Y29191D01*
X64367Y29220D01*
X64368Y29248D01*
X64370Y29277D01*
X64374Y29306D01*
X64379Y29334D01*
X64386Y29362D01*
X64394Y29390D01*
X64403Y29417D01*
X64415Y29444D01*
X64427Y29470D01*
X64441Y29495D01*
X64456Y29520D01*
X64472Y29544D01*
X64490Y29567D01*
X64508Y29588D01*
X64528Y29609D01*
X64549Y29629D01*
X64571Y29648D01*
X64594Y29666D01*
X64618Y29682D01*
X64643Y29697D01*
X64668Y29711D01*
X64694Y29723D01*
X64721Y29734D01*
X64748Y29744D01*
X64776Y29752D01*
X64803Y29759D01*
X64832Y29764D01*
X64860Y29768D01*
X64889Y29770D01*
X64918Y29771D01*
X67713D01*
Y28668D01*
D02*
G37*
G36*
X55577Y29770D02*
X55606Y29768D01*
X55634Y29764D01*
X55663Y29759D01*
X55691Y29752D01*
X55718Y29744D01*
X55746Y29734D01*
X55772Y29723D01*
X55798Y29711D01*
X55824Y29697D01*
X55848Y29682D01*
X55872Y29666D01*
X55895Y29648D01*
X55917Y29629D01*
X55938Y29609D01*
X55958Y29588D01*
X55976Y29567D01*
X55994Y29544D01*
X56010Y29520D01*
X56025Y29495D01*
X56039Y29470D01*
X56052Y29444D01*
X56063Y29417D01*
X56072Y29390D01*
X56080Y29362D01*
X56087Y29334D01*
X56092Y29306D01*
X56096Y29277D01*
X56099Y29248D01*
X56099Y29220D01*
X56099Y29191D01*
X56096Y29162D01*
X56092Y29133D01*
X56087Y29105D01*
X56080Y29077D01*
X56072Y29049D01*
X56063Y29022D01*
X56052Y28995D01*
X56039Y28969D01*
X56025Y28944D01*
X56010Y28920D01*
X55994Y28896D01*
X55976Y28873D01*
X55958Y28851D01*
X55938Y28830D01*
X55917Y28810D01*
X55895Y28791D01*
X55872Y28774D01*
X55848Y28757D01*
X55824Y28742D01*
X55798Y28729D01*
X55772Y28716D01*
X55746Y28705D01*
X55718Y28695D01*
X55691Y28687D01*
X55663Y28681D01*
X55634Y28675D01*
X55606Y28672D01*
X55577Y28669D01*
X55548Y28668D01*
X52753D01*
Y29771D01*
X55548D01*
X55577Y29770D01*
D02*
G37*
G36*
X67713Y26700D02*
X64918D01*
X64889Y26701D01*
X64860Y26703D01*
X64832Y26707D01*
X64803Y26712D01*
X64776Y26719D01*
X64748Y26727D01*
X64721Y26737D01*
X64694Y26748D01*
X64668Y26760D01*
X64643Y26774D01*
X64618Y26789D01*
X64594Y26805D01*
X64571Y26823D01*
X64549Y26842D01*
X64528Y26862D01*
X64508Y26882D01*
X64490Y26904D01*
X64472Y26927D01*
X64456Y26951D01*
X64441Y26976D01*
X64427Y27001D01*
X64415Y27027D01*
X64403Y27054D01*
X64394Y27081D01*
X64386Y27108D01*
X64379Y27137D01*
X64374Y27165D01*
X64370Y27194D01*
X64368Y27222D01*
X64367Y27251D01*
X64368Y27280D01*
X64370Y27309D01*
X64374Y27337D01*
X64379Y27366D01*
X64386Y27394D01*
X64394Y27422D01*
X64403Y27449D01*
X64415Y27475D01*
X64427Y27501D01*
X64441Y27527D01*
X64456Y27551D01*
X64472Y27575D01*
X64490Y27598D01*
X64508Y27620D01*
X64528Y27641D01*
X64549Y27661D01*
X64571Y27679D01*
X64594Y27697D01*
X64618Y27714D01*
X64643Y27729D01*
X64668Y27742D01*
X64694Y27755D01*
X64721Y27766D01*
X64748Y27775D01*
X64776Y27784D01*
X64803Y27790D01*
X64832Y27796D01*
X64860Y27799D01*
X64889Y27802D01*
X64918Y27802D01*
X67713D01*
Y26700D01*
D02*
G37*
G36*
X55577Y27802D02*
X55606Y27799D01*
X55634Y27796D01*
X55663Y27790D01*
X55691Y27784D01*
X55718Y27775D01*
X55746Y27766D01*
X55772Y27755D01*
X55798Y27742D01*
X55824Y27729D01*
X55848Y27714D01*
X55872Y27697D01*
X55895Y27679D01*
X55917Y27661D01*
X55938Y27641D01*
X55958Y27620D01*
X55976Y27598D01*
X55994Y27575D01*
X56010Y27551D01*
X56025Y27527D01*
X56039Y27501D01*
X56052Y27475D01*
X56063Y27449D01*
X56072Y27422D01*
X56080Y27394D01*
X56087Y27366D01*
X56092Y27337D01*
X56096Y27309D01*
X56099Y27280D01*
X56099Y27251D01*
X56099Y27222D01*
X56096Y27194D01*
X56092Y27165D01*
X56087Y27137D01*
X56080Y27108D01*
X56072Y27081D01*
X56063Y27054D01*
X56052Y27027D01*
X56039Y27001D01*
X56025Y26976D01*
X56010Y26951D01*
X55994Y26927D01*
X55976Y26904D01*
X55958Y26882D01*
X55938Y26862D01*
X55917Y26842D01*
X55895Y26823D01*
X55872Y26805D01*
X55848Y26789D01*
X55824Y26774D01*
X55798Y26760D01*
X55772Y26748D01*
X55746Y26737D01*
X55718Y26727D01*
X55691Y26719D01*
X55663Y26712D01*
X55634Y26707D01*
X55606Y26703D01*
X55577Y26701D01*
X55548Y26700D01*
X52753D01*
Y27802D01*
X55548D01*
X55577Y27802D01*
D02*
G37*
G36*
X67713Y24732D02*
X64918D01*
X64889Y24732D01*
X64860Y24735D01*
X64832Y24738D01*
X64803Y24744D01*
X64776Y24750D01*
X64748Y24758D01*
X64721Y24768D01*
X64694Y24779D01*
X64668Y24792D01*
X64643Y24805D01*
X64618Y24820D01*
X64594Y24837D01*
X64571Y24854D01*
X64549Y24873D01*
X64528Y24893D01*
X64508Y24914D01*
X64490Y24936D01*
X64472Y24959D01*
X64456Y24983D01*
X64441Y25007D01*
X64427Y25032D01*
X64415Y25058D01*
X64403Y25085D01*
X64394Y25112D01*
X64386Y25140D01*
X64379Y25168D01*
X64374Y25196D01*
X64370Y25225D01*
X64368Y25254D01*
X64367Y25283D01*
X64368Y25311D01*
X64370Y25340D01*
X64374Y25369D01*
X64379Y25397D01*
X64386Y25425D01*
X64394Y25453D01*
X64403Y25480D01*
X64415Y25507D01*
X64427Y25533D01*
X64441Y25558D01*
X64456Y25583D01*
X64472Y25607D01*
X64490Y25630D01*
X64508Y25651D01*
X64528Y25672D01*
X64549Y25692D01*
X64571Y25711D01*
X64594Y25729D01*
X64618Y25745D01*
X64643Y25760D01*
X64668Y25774D01*
X64694Y25786D01*
X64721Y25797D01*
X64748Y25807D01*
X64776Y25815D01*
X64803Y25822D01*
X64832Y25827D01*
X64860Y25831D01*
X64889Y25833D01*
X64918Y25834D01*
X67713D01*
Y24732D01*
D02*
G37*
G36*
X55577Y25833D02*
X55606Y25831D01*
X55634Y25827D01*
X55663Y25822D01*
X55691Y25815D01*
X55718Y25807D01*
X55746Y25797D01*
X55772Y25786D01*
X55798Y25774D01*
X55824Y25760D01*
X55848Y25745D01*
X55872Y25729D01*
X55895Y25711D01*
X55917Y25692D01*
X55938Y25672D01*
X55958Y25651D01*
X55976Y25630D01*
X55994Y25607D01*
X56010Y25583D01*
X56025Y25558D01*
X56039Y25533D01*
X56052Y25507D01*
X56063Y25480D01*
X56072Y25453D01*
X56080Y25425D01*
X56087Y25397D01*
X56092Y25369D01*
X56096Y25340D01*
X56099Y25311D01*
X56099Y25283D01*
X56099Y25254D01*
X56096Y25225D01*
X56092Y25196D01*
X56087Y25168D01*
X56080Y25140D01*
X56072Y25112D01*
X56063Y25085D01*
X56052Y25058D01*
X56039Y25032D01*
X56025Y25007D01*
X56010Y24983D01*
X55994Y24959D01*
X55976Y24936D01*
X55958Y24914D01*
X55938Y24893D01*
X55917Y24873D01*
X55895Y24854D01*
X55872Y24837D01*
X55848Y24820D01*
X55824Y24805D01*
X55798Y24792D01*
X55772Y24779D01*
X55746Y24768D01*
X55718Y24758D01*
X55691Y24750D01*
X55663Y24744D01*
X55634Y24738D01*
X55606Y24735D01*
X55577Y24732D01*
X55548Y24732D01*
X52753D01*
Y25834D01*
X55548D01*
X55577Y25833D01*
D02*
G37*
G36*
X192919Y27804D02*
X193022Y27796D01*
X193124Y27783D01*
X193225Y27764D01*
X193325Y27740D01*
X193424Y27711D01*
X193521Y27676D01*
X193616Y27637D01*
X193709Y27593D01*
X193800Y27543D01*
X193888Y27490D01*
X193973Y27431D01*
X194055Y27368D01*
X194133Y27301D01*
X194208Y27231D01*
X194279Y27156D01*
X194346Y27077D01*
X194408Y26996D01*
X194467Y26911D01*
X194520Y26823D01*
X194570Y26732D01*
X194614Y26639D01*
X194653Y26544D01*
X194688Y26447D01*
X194717Y26348D01*
X194741Y26248D01*
X194760Y26147D01*
X194773Y26044D01*
X194781Y25942D01*
X194784Y25839D01*
Y24461D01*
X193800D01*
Y25839D01*
X193799Y25890D01*
X193795Y25942D01*
X193788Y25993D01*
X193779Y26043D01*
X193766Y26093D01*
X193752Y26143D01*
X193735Y26191D01*
X193715Y26239D01*
X193693Y26285D01*
X193668Y26331D01*
X193641Y26375D01*
X193612Y26417D01*
X193581Y26458D01*
X193547Y26497D01*
X193512Y26535D01*
X193474Y26570D01*
X193435Y26603D01*
X193394Y26635D01*
X193352Y26664D01*
X193308Y26691D01*
X193263Y26716D01*
X193216Y26738D01*
X193168Y26757D01*
X193120Y26775D01*
X193070Y26789D01*
X193020Y26801D01*
X192970Y26811D01*
X192919Y26817D01*
X192867Y26822D01*
X192816Y26823D01*
X192764Y26822D01*
X192713Y26817D01*
X192662Y26811D01*
X192611Y26801D01*
X192561Y26789D01*
X192512Y26775D01*
X192463Y26757D01*
X192415Y26738D01*
X192369Y26716D01*
X192324Y26691D01*
X192280Y26664D01*
X192237Y26635D01*
X192196Y26603D01*
X192157Y26570D01*
X192120Y26535D01*
X192084Y26497D01*
X192051Y26458D01*
X192019Y26417D01*
X191990Y26375D01*
X191963Y26331D01*
X191939Y26285D01*
X191917Y26239D01*
X191897Y26191D01*
X191880Y26143D01*
X191865Y26093D01*
X191853Y26043D01*
X191844Y25993D01*
X191837Y25942D01*
X191833Y25890D01*
X191832Y25839D01*
Y23083D01*
X191833Y23031D01*
X191837Y22980D01*
X191844Y22929D01*
X191853Y22878D01*
X191865Y22828D01*
X191880Y22779D01*
X191897Y22730D01*
X191917Y22682D01*
X191939Y22636D01*
X191963Y22591D01*
X191990Y22547D01*
X192019Y22504D01*
X192051Y22463D01*
X192084Y22424D01*
X192120Y22387D01*
X192157Y22351D01*
X192196Y22318D01*
X192237Y22286D01*
X192280Y22257D01*
X192324Y22230D01*
X192369Y22206D01*
X192415Y22184D01*
X192463Y22164D01*
X192512Y22147D01*
X192561Y22132D01*
X192611Y22120D01*
X192662Y22110D01*
X192713Y22104D01*
X192764Y22100D01*
X192816Y22098D01*
X192867Y22100D01*
X192919Y22104D01*
X192970Y22110D01*
X193020Y22120D01*
X193070Y22132D01*
X193120Y22147D01*
X193168Y22164D01*
X193216Y22184D01*
X193263Y22206D01*
X193308Y22230D01*
X193352Y22257D01*
X193394Y22286D01*
X193435Y22318D01*
X193474Y22351D01*
X193512Y22387D01*
X193547Y22424D01*
X193581Y22463D01*
X193612Y22504D01*
X193641Y22547D01*
X193668Y22591D01*
X193693Y22636D01*
X193715Y22682D01*
X193735Y22730D01*
X193752Y22779D01*
X193766Y22828D01*
X193779Y22878D01*
X193788Y22929D01*
X193795Y22980D01*
X193799Y23031D01*
X193800Y23083D01*
Y24421D01*
X194784D01*
Y23083D01*
X194781Y22980D01*
X194773Y22877D01*
X194760Y22775D01*
X194741Y22673D01*
X194717Y22573D01*
X194688Y22474D01*
X194653Y22377D01*
X194614Y22282D01*
X194570Y22189D01*
X194520Y22098D01*
X194467Y22011D01*
X194408Y21926D01*
X194346Y21844D01*
X194279Y21766D01*
X194208Y21691D01*
X194133Y21620D01*
X194055Y21553D01*
X193973Y21490D01*
X193888Y21432D01*
X193800Y21378D01*
X193709Y21329D01*
X193616Y21284D01*
X193521Y21245D01*
X193424Y21211D01*
X193325Y21181D01*
X193225Y21157D01*
X193124Y21138D01*
X193022Y21125D01*
X192919Y21117D01*
X192816Y21114D01*
X192713Y21117D01*
X192610Y21125D01*
X192508Y21138D01*
X192406Y21157D01*
X192306Y21181D01*
X192207Y21211D01*
X192110Y21245D01*
X192015Y21284D01*
X191922Y21329D01*
X191832Y21378D01*
X191744Y21432D01*
X191659Y21490D01*
X191577Y21553D01*
X191499Y21620D01*
X191424Y21691D01*
X191353Y21766D01*
X191286Y21844D01*
X191223Y21926D01*
X191165Y22011D01*
X191111Y22098D01*
X191062Y22189D01*
X191017Y22282D01*
X190978Y22377D01*
X190944Y22474D01*
X190914Y22573D01*
X190890Y22673D01*
X190872Y22775D01*
X190858Y22877D01*
X190850Y22980D01*
X190847Y23083D01*
Y25839D01*
X190850Y25942D01*
X190858Y26044D01*
X190872Y26147D01*
X190890Y26248D01*
X190914Y26348D01*
X190944Y26447D01*
X190978Y26544D01*
X191017Y26639D01*
X191062Y26732D01*
X191111Y26823D01*
X191165Y26911D01*
X191223Y26996D01*
X191286Y27077D01*
X191353Y27156D01*
X191424Y27231D01*
X191499Y27301D01*
X191577Y27368D01*
X191659Y27431D01*
X191744Y27490D01*
X191832Y27543D01*
X191922Y27593D01*
X192015Y27637D01*
X192110Y27676D01*
X192207Y27711D01*
X192306Y27740D01*
X192406Y27764D01*
X192508Y27783D01*
X192610Y27796D01*
X192713Y27804D01*
X192816Y27807D01*
X192919Y27804D01*
D02*
G37*
G36*
X158903D02*
X159006Y27796D01*
X159108Y27783D01*
X159209Y27764D01*
X159309Y27740D01*
X159408Y27711D01*
X159505Y27676D01*
X159601Y27637D01*
X159694Y27593D01*
X159784Y27543D01*
X159872Y27490D01*
X159957Y27431D01*
X160039Y27368D01*
X160117Y27301D01*
X160192Y27231D01*
X160263Y27156D01*
X160330Y27077D01*
X160393Y26996D01*
X160451Y26911D01*
X160505Y26823D01*
X160554Y26732D01*
X160598Y26639D01*
X160638Y26544D01*
X160672Y26447D01*
X160701Y26348D01*
X160725Y26248D01*
X160744Y26147D01*
X160758Y26044D01*
X160766Y25942D01*
X160768Y25839D01*
Y24461D01*
X159784D01*
Y25839D01*
X159783Y25890D01*
X159779Y25942D01*
X159772Y25993D01*
X159763Y26043D01*
X159751Y26093D01*
X159736Y26143D01*
X159719Y26191D01*
X159699Y26239D01*
X159677Y26285D01*
X159652Y26331D01*
X159625Y26375D01*
X159596Y26417D01*
X159565Y26458D01*
X159531Y26497D01*
X159496Y26535D01*
X159459Y26570D01*
X159419Y26603D01*
X159379Y26635D01*
X159336Y26664D01*
X159292Y26691D01*
X159247Y26716D01*
X159200Y26738D01*
X159153Y26757D01*
X159104Y26775D01*
X159055Y26789D01*
X159005Y26801D01*
X158954Y26811D01*
X158903Y26817D01*
X158852Y26822D01*
X158800Y26823D01*
X158748Y26822D01*
X158697Y26817D01*
X158646Y26811D01*
X158595Y26801D01*
X158545Y26789D01*
X158496Y26775D01*
X158447Y26757D01*
X158400Y26738D01*
X158353Y26716D01*
X158308Y26691D01*
X158264Y26664D01*
X158221Y26635D01*
X158181Y26603D01*
X158141Y26570D01*
X158104Y26535D01*
X158069Y26497D01*
X158035Y26458D01*
X158004Y26417D01*
X157975Y26375D01*
X157948Y26331D01*
X157923Y26285D01*
X157901Y26239D01*
X157881Y26191D01*
X157864Y26143D01*
X157849Y26093D01*
X157837Y26043D01*
X157828Y25993D01*
X157821Y25942D01*
X157817Y25890D01*
X157816Y25839D01*
Y23083D01*
X157817Y23031D01*
X157821Y22980D01*
X157828Y22929D01*
X157837Y22878D01*
X157849Y22828D01*
X157864Y22779D01*
X157881Y22730D01*
X157901Y22682D01*
X157923Y22636D01*
X157948Y22591D01*
X157975Y22547D01*
X158004Y22504D01*
X158035Y22463D01*
X158069Y22424D01*
X158104Y22387D01*
X158141Y22351D01*
X158181Y22318D01*
X158221Y22286D01*
X158264Y22257D01*
X158308Y22230D01*
X158353Y22206D01*
X158400Y22184D01*
X158447Y22164D01*
X158496Y22147D01*
X158545Y22132D01*
X158595Y22120D01*
X158646Y22110D01*
X158697Y22104D01*
X158748Y22100D01*
X158800Y22098D01*
X158852Y22100D01*
X158903Y22104D01*
X158954Y22110D01*
X159005Y22120D01*
X159055Y22132D01*
X159104Y22147D01*
X159153Y22164D01*
X159200Y22184D01*
X159247Y22206D01*
X159292Y22230D01*
X159336Y22257D01*
X159379Y22286D01*
X159419Y22318D01*
X159459Y22351D01*
X159496Y22387D01*
X159531Y22424D01*
X159565Y22463D01*
X159596Y22504D01*
X159625Y22547D01*
X159652Y22591D01*
X159677Y22636D01*
X159699Y22682D01*
X159719Y22730D01*
X159736Y22779D01*
X159751Y22828D01*
X159763Y22878D01*
X159772Y22929D01*
X159779Y22980D01*
X159783Y23031D01*
X159784Y23083D01*
Y24421D01*
X160768D01*
Y23083D01*
X160766Y22980D01*
X160758Y22877D01*
X160744Y22775D01*
X160725Y22673D01*
X160701Y22573D01*
X160672Y22474D01*
X160638Y22377D01*
X160598Y22282D01*
X160554Y22189D01*
X160505Y22098D01*
X160451Y22011D01*
X160393Y21926D01*
X160330Y21844D01*
X160263Y21766D01*
X160192Y21691D01*
X160117Y21620D01*
X160039Y21553D01*
X159957Y21490D01*
X159872Y21432D01*
X159784Y21378D01*
X159694Y21329D01*
X159601Y21284D01*
X159505Y21245D01*
X159408Y21211D01*
X159309Y21181D01*
X159209Y21157D01*
X159108Y21138D01*
X159006Y21125D01*
X158903Y21117D01*
X158800Y21114D01*
X158697Y21117D01*
X158594Y21125D01*
X158492Y21138D01*
X158391Y21157D01*
X158291Y21181D01*
X158192Y21211D01*
X158095Y21245D01*
X157999Y21284D01*
X157906Y21329D01*
X157816Y21378D01*
X157728Y21432D01*
X157643Y21490D01*
X157561Y21553D01*
X157483Y21620D01*
X157408Y21691D01*
X157337Y21766D01*
X157270Y21844D01*
X157207Y21926D01*
X157149Y22011D01*
X157095Y22098D01*
X157046Y22189D01*
X157002Y22282D01*
X156962Y22377D01*
X156928Y22474D01*
X156899Y22573D01*
X156875Y22673D01*
X156856Y22775D01*
X156842Y22877D01*
X156834Y22980D01*
X156832Y23083D01*
Y25839D01*
X156834Y25942D01*
X156842Y26044D01*
X156856Y26147D01*
X156875Y26248D01*
X156899Y26348D01*
X156928Y26447D01*
X156962Y26544D01*
X157002Y26639D01*
X157046Y26732D01*
X157095Y26823D01*
X157149Y26911D01*
X157207Y26996D01*
X157270Y27077D01*
X157337Y27156D01*
X157408Y27231D01*
X157483Y27301D01*
X157561Y27368D01*
X157643Y27431D01*
X157728Y27490D01*
X157816Y27543D01*
X157906Y27593D01*
X157999Y27637D01*
X158095Y27676D01*
X158192Y27711D01*
X158291Y27740D01*
X158391Y27764D01*
X158492Y27783D01*
X158594Y27796D01*
X158697Y27804D01*
X158800Y27807D01*
X158903Y27804D01*
D02*
G37*
G36*
X67713Y22763D02*
X64918D01*
X64889Y22764D01*
X64860Y22766D01*
X64832Y22770D01*
X64803Y22775D01*
X64776Y22782D01*
X64748Y22790D01*
X64721Y22800D01*
X64694Y22811D01*
X64668Y22823D01*
X64643Y22837D01*
X64618Y22852D01*
X64594Y22868D01*
X64571Y22886D01*
X64549Y22905D01*
X64528Y22924D01*
X64508Y22945D01*
X64490Y22967D01*
X64472Y22990D01*
X64456Y23014D01*
X64441Y23039D01*
X64427Y23064D01*
X64415Y23090D01*
X64403Y23117D01*
X64394Y23144D01*
X64386Y23171D01*
X64379Y23200D01*
X64374Y23228D01*
X64370Y23257D01*
X64368Y23285D01*
X64367Y23314D01*
X64368Y23343D01*
X64370Y23372D01*
X64374Y23400D01*
X64379Y23429D01*
X64386Y23457D01*
X64394Y23484D01*
X64403Y23512D01*
X64415Y23538D01*
X64427Y23564D01*
X64441Y23590D01*
X64456Y23614D01*
X64472Y23638D01*
X64490Y23661D01*
X64508Y23683D01*
X64528Y23704D01*
X64549Y23724D01*
X64571Y23742D01*
X64594Y23760D01*
X64618Y23776D01*
X64643Y23791D01*
X64668Y23805D01*
X64694Y23818D01*
X64721Y23829D01*
X64748Y23838D01*
X64776Y23847D01*
X64803Y23853D01*
X64832Y23859D01*
X64860Y23862D01*
X64889Y23865D01*
X64918Y23865D01*
X67713D01*
Y22763D01*
D02*
G37*
G36*
X55577Y23865D02*
X55606Y23862D01*
X55634Y23859D01*
X55663Y23853D01*
X55691Y23847D01*
X55718Y23838D01*
X55746Y23829D01*
X55772Y23818D01*
X55798Y23805D01*
X55824Y23791D01*
X55848Y23776D01*
X55872Y23760D01*
X55895Y23742D01*
X55917Y23724D01*
X55938Y23704D01*
X55958Y23683D01*
X55976Y23661D01*
X55994Y23638D01*
X56010Y23614D01*
X56025Y23590D01*
X56039Y23564D01*
X56052Y23538D01*
X56063Y23512D01*
X56072Y23484D01*
X56080Y23457D01*
X56087Y23429D01*
X56092Y23400D01*
X56096Y23372D01*
X56099Y23343D01*
X56099Y23314D01*
X56099Y23285D01*
X56096Y23257D01*
X56092Y23228D01*
X56087Y23200D01*
X56080Y23171D01*
X56072Y23144D01*
X56063Y23117D01*
X56052Y23090D01*
X56039Y23064D01*
X56025Y23039D01*
X56010Y23014D01*
X55994Y22990D01*
X55976Y22967D01*
X55958Y22945D01*
X55938Y22924D01*
X55917Y22905D01*
X55895Y22886D01*
X55872Y22868D01*
X55848Y22852D01*
X55824Y22837D01*
X55798Y22823D01*
X55772Y22811D01*
X55746Y22800D01*
X55718Y22790D01*
X55691Y22782D01*
X55663Y22775D01*
X55634Y22770D01*
X55606Y22766D01*
X55577Y22764D01*
X55548Y22763D01*
X52753D01*
Y23865D01*
X55548D01*
X55577Y23865D01*
D02*
G37*
G36*
X192919Y12844D02*
X193022Y12836D01*
X193124Y12822D01*
X193225Y12803D01*
X193325Y12779D01*
X193424Y12750D01*
X193521Y12716D01*
X193616Y12676D01*
X193709Y12632D01*
X193800Y12583D01*
X193888Y12529D01*
X193973Y12471D01*
X194055Y12408D01*
X194133Y12341D01*
X194208Y12270D01*
X194279Y12195D01*
X194346Y12117D01*
X194408Y12035D01*
X194467Y11950D01*
X194520Y11862D01*
X194570Y11772D01*
X194614Y11679D01*
X194653Y11583D01*
X194688Y11486D01*
X194717Y11387D01*
X194741Y11287D01*
X194760Y11186D01*
X194773Y11084D01*
X194781Y10981D01*
X194784Y10878D01*
Y9500D01*
X193800D01*
Y10878D01*
X193799Y10930D01*
X193795Y10981D01*
X193788Y11032D01*
X193779Y11083D01*
X193766Y11133D01*
X193752Y11182D01*
X193735Y11231D01*
X193715Y11278D01*
X193693Y11325D01*
X193668Y11370D01*
X193641Y11414D01*
X193612Y11456D01*
X193581Y11497D01*
X193547Y11536D01*
X193512Y11574D01*
X193474Y11609D01*
X193435Y11643D01*
X193394Y11674D01*
X193352Y11703D01*
X193308Y11730D01*
X193263Y11755D01*
X193216Y11777D01*
X193168Y11797D01*
X193120Y11814D01*
X193070Y11829D01*
X193020Y11841D01*
X192970Y11850D01*
X192919Y11857D01*
X192867Y11861D01*
X192816Y11862D01*
X192764Y11861D01*
X192713Y11857D01*
X192662Y11850D01*
X192611Y11841D01*
X192561Y11829D01*
X192512Y11814D01*
X192463Y11797D01*
X192415Y11777D01*
X192369Y11755D01*
X192324Y11730D01*
X192280Y11703D01*
X192237Y11674D01*
X192196Y11643D01*
X192157Y11609D01*
X192120Y11574D01*
X192084Y11536D01*
X192051Y11497D01*
X192019Y11456D01*
X191990Y11414D01*
X191963Y11370D01*
X191939Y11325D01*
X191917Y11278D01*
X191897Y11231D01*
X191880Y11182D01*
X191865Y11133D01*
X191853Y11083D01*
X191844Y11032D01*
X191837Y10981D01*
X191833Y10930D01*
X191832Y10878D01*
Y8122D01*
X191833Y8071D01*
X191837Y8019D01*
X191844Y7968D01*
X191853Y7917D01*
X191865Y7867D01*
X191880Y7818D01*
X191897Y7769D01*
X191917Y7722D01*
X191939Y7675D01*
X191963Y7630D01*
X191990Y7586D01*
X192019Y7543D01*
X192051Y7503D01*
X192084Y7463D01*
X192120Y7426D01*
X192157Y7391D01*
X192196Y7357D01*
X192237Y7326D01*
X192280Y7297D01*
X192324Y7270D01*
X192369Y7245D01*
X192415Y7223D01*
X192463Y7203D01*
X192512Y7186D01*
X192561Y7171D01*
X192611Y7159D01*
X192662Y7150D01*
X192713Y7143D01*
X192764Y7139D01*
X192816Y7138D01*
X192867Y7139D01*
X192919Y7143D01*
X192970Y7150D01*
X193020Y7159D01*
X193070Y7171D01*
X193120Y7186D01*
X193168Y7203D01*
X193216Y7223D01*
X193263Y7245D01*
X193308Y7270D01*
X193352Y7297D01*
X193394Y7326D01*
X193435Y7357D01*
X193474Y7391D01*
X193512Y7426D01*
X193547Y7463D01*
X193581Y7503D01*
X193612Y7543D01*
X193641Y7586D01*
X193668Y7630D01*
X193693Y7675D01*
X193715Y7722D01*
X193735Y7769D01*
X193752Y7818D01*
X193766Y7867D01*
X193779Y7917D01*
X193788Y7968D01*
X193795Y8019D01*
X193799Y8071D01*
X193800Y8122D01*
Y9461D01*
X194784D01*
Y8122D01*
X194781Y8019D01*
X194773Y7916D01*
X194760Y7814D01*
X194741Y7713D01*
X194717Y7613D01*
X194688Y7514D01*
X194653Y7417D01*
X194614Y7321D01*
X194570Y7228D01*
X194520Y7138D01*
X194467Y7050D01*
X194408Y6965D01*
X194346Y6883D01*
X194279Y6805D01*
X194208Y6730D01*
X194133Y6659D01*
X194055Y6592D01*
X193973Y6530D01*
X193888Y6471D01*
X193800Y6417D01*
X193709Y6368D01*
X193616Y6324D01*
X193521Y6284D01*
X193424Y6250D01*
X193325Y6221D01*
X193225Y6197D01*
X193124Y6178D01*
X193022Y6164D01*
X192919Y6156D01*
X192816Y6154D01*
X192713Y6156D01*
X192610Y6164D01*
X192508Y6178D01*
X192406Y6197D01*
X192306Y6221D01*
X192207Y6250D01*
X192110Y6284D01*
X192015Y6324D01*
X191922Y6368D01*
X191832Y6417D01*
X191744Y6471D01*
X191659Y6530D01*
X191577Y6592D01*
X191499Y6659D01*
X191424Y6730D01*
X191353Y6805D01*
X191286Y6883D01*
X191223Y6965D01*
X191165Y7050D01*
X191111Y7138D01*
X191062Y7228D01*
X191017Y7321D01*
X190978Y7417D01*
X190944Y7514D01*
X190914Y7613D01*
X190890Y7713D01*
X190872Y7814D01*
X190858Y7916D01*
X190850Y8019D01*
X190847Y8122D01*
Y10878D01*
X190850Y10981D01*
X190858Y11084D01*
X190872Y11186D01*
X190890Y11287D01*
X190914Y11387D01*
X190944Y11486D01*
X190978Y11583D01*
X191017Y11679D01*
X191062Y11772D01*
X191111Y11862D01*
X191165Y11950D01*
X191223Y12035D01*
X191286Y12117D01*
X191353Y12195D01*
X191424Y12270D01*
X191499Y12341D01*
X191577Y12408D01*
X191659Y12471D01*
X191744Y12529D01*
X191832Y12583D01*
X191922Y12632D01*
X192015Y12676D01*
X192110Y12716D01*
X192207Y12750D01*
X192306Y12779D01*
X192406Y12803D01*
X192508Y12822D01*
X192610Y12836D01*
X192713Y12844D01*
X192816Y12846D01*
X192919Y12844D01*
D02*
G37*
G36*
X158903D02*
X159006Y12836D01*
X159108Y12822D01*
X159209Y12803D01*
X159309Y12779D01*
X159408Y12750D01*
X159505Y12716D01*
X159601Y12676D01*
X159694Y12632D01*
X159784Y12583D01*
X159872Y12529D01*
X159957Y12471D01*
X160039Y12408D01*
X160117Y12341D01*
X160192Y12270D01*
X160263Y12195D01*
X160330Y12117D01*
X160393Y12035D01*
X160451Y11950D01*
X160505Y11862D01*
X160554Y11772D01*
X160598Y11679D01*
X160638Y11583D01*
X160672Y11486D01*
X160701Y11387D01*
X160725Y11287D01*
X160744Y11186D01*
X160758Y11084D01*
X160766Y10981D01*
X160768Y10878D01*
Y9500D01*
X159784D01*
Y10878D01*
X159783Y10930D01*
X159779Y10981D01*
X159772Y11032D01*
X159763Y11083D01*
X159751Y11133D01*
X159736Y11182D01*
X159719Y11231D01*
X159699Y11278D01*
X159677Y11325D01*
X159652Y11370D01*
X159625Y11414D01*
X159596Y11456D01*
X159565Y11497D01*
X159531Y11536D01*
X159496Y11574D01*
X159459Y11609D01*
X159419Y11643D01*
X159379Y11674D01*
X159336Y11703D01*
X159292Y11730D01*
X159247Y11755D01*
X159200Y11777D01*
X159153Y11797D01*
X159104Y11814D01*
X159055Y11829D01*
X159005Y11841D01*
X158954Y11850D01*
X158903Y11857D01*
X158852Y11861D01*
X158800Y11862D01*
X158748Y11861D01*
X158697Y11857D01*
X158646Y11850D01*
X158595Y11841D01*
X158545Y11829D01*
X158496Y11814D01*
X158447Y11797D01*
X158400Y11777D01*
X158353Y11755D01*
X158308Y11730D01*
X158264Y11703D01*
X158221Y11674D01*
X158181Y11643D01*
X158141Y11609D01*
X158104Y11574D01*
X158069Y11536D01*
X158035Y11497D01*
X158004Y11456D01*
X157975Y11414D01*
X157948Y11370D01*
X157923Y11325D01*
X157901Y11278D01*
X157881Y11231D01*
X157864Y11182D01*
X157849Y11133D01*
X157837Y11083D01*
X157828Y11032D01*
X157821Y10981D01*
X157817Y10930D01*
X157816Y10878D01*
Y8122D01*
X157817Y8071D01*
X157821Y8019D01*
X157828Y7968D01*
X157837Y7917D01*
X157849Y7867D01*
X157864Y7818D01*
X157881Y7769D01*
X157901Y7722D01*
X157923Y7675D01*
X157948Y7630D01*
X157975Y7586D01*
X158004Y7543D01*
X158035Y7503D01*
X158069Y7463D01*
X158104Y7426D01*
X158141Y7391D01*
X158181Y7357D01*
X158221Y7326D01*
X158264Y7297D01*
X158308Y7270D01*
X158353Y7245D01*
X158400Y7223D01*
X158447Y7203D01*
X158496Y7186D01*
X158545Y7171D01*
X158595Y7159D01*
X158646Y7150D01*
X158697Y7143D01*
X158748Y7139D01*
X158800Y7138D01*
X158852Y7139D01*
X158903Y7143D01*
X158954Y7150D01*
X159005Y7159D01*
X159055Y7171D01*
X159104Y7186D01*
X159153Y7203D01*
X159200Y7223D01*
X159247Y7245D01*
X159292Y7270D01*
X159336Y7297D01*
X159379Y7326D01*
X159419Y7357D01*
X159459Y7391D01*
X159496Y7426D01*
X159531Y7463D01*
X159565Y7503D01*
X159596Y7543D01*
X159625Y7586D01*
X159652Y7630D01*
X159677Y7675D01*
X159699Y7722D01*
X159719Y7769D01*
X159736Y7818D01*
X159751Y7867D01*
X159763Y7917D01*
X159772Y7968D01*
X159779Y8019D01*
X159783Y8071D01*
X159784Y8122D01*
Y9461D01*
X160768D01*
Y8122D01*
X160766Y8019D01*
X160758Y7916D01*
X160744Y7814D01*
X160725Y7713D01*
X160701Y7613D01*
X160672Y7514D01*
X160638Y7417D01*
X160598Y7321D01*
X160554Y7228D01*
X160505Y7138D01*
X160451Y7050D01*
X160393Y6965D01*
X160330Y6883D01*
X160263Y6805D01*
X160192Y6730D01*
X160117Y6659D01*
X160039Y6592D01*
X159957Y6530D01*
X159872Y6471D01*
X159784Y6417D01*
X159694Y6368D01*
X159601Y6324D01*
X159505Y6284D01*
X159408Y6250D01*
X159309Y6221D01*
X159209Y6197D01*
X159108Y6178D01*
X159006Y6164D01*
X158903Y6156D01*
X158800Y6154D01*
X158697Y6156D01*
X158594Y6164D01*
X158492Y6178D01*
X158391Y6197D01*
X158291Y6221D01*
X158192Y6250D01*
X158095Y6284D01*
X157999Y6324D01*
X157906Y6368D01*
X157816Y6417D01*
X157728Y6471D01*
X157643Y6530D01*
X157561Y6592D01*
X157483Y6659D01*
X157408Y6730D01*
X157337Y6805D01*
X157270Y6883D01*
X157207Y6965D01*
X157149Y7050D01*
X157095Y7138D01*
X157046Y7228D01*
X157002Y7321D01*
X156962Y7417D01*
X156928Y7514D01*
X156899Y7613D01*
X156875Y7713D01*
X156856Y7814D01*
X156842Y7916D01*
X156834Y8019D01*
X156832Y8122D01*
Y10878D01*
X156834Y10981D01*
X156842Y11084D01*
X156856Y11186D01*
X156875Y11287D01*
X156899Y11387D01*
X156928Y11486D01*
X156962Y11583D01*
X157002Y11679D01*
X157046Y11772D01*
X157095Y11862D01*
X157149Y11950D01*
X157207Y12035D01*
X157270Y12117D01*
X157337Y12195D01*
X157408Y12270D01*
X157483Y12341D01*
X157561Y12408D01*
X157643Y12471D01*
X157728Y12529D01*
X157816Y12583D01*
X157906Y12632D01*
X157999Y12676D01*
X158095Y12716D01*
X158192Y12750D01*
X158291Y12779D01*
X158391Y12803D01*
X158492Y12822D01*
X158594Y12836D01*
X158697Y12844D01*
X158800Y12846D01*
X158903Y12844D01*
D02*
G37*
D10*
X54327Y25381D02*
X54426Y25283D01*
X53934Y25381D02*
X54327D01*
X53845Y25470D02*
X53934Y25381D01*
X53845Y25470D02*
Y25520D01*
X45465D02*
X53845D01*
X50265Y27796D02*
X50841Y27220D01*
X54395D02*
X54426Y27251D01*
X50265Y27796D02*
Y29220D01*
X50841Y27220D02*
X54395D01*
X50265Y29220D02*
X54426D01*
X39765D02*
X50265D01*
D16*
X201404Y98600D02*
Y104598D01*
X204403D01*
X205403Y103598D01*
Y101599D01*
X204403Y100599D01*
X201404D01*
X203404D02*
X205403Y98600D01*
X210401D02*
X208402D01*
X207402Y99600D01*
Y101599D01*
X208402Y102599D01*
X210401D01*
X211401Y101599D01*
Y100599D01*
X207402D01*
X213400Y102599D02*
X215400Y98600D01*
X217399Y102599D01*
X225396Y98600D02*
X227396D01*
X226396D01*
Y104598D01*
X225396Y103598D01*
X184600Y113098D02*
Y107100D01*
X187599D01*
X188599Y108100D01*
Y109099D01*
X187599Y110099D01*
X184600D01*
X187599D01*
X188599Y111099D01*
Y112098D01*
X187599Y113098D01*
X184600D01*
X190598Y107100D02*
X192597D01*
X191598D01*
Y111099D01*
X190598D01*
X195596Y107100D02*
Y113098D01*
Y109099D02*
X198595Y111099D01*
X195596Y109099D02*
X198595Y107100D01*
X204593D02*
X202594D01*
X201594Y108100D01*
Y110099D01*
X202594Y111099D01*
X204593D01*
X205593Y110099D01*
Y109099D01*
X201594D01*
X207593Y111099D02*
Y107100D01*
Y109099D01*
X208592Y110099D01*
X209592Y111099D01*
X210592D01*
X213591Y113098D02*
Y107100D01*
X216590D01*
X217589Y108100D01*
Y109099D01*
X216590Y110099D01*
X213591D01*
X216590D01*
X217589Y111099D01*
Y112098D01*
X216590Y113098D01*
X213591D01*
X219589Y107100D02*
X221588D01*
X220588D01*
Y113098D01*
X219589D01*
X224587Y107100D02*
X226586D01*
X225587D01*
Y111099D01*
X224587D01*
X229585Y107100D02*
Y111099D01*
X232585D01*
X233584Y110099D01*
Y107100D01*
X235583D02*
Y113098D01*
Y109099D02*
X238582Y111099D01*
X235583Y109099D02*
X238582Y107100D01*
X244581D02*
X242581D01*
X241582Y108100D01*
Y110099D01*
X242581Y111099D01*
X244581D01*
X245580Y110099D01*
Y109099D01*
X241582D01*
X247580Y111099D02*
Y107100D01*
Y109099D01*
X248579Y110099D01*
X249579Y111099D01*
X250579D01*
D17*
X58465Y38620D02*
D03*
X61221D02*
D03*
D18*
X215947Y74900D02*
D03*
X221853D02*
D03*
X197047Y77000D02*
D03*
X202953D02*
D03*
X111200Y173900D02*
D03*
X117105D02*
D03*
X117006Y180900D02*
D03*
X111100D02*
D03*
X70647Y221600D02*
D03*
X76553D02*
D03*
X227147Y75100D02*
D03*
X233053D02*
D03*
D19*
X82932Y76941D02*
D03*
X98732Y161741D02*
D03*
X95232Y114741D02*
D03*
D20*
X82932Y82059D02*
D03*
X76868Y79500D02*
D03*
X92668Y164300D02*
D03*
X98732Y166859D02*
D03*
X95232Y119859D02*
D03*
X89168Y117300D02*
D03*
D21*
X66665Y207740D02*
D03*
Y200260D02*
D03*
X57335D02*
D03*
Y204000D02*
D03*
Y207740D02*
D03*
D22*
X133465Y40468D02*
D03*
Y46571D02*
D03*
X33100Y204949D02*
D03*
Y211051D02*
D03*
X126265Y40617D02*
D03*
Y46720D02*
D03*
X100100Y214102D02*
D03*
Y208000D02*
D03*
X108600Y214102D02*
D03*
Y208000D02*
D03*
X187800Y55051D02*
D03*
Y48949D02*
D03*
X89600Y214051D02*
D03*
Y207949D02*
D03*
X119765Y46771D02*
D03*
Y40668D02*
D03*
X203800Y48949D02*
D03*
Y55051D02*
D03*
D23*
X232400Y57700D02*
D03*
Y50300D02*
D03*
X222200D02*
D03*
Y54000D02*
D03*
Y57700D02*
D03*
D24*
X172800Y186551D02*
D03*
X165576D02*
D03*
X158351D02*
D03*
X172800Y193776D02*
D03*
X165576D02*
D03*
X158351D02*
D03*
X172800Y201000D02*
D03*
X165576D02*
D03*
X158351D02*
D03*
D25*
X202977Y223303D02*
D03*
Y218303D02*
D03*
Y213303D02*
D03*
Y208303D02*
D03*
Y203303D02*
D03*
Y198303D02*
D03*
Y193303D02*
D03*
Y188303D02*
D03*
Y183303D02*
D03*
Y178303D02*
D03*
Y173303D02*
D03*
Y168303D02*
D03*
Y163303D02*
D03*
Y158303D02*
D03*
X136048D02*
D03*
Y163303D02*
D03*
Y168303D02*
D03*
Y173303D02*
D03*
Y178303D02*
D03*
Y183303D02*
D03*
Y188303D02*
D03*
Y193303D02*
D03*
Y198303D02*
D03*
Y203303D02*
D03*
Y208303D02*
D03*
Y213303D02*
D03*
Y218303D02*
D03*
Y223303D02*
D03*
D26*
X192013Y154366D02*
D03*
X187013D02*
D03*
X182013D02*
D03*
X177013D02*
D03*
X172013D02*
D03*
X167013D02*
D03*
X162013D02*
D03*
X157013D02*
D03*
X152013D02*
D03*
X147013D02*
D03*
D27*
X54426Y31188D02*
D03*
Y29220D02*
D03*
Y27251D02*
D03*
Y25283D02*
D03*
Y23314D02*
D03*
X66040D02*
D03*
Y25283D02*
D03*
Y27251D02*
D03*
Y29220D02*
D03*
Y31188D02*
D03*
D28*
X60233Y27251D02*
D03*
D29*
X178300Y36047D02*
D03*
Y41953D02*
D03*
X164800Y39953D02*
D03*
Y34047D02*
D03*
X209400Y61147D02*
D03*
Y67053D02*
D03*
X203300Y67453D02*
D03*
Y61547D02*
D03*
X30765Y30267D02*
D03*
Y36172D02*
D03*
X93765Y30220D02*
D03*
Y36125D02*
D03*
X93765Y42172D02*
D03*
Y48078D02*
D03*
D30*
X186635Y24461D02*
D03*
X164981D02*
D03*
D31*
X181792D02*
D03*
X169824D02*
D03*
D32*
X173839D02*
D03*
X177776D02*
D03*
D33*
X191339Y9500D02*
D03*
X157324D02*
D03*
X191339Y24461D02*
D03*
X157324D02*
D03*
D34*
X110649Y167800D02*
D03*
X116751D02*
D03*
X223749Y38500D02*
D03*
X229851D02*
D03*
X102213Y40720D02*
D03*
X108316D02*
D03*
X75713Y16220D02*
D03*
X81816D02*
D03*
D64*
X197047Y76606D02*
Y77000D01*
X193080Y72639D02*
X197047Y76606D01*
X193080Y69580D02*
Y72639D01*
X192500Y69000D02*
X193080Y69580D01*
X104765Y46720D02*
X126265D01*
X31918D02*
X86858D01*
X209400Y67053D02*
X209794Y67447D01*
X212794D01*
X212800Y67453D01*
X209400Y61147D02*
X209794D01*
X209006D02*
X209400D01*
X209794D02*
X213241Y57700D01*
X203300Y61547D02*
X208606D01*
X209006Y61147D01*
X212800Y67453D02*
Y71753D01*
X215160Y74113D01*
X215553D01*
X215947Y74506D01*
Y74900D01*
X227047Y75000D02*
X227147Y75100D01*
X221953Y75000D02*
X227047D01*
X221853Y74900D02*
X221953Y75000D01*
X164935Y14353D02*
Y24507D01*
X119765Y40617D02*
X126265D01*
X119076Y40720D02*
X119471Y40324D01*
X202953Y77000D02*
X203300Y76653D01*
X227147Y53900D02*
Y75100D01*
X203300Y67453D02*
Y76653D01*
X192500Y69000D02*
Y69820D01*
X215700Y38900D02*
X223349D01*
X223749Y38500D01*
X207351Y47249D02*
X215700Y38900D01*
X187013Y132639D02*
Y154366D01*
X171500Y117126D02*
X187013Y132639D01*
X152013Y144487D02*
Y154366D01*
Y144487D02*
X171500Y125000D01*
X139602Y133000D02*
X148937Y123665D01*
X136000Y133000D02*
X139602D01*
X131755Y132973D02*
X141063Y123665D01*
X130527Y132973D02*
X131755D01*
X38747Y100000D02*
Y129000D01*
Y82394D02*
Y100000D01*
X65000D02*
X74000Y91000D01*
X38747Y100000D02*
X65000D01*
X44000Y91000D02*
X45158Y89842D01*
Y70570D02*
Y89842D01*
X74750Y138750D02*
Y146750D01*
Y130750D02*
Y138750D01*
X38597Y138650D02*
Y148150D01*
Y129150D02*
Y138650D01*
X38697Y138750D02*
X74750D01*
X38597Y138650D02*
X38697Y138750D01*
X74500Y147000D02*
X74750Y146750D01*
Y130750D02*
X75000Y130500D01*
X147013Y140500D02*
Y154366D01*
Y165055D01*
X136000Y133000D02*
X136048Y133048D01*
Y158303D01*
X130527Y132973D02*
Y160731D01*
X131455Y161659D02*
X132239D01*
X130527Y160731D02*
X131455Y161659D01*
X133883Y163303D02*
X136048D01*
X132239Y161659D02*
X133883Y163303D01*
X101141Y76941D02*
X127500Y103300D01*
X128653Y168303D02*
X136048D01*
X127500Y167150D02*
X128653Y168303D01*
X127500Y103300D02*
Y167150D01*
X116751Y167800D02*
X117001Y168050D01*
X122600Y167400D02*
X123000Y167000D01*
X117151Y167400D02*
X122600D01*
X202977Y158303D02*
X240803D01*
X241000Y158500D01*
X30765Y74411D02*
X38747Y82394D01*
X30765Y45567D02*
Y74411D01*
X118611Y26420D02*
X121563Y23468D01*
Y6835D02*
Y23468D01*
X30765Y24373D02*
X34618Y20520D01*
X169188Y201000D02*
X172800D01*
X161963D02*
X165576D01*
X158351D02*
X161963D01*
Y193776D02*
X165576D01*
X158351D02*
X161963D01*
X158351Y190163D02*
Y193776D01*
Y186551D02*
Y190163D01*
Y197388D02*
Y201000D01*
Y193776D02*
Y197388D01*
X169188Y193776D02*
X172800D01*
X165576D02*
X169188D01*
X165576Y197388D02*
Y201000D01*
Y193776D02*
Y197388D01*
Y190163D02*
Y193776D01*
Y186551D02*
Y190163D01*
X169188Y186551D02*
X172800D01*
X165576D02*
X169188D01*
X161963D02*
X165576D01*
X158351D02*
X161963D01*
X172800Y197388D02*
Y201000D01*
Y193776D02*
Y197388D01*
Y186551D02*
Y190163D01*
X116751Y167800D02*
X117151Y167400D01*
X126303Y213303D02*
X136048D01*
X118000Y205000D02*
X126303Y213303D01*
X127697Y188303D02*
X136048D01*
X121000Y195000D02*
X127697Y188303D01*
X96700Y186200D02*
X102000Y180900D01*
X111100D01*
X110924Y168076D02*
Y173782D01*
X110806Y173900D02*
X110924Y173782D01*
X101300Y173900D02*
X110806D01*
X71200Y204000D02*
X101300Y173900D01*
X122900Y180800D02*
X123720D01*
X135851Y183500D02*
X136048Y183303D01*
X126224D02*
X136048D01*
X123720Y180800D02*
X126224Y183303D01*
X70647Y221206D02*
Y221600D01*
X64441Y215000D02*
X70647Y221206D01*
X64000Y215000D02*
X64441D01*
X71200Y204000D02*
X75149Y207949D01*
X57335Y204000D02*
X71200D01*
X47205D02*
X57335D01*
X40300Y210906D02*
X47205Y204000D01*
X55858Y207740D02*
X57335D01*
X52500Y211098D02*
X55858Y207740D01*
X52500Y211098D02*
Y221000D01*
X66665Y207740D02*
X68142D01*
X74453Y214051D01*
X89600D01*
X33100Y204949D02*
X42479D01*
X47168Y200260D01*
X57335D01*
X74600Y214303D02*
X74600Y214303D01*
X126265Y40617D02*
X126339Y40543D01*
X133390D01*
X133465Y40468D01*
X126265Y46720D02*
X126339Y46645D01*
X133390D01*
X133465Y46571D01*
X52100Y220600D02*
X52500Y221000D01*
X35200Y220600D02*
X52100D01*
X227147Y48020D02*
Y53900D01*
X222200Y54000D02*
X227047D01*
X227147Y53900D01*
X223749Y44622D02*
X227147Y48020D01*
X233053Y57816D02*
Y75100D01*
X232937Y57700D02*
X233053Y57816D01*
X232400Y57700D02*
X232937D01*
X110649Y109100D02*
Y135276D01*
Y97049D02*
Y109100D01*
X115700D02*
X116200Y108600D01*
X110649Y109100D02*
X115700D01*
X82932Y76941D02*
X101141D01*
X151000Y69253D02*
X177513Y42740D01*
X151000Y47453D02*
Y69253D01*
X177513Y42347D02*
X177906Y41953D01*
X177513Y42347D02*
Y42740D01*
X177906Y41953D02*
X178300D01*
X110000Y134627D02*
X110649Y135276D01*
X96539Y121166D02*
X110000Y134627D01*
X207351Y47249D02*
Y48949D01*
X105916Y152100D02*
X106200Y152384D01*
Y155257D01*
X100039Y161418D02*
X106200Y155257D01*
X95232Y114741D02*
X96216D01*
X98600Y107500D02*
Y112357D01*
X96216Y114741D02*
X98600Y112357D01*
X112801Y218303D02*
X136048D01*
X108600Y214102D02*
X112801Y218303D01*
X38054Y148694D02*
X38597Y148150D01*
X33100Y180400D02*
X38054Y175446D01*
X45180Y70383D02*
X45263Y70465D01*
X45158Y70570D02*
X45263Y70465D01*
X44708Y117020D02*
X44763Y116965D01*
X52637D02*
X52804Y117133D01*
X89001D02*
X89168Y117300D01*
X95232Y119859D02*
X96216D01*
X96539Y120182D01*
X110649Y167800D02*
X110924Y168076D01*
X110000Y167151D02*
X110649Y167800D01*
X117055Y173950D02*
X117105Y173900D01*
X117404Y173602D01*
X117006Y180900D02*
X117055Y180850D01*
X135750Y173602D02*
X136048Y173303D01*
Y223303D02*
X136835Y222516D01*
X148679Y210672D02*
Y213621D01*
X164935Y14353D02*
X166088Y13200D01*
X170414Y20086D02*
Y23870D01*
X169824Y24461D02*
X170414Y23870D01*
X164800Y39953D02*
X165194Y39559D01*
X168541D02*
X169300Y38800D01*
X165194Y39559D02*
X168541D01*
X33100Y180400D02*
Y198820D01*
Y211051D02*
X33246Y210906D01*
X178170Y36047D02*
X178300D01*
X177776Y35653D02*
X178170Y36047D01*
X181792Y19153D02*
Y24461D01*
X182044Y45303D02*
X184154D01*
X70647Y221600D02*
Y221994D01*
X70253Y222387D02*
X70647Y221994D01*
X76400Y214303D02*
X76553Y214456D01*
X229851Y38500D02*
X230300Y38051D01*
Y34653D02*
Y38051D01*
X100074Y207974D02*
X100100Y208000D01*
X100074Y214077D02*
X100100Y214102D01*
X30765Y45567D02*
X31918Y46720D01*
X39265Y29720D02*
X39765Y29220D01*
X61221Y38620D02*
X64565D01*
X80265Y24545D02*
X81816Y22994D01*
X87358Y47220D02*
X87561Y47423D01*
X93371Y30220D02*
X93765D01*
Y42172D02*
X93765Y42172D01*
Y48078D02*
X93906Y48220D01*
X100761Y42172D02*
X102213Y40720D01*
X103265Y48220D02*
X104765Y46720D01*
X119471Y40324D02*
X119765Y40031D01*
X118524Y39979D02*
X119127D01*
X119471Y40324D01*
X38597Y129150D02*
X38747Y129000D01*
X44653D02*
X44708Y128945D01*
X96539Y120182D02*
Y121166D01*
X117055Y173950D02*
Y180850D01*
X158351Y176394D02*
Y186551D01*
X164891Y24551D02*
X164935Y24507D01*
X164800Y34047D02*
X164891Y33957D01*
X169300Y33251D02*
Y38800D01*
X27600Y204320D02*
Y213000D01*
Y204320D02*
X33100Y198820D01*
Y204949D01*
X175380Y64920D02*
X177931D01*
X174800Y65500D02*
X175380Y64920D01*
X180639Y18000D02*
X181792Y19153D01*
X182383Y25051D02*
Y27306D01*
X181792Y24461D02*
X182383Y25051D01*
X76553Y214456D02*
Y221600D01*
X223749Y39500D02*
Y44622D01*
X229147Y33500D02*
X230300Y34653D01*
X232400Y41049D02*
Y50300D01*
X229851Y38500D02*
X232400Y41049D01*
X30765Y24373D02*
Y30267D01*
Y36172D02*
Y45567D01*
X81816Y16220D02*
Y22994D01*
X93765Y30220D02*
X97565Y26420D01*
X93765Y36125D02*
Y42172D01*
X93371Y36125D02*
X93765D01*
X118611Y26420D02*
X119765Y27573D01*
X44708Y117020D02*
Y128945D01*
X44763Y148710D02*
Y164465D01*
X110000Y134627D02*
Y167151D01*
X164891Y24551D02*
Y33957D01*
X173839Y24461D02*
Y28712D01*
X177776Y24461D02*
Y35653D01*
X119765Y27573D02*
Y40031D01*
X38054Y148694D02*
Y175446D01*
X53137Y70465D02*
X66850D01*
X44039Y116241D02*
X44763Y116965D01*
X44353Y148300D02*
X44763Y148710D01*
X75884Y79500D02*
X76868D01*
X98732Y166859D02*
X99716D01*
X100657Y167800D01*
X136835Y222516D02*
X139785D01*
X185482Y13200D02*
X186635Y14353D01*
X33246Y210906D02*
X40300D01*
X203800Y55051D02*
X204268Y54583D01*
X206917D01*
X203300Y61547D02*
X203300Y61547D01*
X202906Y67453D02*
X203300D01*
X202977Y208303D02*
X217027D01*
X202977Y203303D02*
X203526Y203852D01*
X227552D01*
X228100Y204400D01*
X220998Y212274D02*
X228100D01*
X89600Y207949D02*
X89626Y207974D01*
X75149Y207949D02*
X89600D01*
X89348Y214303D02*
X89600Y214051D01*
X89626Y214077D01*
X74600Y214303D02*
X76400D01*
X89348D01*
X100100Y208000D02*
X108600D01*
X100100Y214102D02*
X108600D01*
X74765Y22370D02*
X75713Y21421D01*
X54865Y38620D02*
X58465D01*
X81816Y22994D02*
X86145D01*
X93765Y42172D02*
X100761D01*
X88217Y48078D02*
X93765D01*
X93906Y48220D02*
X103265D01*
X82932Y82059D02*
X95659D01*
X151000Y47453D02*
X164406Y34047D01*
X164800D01*
X147013Y165055D02*
X158351Y176394D01*
X148679Y210672D02*
X158351Y201000D01*
X170414Y20086D02*
X172500Y18000D01*
X180639D01*
X186635Y14353D02*
Y24461D01*
X178694Y41953D02*
X182044Y45303D01*
X178300Y41953D02*
X178694D01*
X184154Y45303D02*
X187800Y48949D01*
X213241Y57700D02*
X222200D01*
X206917Y54583D02*
X211200Y50300D01*
X222200D01*
X203800Y48949D02*
X207351D01*
X219800Y33500D02*
X229147D01*
X217027Y208303D02*
X220998Y212274D01*
X75713Y16220D02*
Y21421D01*
X86145Y22994D02*
X93371Y30220D01*
X139785Y222516D02*
X148679Y213621D01*
X169300Y33251D02*
X173839Y28712D01*
X182383Y27306D02*
X188576Y33500D01*
X177931Y64920D02*
X187800Y55051D01*
X172800Y201000D02*
X195103Y223303D01*
X219800Y24000D02*
Y33500D01*
X84465Y27220D02*
X93371Y36125D01*
X52804Y117133D02*
X89001D01*
X52637Y164465D02*
X91700D01*
X100657Y167800D02*
X110649D01*
X166088Y13200D02*
X185482D01*
X187800Y55051D02*
X203800D01*
X195103Y223303D02*
X202977D01*
X89626Y207974D02*
X100074D01*
X89626Y214077D02*
X100074D01*
X97565Y26420D02*
X118611D01*
X108316Y40720D02*
X119076D01*
X66850Y70465D02*
X75884Y79500D01*
X187800Y48949D02*
X203800D01*
X188576Y33500D02*
X219800D01*
X27600Y213000D02*
X35200Y220600D01*
X95659Y82059D02*
X110649Y97049D01*
X117404Y173602D02*
X135750D01*
D65*
X51631Y20520D02*
X54426Y23314D01*
X34618Y20520D02*
X51631D01*
X54229Y31188D02*
X54426D01*
X54032Y31385D02*
X54229Y31188D01*
X54032Y31385D02*
Y31582D01*
X52665Y32950D02*
X54032Y31582D01*
X66040Y31188D02*
X66168D01*
X66365Y31385D01*
X64565Y38620D02*
X66365Y36820D01*
X79527Y25283D02*
X80265Y24545D01*
X87561Y47423D02*
X88217Y48078D01*
X86858Y46720D02*
X87358Y47220D01*
X52665Y32950D02*
Y36420D01*
X54865Y38620D01*
X66365Y31385D02*
Y36820D01*
X67487Y22370D02*
X74765D01*
X66543Y23314D02*
X67487Y22370D01*
X66040Y29220D02*
X69358D01*
X67713Y27220D02*
X84465D01*
X66040Y25283D02*
X79527D01*
X69358Y29220D02*
X86858Y46720D01*
D66*
X241000Y138500D02*
D03*
D67*
Y158500D02*
D03*
D68*
X228100Y204400D02*
D03*
X171500Y125000D02*
D03*
D69*
X228100Y212274D02*
D03*
X171500Y117126D02*
D03*
X148937Y123665D02*
D03*
X121563Y6835D02*
D03*
X52637Y164465D02*
D03*
Y116965D02*
D03*
X53137Y70465D02*
D03*
D70*
X141063Y123665D02*
D03*
X129437Y6835D02*
D03*
X44763Y164465D02*
D03*
Y116965D02*
D03*
X45263Y70465D02*
D03*
D71*
X74500Y147000D02*
D03*
X44500D02*
D03*
X75000Y130500D02*
D03*
X45000D02*
D03*
X74000Y91000D02*
D03*
X44000D02*
D03*
D72*
X169188Y186551D02*
D03*
X161963D02*
D03*
X172800Y190163D02*
D03*
X165576D02*
D03*
X158351D02*
D03*
X169188Y193776D02*
D03*
X161963D02*
D03*
X172800Y197388D02*
D03*
X165576D02*
D03*
X158351D02*
D03*
X169188Y201000D02*
D03*
X161963D02*
D03*
D73*
X62202Y29220D02*
D03*
X58265D02*
D03*
X60233Y27251D02*
D03*
X58265Y25283D02*
D03*
X62202D02*
D03*
D74*
X192816Y9500D02*
D03*
X158800D02*
D03*
X192816Y24461D02*
D03*
X158800D02*
D03*
D75*
X166600Y95600D02*
D03*
D76*
X192500Y69000D02*
D03*
X147013Y140500D02*
D03*
X123000Y167000D02*
D03*
X45465Y25520D02*
D03*
X121000Y195000D02*
D03*
X96700Y186200D02*
D03*
X122900Y180800D02*
D03*
X64000Y215000D02*
D03*
X118000Y205000D02*
D03*
X52500Y221000D02*
D03*
X151000Y69253D02*
D03*
X116200Y108600D02*
D03*
X215700Y38900D02*
D03*
X105916Y152100D02*
D03*
X98600Y107500D02*
D03*
X174800Y65500D02*
D03*
X39265Y29720D02*
D03*
X219800Y24000D02*
D03*
M02*
