M48
;Layer_Color=9474304
;FILE_FORMAT=2:5
INCH,LZ
;TYPE=PLATED
T1F00S00C0.00787
T2F00S00C0.01181
T3F00S00C0.02800
T4F00S00C0.03346
T5F00S00C0.03386
T6F00S00C0.04331
T7F00S00C0.05906
;TYPE=NON_PLATED
T8F00S00C0.01968
%
T01
X0161963Y0186551
X0169188
X01728Y0190163
X0169188Y0193776
X0165576Y0190163
X0161963Y0193776
X0158351Y0190163
Y0197388
X0165576
X0161963Y0201
X0169188
X01728Y0197388
T02
X0058265Y0025283
Y002922
X0062202
X0060233Y0027251
X0062202Y0025283
T03
X0039265Y002972
X0045465Y002552
X02198Y0024
X02157Y00389
X01925Y0069
X01748Y00655
X0151Y0069253
X01162Y01086
X00986Y01075
X0105916Y01521
X0123Y0167
X01229Y01808
X0121Y0195
X0118Y0205
X00967Y01862
X0147013Y01405
X0064Y0215
X00525Y0221
T04
X0044Y0091
X0074
X0075Y01305
X00745Y0147
X00445
X0045Y01305
T05
X0121563Y0006835
X0129437
X02281Y02044
X01715Y0125
Y0117126
X0148937Y0123665
X0141063
X0052637Y0116965
X0044763
X0045263Y0070465
X0053137
X0052637Y0164465
X0044763
X02281Y0212274
T06
X0241Y01385
Y01585
T07
X01666Y00956
T08
X01588Y00095
Y0024461
X0192816
Y00095
M30
