G04*
G04 #@! TF.GenerationSoftware,Altium Limited,Altium Designer,20.1.14 (287)*
G04*
G04 Layer_Color=16711935*
%FSLAX25Y25*%
%MOIN*%
G70*
G04*
G04 #@! TF.SameCoordinates,9BBB710E-F05C-4809-8D11-837B32203116*
G04*
G04*
G04 #@! TF.FilePolarity,Negative*
G04*
G01*
G75*
%ADD53C,0.08083*%
%ADD54R,0.08083X0.08083*%
%ADD55R,0.06186X0.06186*%
%ADD56C,0.06186*%
%ADD57R,0.06186X0.06186*%
%ADD58C,0.06312*%
%ADD59C,0.01981*%
%ADD60C,0.02375*%
%ADD61C,0.02769*%
%ADD62C,0.08674*%
%ADD63C,0.05800*%
G36*
X158924Y13237D02*
X159047Y13227D01*
X159169Y13211D01*
X159291Y13189D01*
X159411Y13160D01*
X159530Y13125D01*
X159646Y13083D01*
X159761Y13036D01*
X159872Y12983D01*
X159981Y12924D01*
X160087Y12859D01*
X160188Y12789D01*
X160287Y12714D01*
X160381Y12633D01*
X160470Y12548D01*
X160556Y12459D01*
X160636Y12365D01*
X160711Y12266D01*
X160781Y12165D01*
X160846Y12059D01*
X160905Y11950D01*
X160958Y11839D01*
X161005Y11725D01*
X161047Y11608D01*
X161082Y11489D01*
X161111Y11369D01*
X161133Y11248D01*
X161149Y11125D01*
X161159Y11002D01*
X161162Y10878D01*
Y9500D01*
X158800D01*
Y9461D01*
X161162D01*
Y8122D01*
X161159Y7998D01*
X161149Y7875D01*
X161133Y7752D01*
X161111Y7631D01*
X161082Y7511D01*
X161047Y7392D01*
X161005Y7276D01*
X160958Y7161D01*
X160905Y7050D01*
X160846Y6941D01*
X160781Y6836D01*
X160711Y6734D01*
X160636Y6635D01*
X160556Y6541D01*
X160470Y6452D01*
X160381Y6367D01*
X160287Y6286D01*
X160188Y6211D01*
X160087Y6141D01*
X159981Y6076D01*
X159872Y6017D01*
X159761Y5964D01*
X159646Y5917D01*
X159530Y5875D01*
X159411Y5840D01*
X159291Y5812D01*
X159169Y5789D01*
X159047Y5773D01*
X158924Y5763D01*
X158800Y5760D01*
X158676Y5763D01*
X158553Y5773D01*
X158431Y5789D01*
X158309Y5812D01*
X158189Y5840D01*
X158070Y5875D01*
X157954Y5917D01*
X157839Y5964D01*
X157728Y6017D01*
X157619Y6076D01*
X157513Y6141D01*
X157412Y6211D01*
X157313Y6286D01*
X157219Y6367D01*
X157130Y6452D01*
X157044Y6541D01*
X156964Y6635D01*
X156889Y6734D01*
X156819Y6836D01*
X156754Y6941D01*
X156695Y7050D01*
X156642Y7161D01*
X156595Y7276D01*
X156553Y7392D01*
X156518Y7511D01*
X156489Y7631D01*
X156467Y7752D01*
X156451Y7875D01*
X156441Y7998D01*
X156438Y8122D01*
Y10878D01*
X156441Y11002D01*
X156451Y11125D01*
X156467Y11248D01*
X156489Y11369D01*
X156518Y11489D01*
X156553Y11608D01*
X156595Y11725D01*
X156642Y11839D01*
X156695Y11950D01*
X156754Y12059D01*
X156819Y12165D01*
X156889Y12266D01*
X156964Y12365D01*
X157044Y12459D01*
X157130Y12548D01*
X157219Y12633D01*
X157313Y12714D01*
X157412Y12789D01*
X157513Y12859D01*
X157619Y12924D01*
X157728Y12983D01*
X157839Y13036D01*
X157954Y13083D01*
X158070Y13125D01*
X158189Y13160D01*
X158309Y13189D01*
X158431Y13211D01*
X158553Y13227D01*
X158676Y13237D01*
X158800Y13240D01*
X158924Y13237D01*
D02*
G37*
G36*
Y28198D02*
X159047Y28188D01*
X159169Y28172D01*
X159291Y28149D01*
X159411Y28120D01*
X159530Y28085D01*
X159646Y28044D01*
X159761Y27997D01*
X159872Y27943D01*
X159981Y27884D01*
X160087Y27820D01*
X160188Y27750D01*
X160287Y27674D01*
X160381Y27594D01*
X160470Y27509D01*
X160556Y27419D01*
X160636Y27325D01*
X160711Y27227D01*
X160781Y27125D01*
X160846Y27020D01*
X160905Y26911D01*
X160958Y26799D01*
X161005Y26685D01*
X161047Y26568D01*
X161082Y26450D01*
X161111Y26330D01*
X161133Y26208D01*
X161149Y26085D01*
X161159Y25962D01*
X161162Y25839D01*
Y24461D01*
X158800D01*
Y24421D01*
X161162D01*
Y23083D01*
X161159Y22959D01*
X161149Y22836D01*
X161133Y22713D01*
X161111Y22592D01*
X161082Y22471D01*
X161047Y22353D01*
X161005Y22236D01*
X160958Y22122D01*
X160905Y22010D01*
X160846Y21902D01*
X160781Y21796D01*
X160711Y21694D01*
X160636Y21596D01*
X160556Y21502D01*
X160470Y21412D01*
X160381Y21327D01*
X160287Y21247D01*
X160188Y21172D01*
X160087Y21102D01*
X159981Y21037D01*
X159872Y20978D01*
X159761Y20925D01*
X159646Y20877D01*
X159530Y20836D01*
X159411Y20801D01*
X159291Y20772D01*
X159169Y20750D01*
X159047Y20733D01*
X158924Y20724D01*
X158800Y20720D01*
X158676Y20724D01*
X158553Y20733D01*
X158431Y20750D01*
X158309Y20772D01*
X158189Y20801D01*
X158070Y20836D01*
X157954Y20877D01*
X157839Y20925D01*
X157728Y20978D01*
X157619Y21037D01*
X157513Y21102D01*
X157412Y21172D01*
X157313Y21247D01*
X157219Y21327D01*
X157130Y21412D01*
X157044Y21502D01*
X156964Y21596D01*
X156889Y21694D01*
X156819Y21796D01*
X156754Y21902D01*
X156695Y22010D01*
X156642Y22122D01*
X156595Y22236D01*
X156553Y22353D01*
X156518Y22471D01*
X156489Y22592D01*
X156467Y22713D01*
X156451Y22836D01*
X156441Y22959D01*
X156438Y23083D01*
Y25839D01*
X156441Y25962D01*
X156451Y26085D01*
X156467Y26208D01*
X156489Y26330D01*
X156518Y26450D01*
X156553Y26568D01*
X156595Y26685D01*
X156642Y26799D01*
X156695Y26911D01*
X156754Y27020D01*
X156819Y27125D01*
X156889Y27227D01*
X156964Y27325D01*
X157044Y27419D01*
X157130Y27509D01*
X157219Y27594D01*
X157313Y27674D01*
X157412Y27750D01*
X157513Y27820D01*
X157619Y27884D01*
X157728Y27943D01*
X157839Y27997D01*
X157954Y28044D01*
X158070Y28085D01*
X158189Y28120D01*
X158309Y28149D01*
X158431Y28172D01*
X158553Y28188D01*
X158676Y28198D01*
X158800Y28201D01*
X158924Y28198D01*
D02*
G37*
G36*
X192939Y13237D02*
X193063Y13227D01*
X193185Y13211D01*
X193307Y13189D01*
X193427Y13160D01*
X193546Y13125D01*
X193662Y13083D01*
X193777Y13036D01*
X193888Y12983D01*
X193997Y12924D01*
X194102Y12859D01*
X194204Y12789D01*
X194302Y12714D01*
X194396Y12633D01*
X194486Y12548D01*
X194571Y12459D01*
X194651Y12365D01*
X194727Y12266D01*
X194797Y12165D01*
X194861Y12059D01*
X194921Y11950D01*
X194974Y11839D01*
X195021Y11725D01*
X195062Y11608D01*
X195097Y11489D01*
X195126Y11369D01*
X195149Y11248D01*
X195165Y11125D01*
X195175Y11002D01*
X195178Y10878D01*
Y9500D01*
X192816D01*
Y9461D01*
X195178D01*
Y8122D01*
X195175Y7998D01*
X195165Y7875D01*
X195149Y7752D01*
X195126Y7631D01*
X195097Y7511D01*
X195062Y7392D01*
X195021Y7276D01*
X194974Y7161D01*
X194921Y7050D01*
X194861Y6941D01*
X194797Y6836D01*
X194727Y6734D01*
X194651Y6635D01*
X194571Y6541D01*
X194486Y6452D01*
X194396Y6367D01*
X194302Y6286D01*
X194204Y6211D01*
X194102Y6141D01*
X193997Y6076D01*
X193888Y6017D01*
X193777Y5964D01*
X193662Y5917D01*
X193546Y5875D01*
X193427Y5840D01*
X193307Y5812D01*
X193185Y5789D01*
X193063Y5773D01*
X192939Y5763D01*
X192816Y5760D01*
X192692Y5763D01*
X192569Y5773D01*
X192446Y5789D01*
X192325Y5812D01*
X192204Y5840D01*
X192086Y5875D01*
X191969Y5917D01*
X191855Y5964D01*
X191743Y6017D01*
X191635Y6076D01*
X191529Y6141D01*
X191427Y6211D01*
X191329Y6286D01*
X191235Y6367D01*
X191145Y6452D01*
X191060Y6541D01*
X190980Y6635D01*
X190905Y6734D01*
X190835Y6836D01*
X190770Y6941D01*
X190711Y7050D01*
X190658Y7161D01*
X190610Y7276D01*
X190569Y7392D01*
X190534Y7511D01*
X190505Y7631D01*
X190483Y7752D01*
X190466Y7875D01*
X190457Y7998D01*
X190454Y8122D01*
Y10878D01*
X190457Y11002D01*
X190466Y11125D01*
X190483Y11248D01*
X190505Y11369D01*
X190534Y11489D01*
X190569Y11608D01*
X190610Y11725D01*
X190658Y11839D01*
X190711Y11950D01*
X190770Y12059D01*
X190835Y12165D01*
X190905Y12266D01*
X190980Y12365D01*
X191060Y12459D01*
X191145Y12548D01*
X191235Y12633D01*
X191329Y12714D01*
X191427Y12789D01*
X191529Y12859D01*
X191635Y12924D01*
X191743Y12983D01*
X191855Y13036D01*
X191969Y13083D01*
X192086Y13125D01*
X192204Y13160D01*
X192325Y13189D01*
X192446Y13211D01*
X192569Y13227D01*
X192692Y13237D01*
X192816Y13240D01*
X192939Y13237D01*
D02*
G37*
G36*
Y28198D02*
X193063Y28188D01*
X193185Y28172D01*
X193307Y28149D01*
X193427Y28120D01*
X193546Y28085D01*
X193662Y28044D01*
X193777Y27997D01*
X193888Y27943D01*
X193997Y27884D01*
X194102Y27820D01*
X194204Y27750D01*
X194302Y27674D01*
X194396Y27594D01*
X194486Y27509D01*
X194571Y27419D01*
X194651Y27325D01*
X194727Y27227D01*
X194797Y27125D01*
X194861Y27020D01*
X194921Y26911D01*
X194974Y26799D01*
X195021Y26685D01*
X195062Y26568D01*
X195097Y26450D01*
X195126Y26330D01*
X195149Y26208D01*
X195165Y26085D01*
X195175Y25962D01*
X195178Y25839D01*
Y24461D01*
X192816D01*
Y24421D01*
X195178D01*
Y23083D01*
X195175Y22959D01*
X195165Y22836D01*
X195149Y22713D01*
X195126Y22592D01*
X195097Y22471D01*
X195062Y22353D01*
X195021Y22236D01*
X194974Y22122D01*
X194921Y22010D01*
X194861Y21902D01*
X194797Y21796D01*
X194727Y21694D01*
X194651Y21596D01*
X194571Y21502D01*
X194486Y21412D01*
X194396Y21327D01*
X194302Y21247D01*
X194204Y21172D01*
X194102Y21102D01*
X193997Y21037D01*
X193888Y20978D01*
X193777Y20925D01*
X193662Y20877D01*
X193546Y20836D01*
X193427Y20801D01*
X193307Y20772D01*
X193185Y20750D01*
X193063Y20733D01*
X192939Y20724D01*
X192816Y20720D01*
X192692Y20724D01*
X192569Y20733D01*
X192446Y20750D01*
X192325Y20772D01*
X192204Y20801D01*
X192086Y20836D01*
X191969Y20877D01*
X191855Y20925D01*
X191743Y20978D01*
X191635Y21037D01*
X191529Y21102D01*
X191427Y21172D01*
X191329Y21247D01*
X191235Y21327D01*
X191145Y21412D01*
X191060Y21502D01*
X190980Y21596D01*
X190905Y21694D01*
X190835Y21796D01*
X190770Y21902D01*
X190711Y22010D01*
X190658Y22122D01*
X190610Y22236D01*
X190569Y22353D01*
X190534Y22471D01*
X190505Y22592D01*
X190483Y22713D01*
X190466Y22836D01*
X190457Y22959D01*
X190454Y23083D01*
Y25839D01*
X190457Y25962D01*
X190466Y26085D01*
X190483Y26208D01*
X190505Y26330D01*
X190534Y26450D01*
X190569Y26568D01*
X190610Y26685D01*
X190658Y26799D01*
X190711Y26911D01*
X190770Y27020D01*
X190835Y27125D01*
X190905Y27227D01*
X190980Y27325D01*
X191060Y27419D01*
X191145Y27509D01*
X191235Y27594D01*
X191329Y27674D01*
X191427Y27750D01*
X191529Y27820D01*
X191635Y27884D01*
X191743Y27943D01*
X191855Y27997D01*
X191969Y28044D01*
X192086Y28085D01*
X192204Y28120D01*
X192325Y28149D01*
X192446Y28172D01*
X192569Y28188D01*
X192692Y28198D01*
X192816Y28201D01*
X192939Y28198D01*
D02*
G37*
D53*
X241000Y138500D02*
D03*
D54*
Y158500D02*
D03*
D55*
X228100Y204400D02*
D03*
X171500Y125000D02*
D03*
D56*
X228100Y212274D02*
D03*
X171500Y117126D02*
D03*
X148937Y123665D02*
D03*
X121563Y6835D02*
D03*
X52637Y164465D02*
D03*
Y116965D02*
D03*
X53137Y70465D02*
D03*
D57*
X141063Y123665D02*
D03*
X129437Y6835D02*
D03*
X44763Y164465D02*
D03*
Y116965D02*
D03*
X45263Y70465D02*
D03*
D58*
X74500Y147000D02*
D03*
X44500D02*
D03*
X75000Y130500D02*
D03*
X45000D02*
D03*
X74000Y91000D02*
D03*
X44000D02*
D03*
D59*
X169188Y186551D02*
D03*
X161963D02*
D03*
X172800Y190163D02*
D03*
X165576D02*
D03*
X158351D02*
D03*
X169188Y193776D02*
D03*
X161963D02*
D03*
X172800Y197388D02*
D03*
X165576D02*
D03*
X158351D02*
D03*
X169188Y201000D02*
D03*
X161963D02*
D03*
D60*
X62202Y29220D02*
D03*
X58265D02*
D03*
X60233Y27251D02*
D03*
X58265Y25283D02*
D03*
X62202D02*
D03*
D61*
X192816Y9500D02*
D03*
X158800D02*
D03*
X192816Y24461D02*
D03*
X158800D02*
D03*
D62*
X166600Y95600D02*
D03*
D63*
X192500Y69000D02*
D03*
X147013Y140500D02*
D03*
X123000Y167000D02*
D03*
X45465Y25520D02*
D03*
X121000Y195000D02*
D03*
X96700Y186200D02*
D03*
X122900Y180800D02*
D03*
X64000Y215000D02*
D03*
X118000Y205000D02*
D03*
X52500Y221000D02*
D03*
X151000Y69253D02*
D03*
X116200Y108600D02*
D03*
X215700Y38900D02*
D03*
X105916Y152100D02*
D03*
X98600Y107500D02*
D03*
X174800Y65500D02*
D03*
X39265Y29720D02*
D03*
X219800Y24000D02*
D03*
M02*
