G04*
G04 #@! TF.GenerationSoftware,Altium Limited,Altium Designer,20.1.14 (287)*
G04*
G04 Layer_Color=8388736*
%FSLAX25Y25*%
%MOIN*%
G70*
G04*
G04 #@! TF.SameCoordinates,9BBB710E-F05C-4809-8D11-837B32203116*
G04*
G04*
G04 #@! TF.FilePolarity,Negative*
G04*
G01*
G75*
%ADD35R,0.02769X0.01981*%
%ADD36R,0.03556X0.04343*%
%ADD37R,0.05383X0.02122*%
G04:AMPARAMS|DCode=38|XSize=53.83mil|YSize=21.22mil|CornerRadius=10.61mil|HoleSize=0mil|Usage=FLASHONLY|Rotation=180.000|XOffset=0mil|YOffset=0mil|HoleType=Round|Shape=RoundedRectangle|*
%AMROUNDEDRECTD38*
21,1,0.05383,0.00000,0,0,180.0*
21,1,0.03260,0.02122,0,0,180.0*
1,1,0.02122,-0.01630,0.00000*
1,1,0.02122,0.01630,0.00000*
1,1,0.02122,0.01630,0.00000*
1,1,0.02122,-0.01630,0.00000*
%
%ADD38ROUNDEDRECTD38*%
G04:AMPARAMS|DCode=39|XSize=61.15mil|YSize=31.62mil|CornerRadius=6.95mil|HoleSize=0mil|Usage=FLASHONLY|Rotation=0.000|XOffset=0mil|YOffset=0mil|HoleType=Round|Shape=RoundedRectangle|*
%AMROUNDEDRECTD39*
21,1,0.06115,0.01772,0,0,0.0*
21,1,0.04724,0.03162,0,0,0.0*
1,1,0.01391,0.02362,-0.00886*
1,1,0.01391,-0.02362,-0.00886*
1,1,0.01391,-0.02362,0.00886*
1,1,0.01391,0.02362,0.00886*
%
%ADD39ROUNDEDRECTD39*%
%ADD40R,0.04147X0.04147*%
%ADD41R,0.05800X0.03000*%
%ADD42R,0.06036X0.06036*%
%ADD43R,0.08674X0.04343*%
%ADD44R,0.04343X0.08674*%
%ADD45R,0.02769X0.01587*%
%ADD46R,0.02769X0.02769*%
%ADD47R,0.04343X0.03556*%
%ADD48R,0.04343X0.05328*%
%ADD49R,0.03950X0.05328*%
%ADD50R,0.03556X0.05328*%
%ADD51R,0.01587X0.01587*%
%ADD52R,0.04147X0.04147*%
%ADD53C,0.08083*%
%ADD54R,0.08083X0.08083*%
%ADD55R,0.06186X0.06186*%
%ADD56C,0.06186*%
%ADD57R,0.06186X0.06186*%
%ADD58C,0.06312*%
%ADD59C,0.01981*%
%ADD60C,0.02375*%
%ADD61C,0.02769*%
%ADD62C,0.08674*%
%ADD63C,0.05800*%
G36*
X63363Y31759D02*
X63855D01*
Y22743D01*
X63363D01*
Y19987D01*
X61828D01*
Y22743D01*
X61788D01*
Y19987D01*
X60253D01*
Y22743D01*
X60213D01*
Y19987D01*
X58678D01*
Y22743D01*
X58639D01*
Y19987D01*
X57103D01*
Y22743D01*
X56611D01*
Y31759D01*
X57103D01*
Y34515D01*
X58639D01*
Y31759D01*
X58678D01*
Y34515D01*
X60213D01*
Y31759D01*
X60253D01*
Y34515D01*
X61788D01*
Y31759D01*
X61828D01*
Y34515D01*
X63363D01*
Y31759D01*
D02*
G37*
G36*
X67989Y30361D02*
X64918D01*
X64875Y30363D01*
X64832Y30366D01*
X64789Y30372D01*
X64746Y30380D01*
X64704Y30390D01*
X64663Y30402D01*
X64622Y30416D01*
X64582Y30433D01*
X64543Y30452D01*
X64505Y30472D01*
X64468Y30495D01*
X64432Y30519D01*
X64398Y30546D01*
X64365Y30574D01*
X64333Y30604D01*
X64304Y30635D01*
X64276Y30668D01*
X64249Y30702D01*
X64225Y30738D01*
X64202Y30775D01*
X64181Y30813D01*
X64163Y30852D01*
X64146Y30892D01*
X64132Y30933D01*
X64119Y30974D01*
X64109Y31016D01*
X64101Y31059D01*
X64096Y31102D01*
X64092Y31145D01*
X64091Y31188D01*
X64092Y31231D01*
X64096Y31275D01*
X64101Y31317D01*
X64109Y31360D01*
X64119Y31402D01*
X64132Y31444D01*
X64146Y31484D01*
X64163Y31525D01*
X64181Y31563D01*
X64202Y31602D01*
X64225Y31639D01*
X64249Y31674D01*
X64276Y31708D01*
X64304Y31741D01*
X64333Y31773D01*
X64365Y31803D01*
X64398Y31831D01*
X64432Y31857D01*
X64468Y31882D01*
X64505Y31904D01*
X64543Y31925D01*
X64582Y31944D01*
X64622Y31960D01*
X64663Y31975D01*
X64704Y31987D01*
X64746Y31997D01*
X64789Y32005D01*
X64832Y32010D01*
X64875Y32014D01*
X64918Y32015D01*
X67989D01*
Y30361D01*
D02*
G37*
G36*
X55591Y32014D02*
X55634Y32010D01*
X55677Y32005D01*
X55720Y31997D01*
X55762Y31987D01*
X55804Y31975D01*
X55844Y31960D01*
X55884Y31944D01*
X55923Y31925D01*
X55961Y31904D01*
X55998Y31882D01*
X56034Y31857D01*
X56068Y31831D01*
X56101Y31803D01*
X56133Y31773D01*
X56162Y31741D01*
X56191Y31708D01*
X56217Y31674D01*
X56241Y31639D01*
X56264Y31602D01*
X56285Y31563D01*
X56303Y31525D01*
X56320Y31484D01*
X56334Y31444D01*
X56347Y31402D01*
X56357Y31360D01*
X56365Y31317D01*
X56370Y31275D01*
X56374Y31231D01*
X56375Y31188D01*
X56374Y31145D01*
X56370Y31102D01*
X56365Y31059D01*
X56357Y31016D01*
X56347Y30974D01*
X56334Y30933D01*
X56320Y30892D01*
X56303Y30852D01*
X56285Y30813D01*
X56264Y30775D01*
X56241Y30738D01*
X56217Y30702D01*
X56191Y30668D01*
X56162Y30635D01*
X56133Y30604D01*
X56101Y30574D01*
X56068Y30546D01*
X56034Y30519D01*
X55998Y30495D01*
X55961Y30472D01*
X55923Y30452D01*
X55884Y30433D01*
X55844Y30416D01*
X55804Y30402D01*
X55762Y30390D01*
X55720Y30380D01*
X55677Y30372D01*
X55634Y30366D01*
X55591Y30363D01*
X55548Y30361D01*
X52477D01*
Y32015D01*
X55548D01*
X55591Y32014D01*
D02*
G37*
G36*
X67989Y28393D02*
X64918D01*
X64875Y28394D01*
X64832Y28397D01*
X64789Y28403D01*
X64746Y28411D01*
X64704Y28421D01*
X64663Y28433D01*
X64622Y28448D01*
X64582Y28464D01*
X64543Y28483D01*
X64505Y28504D01*
X64468Y28526D01*
X64432Y28551D01*
X64398Y28577D01*
X64365Y28605D01*
X64333Y28635D01*
X64304Y28666D01*
X64276Y28699D01*
X64249Y28734D01*
X64225Y28769D01*
X64202Y28806D01*
X64181Y28844D01*
X64163Y28883D01*
X64146Y28923D01*
X64132Y28964D01*
X64119Y29006D01*
X64109Y29048D01*
X64101Y29090D01*
X64096Y29133D01*
X64092Y29176D01*
X64091Y29220D01*
X64092Y29263D01*
X64096Y29306D01*
X64101Y29349D01*
X64109Y29392D01*
X64119Y29434D01*
X64132Y29475D01*
X64146Y29516D01*
X64163Y29556D01*
X64181Y29595D01*
X64202Y29633D01*
X64225Y29670D01*
X64249Y29706D01*
X64276Y29740D01*
X64304Y29773D01*
X64333Y29804D01*
X64365Y29834D01*
X64398Y29862D01*
X64432Y29889D01*
X64468Y29913D01*
X64505Y29936D01*
X64543Y29956D01*
X64582Y29975D01*
X64622Y29992D01*
X64663Y30006D01*
X64704Y30018D01*
X64746Y30028D01*
X64789Y30036D01*
X64832Y30042D01*
X64875Y30045D01*
X64918Y30046D01*
X67989D01*
Y28393D01*
D02*
G37*
G36*
X55591Y30045D02*
X55634Y30042D01*
X55677Y30036D01*
X55720Y30028D01*
X55762Y30018D01*
X55804Y30006D01*
X55844Y29992D01*
X55884Y29975D01*
X55923Y29956D01*
X55961Y29936D01*
X55998Y29913D01*
X56034Y29889D01*
X56068Y29862D01*
X56101Y29834D01*
X56133Y29804D01*
X56162Y29773D01*
X56191Y29740D01*
X56217Y29706D01*
X56241Y29670D01*
X56264Y29633D01*
X56285Y29595D01*
X56303Y29556D01*
X56320Y29516D01*
X56334Y29475D01*
X56347Y29434D01*
X56357Y29392D01*
X56365Y29349D01*
X56370Y29306D01*
X56374Y29263D01*
X56375Y29220D01*
X56374Y29176D01*
X56370Y29133D01*
X56365Y29090D01*
X56357Y29048D01*
X56347Y29006D01*
X56334Y28964D01*
X56320Y28923D01*
X56303Y28883D01*
X56285Y28844D01*
X56264Y28806D01*
X56241Y28769D01*
X56217Y28734D01*
X56191Y28699D01*
X56162Y28666D01*
X56133Y28635D01*
X56101Y28605D01*
X56068Y28577D01*
X56034Y28551D01*
X55998Y28526D01*
X55961Y28504D01*
X55923Y28483D01*
X55884Y28464D01*
X55844Y28448D01*
X55804Y28433D01*
X55762Y28421D01*
X55720Y28411D01*
X55677Y28403D01*
X55634Y28397D01*
X55591Y28394D01*
X55548Y28393D01*
X52477D01*
Y30046D01*
X55548D01*
X55591Y30045D01*
D02*
G37*
G36*
X67989Y26424D02*
X64918D01*
X64875Y26425D01*
X64832Y26429D01*
X64789Y26435D01*
X64746Y26443D01*
X64704Y26453D01*
X64663Y26465D01*
X64622Y26479D01*
X64582Y26496D01*
X64543Y26515D01*
X64505Y26535D01*
X64468Y26558D01*
X64432Y26582D01*
X64398Y26609D01*
X64365Y26637D01*
X64333Y26667D01*
X64304Y26698D01*
X64276Y26731D01*
X64249Y26765D01*
X64225Y26801D01*
X64202Y26838D01*
X64181Y26876D01*
X64163Y26915D01*
X64146Y26955D01*
X64132Y26996D01*
X64119Y27037D01*
X64109Y27079D01*
X64101Y27122D01*
X64096Y27165D01*
X64092Y27208D01*
X64091Y27251D01*
X64092Y27294D01*
X64096Y27338D01*
X64101Y27380D01*
X64109Y27423D01*
X64119Y27465D01*
X64132Y27507D01*
X64146Y27547D01*
X64163Y27588D01*
X64181Y27626D01*
X64202Y27665D01*
X64225Y27702D01*
X64249Y27737D01*
X64276Y27771D01*
X64304Y27804D01*
X64333Y27836D01*
X64365Y27866D01*
X64398Y27894D01*
X64432Y27920D01*
X64468Y27945D01*
X64505Y27967D01*
X64543Y27988D01*
X64582Y28007D01*
X64622Y28023D01*
X64663Y28038D01*
X64704Y28050D01*
X64746Y28060D01*
X64789Y28068D01*
X64832Y28073D01*
X64875Y28077D01*
X64918Y28078D01*
X67989D01*
Y26424D01*
D02*
G37*
G36*
X55591Y28077D02*
X55634Y28073D01*
X55677Y28068D01*
X55720Y28060D01*
X55762Y28050D01*
X55804Y28038D01*
X55844Y28023D01*
X55884Y28007D01*
X55923Y27988D01*
X55961Y27967D01*
X55998Y27945D01*
X56034Y27920D01*
X56068Y27894D01*
X56101Y27866D01*
X56133Y27836D01*
X56162Y27804D01*
X56191Y27771D01*
X56217Y27737D01*
X56241Y27702D01*
X56264Y27665D01*
X56285Y27626D01*
X56303Y27588D01*
X56320Y27547D01*
X56334Y27507D01*
X56347Y27465D01*
X56357Y27423D01*
X56365Y27380D01*
X56370Y27338D01*
X56374Y27294D01*
X56375Y27251D01*
X56374Y27208D01*
X56370Y27165D01*
X56365Y27122D01*
X56357Y27079D01*
X56347Y27037D01*
X56334Y26996D01*
X56320Y26955D01*
X56303Y26915D01*
X56285Y26876D01*
X56264Y26838D01*
X56241Y26801D01*
X56217Y26765D01*
X56191Y26731D01*
X56162Y26698D01*
X56133Y26667D01*
X56101Y26637D01*
X56068Y26609D01*
X56034Y26582D01*
X55998Y26558D01*
X55961Y26535D01*
X55923Y26515D01*
X55884Y26496D01*
X55844Y26479D01*
X55804Y26465D01*
X55762Y26453D01*
X55720Y26443D01*
X55677Y26435D01*
X55634Y26429D01*
X55591Y26425D01*
X55548Y26424D01*
X52477D01*
Y28078D01*
X55548D01*
X55591Y28077D01*
D02*
G37*
G36*
X67989Y24456D02*
X64918D01*
X64875Y24457D01*
X64832Y24460D01*
X64789Y24466D01*
X64746Y24474D01*
X64704Y24484D01*
X64663Y24496D01*
X64622Y24511D01*
X64582Y24527D01*
X64543Y24546D01*
X64505Y24567D01*
X64468Y24589D01*
X64432Y24614D01*
X64398Y24640D01*
X64365Y24668D01*
X64333Y24698D01*
X64304Y24730D01*
X64276Y24762D01*
X64249Y24797D01*
X64225Y24832D01*
X64202Y24869D01*
X64181Y24907D01*
X64163Y24946D01*
X64146Y24986D01*
X64132Y25027D01*
X64119Y25069D01*
X64109Y25111D01*
X64101Y25153D01*
X64096Y25196D01*
X64092Y25239D01*
X64091Y25283D01*
X64092Y25326D01*
X64096Y25369D01*
X64101Y25412D01*
X64109Y25455D01*
X64119Y25497D01*
X64132Y25538D01*
X64146Y25579D01*
X64163Y25619D01*
X64181Y25658D01*
X64202Y25696D01*
X64225Y25733D01*
X64249Y25769D01*
X64276Y25803D01*
X64304Y25836D01*
X64333Y25867D01*
X64365Y25897D01*
X64398Y25925D01*
X64432Y25952D01*
X64468Y25976D01*
X64505Y25999D01*
X64543Y26019D01*
X64582Y26038D01*
X64622Y26054D01*
X64663Y26069D01*
X64704Y26081D01*
X64746Y26091D01*
X64789Y26099D01*
X64832Y26105D01*
X64875Y26108D01*
X64918Y26109D01*
X67989D01*
Y24456D01*
D02*
G37*
G36*
X55591Y26108D02*
X55634Y26105D01*
X55677Y26099D01*
X55720Y26091D01*
X55762Y26081D01*
X55804Y26069D01*
X55844Y26054D01*
X55884Y26038D01*
X55923Y26019D01*
X55961Y25999D01*
X55998Y25976D01*
X56034Y25952D01*
X56068Y25925D01*
X56101Y25897D01*
X56133Y25867D01*
X56162Y25836D01*
X56191Y25803D01*
X56217Y25769D01*
X56241Y25733D01*
X56264Y25696D01*
X56285Y25658D01*
X56303Y25619D01*
X56320Y25579D01*
X56334Y25538D01*
X56347Y25497D01*
X56357Y25455D01*
X56365Y25412D01*
X56370Y25369D01*
X56374Y25326D01*
X56375Y25283D01*
X56374Y25239D01*
X56370Y25196D01*
X56365Y25153D01*
X56357Y25111D01*
X56347Y25069D01*
X56334Y25027D01*
X56320Y24986D01*
X56303Y24946D01*
X56285Y24907D01*
X56264Y24869D01*
X56241Y24832D01*
X56217Y24797D01*
X56191Y24762D01*
X56162Y24730D01*
X56133Y24698D01*
X56101Y24668D01*
X56068Y24640D01*
X56034Y24614D01*
X55998Y24589D01*
X55961Y24567D01*
X55923Y24546D01*
X55884Y24527D01*
X55844Y24511D01*
X55804Y24496D01*
X55762Y24484D01*
X55720Y24474D01*
X55677Y24466D01*
X55634Y24460D01*
X55591Y24457D01*
X55548Y24456D01*
X52477D01*
Y26109D01*
X55548D01*
X55591Y26108D01*
D02*
G37*
G36*
X67989Y22487D02*
X64918D01*
X64875Y22489D01*
X64832Y22492D01*
X64789Y22498D01*
X64746Y22505D01*
X64704Y22516D01*
X64663Y22528D01*
X64622Y22542D01*
X64582Y22559D01*
X64543Y22578D01*
X64505Y22598D01*
X64468Y22621D01*
X64432Y22645D01*
X64398Y22672D01*
X64365Y22700D01*
X64333Y22730D01*
X64304Y22761D01*
X64276Y22794D01*
X64249Y22828D01*
X64225Y22864D01*
X64202Y22901D01*
X64181Y22939D01*
X64163Y22978D01*
X64146Y23018D01*
X64132Y23059D01*
X64119Y23100D01*
X64109Y23142D01*
X64101Y23185D01*
X64096Y23228D01*
X64092Y23271D01*
X64091Y23314D01*
X64092Y23358D01*
X64096Y23401D01*
X64101Y23444D01*
X64109Y23486D01*
X64119Y23528D01*
X64132Y23570D01*
X64146Y23610D01*
X64163Y23651D01*
X64181Y23689D01*
X64202Y23728D01*
X64225Y23765D01*
X64249Y23800D01*
X64276Y23834D01*
X64304Y23867D01*
X64333Y23899D01*
X64365Y23929D01*
X64398Y23957D01*
X64432Y23983D01*
X64468Y24008D01*
X64505Y24030D01*
X64543Y24051D01*
X64582Y24069D01*
X64622Y24086D01*
X64663Y24101D01*
X64704Y24113D01*
X64746Y24123D01*
X64789Y24131D01*
X64832Y24136D01*
X64875Y24140D01*
X64918Y24141D01*
X67989D01*
Y22487D01*
D02*
G37*
G36*
X55591Y24140D02*
X55634Y24136D01*
X55677Y24131D01*
X55720Y24123D01*
X55762Y24113D01*
X55804Y24101D01*
X55844Y24086D01*
X55884Y24069D01*
X55923Y24051D01*
X55961Y24030D01*
X55998Y24008D01*
X56034Y23983D01*
X56068Y23957D01*
X56101Y23929D01*
X56133Y23899D01*
X56162Y23867D01*
X56191Y23834D01*
X56217Y23800D01*
X56241Y23765D01*
X56264Y23728D01*
X56285Y23689D01*
X56303Y23651D01*
X56320Y23610D01*
X56334Y23570D01*
X56347Y23528D01*
X56357Y23486D01*
X56365Y23444D01*
X56370Y23401D01*
X56374Y23358D01*
X56375Y23314D01*
X56374Y23271D01*
X56370Y23228D01*
X56365Y23185D01*
X56357Y23142D01*
X56347Y23100D01*
X56334Y23059D01*
X56320Y23018D01*
X56303Y22978D01*
X56285Y22939D01*
X56264Y22901D01*
X56241Y22864D01*
X56217Y22828D01*
X56191Y22794D01*
X56162Y22761D01*
X56133Y22730D01*
X56101Y22700D01*
X56068Y22672D01*
X56034Y22645D01*
X55998Y22621D01*
X55961Y22598D01*
X55923Y22578D01*
X55884Y22559D01*
X55844Y22542D01*
X55804Y22528D01*
X55762Y22516D01*
X55720Y22505D01*
X55677Y22498D01*
X55634Y22492D01*
X55591Y22489D01*
X55548Y22487D01*
X52477D01*
Y24141D01*
X55548D01*
X55591Y24140D01*
D02*
G37*
G36*
X192939Y28198D02*
X193063Y28188D01*
X193185Y28172D01*
X193307Y28149D01*
X193427Y28120D01*
X193546Y28085D01*
X193662Y28044D01*
X193777Y27997D01*
X193888Y27943D01*
X193997Y27884D01*
X194102Y27820D01*
X194204Y27750D01*
X194302Y27674D01*
X194396Y27594D01*
X194486Y27509D01*
X194571Y27419D01*
X194651Y27325D01*
X194727Y27227D01*
X194797Y27125D01*
X194861Y27020D01*
X194921Y26911D01*
X194974Y26799D01*
X195021Y26685D01*
X195062Y26568D01*
X195097Y26450D01*
X195126Y26330D01*
X195149Y26208D01*
X195165Y26085D01*
X195175Y25962D01*
X195178Y25839D01*
Y24461D01*
X192816D01*
Y24421D01*
X195178D01*
Y23083D01*
X195175Y22959D01*
X195165Y22836D01*
X195149Y22713D01*
X195126Y22592D01*
X195097Y22471D01*
X195062Y22353D01*
X195021Y22236D01*
X194974Y22122D01*
X194921Y22010D01*
X194861Y21902D01*
X194797Y21796D01*
X194727Y21694D01*
X194651Y21596D01*
X194571Y21502D01*
X194486Y21412D01*
X194396Y21327D01*
X194302Y21247D01*
X194204Y21172D01*
X194102Y21102D01*
X193997Y21037D01*
X193888Y20978D01*
X193777Y20925D01*
X193662Y20877D01*
X193546Y20836D01*
X193427Y20801D01*
X193307Y20772D01*
X193185Y20750D01*
X193063Y20733D01*
X192939Y20724D01*
X192816Y20720D01*
X192692Y20724D01*
X192569Y20733D01*
X192446Y20750D01*
X192325Y20772D01*
X192204Y20801D01*
X192086Y20836D01*
X191969Y20877D01*
X191855Y20925D01*
X191743Y20978D01*
X191635Y21037D01*
X191529Y21102D01*
X191427Y21172D01*
X191329Y21247D01*
X191235Y21327D01*
X191145Y21412D01*
X191060Y21502D01*
X190980Y21596D01*
X190905Y21694D01*
X190835Y21796D01*
X190770Y21902D01*
X190711Y22010D01*
X190658Y22122D01*
X190610Y22236D01*
X190569Y22353D01*
X190534Y22471D01*
X190505Y22592D01*
X190483Y22713D01*
X190466Y22836D01*
X190457Y22959D01*
X190454Y23083D01*
Y25839D01*
X190457Y25962D01*
X190466Y26085D01*
X190483Y26208D01*
X190505Y26330D01*
X190534Y26450D01*
X190569Y26568D01*
X190610Y26685D01*
X190658Y26799D01*
X190711Y26911D01*
X190770Y27020D01*
X190835Y27125D01*
X190905Y27227D01*
X190980Y27325D01*
X191060Y27419D01*
X191145Y27509D01*
X191235Y27594D01*
X191329Y27674D01*
X191427Y27750D01*
X191529Y27820D01*
X191635Y27884D01*
X191743Y27943D01*
X191855Y27997D01*
X191969Y28044D01*
X192086Y28085D01*
X192204Y28120D01*
X192325Y28149D01*
X192446Y28172D01*
X192569Y28188D01*
X192692Y28198D01*
X192816Y28201D01*
X192939Y28198D01*
D02*
G37*
G36*
X158924D02*
X159047Y28188D01*
X159169Y28172D01*
X159291Y28149D01*
X159411Y28120D01*
X159530Y28085D01*
X159646Y28044D01*
X159761Y27997D01*
X159872Y27943D01*
X159981Y27884D01*
X160087Y27820D01*
X160188Y27750D01*
X160287Y27674D01*
X160381Y27594D01*
X160470Y27509D01*
X160556Y27419D01*
X160636Y27325D01*
X160711Y27227D01*
X160781Y27125D01*
X160846Y27020D01*
X160905Y26911D01*
X160958Y26799D01*
X161005Y26685D01*
X161047Y26568D01*
X161082Y26450D01*
X161111Y26330D01*
X161133Y26208D01*
X161149Y26085D01*
X161159Y25962D01*
X161162Y25839D01*
Y24461D01*
X158800D01*
Y24421D01*
X161162D01*
Y23083D01*
X161159Y22959D01*
X161149Y22836D01*
X161133Y22713D01*
X161111Y22592D01*
X161082Y22471D01*
X161047Y22353D01*
X161005Y22236D01*
X160958Y22122D01*
X160905Y22010D01*
X160846Y21902D01*
X160781Y21796D01*
X160711Y21694D01*
X160636Y21596D01*
X160556Y21502D01*
X160470Y21412D01*
X160381Y21327D01*
X160287Y21247D01*
X160188Y21172D01*
X160087Y21102D01*
X159981Y21037D01*
X159872Y20978D01*
X159761Y20925D01*
X159646Y20877D01*
X159530Y20836D01*
X159411Y20801D01*
X159291Y20772D01*
X159169Y20750D01*
X159047Y20733D01*
X158924Y20724D01*
X158800Y20720D01*
X158676Y20724D01*
X158553Y20733D01*
X158431Y20750D01*
X158309Y20772D01*
X158189Y20801D01*
X158070Y20836D01*
X157954Y20877D01*
X157839Y20925D01*
X157728Y20978D01*
X157619Y21037D01*
X157513Y21102D01*
X157412Y21172D01*
X157313Y21247D01*
X157219Y21327D01*
X157130Y21412D01*
X157044Y21502D01*
X156964Y21596D01*
X156889Y21694D01*
X156819Y21796D01*
X156754Y21902D01*
X156695Y22010D01*
X156642Y22122D01*
X156595Y22236D01*
X156553Y22353D01*
X156518Y22471D01*
X156489Y22592D01*
X156467Y22713D01*
X156451Y22836D01*
X156441Y22959D01*
X156438Y23083D01*
Y25839D01*
X156441Y25962D01*
X156451Y26085D01*
X156467Y26208D01*
X156489Y26330D01*
X156518Y26450D01*
X156553Y26568D01*
X156595Y26685D01*
X156642Y26799D01*
X156695Y26911D01*
X156754Y27020D01*
X156819Y27125D01*
X156889Y27227D01*
X156964Y27325D01*
X157044Y27419D01*
X157130Y27509D01*
X157219Y27594D01*
X157313Y27674D01*
X157412Y27750D01*
X157513Y27820D01*
X157619Y27884D01*
X157728Y27943D01*
X157839Y27997D01*
X157954Y28044D01*
X158070Y28085D01*
X158189Y28120D01*
X158309Y28149D01*
X158431Y28172D01*
X158553Y28188D01*
X158676Y28198D01*
X158800Y28201D01*
X158924Y28198D01*
D02*
G37*
G36*
X192939Y13237D02*
X193063Y13227D01*
X193185Y13211D01*
X193307Y13189D01*
X193427Y13160D01*
X193546Y13125D01*
X193662Y13083D01*
X193777Y13036D01*
X193888Y12983D01*
X193997Y12924D01*
X194102Y12859D01*
X194204Y12789D01*
X194302Y12714D01*
X194396Y12633D01*
X194486Y12548D01*
X194571Y12459D01*
X194651Y12365D01*
X194727Y12266D01*
X194797Y12165D01*
X194861Y12059D01*
X194921Y11950D01*
X194974Y11839D01*
X195021Y11725D01*
X195062Y11608D01*
X195097Y11489D01*
X195126Y11369D01*
X195149Y11248D01*
X195165Y11125D01*
X195175Y11002D01*
X195178Y10878D01*
Y9500D01*
X192816D01*
Y9461D01*
X195178D01*
Y8122D01*
X195175Y7998D01*
X195165Y7875D01*
X195149Y7752D01*
X195126Y7631D01*
X195097Y7511D01*
X195062Y7392D01*
X195021Y7276D01*
X194974Y7161D01*
X194921Y7050D01*
X194861Y6941D01*
X194797Y6836D01*
X194727Y6734D01*
X194651Y6635D01*
X194571Y6541D01*
X194486Y6452D01*
X194396Y6367D01*
X194302Y6286D01*
X194204Y6211D01*
X194102Y6141D01*
X193997Y6076D01*
X193888Y6017D01*
X193777Y5964D01*
X193662Y5917D01*
X193546Y5875D01*
X193427Y5840D01*
X193307Y5812D01*
X193185Y5789D01*
X193063Y5773D01*
X192939Y5763D01*
X192816Y5760D01*
X192692Y5763D01*
X192569Y5773D01*
X192446Y5789D01*
X192325Y5812D01*
X192204Y5840D01*
X192086Y5875D01*
X191969Y5917D01*
X191855Y5964D01*
X191743Y6017D01*
X191635Y6076D01*
X191529Y6141D01*
X191427Y6211D01*
X191329Y6286D01*
X191235Y6367D01*
X191145Y6452D01*
X191060Y6541D01*
X190980Y6635D01*
X190905Y6734D01*
X190835Y6836D01*
X190770Y6941D01*
X190711Y7050D01*
X190658Y7161D01*
X190610Y7276D01*
X190569Y7392D01*
X190534Y7511D01*
X190505Y7631D01*
X190483Y7752D01*
X190466Y7875D01*
X190457Y7998D01*
X190454Y8122D01*
Y10878D01*
X190457Y11002D01*
X190466Y11125D01*
X190483Y11248D01*
X190505Y11369D01*
X190534Y11489D01*
X190569Y11608D01*
X190610Y11725D01*
X190658Y11839D01*
X190711Y11950D01*
X190770Y12059D01*
X190835Y12165D01*
X190905Y12266D01*
X190980Y12365D01*
X191060Y12459D01*
X191145Y12548D01*
X191235Y12633D01*
X191329Y12714D01*
X191427Y12789D01*
X191529Y12859D01*
X191635Y12924D01*
X191743Y12983D01*
X191855Y13036D01*
X191969Y13083D01*
X192086Y13125D01*
X192204Y13160D01*
X192325Y13189D01*
X192446Y13211D01*
X192569Y13227D01*
X192692Y13237D01*
X192816Y13240D01*
X192939Y13237D01*
D02*
G37*
G36*
X158924D02*
X159047Y13227D01*
X159169Y13211D01*
X159291Y13189D01*
X159411Y13160D01*
X159530Y13125D01*
X159646Y13083D01*
X159761Y13036D01*
X159872Y12983D01*
X159981Y12924D01*
X160087Y12859D01*
X160188Y12789D01*
X160287Y12714D01*
X160381Y12633D01*
X160470Y12548D01*
X160556Y12459D01*
X160636Y12365D01*
X160711Y12266D01*
X160781Y12165D01*
X160846Y12059D01*
X160905Y11950D01*
X160958Y11839D01*
X161005Y11725D01*
X161047Y11608D01*
X161082Y11489D01*
X161111Y11369D01*
X161133Y11248D01*
X161149Y11125D01*
X161159Y11002D01*
X161162Y10878D01*
Y9500D01*
X158800D01*
Y9461D01*
X161162D01*
Y8122D01*
X161159Y7998D01*
X161149Y7875D01*
X161133Y7752D01*
X161111Y7631D01*
X161082Y7511D01*
X161047Y7392D01*
X161005Y7276D01*
X160958Y7161D01*
X160905Y7050D01*
X160846Y6941D01*
X160781Y6836D01*
X160711Y6734D01*
X160636Y6635D01*
X160556Y6541D01*
X160470Y6452D01*
X160381Y6367D01*
X160287Y6286D01*
X160188Y6211D01*
X160087Y6141D01*
X159981Y6076D01*
X159872Y6017D01*
X159761Y5964D01*
X159646Y5917D01*
X159530Y5875D01*
X159411Y5840D01*
X159291Y5812D01*
X159169Y5789D01*
X159047Y5773D01*
X158924Y5763D01*
X158800Y5760D01*
X158676Y5763D01*
X158553Y5773D01*
X158431Y5789D01*
X158309Y5812D01*
X158189Y5840D01*
X158070Y5875D01*
X157954Y5917D01*
X157839Y5964D01*
X157728Y6017D01*
X157619Y6076D01*
X157513Y6141D01*
X157412Y6211D01*
X157313Y6286D01*
X157219Y6367D01*
X157130Y6452D01*
X157044Y6541D01*
X156964Y6635D01*
X156889Y6734D01*
X156819Y6836D01*
X156754Y6941D01*
X156695Y7050D01*
X156642Y7161D01*
X156595Y7276D01*
X156553Y7392D01*
X156518Y7511D01*
X156489Y7631D01*
X156467Y7752D01*
X156451Y7875D01*
X156441Y7998D01*
X156438Y8122D01*
Y10878D01*
X156441Y11002D01*
X156451Y11125D01*
X156467Y11248D01*
X156489Y11369D01*
X156518Y11489D01*
X156553Y11608D01*
X156595Y11725D01*
X156642Y11839D01*
X156695Y11950D01*
X156754Y12059D01*
X156819Y12165D01*
X156889Y12266D01*
X156964Y12365D01*
X157044Y12459D01*
X157130Y12548D01*
X157219Y12633D01*
X157313Y12714D01*
X157412Y12789D01*
X157513Y12859D01*
X157619Y12924D01*
X157728Y12983D01*
X157839Y13036D01*
X157954Y13083D01*
X158070Y13125D01*
X158189Y13160D01*
X158309Y13189D01*
X158431Y13211D01*
X158553Y13227D01*
X158676Y13237D01*
X158800Y13240D01*
X158924Y13237D01*
D02*
G37*
D35*
X58465Y38620D02*
D03*
X61221D02*
D03*
D36*
X215947Y74900D02*
D03*
X221853D02*
D03*
X197047Y77000D02*
D03*
X202953D02*
D03*
X111200Y173900D02*
D03*
X117105D02*
D03*
X117006Y180900D02*
D03*
X111100D02*
D03*
X70647Y221600D02*
D03*
X76553D02*
D03*
X227147Y75100D02*
D03*
X233053D02*
D03*
D37*
X82932Y76941D02*
D03*
X98732Y161741D02*
D03*
X95232Y114741D02*
D03*
D38*
X82932Y82059D02*
D03*
X76868Y79500D02*
D03*
X92668Y164300D02*
D03*
X98732Y166859D02*
D03*
X95232Y119859D02*
D03*
X89168Y117300D02*
D03*
D39*
X66665Y207740D02*
D03*
Y200260D02*
D03*
X57335D02*
D03*
Y204000D02*
D03*
Y207740D02*
D03*
D40*
X133465Y40468D02*
D03*
Y46571D02*
D03*
X33100Y204949D02*
D03*
Y211051D02*
D03*
X126265Y40617D02*
D03*
Y46720D02*
D03*
X100100Y214102D02*
D03*
Y208000D02*
D03*
X108600Y214102D02*
D03*
Y208000D02*
D03*
X187800Y55051D02*
D03*
Y48949D02*
D03*
X89600Y214051D02*
D03*
Y207949D02*
D03*
X119765Y46771D02*
D03*
Y40668D02*
D03*
X203800Y48949D02*
D03*
Y55051D02*
D03*
D41*
X232400Y57700D02*
D03*
Y50300D02*
D03*
X222200D02*
D03*
Y54000D02*
D03*
Y57700D02*
D03*
D42*
X172800Y186551D02*
D03*
X165576D02*
D03*
X158351D02*
D03*
X172800Y193776D02*
D03*
X165576D02*
D03*
X158351D02*
D03*
X172800Y201000D02*
D03*
X165576D02*
D03*
X158351D02*
D03*
D43*
X202977Y223303D02*
D03*
Y218303D02*
D03*
Y213303D02*
D03*
Y208303D02*
D03*
Y203303D02*
D03*
Y198303D02*
D03*
Y193303D02*
D03*
Y188303D02*
D03*
Y183303D02*
D03*
Y178303D02*
D03*
Y173303D02*
D03*
Y168303D02*
D03*
Y163303D02*
D03*
Y158303D02*
D03*
X136048D02*
D03*
Y163303D02*
D03*
Y168303D02*
D03*
Y173303D02*
D03*
Y178303D02*
D03*
Y183303D02*
D03*
Y188303D02*
D03*
Y193303D02*
D03*
Y198303D02*
D03*
Y203303D02*
D03*
Y208303D02*
D03*
Y213303D02*
D03*
Y218303D02*
D03*
Y223303D02*
D03*
D44*
X192013Y154366D02*
D03*
X187013D02*
D03*
X182013D02*
D03*
X177013D02*
D03*
X172013D02*
D03*
X167013D02*
D03*
X162013D02*
D03*
X157013D02*
D03*
X152013D02*
D03*
X147013D02*
D03*
D45*
X54426Y31188D02*
D03*
Y29220D02*
D03*
Y27251D02*
D03*
Y25283D02*
D03*
Y23314D02*
D03*
X66040D02*
D03*
Y25283D02*
D03*
Y27251D02*
D03*
Y29220D02*
D03*
Y31188D02*
D03*
D46*
X60233Y27251D02*
D03*
D47*
X178300Y36047D02*
D03*
Y41953D02*
D03*
X164800Y39953D02*
D03*
Y34047D02*
D03*
X209400Y61147D02*
D03*
Y67053D02*
D03*
X203300Y67453D02*
D03*
Y61547D02*
D03*
X30765Y30267D02*
D03*
Y36172D02*
D03*
X93765Y30220D02*
D03*
Y36125D02*
D03*
X93765Y42172D02*
D03*
Y48078D02*
D03*
D48*
X186635Y24461D02*
D03*
X164981D02*
D03*
D49*
X181792D02*
D03*
X169824D02*
D03*
D50*
X173839D02*
D03*
X177776D02*
D03*
D51*
X191339Y9500D02*
D03*
X157324D02*
D03*
X191339Y24461D02*
D03*
X157324D02*
D03*
D52*
X110649Y167800D02*
D03*
X116751D02*
D03*
X223749Y38500D02*
D03*
X229851D02*
D03*
X102213Y40720D02*
D03*
X108316D02*
D03*
X75713Y16220D02*
D03*
X81816D02*
D03*
D53*
X241000Y138500D02*
D03*
D54*
Y158500D02*
D03*
D55*
X228100Y204400D02*
D03*
X171500Y125000D02*
D03*
D56*
X228100Y212274D02*
D03*
X171500Y117126D02*
D03*
X148937Y123665D02*
D03*
X121563Y6835D02*
D03*
X52637Y164465D02*
D03*
Y116965D02*
D03*
X53137Y70465D02*
D03*
D57*
X141063Y123665D02*
D03*
X129437Y6835D02*
D03*
X44763Y164465D02*
D03*
Y116965D02*
D03*
X45263Y70465D02*
D03*
D58*
X74500Y147000D02*
D03*
X44500D02*
D03*
X75000Y130500D02*
D03*
X45000D02*
D03*
X74000Y91000D02*
D03*
X44000D02*
D03*
D59*
X169188Y186551D02*
D03*
X161963D02*
D03*
X172800Y190163D02*
D03*
X165576D02*
D03*
X158351D02*
D03*
X169188Y193776D02*
D03*
X161963D02*
D03*
X172800Y197388D02*
D03*
X165576D02*
D03*
X158351D02*
D03*
X169188Y201000D02*
D03*
X161963D02*
D03*
D60*
X62202Y29220D02*
D03*
X58265D02*
D03*
X60233Y27251D02*
D03*
X58265Y25283D02*
D03*
X62202D02*
D03*
D61*
X192816Y9500D02*
D03*
X158800D02*
D03*
X192816Y24461D02*
D03*
X158800D02*
D03*
D62*
X166600Y95600D02*
D03*
D63*
X192500Y69000D02*
D03*
X147013Y140500D02*
D03*
X123000Y167000D02*
D03*
X45465Y25520D02*
D03*
X121000Y195000D02*
D03*
X96700Y186200D02*
D03*
X122900Y180800D02*
D03*
X64000Y215000D02*
D03*
X118000Y205000D02*
D03*
X52500Y221000D02*
D03*
X151000Y69253D02*
D03*
X116200Y108600D02*
D03*
X215700Y38900D02*
D03*
X105916Y152100D02*
D03*
X98600Y107500D02*
D03*
X174800Y65500D02*
D03*
X39265Y29720D02*
D03*
X219800Y24000D02*
D03*
M02*
