G04*
G04 #@! TF.GenerationSoftware,Altium Limited,Altium Designer,20.1.14 (287)*
G04*
G04 Layer_Color=255*
%FSLAX25Y25*%
%MOIN*%
G70*
G04*
G04 #@! TF.SameCoordinates,9BBB710E-F05C-4809-8D11-837B32203116*
G04*
G04*
G04 #@! TF.FilePolarity,Positive*
G04*
G01*
G75*
%ADD17R,0.01968X0.01181*%
%ADD18R,0.02756X0.03543*%
%ADD19R,0.04583X0.01322*%
G04:AMPARAMS|DCode=20|XSize=45.83mil|YSize=13.22mil|CornerRadius=6.61mil|HoleSize=0mil|Usage=FLASHONLY|Rotation=180.000|XOffset=0mil|YOffset=0mil|HoleType=Round|Shape=RoundedRectangle|*
%AMROUNDEDRECTD20*
21,1,0.04583,0.00000,0,0,180.0*
21,1,0.03260,0.01322,0,0,180.0*
1,1,0.01322,-0.01630,0.00000*
1,1,0.01322,0.01630,0.00000*
1,1,0.01322,0.01630,0.00000*
1,1,0.01322,-0.01630,0.00000*
%
%ADD20ROUNDEDRECTD20*%
G04:AMPARAMS|DCode=21|XSize=53.15mil|YSize=23.62mil|CornerRadius=2.95mil|HoleSize=0mil|Usage=FLASHONLY|Rotation=0.000|XOffset=0mil|YOffset=0mil|HoleType=Round|Shape=RoundedRectangle|*
%AMROUNDEDRECTD21*
21,1,0.05315,0.01772,0,0,0.0*
21,1,0.04724,0.02362,0,0,0.0*
1,1,0.00591,0.02362,-0.00886*
1,1,0.00591,-0.02362,-0.00886*
1,1,0.00591,-0.02362,0.00886*
1,1,0.00591,0.02362,0.00886*
%
%ADD21ROUNDEDRECTD21*%
%ADD22R,0.03347X0.03347*%
%ADD23R,0.05000X0.02200*%
%ADD24R,0.05236X0.05236*%
%ADD25R,0.07874X0.03543*%
%ADD26R,0.03543X0.07874*%
%ADD27R,0.01968X0.00787*%
%ADD28R,0.01968X0.01968*%
%ADD29R,0.03543X0.02756*%
%ADD30R,0.03543X0.04528*%
%ADD31R,0.03150X0.04528*%
%ADD32R,0.02756X0.04528*%
%ADD33R,0.00787X0.00787*%
%ADD34R,0.03347X0.03347*%
%ADD66C,0.07284*%
%ADD67R,0.07284X0.07284*%
%ADD68R,0.05386X0.05386*%
%ADD69C,0.05386*%
%ADD70R,0.05386X0.05386*%
%ADD71C,0.05512*%
%ADD72C,0.01181*%
%ADD73C,0.01575*%
%ADD74C,0.01968*%
D17*
X58465Y38620D02*
D03*
X61221D02*
D03*
D18*
X215947Y74900D02*
D03*
X221853D02*
D03*
X197047Y77000D02*
D03*
X202953D02*
D03*
X111200Y173900D02*
D03*
X117105D02*
D03*
X117006Y180900D02*
D03*
X111100D02*
D03*
X70647Y221600D02*
D03*
X76553D02*
D03*
X227147Y75100D02*
D03*
X233053D02*
D03*
D19*
X82932Y76941D02*
D03*
X98732Y161741D02*
D03*
X95232Y114741D02*
D03*
D20*
X82932Y82059D02*
D03*
X76868Y79500D02*
D03*
X92668Y164300D02*
D03*
X98732Y166859D02*
D03*
X95232Y119859D02*
D03*
X89168Y117300D02*
D03*
D21*
X66665Y207740D02*
D03*
Y200260D02*
D03*
X57335D02*
D03*
Y204000D02*
D03*
Y207740D02*
D03*
D22*
X133465Y40468D02*
D03*
Y46571D02*
D03*
X33100Y204949D02*
D03*
Y211051D02*
D03*
X126265Y40617D02*
D03*
Y46720D02*
D03*
X100100Y214102D02*
D03*
Y208000D02*
D03*
X108600Y214102D02*
D03*
Y208000D02*
D03*
X187800Y55051D02*
D03*
Y48949D02*
D03*
X89600Y214051D02*
D03*
Y207949D02*
D03*
X119765Y46771D02*
D03*
Y40668D02*
D03*
X203800Y48949D02*
D03*
Y55051D02*
D03*
D23*
X232400Y57700D02*
D03*
Y50300D02*
D03*
X222200D02*
D03*
Y54000D02*
D03*
Y57700D02*
D03*
D24*
X172800Y186551D02*
D03*
X165576D02*
D03*
X158351D02*
D03*
X172800Y193776D02*
D03*
X165576D02*
D03*
X158351D02*
D03*
X172800Y201000D02*
D03*
X165576D02*
D03*
X158351D02*
D03*
D25*
X202977Y223303D02*
D03*
Y218303D02*
D03*
Y213303D02*
D03*
Y208303D02*
D03*
Y203303D02*
D03*
Y198303D02*
D03*
Y193303D02*
D03*
Y188303D02*
D03*
Y183303D02*
D03*
Y178303D02*
D03*
Y173303D02*
D03*
Y168303D02*
D03*
Y163303D02*
D03*
Y158303D02*
D03*
X136048D02*
D03*
Y163303D02*
D03*
Y168303D02*
D03*
Y173303D02*
D03*
Y178303D02*
D03*
Y183303D02*
D03*
Y188303D02*
D03*
Y193303D02*
D03*
Y198303D02*
D03*
Y203303D02*
D03*
Y208303D02*
D03*
Y213303D02*
D03*
Y218303D02*
D03*
Y223303D02*
D03*
D26*
X192013Y154366D02*
D03*
X187013D02*
D03*
X182013D02*
D03*
X177013D02*
D03*
X172013D02*
D03*
X167013D02*
D03*
X162013D02*
D03*
X157013D02*
D03*
X152013D02*
D03*
X147013D02*
D03*
D27*
X54426Y31188D02*
D03*
Y29220D02*
D03*
Y27251D02*
D03*
Y25283D02*
D03*
Y23314D02*
D03*
X66040D02*
D03*
Y25283D02*
D03*
Y27251D02*
D03*
Y29220D02*
D03*
Y31188D02*
D03*
D28*
X60233Y27251D02*
D03*
D29*
X178300Y36047D02*
D03*
Y41953D02*
D03*
X164800Y39953D02*
D03*
Y34047D02*
D03*
X209400Y61147D02*
D03*
Y67053D02*
D03*
X203300Y67453D02*
D03*
Y61547D02*
D03*
X30765Y30267D02*
D03*
Y36172D02*
D03*
X93765Y30220D02*
D03*
Y36125D02*
D03*
X93765Y42172D02*
D03*
Y48078D02*
D03*
D30*
X186635Y24461D02*
D03*
X164981D02*
D03*
D31*
X181792D02*
D03*
X169824D02*
D03*
D32*
X173839D02*
D03*
X177776D02*
D03*
D33*
X191339Y9500D02*
D03*
X157324D02*
D03*
X191339Y24461D02*
D03*
X157324D02*
D03*
D34*
X110649Y167800D02*
D03*
X116751D02*
D03*
X223749Y38500D02*
D03*
X229851D02*
D03*
X102213Y40720D02*
D03*
X108316D02*
D03*
X75713Y16220D02*
D03*
X81816D02*
D03*
D66*
X241000Y138500D02*
D03*
D67*
Y158500D02*
D03*
D68*
X228100Y204400D02*
D03*
X171500Y125000D02*
D03*
D69*
X228100Y212274D02*
D03*
X171500Y117126D02*
D03*
X148937Y123665D02*
D03*
X121563Y6835D02*
D03*
X52637Y164465D02*
D03*
Y116965D02*
D03*
X53137Y70465D02*
D03*
D70*
X141063Y123665D02*
D03*
X129437Y6835D02*
D03*
X44763Y164465D02*
D03*
Y116965D02*
D03*
X45263Y70465D02*
D03*
D71*
X74500Y147000D02*
D03*
X44500D02*
D03*
X75000Y130500D02*
D03*
X45000D02*
D03*
X74000Y91000D02*
D03*
X44000D02*
D03*
D72*
X169188Y186551D02*
D03*
X161963D02*
D03*
X172800Y190163D02*
D03*
X165576D02*
D03*
X158351D02*
D03*
X169188Y193776D02*
D03*
X161963D02*
D03*
X172800Y197388D02*
D03*
X165576D02*
D03*
X158351D02*
D03*
X169188Y201000D02*
D03*
X161963D02*
D03*
D73*
X62202Y29220D02*
D03*
X58265D02*
D03*
X60233Y27251D02*
D03*
X58265Y25283D02*
D03*
X62202D02*
D03*
D74*
X192816Y9500D02*
D03*
X158800D02*
D03*
X192816Y24461D02*
D03*
X158800D02*
D03*
M02*
