G04*
G04 #@! TF.GenerationSoftware,Altium Limited,Altium Designer,20.1.14 (287)*
G04*
G04 Layer_Color=8421504*
%FSLAX25Y25*%
%MOIN*%
G70*
G04*
G04 #@! TF.SameCoordinates,9BBB710E-F05C-4809-8D11-837B32203116*
G04*
G04*
G04 #@! TF.FilePolarity,Positive*
G04*
G01*
G75*
%ADD17R,0.01968X0.01181*%
%ADD18R,0.02756X0.03543*%
%ADD19R,0.04583X0.01322*%
G04:AMPARAMS|DCode=20|XSize=45.83mil|YSize=13.22mil|CornerRadius=6.61mil|HoleSize=0mil|Usage=FLASHONLY|Rotation=180.000|XOffset=0mil|YOffset=0mil|HoleType=Round|Shape=RoundedRectangle|*
%AMROUNDEDRECTD20*
21,1,0.04583,0.00000,0,0,180.0*
21,1,0.03260,0.01322,0,0,180.0*
1,1,0.01322,-0.01630,0.00000*
1,1,0.01322,0.01630,0.00000*
1,1,0.01322,0.01630,0.00000*
1,1,0.01322,-0.01630,0.00000*
%
%ADD20ROUNDEDRECTD20*%
G04:AMPARAMS|DCode=21|XSize=53.15mil|YSize=23.62mil|CornerRadius=2.95mil|HoleSize=0mil|Usage=FLASHONLY|Rotation=0.000|XOffset=0mil|YOffset=0mil|HoleType=Round|Shape=RoundedRectangle|*
%AMROUNDEDRECTD21*
21,1,0.05315,0.01772,0,0,0.0*
21,1,0.04724,0.02362,0,0,0.0*
1,1,0.00591,0.02362,-0.00886*
1,1,0.00591,-0.02362,-0.00886*
1,1,0.00591,-0.02362,0.00886*
1,1,0.00591,0.02362,0.00886*
%
%ADD21ROUNDEDRECTD21*%
%ADD22R,0.03347X0.03347*%
%ADD23R,0.05000X0.02200*%
%ADD24R,0.05236X0.05236*%
%ADD25R,0.07874X0.03543*%
%ADD26R,0.03543X0.07874*%
%ADD27R,0.01968X0.00787*%
%ADD28R,0.01968X0.01968*%
%ADD29R,0.03543X0.02756*%
%ADD30R,0.03543X0.04528*%
%ADD31R,0.03150X0.04528*%
%ADD32R,0.02756X0.04528*%
%ADD33R,0.00787X0.00787*%
%ADD34R,0.03347X0.03347*%
G36*
X59898Y31818D02*
X58993D01*
Y34180D01*
X59898D01*
Y31818D01*
D02*
G37*
G36*
X58324D02*
X57418D01*
Y34180D01*
X58324D01*
Y31818D01*
D02*
G37*
G36*
X55525Y31643D02*
X55551Y31641D01*
X55578Y31637D01*
X55604Y31632D01*
X55629Y31626D01*
X55655Y31619D01*
X55680Y31610D01*
X55704Y31600D01*
X55728Y31588D01*
X55751Y31576D01*
X55774Y31562D01*
X55795Y31547D01*
X55816Y31531D01*
X55836Y31514D01*
X55856Y31496D01*
X55874Y31477D01*
X55891Y31456D01*
X55907Y31435D01*
X55922Y31414D01*
X55936Y31391D01*
X55948Y31368D01*
X55960Y31344D01*
X55970Y31320D01*
X55979Y31295D01*
X55986Y31269D01*
X55992Y31244D01*
X55997Y31218D01*
X56001Y31188D01*
X55997Y31159D01*
X55992Y31133D01*
X55986Y31107D01*
X55979Y31082D01*
X55970Y31057D01*
X55960Y31032D01*
X55948Y31008D01*
X55936Y30985D01*
X55922Y30963D01*
X55907Y30941D01*
X55891Y30920D01*
X55874Y30900D01*
X55856Y30881D01*
X55836Y30863D01*
X55816Y30845D01*
X55795Y30829D01*
X55774Y30814D01*
X55751Y30801D01*
X55728Y30788D01*
X55704Y30777D01*
X55680Y30766D01*
X55655Y30758D01*
X55629Y30750D01*
X55604Y30744D01*
X55578Y30739D01*
X55551Y30736D01*
X55525Y30734D01*
X55499Y30733D01*
X55472Y30734D01*
X55450Y30735D01*
X52851D01*
Y31641D01*
X55450D01*
X55472Y31643D01*
X55499Y31643D01*
X55525Y31643D01*
D02*
G37*
G36*
Y29674D02*
X55551Y29672D01*
X55578Y29669D01*
X55604Y29664D01*
X55629Y29658D01*
X55655Y29650D01*
X55680Y29641D01*
X55704Y29631D01*
X55728Y29620D01*
X55751Y29607D01*
X55774Y29594D01*
X55795Y29579D01*
X55816Y29563D01*
X55836Y29545D01*
X55856Y29527D01*
X55874Y29508D01*
X55891Y29488D01*
X55907Y29467D01*
X55922Y29445D01*
X55936Y29423D01*
X55948Y29399D01*
X55960Y29376D01*
X55970Y29351D01*
X55979Y29326D01*
X55986Y29301D01*
X55992Y29275D01*
X55997Y29249D01*
X56001Y29220D01*
X55997Y29190D01*
X55992Y29164D01*
X55986Y29138D01*
X55979Y29113D01*
X55970Y29088D01*
X55960Y29064D01*
X55948Y29040D01*
X55936Y29017D01*
X55922Y28994D01*
X55907Y28972D01*
X55891Y28951D01*
X55874Y28931D01*
X55856Y28912D01*
X55836Y28894D01*
X55816Y28877D01*
X55795Y28861D01*
X55774Y28846D01*
X55751Y28832D01*
X55728Y28820D01*
X55704Y28808D01*
X55680Y28798D01*
X55655Y28789D01*
X55629Y28782D01*
X55604Y28776D01*
X55578Y28771D01*
X55551Y28767D01*
X55525Y28765D01*
X55499Y28765D01*
X55472Y28765D01*
X55450Y28767D01*
X52851D01*
Y29672D01*
X55450D01*
X55472Y29674D01*
X55499Y29675D01*
X55525Y29674D01*
D02*
G37*
G36*
X59800Y27684D02*
X57241D01*
Y31228D01*
X59800D01*
Y27684D01*
D02*
G37*
G36*
X55525Y27706D02*
X55551Y27704D01*
X55578Y27700D01*
X55604Y27695D01*
X55629Y27689D01*
X55655Y27682D01*
X55680Y27673D01*
X55704Y27663D01*
X55728Y27651D01*
X55751Y27639D01*
X55774Y27625D01*
X55795Y27610D01*
X55816Y27594D01*
X55836Y27577D01*
X55856Y27559D01*
X55874Y27540D01*
X55891Y27519D01*
X55907Y27498D01*
X55922Y27477D01*
X55936Y27454D01*
X55948Y27431D01*
X55960Y27407D01*
X55970Y27383D01*
X55979Y27358D01*
X55986Y27332D01*
X55992Y27307D01*
X55997Y27281D01*
X56001Y27251D01*
X55997Y27222D01*
X55992Y27196D01*
X55986Y27170D01*
X55979Y27145D01*
X55970Y27120D01*
X55960Y27095D01*
X55948Y27071D01*
X55936Y27048D01*
X55922Y27026D01*
X55907Y27004D01*
X55891Y26983D01*
X55874Y26963D01*
X55856Y26944D01*
X55836Y26926D01*
X55816Y26908D01*
X55795Y26892D01*
X55774Y26877D01*
X55751Y26864D01*
X55728Y26851D01*
X55704Y26840D01*
X55680Y26829D01*
X55655Y26821D01*
X55629Y26813D01*
X55604Y26807D01*
X55578Y26802D01*
X55551Y26799D01*
X55525Y26797D01*
X55499Y26796D01*
X55472Y26797D01*
X55450Y26798D01*
X52851D01*
Y27704D01*
X55450D01*
X55472Y27706D01*
X55499Y27706D01*
X55525Y27706D01*
D02*
G37*
G36*
Y25737D02*
X55551Y25735D01*
X55578Y25732D01*
X55604Y25727D01*
X55629Y25721D01*
X55655Y25713D01*
X55680Y25704D01*
X55704Y25694D01*
X55728Y25683D01*
X55751Y25670D01*
X55774Y25657D01*
X55795Y25642D01*
X55816Y25626D01*
X55836Y25608D01*
X55856Y25590D01*
X55874Y25571D01*
X55891Y25551D01*
X55907Y25530D01*
X55922Y25508D01*
X55936Y25486D01*
X55948Y25462D01*
X55960Y25439D01*
X55970Y25414D01*
X55979Y25389D01*
X55986Y25364D01*
X55992Y25338D01*
X55997Y25312D01*
X56001Y25283D01*
X55997Y25253D01*
X55992Y25227D01*
X55986Y25201D01*
X55979Y25176D01*
X55970Y25151D01*
X55960Y25127D01*
X55948Y25103D01*
X55936Y25080D01*
X55922Y25057D01*
X55907Y25035D01*
X55891Y25014D01*
X55874Y24994D01*
X55856Y24975D01*
X55836Y24957D01*
X55816Y24940D01*
X55795Y24924D01*
X55774Y24909D01*
X55751Y24895D01*
X55728Y24882D01*
X55704Y24871D01*
X55680Y24861D01*
X55655Y24852D01*
X55629Y24845D01*
X55604Y24839D01*
X55578Y24834D01*
X55551Y24830D01*
X55525Y24828D01*
X55499Y24827D01*
X55472Y24828D01*
X55450Y24830D01*
X52851D01*
Y25735D01*
X55450D01*
X55472Y25737D01*
X55499Y25738D01*
X55525Y25737D01*
D02*
G37*
G36*
X59800Y23275D02*
X57241D01*
Y26818D01*
X59800D01*
Y23275D01*
D02*
G37*
G36*
X55525Y23769D02*
X55551Y23767D01*
X55578Y23763D01*
X55604Y23758D01*
X55629Y23752D01*
X55655Y23745D01*
X55680Y23736D01*
X55704Y23726D01*
X55728Y23714D01*
X55751Y23702D01*
X55774Y23688D01*
X55795Y23673D01*
X55816Y23657D01*
X55836Y23640D01*
X55856Y23622D01*
X55874Y23603D01*
X55891Y23582D01*
X55907Y23561D01*
X55922Y23540D01*
X55936Y23517D01*
X55948Y23494D01*
X55960Y23470D01*
X55970Y23446D01*
X55979Y23421D01*
X55986Y23395D01*
X55992Y23370D01*
X55997Y23344D01*
X56001Y23314D01*
X55997Y23284D01*
X55992Y23258D01*
X55986Y23233D01*
X55979Y23208D01*
X55970Y23183D01*
X55960Y23158D01*
X55948Y23134D01*
X55936Y23111D01*
X55922Y23089D01*
X55907Y23067D01*
X55891Y23046D01*
X55874Y23026D01*
X55856Y23007D01*
X55836Y22989D01*
X55816Y22971D01*
X55795Y22955D01*
X55774Y22940D01*
X55751Y22927D01*
X55728Y22914D01*
X55704Y22903D01*
X55680Y22893D01*
X55655Y22884D01*
X55629Y22876D01*
X55604Y22870D01*
X55578Y22865D01*
X55551Y22862D01*
X55525Y22860D01*
X55499Y22859D01*
X55472Y22860D01*
X55450Y22861D01*
X52851D01*
Y23767D01*
X55450D01*
X55472Y23769D01*
X55499Y23769D01*
X55525Y23769D01*
D02*
G37*
G36*
X59898Y20322D02*
X58993D01*
Y22684D01*
X59898D01*
Y20322D01*
D02*
G37*
G36*
X58324D02*
X57418D01*
Y22684D01*
X58324D01*
Y20322D01*
D02*
G37*
G36*
X63048Y31818D02*
X62142D01*
Y34180D01*
X63048D01*
Y31818D01*
D02*
G37*
G36*
X61473D02*
X60568D01*
Y34180D01*
X61473D01*
Y31818D01*
D02*
G37*
G36*
X64994Y31643D02*
X65017Y31641D01*
X67615D01*
Y30735D01*
X65017D01*
X64994Y30734D01*
X64967Y30733D01*
X64941Y30734D01*
X64915Y30736D01*
X64888Y30739D01*
X64863Y30744D01*
X64837Y30750D01*
X64811Y30758D01*
X64787Y30766D01*
X64762Y30777D01*
X64738Y30788D01*
X64715Y30801D01*
X64693Y30814D01*
X64671Y30829D01*
X64650Y30845D01*
X64630Y30863D01*
X64611Y30881D01*
X64592Y30900D01*
X64575Y30920D01*
X64559Y30941D01*
X64544Y30963D01*
X64530Y30985D01*
X64518Y31008D01*
X64507Y31032D01*
X64496Y31057D01*
X64488Y31082D01*
X64480Y31107D01*
X64474Y31133D01*
X64469Y31159D01*
X64465Y31188D01*
X64469Y31218D01*
X64474Y31244D01*
X64480Y31269D01*
X64488Y31295D01*
X64496Y31320D01*
X64507Y31344D01*
X64518Y31368D01*
X64530Y31391D01*
X64544Y31414D01*
X64559Y31435D01*
X64575Y31456D01*
X64592Y31477D01*
X64611Y31496D01*
X64630Y31514D01*
X64650Y31531D01*
X64671Y31547D01*
X64693Y31562D01*
X64715Y31576D01*
X64738Y31588D01*
X64762Y31600D01*
X64787Y31610D01*
X64811Y31619D01*
X64837Y31626D01*
X64863Y31632D01*
X64888Y31637D01*
X64915Y31641D01*
X64941Y31643D01*
X64967Y31643D01*
X64994Y31643D01*
D02*
G37*
G36*
Y29674D02*
X65017Y29672D01*
X67615D01*
Y28767D01*
X65017D01*
X64994Y28765D01*
X64967Y28765D01*
X64941Y28765D01*
X64915Y28767D01*
X64888Y28771D01*
X64863Y28776D01*
X64837Y28782D01*
X64811Y28789D01*
X64787Y28798D01*
X64762Y28808D01*
X64738Y28820D01*
X64715Y28832D01*
X64693Y28846D01*
X64671Y28861D01*
X64650Y28877D01*
X64630Y28894D01*
X64611Y28912D01*
X64592Y28931D01*
X64575Y28951D01*
X64559Y28972D01*
X64544Y28994D01*
X64530Y29017D01*
X64518Y29040D01*
X64507Y29064D01*
X64496Y29088D01*
X64488Y29113D01*
X64480Y29138D01*
X64474Y29164D01*
X64469Y29190D01*
X64465Y29220D01*
X64469Y29249D01*
X64474Y29275D01*
X64480Y29301D01*
X64488Y29326D01*
X64496Y29351D01*
X64507Y29376D01*
X64518Y29399D01*
X64530Y29423D01*
X64544Y29445D01*
X64559Y29467D01*
X64575Y29488D01*
X64592Y29508D01*
X64611Y29527D01*
X64630Y29545D01*
X64650Y29563D01*
X64671Y29579D01*
X64693Y29594D01*
X64715Y29607D01*
X64738Y29620D01*
X64762Y29631D01*
X64787Y29641D01*
X64811Y29650D01*
X64837Y29658D01*
X64863Y29664D01*
X64888Y29669D01*
X64915Y29672D01*
X64941Y29674D01*
X64967Y29675D01*
X64994Y29674D01*
D02*
G37*
G36*
X63225Y27684D02*
X60666D01*
Y31228D01*
X63225D01*
Y27684D01*
D02*
G37*
G36*
X64994Y27706D02*
X65017Y27704D01*
X67615D01*
Y26798D01*
X65017D01*
X64994Y26797D01*
X64967Y26796D01*
X64941Y26797D01*
X64915Y26799D01*
X64888Y26802D01*
X64863Y26807D01*
X64837Y26813D01*
X64811Y26821D01*
X64787Y26829D01*
X64762Y26840D01*
X64738Y26851D01*
X64715Y26864D01*
X64693Y26877D01*
X64671Y26892D01*
X64650Y26908D01*
X64630Y26926D01*
X64611Y26944D01*
X64592Y26963D01*
X64575Y26983D01*
X64559Y27004D01*
X64544Y27026D01*
X64530Y27048D01*
X64518Y27071D01*
X64507Y27095D01*
X64496Y27120D01*
X64488Y27145D01*
X64480Y27170D01*
X64474Y27196D01*
X64469Y27222D01*
X64465Y27251D01*
X64469Y27281D01*
X64474Y27307D01*
X64480Y27332D01*
X64488Y27358D01*
X64496Y27383D01*
X64507Y27407D01*
X64518Y27431D01*
X64530Y27454D01*
X64544Y27477D01*
X64559Y27498D01*
X64575Y27519D01*
X64592Y27540D01*
X64611Y27559D01*
X64630Y27577D01*
X64650Y27594D01*
X64671Y27610D01*
X64693Y27625D01*
X64715Y27639D01*
X64738Y27651D01*
X64762Y27663D01*
X64787Y27673D01*
X64811Y27682D01*
X64837Y27689D01*
X64863Y27695D01*
X64888Y27700D01*
X64915Y27704D01*
X64941Y27706D01*
X64967Y27706D01*
X64994Y27706D01*
D02*
G37*
G36*
Y25737D02*
X65017Y25735D01*
X67615D01*
Y24830D01*
X65017D01*
X64994Y24828D01*
X64967Y24827D01*
X64941Y24828D01*
X64915Y24830D01*
X64888Y24834D01*
X64863Y24839D01*
X64837Y24845D01*
X64811Y24852D01*
X64787Y24861D01*
X64762Y24871D01*
X64738Y24882D01*
X64715Y24895D01*
X64693Y24909D01*
X64671Y24924D01*
X64650Y24940D01*
X64630Y24957D01*
X64611Y24975D01*
X64592Y24994D01*
X64575Y25014D01*
X64559Y25035D01*
X64544Y25057D01*
X64530Y25080D01*
X64518Y25103D01*
X64507Y25127D01*
X64496Y25151D01*
X64488Y25176D01*
X64480Y25201D01*
X64474Y25227D01*
X64469Y25253D01*
X64465Y25283D01*
X64469Y25312D01*
X64474Y25338D01*
X64480Y25364D01*
X64488Y25389D01*
X64496Y25414D01*
X64507Y25439D01*
X64518Y25462D01*
X64530Y25486D01*
X64544Y25508D01*
X64559Y25530D01*
X64575Y25551D01*
X64592Y25571D01*
X64611Y25590D01*
X64630Y25608D01*
X64650Y25626D01*
X64671Y25642D01*
X64693Y25657D01*
X64715Y25670D01*
X64738Y25683D01*
X64762Y25694D01*
X64787Y25704D01*
X64811Y25713D01*
X64837Y25721D01*
X64863Y25727D01*
X64888Y25732D01*
X64915Y25735D01*
X64941Y25737D01*
X64967Y25738D01*
X64994Y25737D01*
D02*
G37*
G36*
X63225Y23275D02*
X60666D01*
Y26818D01*
X63225D01*
Y23275D01*
D02*
G37*
G36*
X64994Y23769D02*
X65017Y23767D01*
X67615D01*
Y22861D01*
X65017D01*
X64994Y22860D01*
X64967Y22859D01*
X64941Y22860D01*
X64915Y22862D01*
X64888Y22865D01*
X64863Y22870D01*
X64837Y22876D01*
X64811Y22884D01*
X64787Y22893D01*
X64762Y22903D01*
X64738Y22914D01*
X64715Y22927D01*
X64693Y22940D01*
X64671Y22955D01*
X64650Y22971D01*
X64630Y22989D01*
X64611Y23007D01*
X64592Y23026D01*
X64575Y23046D01*
X64559Y23067D01*
X64544Y23089D01*
X64530Y23111D01*
X64518Y23134D01*
X64507Y23158D01*
X64496Y23183D01*
X64488Y23208D01*
X64480Y23233D01*
X64474Y23258D01*
X64469Y23284D01*
X64465Y23314D01*
X64469Y23344D01*
X64474Y23370D01*
X64480Y23395D01*
X64488Y23421D01*
X64496Y23446D01*
X64507Y23470D01*
X64518Y23494D01*
X64530Y23517D01*
X64544Y23540D01*
X64559Y23561D01*
X64575Y23582D01*
X64592Y23603D01*
X64611Y23622D01*
X64630Y23640D01*
X64650Y23657D01*
X64671Y23673D01*
X64693Y23688D01*
X64715Y23702D01*
X64738Y23714D01*
X64762Y23726D01*
X64787Y23736D01*
X64811Y23745D01*
X64837Y23752D01*
X64863Y23758D01*
X64888Y23763D01*
X64915Y23767D01*
X64941Y23769D01*
X64967Y23769D01*
X64994Y23769D01*
D02*
G37*
G36*
X63048Y20322D02*
X62142D01*
Y22684D01*
X63048D01*
Y20322D01*
D02*
G37*
G36*
X61473D02*
X60568D01*
Y22684D01*
X61473D01*
Y20322D01*
D02*
G37*
D17*
X58465Y38620D02*
D03*
X61221D02*
D03*
D18*
X215947Y74900D02*
D03*
X221853D02*
D03*
X197047Y77000D02*
D03*
X202953D02*
D03*
X111200Y173900D02*
D03*
X117105D02*
D03*
X117006Y180900D02*
D03*
X111100D02*
D03*
X70647Y221600D02*
D03*
X76553D02*
D03*
X227147Y75100D02*
D03*
X233053D02*
D03*
D19*
X82932Y76941D02*
D03*
X98732Y161741D02*
D03*
X95232Y114741D02*
D03*
D20*
X82932Y82059D02*
D03*
X76868Y79500D02*
D03*
X92668Y164300D02*
D03*
X98732Y166859D02*
D03*
X95232Y119859D02*
D03*
X89168Y117300D02*
D03*
D21*
X66665Y207740D02*
D03*
Y200260D02*
D03*
X57335D02*
D03*
Y204000D02*
D03*
Y207740D02*
D03*
D22*
X133465Y40468D02*
D03*
Y46571D02*
D03*
X33100Y204949D02*
D03*
Y211051D02*
D03*
X126265Y40617D02*
D03*
Y46720D02*
D03*
X100100Y214102D02*
D03*
Y208000D02*
D03*
X108600Y214102D02*
D03*
Y208000D02*
D03*
X187800Y55051D02*
D03*
Y48949D02*
D03*
X89600Y214051D02*
D03*
Y207949D02*
D03*
X119765Y46771D02*
D03*
Y40668D02*
D03*
X203800Y48949D02*
D03*
Y55051D02*
D03*
D23*
X232400Y57700D02*
D03*
Y50300D02*
D03*
X222200D02*
D03*
Y54000D02*
D03*
Y57700D02*
D03*
D24*
X172800Y186551D02*
D03*
X165576D02*
D03*
X158351D02*
D03*
X172800Y193776D02*
D03*
X165576D02*
D03*
X158351D02*
D03*
X172800Y201000D02*
D03*
X165576D02*
D03*
X158351D02*
D03*
D25*
X202977Y223303D02*
D03*
Y218303D02*
D03*
Y213303D02*
D03*
Y208303D02*
D03*
Y203303D02*
D03*
Y198303D02*
D03*
Y193303D02*
D03*
Y188303D02*
D03*
Y183303D02*
D03*
Y178303D02*
D03*
Y173303D02*
D03*
Y168303D02*
D03*
Y163303D02*
D03*
Y158303D02*
D03*
X136048D02*
D03*
Y163303D02*
D03*
Y168303D02*
D03*
Y173303D02*
D03*
Y178303D02*
D03*
Y183303D02*
D03*
Y188303D02*
D03*
Y193303D02*
D03*
Y198303D02*
D03*
Y203303D02*
D03*
Y208303D02*
D03*
Y213303D02*
D03*
Y218303D02*
D03*
Y223303D02*
D03*
D26*
X192013Y154366D02*
D03*
X187013D02*
D03*
X182013D02*
D03*
X177013D02*
D03*
X172013D02*
D03*
X167013D02*
D03*
X162013D02*
D03*
X157013D02*
D03*
X152013D02*
D03*
X147013D02*
D03*
D27*
X54426Y31188D02*
D03*
Y29220D02*
D03*
Y27251D02*
D03*
Y25283D02*
D03*
Y23314D02*
D03*
X66040D02*
D03*
Y25283D02*
D03*
Y27251D02*
D03*
Y29220D02*
D03*
Y31188D02*
D03*
D28*
X60233Y27251D02*
D03*
D29*
X178300Y36047D02*
D03*
Y41953D02*
D03*
X164800Y39953D02*
D03*
Y34047D02*
D03*
X209400Y61147D02*
D03*
Y67053D02*
D03*
X203300Y67453D02*
D03*
Y61547D02*
D03*
X30765Y30267D02*
D03*
Y36172D02*
D03*
X93765Y30220D02*
D03*
Y36125D02*
D03*
X93765Y42172D02*
D03*
Y48078D02*
D03*
D30*
X186635Y24461D02*
D03*
X164981D02*
D03*
D31*
X181792D02*
D03*
X169824D02*
D03*
D32*
X173839D02*
D03*
X177776D02*
D03*
D33*
X191339Y9500D02*
D03*
X157324D02*
D03*
X191339Y24461D02*
D03*
X157324D02*
D03*
D34*
X110649Y167800D02*
D03*
X116751D02*
D03*
X223749Y38500D02*
D03*
X229851D02*
D03*
X102213Y40720D02*
D03*
X108316D02*
D03*
X75713Y16220D02*
D03*
X81816D02*
D03*
M02*
