G04*
G04 #@! TF.GenerationSoftware,Altium Limited,Altium Designer,20.1.14 (287)*
G04*
G04 Layer_Color=16711935*
%FSLAX25Y25*%
%MOIN*%
G70*
G04*
G04 #@! TF.SameCoordinates,9BBB710E-F05C-4809-8D11-837B32203116*
G04*
G04*
G04 #@! TF.FilePolarity,Positive*
G04*
G01*
G75*
%ADD11C,0.00787*%
%ADD12C,0.00000*%
%ADD13C,0.00630*%
%ADD14C,0.00500*%
%ADD15C,0.00600*%
%ADD16C,0.01000*%
%ADD77C,0.00394*%
D11*
X228691Y194164D02*
G03*
X228691Y194164I-394J0D01*
G01*
X171697Y135236D02*
G03*
X171697Y135236I-394J0D01*
G01*
X131220Y123468D02*
G03*
X131220Y123468I-394J0D01*
G01*
X140067Y7032D02*
G03*
X140067Y7032I-394J0D01*
G01*
X34920Y164269D02*
G03*
X34920Y164269I-394J0D01*
G01*
Y116769D02*
G03*
X34920Y116769I-394J0D01*
G01*
X35421Y70268D02*
G03*
X35421Y70268I-394J0D01*
G01*
X130536Y223264D02*
G03*
X130536Y223264I-394J0D01*
G01*
X52945Y207740D02*
G03*
X52945Y207740I-394J0D01*
G01*
D12*
X226100Y60100D02*
G03*
X228500Y60100I1200J0D01*
G01*
D13*
X51099Y31661D02*
G03*
X51099Y31661I-315J0D01*
G01*
D14*
X221407Y219951D02*
X239124D01*
Y196723D02*
Y219951D01*
X221407Y196723D02*
X239124D01*
X221407D02*
Y219951D01*
X178193Y109449D02*
Y132677D01*
X160476D02*
X178193D01*
X160476Y109449D02*
Y132677D01*
Y109449D02*
X178193D01*
X133386Y130358D02*
X156614D01*
X133386Y112642D02*
Y130358D01*
Y112642D02*
X156614D01*
Y130358D01*
X58850Y198094D02*
Y209906D01*
Y198094D02*
X65150D01*
Y209906D01*
X58850D02*
X65150D01*
X113886Y142D02*
X137114D01*
Y17858D01*
X113886D02*
X137114D01*
X113886Y142D02*
Y17858D01*
X60314Y153442D02*
Y171158D01*
X37086Y153442D02*
X60314D01*
X37086D02*
Y171158D01*
X60314D01*
X37086Y123658D02*
X60314D01*
X37086Y105942D02*
Y123658D01*
Y105942D02*
X60314D01*
Y123658D01*
X37586Y77158D02*
X60814D01*
X37586Y59442D02*
Y77158D01*
Y59442D02*
X60814D01*
Y77158D01*
X134080Y227988D02*
X204946D01*
X134080D02*
Y252791D01*
Y152398D02*
Y227988D01*
Y152398D02*
X204946D01*
Y227988D01*
Y252791D01*
X134080D02*
X204946D01*
X54328Y33157D02*
X66139D01*
Y21346D02*
Y33157D01*
X54328Y21346D02*
X66139D01*
X54328D02*
Y33157D01*
X158209Y26429D02*
X193406D01*
Y-736D02*
Y26429D01*
X158209Y-736D02*
X193406D01*
X158209D02*
Y26429D01*
D15*
X230700Y58700D02*
X233200D01*
Y56800D02*
Y58700D01*
X230700Y56800D02*
X233200D01*
X230700D02*
Y58700D01*
Y60100D01*
Y51200D02*
X233200D01*
Y49300D02*
Y51200D01*
X230700Y49300D02*
X233200D01*
X221400D02*
X223900D01*
X221400D02*
Y51200D01*
X223900D01*
Y49300D02*
Y51200D01*
Y47900D02*
Y49300D01*
X221400Y53000D02*
X223900D01*
X221400D02*
Y55000D01*
X223900D01*
X221400Y56800D02*
X223900D01*
X221400D02*
Y58700D01*
X223900D01*
Y51200D02*
Y53000D01*
Y55000D01*
Y56800D01*
Y58700D01*
Y60100D01*
X226100D01*
X228500D01*
X230700D01*
Y51200D02*
Y56800D01*
Y49300D02*
Y51200D01*
Y47900D02*
Y49300D01*
X223900Y47900D02*
X230700D01*
D16*
X145891Y238028D02*
Y242693D01*
X148223Y245025D01*
X150556Y242693D01*
Y238028D01*
Y241526D01*
X145891D01*
X152888Y238028D02*
Y245025D01*
X157553Y238028D01*
Y245025D01*
X159886D02*
X164551D01*
X162219D01*
Y238028D01*
X171549Y245025D02*
X166884D01*
Y238028D01*
X171549D01*
X166884Y241526D02*
X169216D01*
X173881Y238028D02*
Y245025D01*
X178547Y238028D01*
Y245025D01*
X180879Y238028D02*
Y245025D01*
X185544Y238028D01*
Y245025D01*
X187877Y238028D02*
Y242693D01*
X190210Y245025D01*
X192542Y242693D01*
Y238028D01*
Y241526D01*
X187877D01*
D77*
X58563Y39309D02*
X61122D01*
X58563Y37931D02*
X61122D01*
X58563D02*
Y39309D01*
X61122Y37931D02*
Y39309D01*
X215553Y73030D02*
Y76770D01*
X222247Y73030D02*
Y76770D01*
X215553D02*
X222247D01*
X215553Y73030D02*
X222247D01*
X196653Y75130D02*
Y78870D01*
X203346Y75130D02*
Y78870D01*
X196653D02*
X203346D01*
X196653Y75130D02*
X203346D01*
X110806Y172030D02*
Y175770D01*
X117499Y172030D02*
Y175770D01*
X110806D02*
X117499D01*
X110806Y172030D02*
X117499D01*
X117399Y179030D02*
Y182770D01*
X110706Y179030D02*
Y182770D01*
Y179030D02*
X117399D01*
X110706Y182770D02*
X117399D01*
X70253Y219730D02*
Y223470D01*
X76947Y219730D02*
Y223470D01*
X70253D02*
X76947D01*
X70253Y219730D02*
X76947D01*
X226753Y73230D02*
Y76970D01*
X233447Y73230D02*
Y76970D01*
X226753D02*
X233447D01*
X226753Y73230D02*
X233447D01*
X176430Y35653D02*
Y42346D01*
X180170Y35653D02*
Y42346D01*
X176430Y35653D02*
X180170D01*
X176430Y42346D02*
X180170D01*
X166670Y33654D02*
Y40347D01*
X162930Y33654D02*
Y40347D01*
X166670D01*
X162930Y33654D02*
X166670D01*
X207530Y60754D02*
X211270D01*
X207530Y67447D02*
X211270D01*
X207530Y60754D02*
Y67447D01*
X211270Y60754D02*
Y67447D01*
X201430Y67847D02*
X205170D01*
X201430Y61154D02*
X205170D01*
Y67847D01*
X201430Y61154D02*
Y67847D01*
X28894Y29873D02*
X32635D01*
X28894Y36566D02*
X32635D01*
X28894Y29873D02*
Y36566D01*
X32635Y29873D02*
Y36566D01*
X91895Y29826D02*
X95635D01*
X91895Y36519D02*
X95635D01*
X91895Y29826D02*
Y36519D01*
X95635Y29826D02*
Y36519D01*
X91895Y41779D02*
X95635D01*
X91895Y48472D02*
X95635D01*
X91895Y41779D02*
Y48472D01*
X95635Y41779D02*
Y48472D01*
M02*
