G04*
G04 #@! TF.GenerationSoftware,Altium Limited,Altium Designer,20.1.14 (287)*
G04*
G04 Layer_Color=16711935*
%FSLAX44Y44*%
%MOMM*%
G71*
G04*
G04 #@! TF.SameCoordinates,F73B8E14-7BBA-4DA7-B101-32C151AF21F3*
G04*
G04*
G04 #@! TF.FilePolarity,Negative*
G04*
G01*
G75*
%ADD52C,1.7012*%
%ADD53R,1.7012X1.7012*%
%ADD54C,0.5032*%
%ADD55R,1.5712X1.5712*%
%ADD56C,1.5712*%
%ADD57C,0.6032*%
%ADD58C,1.6032*%
%ADD59R,1.5712X1.5712*%
%ADD60C,1.4732*%
%ADD61C,3.7032*%
D52*
X560324Y316950D02*
D03*
X625324D02*
D03*
Y361950D02*
D03*
D53*
X560324D02*
D03*
D54*
X411387Y510540D02*
D03*
X429737D02*
D03*
X402212Y501365D02*
D03*
X420562D02*
D03*
X438912D02*
D03*
X411387Y492190D02*
D03*
X429737D02*
D03*
X402212Y483015D02*
D03*
X420562D02*
D03*
X438912D02*
D03*
X411387Y473840D02*
D03*
X429737D02*
D03*
D55*
X114300Y295148D02*
D03*
X328770Y17360D02*
D03*
X114968Y178982D02*
D03*
X113698Y417742D02*
D03*
D56*
X134300Y295148D02*
D03*
X308770Y17360D02*
D03*
X579374Y539176D02*
D03*
X134968Y178982D02*
D03*
X133698Y417742D02*
D03*
D57*
X157992Y64218D02*
D03*
X147992D02*
D03*
X152992Y69218D02*
D03*
X147992Y74218D02*
D03*
X157992D02*
D03*
D58*
X113030Y373380D02*
D03*
X189230D02*
D03*
X111760Y231140D02*
D03*
X187960D02*
D03*
X114300Y331470D02*
D03*
X190500D02*
D03*
D59*
X579374Y519176D02*
D03*
D60*
X458216Y106934D02*
D03*
X472186Y72136D02*
D03*
X337566Y314198D02*
D03*
X362966Y314200D02*
D03*
X388370Y314198D02*
D03*
X413770Y314200D02*
D03*
X439170D02*
D03*
X488950Y175260D02*
D03*
X373412Y356870D02*
D03*
X312420Y424180D02*
D03*
X115480Y64820D02*
D03*
X307340Y495300D02*
D03*
X245618Y472948D02*
D03*
X312166Y459232D02*
D03*
X162560Y546100D02*
D03*
X299720Y520700D02*
D03*
X133350Y561340D02*
D03*
X295148Y275844D02*
D03*
X547878Y98806D02*
D03*
X269026Y386334D02*
D03*
X250444Y273050D02*
D03*
X443992Y166370D02*
D03*
X99732Y75488D02*
D03*
X558292Y60960D02*
D03*
D61*
X289306Y173990D02*
D03*
X499364Y342646D02*
D03*
M02*
