G04*
G04 #@! TF.GenerationSoftware,Altium Limited,Altium Designer,20.1.14 (287)*
G04*
G04 Layer_Color=12632256*
%FSLAX44Y44*%
%MOMM*%
G71*
G04*
G04 #@! TF.SameCoordinates,F73B8E14-7BBA-4DA7-B101-32C151AF21F3*
G04*
G04*
G04 #@! TF.FilePolarity,Positive*
G04*
G01*
G75*
%ADD65C,1.4980*%
%ADD66R,1.4980X1.4980*%
%ADD67C,0.3000*%
%ADD68R,1.3680X1.3680*%
%ADD69C,1.3680*%
%ADD70C,0.4000*%
%ADD71C,1.4000*%
%ADD72R,1.3680X1.3680*%
D65*
X560324Y316950D02*
D03*
X625324D02*
D03*
Y361950D02*
D03*
D66*
X560324D02*
D03*
D67*
X411387Y510540D02*
D03*
X429737D02*
D03*
X402212Y501365D02*
D03*
X420562D02*
D03*
X438912D02*
D03*
X411387Y492190D02*
D03*
X429737D02*
D03*
X402212Y483015D02*
D03*
X420562D02*
D03*
X438912D02*
D03*
X411387Y473840D02*
D03*
X429737D02*
D03*
D68*
X114300Y295148D02*
D03*
X328770Y17360D02*
D03*
X114968Y178982D02*
D03*
X113698Y417742D02*
D03*
D69*
X134300Y295148D02*
D03*
X308770Y17360D02*
D03*
X579374Y539176D02*
D03*
X134968Y178982D02*
D03*
X133698Y417742D02*
D03*
D70*
X157992Y64218D02*
D03*
X147992D02*
D03*
X152992Y69218D02*
D03*
X147992Y74218D02*
D03*
X157992D02*
D03*
D71*
X113030Y373380D02*
D03*
X189230D02*
D03*
X111760Y231140D02*
D03*
X187960D02*
D03*
X114300Y331470D02*
D03*
X190500D02*
D03*
D72*
X579374Y519176D02*
D03*
M02*
