G04*
G04 #@! TF.GenerationSoftware,Altium Limited,Altium Designer,20.1.14 (287)*
G04*
G04 Layer_Color=16711935*
%FSLAX44Y44*%
%MOMM*%
G71*
G04*
G04 #@! TF.SameCoordinates,F73B8E14-7BBA-4DA7-B101-32C151AF21F3*
G04*
G04*
G04 #@! TF.FilePolarity,Positive*
G04*
G01*
G75*
%ADD10C,0.1270*%
%ADD11C,0.2000*%
%ADD12C,0.0000*%
%ADD13C,0.1600*%
%ADD14C,0.1524*%
%ADD15C,0.2540*%
%ADD75C,0.1000*%
D10*
X610374Y339450D02*
G03*
X610374Y339450I-17550J0D01*
G01*
X562874Y309500D02*
Y369400D01*
Y309500D02*
X622774D01*
Y369400D01*
X562874D02*
X622774D01*
X149480Y533160D02*
X165480D01*
Y503160D02*
Y533160D01*
X149480Y503160D02*
X165480D01*
X149480D02*
Y533160D01*
X340562Y642090D02*
X520562D01*
Y579090D02*
Y642090D01*
Y387090D02*
Y579090D01*
X340562Y387090D02*
X520562D01*
X340562D02*
Y579090D01*
Y642090D01*
Y579090D02*
X520562D01*
X153800Y267148D02*
Y312148D01*
X94800Y267148D02*
X153800D01*
X94800D02*
Y312148D01*
X153800D01*
X137992Y54218D02*
Y84218D01*
Y54218D02*
X167992D01*
Y84218D01*
X137992D02*
X167992D01*
X497686Y6328D02*
X538186D01*
X422686D02*
X497686D01*
X422686D02*
Y49828D01*
Y-672D02*
Y6328D01*
Y-672D02*
X497686D01*
Y6328D01*
Y49828D01*
X422686D02*
X497686D01*
X289270Y360D02*
Y45360D01*
X348270D01*
Y360D02*
Y45360D01*
X289270Y360D02*
X348270D01*
X562374Y499676D02*
Y558676D01*
Y499676D02*
X607374D01*
Y558676D01*
X562374D02*
X607374D01*
X154468Y150982D02*
Y195982D01*
X95468Y150982D02*
X154468D01*
X95468D02*
Y195982D01*
X154468D01*
X94198Y434742D02*
X153198D01*
X94198Y389742D02*
Y434742D01*
Y389742D02*
X153198D01*
Y434742D01*
D11*
X134480Y527660D02*
G03*
X134480Y527660I-1000J0D01*
G01*
X331562Y567090D02*
G03*
X331562Y567090I-1000J0D01*
G01*
X89300Y294648D02*
G03*
X89300Y294648I-1000J0D01*
G01*
X447186Y60578D02*
G03*
X447186Y60578I-1000J0D01*
G01*
X355770Y17860D02*
G03*
X355770Y17860I-1000J0D01*
G01*
X580874Y493176D02*
G03*
X580874Y493176I-1000J0D01*
G01*
X89968Y178482D02*
G03*
X89968Y178482I-1000J0D01*
G01*
X88698Y417242D02*
G03*
X88698Y417242I-1000J0D01*
G01*
D12*
X574294Y152654D02*
G03*
X580390Y152654I3048J0D01*
G01*
D13*
X129792Y80418D02*
G03*
X129792Y80418I-800J0D01*
G01*
D14*
X568706Y121666D02*
X585978D01*
Y125222D01*
Y130048D01*
Y144272D01*
X580390Y152654D02*
X585978D01*
X574294D02*
X580390D01*
X568706D02*
X574294D01*
X568706Y149098D02*
Y152654D01*
Y144272D02*
Y149098D01*
Y139700D02*
Y144272D01*
Y134620D02*
Y139700D01*
Y130048D02*
Y134620D01*
X562356Y149098D02*
X568706D01*
X562356Y144272D02*
Y149098D01*
Y144272D02*
X568706D01*
X562356Y139700D02*
X568706D01*
X562356Y134620D02*
Y139700D01*
Y134620D02*
X568706D01*
Y121666D02*
Y125222D01*
Y130048D01*
X562356D02*
X568706D01*
X562356Y125222D02*
Y130048D01*
Y125222D02*
X568706D01*
X585978D02*
X592328D01*
Y130048D01*
X585978D02*
X592328D01*
X585978Y149098D02*
Y152654D01*
Y144272D02*
Y149098D01*
Y144272D02*
X592328D01*
Y149098D01*
X585978D02*
X592328D01*
D15*
X370562Y604590D02*
Y616440D01*
X376487Y622364D01*
X382411Y616440D01*
Y604590D01*
Y613477D01*
X370562D01*
X388336Y604590D02*
Y622364D01*
X400186Y604590D01*
Y622364D01*
X406110D02*
X417960D01*
X412035D01*
Y604590D01*
X435734Y622364D02*
X423885D01*
Y604590D01*
X435734D01*
X423885Y613477D02*
X429809D01*
X441659Y604590D02*
Y622364D01*
X453508Y604590D01*
Y622364D01*
X459433Y604590D02*
Y622364D01*
X471283Y604590D01*
Y622364D01*
X477208Y604590D02*
Y616440D01*
X483132Y622364D01*
X489057Y616440D01*
Y604590D01*
Y613477D01*
X477208D01*
X511186Y9578D02*
Y13641D01*
X513217D01*
X513895Y12964D01*
Y11609D01*
X513217Y10932D01*
X511186D01*
X517957Y12964D02*
X517280Y13641D01*
X515926D01*
X515249Y12964D01*
Y10255D01*
X515926Y9578D01*
X517280D01*
X517957Y10255D01*
X519311Y13641D02*
Y9578D01*
X521343D01*
X522020Y10255D01*
Y10932D01*
X521343Y11609D01*
X519311D01*
X521343D01*
X522020Y12286D01*
Y12964D01*
X521343Y13641D01*
X519311D01*
X530145D02*
X527437D01*
Y9578D01*
X530145D01*
X527437Y11609D02*
X528791D01*
X534208Y13641D02*
Y9578D01*
X532177D01*
X531499Y10255D01*
Y11609D01*
X532177Y12286D01*
X534208D01*
X536916Y8224D02*
X537593D01*
X538270Y8901D01*
Y12286D01*
X536239D01*
X535562Y11609D01*
Y10255D01*
X536239Y9578D01*
X538270D01*
X541656D02*
X540302D01*
X539625Y10255D01*
Y11609D01*
X540302Y12286D01*
X541656D01*
X542333Y11609D01*
Y10932D01*
X539625D01*
D75*
X281448Y436956D02*
X298448D01*
X281448Y446456D02*
X298448D01*
Y436956D02*
Y446456D01*
X281448Y436956D02*
Y446456D01*
X155250Y96344D02*
Y99844D01*
X148750Y96344D02*
Y99844D01*
Y96344D02*
X155250D01*
X148750Y99844D02*
X155250D01*
X499500Y190830D02*
X516500D01*
X499500Y200330D02*
X516500D01*
Y190830D02*
Y200330D01*
X499500Y190830D02*
Y200330D01*
X547506Y185496D02*
X564506D01*
X547506Y194996D02*
X564506D01*
Y185496D02*
Y194996D01*
X547506Y185496D02*
Y194996D01*
X242912Y106118D02*
Y123118D01*
X233412Y106118D02*
Y123118D01*
X242912D01*
X233412Y106118D02*
X242912D01*
X242912Y75758D02*
Y92758D01*
X233412Y75758D02*
Y92758D01*
X242912D01*
X233412Y75758D02*
X242912D01*
X82892Y75878D02*
Y92878D01*
X73392Y75878D02*
Y92878D01*
X82892D01*
X73392Y75878D02*
X82892D01*
X511632Y155330D02*
Y172330D01*
X521132Y155330D02*
Y172330D01*
X511632Y155330D02*
X521132D01*
X511632Y172330D02*
X521132D01*
X536626Y154314D02*
Y171314D01*
X527126Y154314D02*
Y171314D01*
X536626D01*
X527126Y154314D02*
X536626D01*
X575954Y186004D02*
X592954D01*
X575954Y195504D02*
X592954D01*
Y186004D02*
Y195504D01*
X575954Y186004D02*
Y195504D01*
X178444Y558114D02*
X195444D01*
X178444Y567614D02*
X195444D01*
Y558114D02*
Y567614D01*
X178444Y558114D02*
Y567614D01*
X281194Y464236D02*
X298194D01*
X281194Y454736D02*
X298194D01*
X281194D02*
Y464236D01*
X298194Y454736D02*
Y464236D01*
M02*
