G04*
G04 #@! TF.GenerationSoftware,Altium Limited,Altium Designer,20.1.14 (287)*
G04*
G04 Layer_Color=255*
%FSLAX44Y44*%
%MOMM*%
G71*
G04*
G04 #@! TF.SameCoordinates,F73B8E14-7BBA-4DA7-B101-32C151AF21F3*
G04*
G04*
G04 #@! TF.FilePolarity,Positive*
G04*
G01*
G75*
G04:AMPARAMS|DCode=16|XSize=1.35mm|YSize=0.6mm|CornerRadius=0.075mm|HoleSize=0mm|Usage=FLASHONLY|Rotation=0.000|XOffset=0mm|YOffset=0mm|HoleType=Round|Shape=RoundedRectangle|*
%AMROUNDEDRECTD16*
21,1,1.3500,0.4500,0,0,0.0*
21,1,1.2000,0.6000,0,0,0.0*
1,1,0.1500,0.6000,-0.2250*
1,1,0.1500,-0.6000,-0.2250*
1,1,0.1500,-0.6000,0.2250*
1,1,0.1500,0.6000,0.2250*
%
%ADD16ROUNDEDRECTD16*%
%ADD17R,1.2700X0.5588*%
%ADD18R,0.8500X0.8500*%
%ADD19R,2.0000X0.9000*%
%ADD20R,0.9000X2.0000*%
%ADD21R,1.3300X1.3300*%
%ADD22R,0.7000X0.9000*%
%ADD23R,1.1640X0.3358*%
G04:AMPARAMS|DCode=24|XSize=1.164mm|YSize=0.3358mm|CornerRadius=0.1679mm|HoleSize=0mm|Usage=FLASHONLY|Rotation=180.000|XOffset=0mm|YOffset=0mm|HoleType=Round|Shape=RoundedRectangle|*
%AMROUNDEDRECTD24*
21,1,1.1640,0.0000,0,0,180.0*
21,1,0.8281,0.3358,0,0,180.0*
1,1,0.3358,-0.4141,0.0000*
1,1,0.3358,0.4141,0.0000*
1,1,0.3358,0.4141,0.0000*
1,1,0.3358,-0.4141,0.0000*
%
%ADD24ROUNDEDRECTD24*%
%ADD25R,0.5000X0.2000*%
%ADD26R,0.5000X0.5000*%
%ADD27R,1.8000X1.9000*%
%ADD28R,1.9000X1.9000*%
%ADD29R,2.1000X1.6000*%
%ADD30R,0.4000X1.3500*%
%ADD31R,0.5000X0.3000*%
%ADD32R,0.8500X0.8500*%
%ADD33R,0.9000X0.7000*%
%ADD65C,1.4980*%
%ADD66R,1.4980X1.4980*%
%ADD67C,0.3000*%
%ADD68R,1.3680X1.3680*%
%ADD69C,1.3680*%
%ADD70C,0.4000*%
%ADD71C,1.4000*%
%ADD72R,1.3680X1.3680*%
D16*
X145630Y527660D02*
D03*
Y518160D02*
D03*
Y508660D02*
D03*
X169330D02*
D03*
Y527660D02*
D03*
D17*
X564388Y146558D02*
D03*
Y137160D02*
D03*
Y127762D02*
D03*
X590296D02*
D03*
Y146558D02*
D03*
D18*
X339000Y118290D02*
D03*
Y102790D02*
D03*
X517652Y139830D02*
D03*
Y124330D02*
D03*
X304202Y103298D02*
D03*
Y118798D02*
D03*
X84074Y536070D02*
D03*
Y520570D02*
D03*
X227584Y528190D02*
D03*
Y543690D02*
D03*
X477012Y124330D02*
D03*
Y139830D02*
D03*
X275844Y528320D02*
D03*
Y543820D02*
D03*
X254254Y528320D02*
D03*
Y543820D02*
D03*
X320712Y118668D02*
D03*
Y103168D02*
D03*
D19*
X345562Y567190D02*
D03*
Y554490D02*
D03*
Y541790D02*
D03*
Y529090D02*
D03*
Y516390D02*
D03*
Y503690D02*
D03*
Y490990D02*
D03*
Y478290D02*
D03*
Y465590D02*
D03*
Y452890D02*
D03*
Y440190D02*
D03*
Y427490D02*
D03*
Y414790D02*
D03*
Y402090D02*
D03*
X515562D02*
D03*
Y414790D02*
D03*
Y427490D02*
D03*
Y440190D02*
D03*
Y452890D02*
D03*
Y465590D02*
D03*
Y478290D02*
D03*
Y490990D02*
D03*
Y503690D02*
D03*
Y516390D02*
D03*
Y529090D02*
D03*
Y541790D02*
D03*
Y554490D02*
D03*
Y567190D02*
D03*
D20*
X373412Y392090D02*
D03*
X386112D02*
D03*
X398812D02*
D03*
X411512D02*
D03*
X424212D02*
D03*
X436912D02*
D03*
X449612D02*
D03*
X462312D02*
D03*
X475012D02*
D03*
X487712D02*
D03*
D21*
X402212Y510540D02*
D03*
X420562D02*
D03*
X438912D02*
D03*
X402212Y492190D02*
D03*
X420562D02*
D03*
X438912D02*
D03*
X402212Y473840D02*
D03*
X420562D02*
D03*
X438912D02*
D03*
D22*
X297448Y441706D02*
D03*
X282448D02*
D03*
X515500Y195580D02*
D03*
X500500D02*
D03*
X563506Y190246D02*
D03*
X548506D02*
D03*
X591954Y190754D02*
D03*
X576954D02*
D03*
X194444Y562864D02*
D03*
X179444D02*
D03*
X282194Y459486D02*
D03*
X297194D02*
D03*
D23*
X250779Y410822D02*
D03*
X210647Y195430D02*
D03*
X241889Y291442D02*
D03*
D24*
X250779Y423822D02*
D03*
X235377Y417322D02*
D03*
X195245Y201930D02*
D03*
X210647Y208430D02*
D03*
X226487Y297942D02*
D03*
X241889Y304442D02*
D03*
D25*
X167742Y79218D02*
D03*
Y74218D02*
D03*
Y69218D02*
D03*
Y64218D02*
D03*
Y59218D02*
D03*
X138242D02*
D03*
Y64218D02*
D03*
Y69218D02*
D03*
Y74218D02*
D03*
Y79218D02*
D03*
D26*
X152992Y69218D02*
D03*
D27*
X498186Y20828D02*
D03*
X422186D02*
D03*
D28*
X472186D02*
D03*
X448186D02*
D03*
D29*
X491186Y46328D02*
D03*
X429186D02*
D03*
D30*
X473186Y47578D02*
D03*
X447186D02*
D03*
X466686D02*
D03*
X453686D02*
D03*
X460186D02*
D03*
D31*
X155500Y98094D02*
D03*
X148500D02*
D03*
D32*
X207812Y41198D02*
D03*
X192312D02*
D03*
X275122Y103428D02*
D03*
X259622D02*
D03*
X583822Y97790D02*
D03*
X568322D02*
D03*
X296548Y426212D02*
D03*
X281048D02*
D03*
D33*
X238162Y122118D02*
D03*
Y107118D02*
D03*
X238162Y91758D02*
D03*
Y76758D02*
D03*
X78142Y91878D02*
D03*
Y76878D02*
D03*
X516382Y156330D02*
D03*
Y171330D02*
D03*
X531876Y170314D02*
D03*
Y155314D02*
D03*
D65*
X560324Y316950D02*
D03*
X625324D02*
D03*
Y361950D02*
D03*
D66*
X560324D02*
D03*
D67*
X411387Y510540D02*
D03*
X429737D02*
D03*
X402212Y501365D02*
D03*
X420562D02*
D03*
X438912D02*
D03*
X411387Y492190D02*
D03*
X429737D02*
D03*
X402212Y483015D02*
D03*
X420562D02*
D03*
X438912D02*
D03*
X411387Y473840D02*
D03*
X429737D02*
D03*
D68*
X114300Y295148D02*
D03*
X328770Y17360D02*
D03*
X114968Y178982D02*
D03*
X113698Y417742D02*
D03*
D69*
X134300Y295148D02*
D03*
X308770Y17360D02*
D03*
X579374Y539176D02*
D03*
X134968Y178982D02*
D03*
X133698Y417742D02*
D03*
D70*
X157992Y64218D02*
D03*
X147992D02*
D03*
X152992Y69218D02*
D03*
X147992Y74218D02*
D03*
X157992D02*
D03*
D71*
X113030Y373380D02*
D03*
X189230D02*
D03*
X111760Y231140D02*
D03*
X187960D02*
D03*
X114300Y331470D02*
D03*
X190500D02*
D03*
D72*
X579374Y519176D02*
D03*
M02*
