G04*
G04 #@! TF.GenerationSoftware,Altium Limited,Altium Designer,20.1.14 (287)*
G04*
G04 Layer_Color=65535*
%FSLAX44Y44*%
%MOMM*%
G71*
G04*
G04 #@! TF.SameCoordinates,F73B8E14-7BBA-4DA7-B101-32C151AF21F3*
G04*
G04*
G04 #@! TF.FilePolarity,Positive*
G04*
G01*
G75*
%ADD10C,0.1270*%
%ADD11C,0.2000*%
%ADD12C,0.0000*%
%ADD13C,0.1600*%
%ADD14C,0.1524*%
%ADD15C,0.2540*%
D10*
X610374Y339450D02*
G03*
X610374Y339450I-17550J0D01*
G01*
X570824Y369400D02*
X615824D01*
X622824Y327950D02*
Y350950D01*
X569824Y309500D02*
X615824D01*
X562874Y327950D02*
Y350950D01*
X149480Y533860D02*
X165480D01*
X149480Y502460D02*
X165480D01*
X340562Y387090D02*
Y393590D01*
Y387090D02*
X365062D01*
X496062D02*
X520562D01*
Y393590D01*
X340562Y577090D02*
Y642090D01*
X520562D01*
Y577090D02*
Y642090D01*
X94800Y267148D02*
X153800D01*
X94800D02*
Y312148D01*
X153800D01*
Y267148D02*
Y312148D01*
X137992Y54218D02*
Y54618D01*
X167992Y54218D02*
Y54618D01*
Y83818D02*
Y84218D01*
X137992Y83818D02*
Y84218D01*
X163442Y54218D02*
X167992D01*
X137992D02*
X142542D01*
X163442Y84218D02*
X167992D01*
X137992D02*
X142542D01*
X497686Y6328D02*
Y7578D01*
X422686Y6328D02*
X497686D01*
X422686D02*
Y7578D01*
X289270Y45360D02*
X348270D01*
Y360D02*
Y45360D01*
X289270Y360D02*
X348270D01*
X289270D02*
Y45360D01*
X562374Y558676D02*
X607374D01*
X562374Y499676D02*
Y558676D01*
Y499676D02*
X607374D01*
Y558676D01*
X95468Y150982D02*
X154468D01*
X95468D02*
Y195982D01*
X154468D01*
Y150982D02*
Y195982D01*
X153198Y389742D02*
Y434742D01*
X94198D02*
X153198D01*
X94198Y389742D02*
Y434742D01*
Y389742D02*
X153198D01*
D11*
X549374Y361950D02*
G03*
X549374Y361950I-1000J0D01*
G01*
X134480Y527660D02*
G03*
X134480Y527660I-1000J0D01*
G01*
X331562Y567090D02*
G03*
X331562Y567090I-1000J0D01*
G01*
X89300Y294648D02*
G03*
X89300Y294648I-1000J0D01*
G01*
X447186Y60578D02*
G03*
X447186Y60578I-1000J0D01*
G01*
X355770Y17860D02*
G03*
X355770Y17860I-1000J0D01*
G01*
X580874Y493176D02*
G03*
X580874Y493176I-1000J0D01*
G01*
X89968Y178482D02*
G03*
X89968Y178482I-1000J0D01*
G01*
X88698Y417242D02*
G03*
X88698Y417242I-1000J0D01*
G01*
X287948Y438206D02*
X291948D01*
X287948Y445206D02*
X291948D01*
X232578Y429822D02*
X253578D01*
X232578Y404822D02*
X253578D01*
X176530Y373380D02*
X178816D01*
X123444D02*
X125730D01*
X176530Y365760D02*
Y373380D01*
X125730Y365760D02*
X176530D01*
X125730D02*
Y381000D01*
X176530D01*
Y373380D02*
Y381000D01*
X161000Y97594D02*
Y98594D01*
X506000Y192080D02*
X510000D01*
X506000Y199080D02*
X510000D01*
X554006Y186746D02*
X558006D01*
X554006Y193746D02*
X558006D01*
X192446Y189430D02*
X213446D01*
X192446Y214430D02*
X213446D01*
X223688Y285442D02*
X244688D01*
X223688Y310442D02*
X244688D01*
X241662Y112618D02*
Y116618D01*
X234662Y112618D02*
Y116618D01*
X241662Y82258D02*
Y86258D01*
X234662Y82258D02*
Y86258D01*
X81642Y82378D02*
Y86378D01*
X74642Y82378D02*
Y86378D01*
X512882Y161830D02*
Y165830D01*
X519882Y161830D02*
Y165830D01*
X535376Y160814D02*
Y164814D01*
X528376Y160814D02*
Y164814D01*
X582454Y187254D02*
X586454D01*
X582454Y194254D02*
X586454D01*
X184944Y559364D02*
X188944D01*
X184944Y566364D02*
X188944D01*
X175260Y231140D02*
X177546D01*
X122174D02*
X124460D01*
X175260Y223520D02*
Y231140D01*
X124460Y223520D02*
X175260D01*
X124460D02*
Y238760D01*
X175260D01*
Y231140D02*
Y238760D01*
X177800Y331470D02*
X180086D01*
X124714D02*
X127000D01*
X177800Y323850D02*
Y331470D01*
X127000Y323850D02*
X177800D01*
X127000D02*
Y339090D01*
X177800D01*
Y331470D02*
Y339090D01*
X287694Y462986D02*
X291694D01*
X287694Y455986D02*
X291694D01*
D12*
X574294Y152654D02*
G03*
X580390Y152654I3048J0D01*
G01*
D13*
X129792Y80418D02*
G03*
X129792Y80418I-800J0D01*
G01*
D14*
X580390Y152654D02*
X583438D01*
X574294D02*
X580390D01*
X571246D02*
X574294D01*
X335000Y110541D02*
X342999D01*
X513652Y132081D02*
X521651D01*
X200061Y37198D02*
Y45197D01*
X267371Y99428D02*
Y107427D01*
X300202Y111049D02*
X308201D01*
X80075Y528319D02*
X88074D01*
X223584Y535941D02*
X231583D01*
X473012Y132081D02*
X481011D01*
X576073Y93791D02*
Y101790D01*
X271844Y536071D02*
X279843D01*
X250254D02*
X258253D01*
X288797Y422212D02*
Y430211D01*
X316712Y110919D02*
X324711D01*
D15*
X511567Y250444D02*
Y265679D01*
X519184D01*
X521723Y263140D01*
Y258062D01*
X519184Y255522D01*
X511567D01*
X516645D02*
X521723Y250444D01*
X534419D02*
X529341D01*
X526802Y252983D01*
Y258062D01*
X529341Y260601D01*
X534419D01*
X536959Y258062D01*
Y255522D01*
X526802D01*
X542037Y260601D02*
X547115Y250444D01*
X552194Y260601D01*
X572507Y250444D02*
X577585D01*
X575046D01*
Y265679D01*
X572507Y263140D01*
X559166Y392405D02*
X556627Y394944D01*
X551548D01*
X549009Y392405D01*
Y389866D01*
X551548Y387327D01*
X556627D01*
X559166Y384787D01*
Y382248D01*
X556627Y379709D01*
X551548D01*
X549009Y382248D01*
X564244Y394944D02*
Y379709D01*
X569322Y384787D01*
X574401Y379709D01*
Y394944D01*
X132680Y490827D02*
Y478132D01*
X135219Y475592D01*
X140298D01*
X142837Y478132D01*
Y490827D01*
X155533Y475592D02*
Y490827D01*
X147915Y483210D01*
X158072D01*
X598936Y118108D02*
Y105412D01*
X601475Y102872D01*
X606554D01*
X609093Y105412D01*
Y118108D01*
X614171Y115568D02*
X616710Y118108D01*
X621789D01*
X624328Y115568D01*
Y113029D01*
X621789Y110490D01*
X619249D01*
X621789D01*
X624328Y107951D01*
Y105412D01*
X621789Y102872D01*
X616710D01*
X614171Y105412D01*
X335537Y162558D02*
X332998Y165098D01*
X327919D01*
X325380Y162558D01*
Y152402D01*
X327919Y149862D01*
X332998D01*
X335537Y152402D01*
X340615Y149862D02*
X345694D01*
X343154D01*
Y165098D01*
X340615Y162558D01*
X353311D02*
X355850Y165098D01*
X360929D01*
X363468Y162558D01*
Y160019D01*
X360929Y157480D01*
X358390D01*
X360929D01*
X363468Y154941D01*
Y152402D01*
X360929Y149862D01*
X355850D01*
X353311Y152402D01*
X415292Y375918D02*
Y363222D01*
X417831Y360682D01*
X422909D01*
X425448Y363222D01*
Y375918D01*
X99057Y337815D02*
X93978D01*
X96517D01*
Y325119D01*
X93978Y322580D01*
X91439D01*
X88900Y325119D01*
X114292Y337815D02*
X104135D01*
Y330197D01*
X109213Y332737D01*
X111753D01*
X114292Y330197D01*
Y325119D01*
X111753Y322580D01*
X106674D01*
X104135Y325119D01*
X189325Y439204D02*
X189150Y454438D01*
X196767Y454526D01*
X199335Y452016D01*
X199394Y446938D01*
X196884Y444370D01*
X189267Y444282D01*
X194345Y444340D02*
X199481Y439321D01*
X204559Y439379D02*
X209637Y439438D01*
X207098Y439408D01*
X206923Y454642D01*
X204413Y452074D01*
X217108Y452220D02*
X219618Y454789D01*
X224696Y454847D01*
X227264Y452337D01*
X227293Y449798D01*
X224784Y447230D01*
X227352Y444720D01*
X227381Y442181D01*
X224871Y439613D01*
X219793Y439554D01*
X217225Y442064D01*
X217196Y444603D01*
X219706Y447172D01*
X217137Y449681D01*
X217108Y452220D01*
X219706Y447172D02*
X224784Y447230D01*
X210821Y398782D02*
Y408938D01*
X208282Y411478D01*
X203203D01*
X200664Y408938D01*
Y398782D01*
X203203Y396242D01*
X208282D01*
X205742Y401321D02*
X210821Y396242D01*
X208282D02*
X210821Y398782D01*
X215899Y408938D02*
X218438Y411478D01*
X223517D01*
X226056Y408938D01*
Y406399D01*
X223517Y403860D01*
X220977D01*
X223517D01*
X226056Y401321D01*
Y398782D01*
X223517Y396242D01*
X218438D01*
X215899Y398782D01*
X100498Y111299D02*
Y98604D01*
X103037Y96065D01*
X108116D01*
X110655Y98604D01*
Y111299D01*
X125890Y96065D02*
X115733D01*
X125890Y106221D01*
Y108760D01*
X123351Y111299D01*
X118272D01*
X115733Y108760D01*
X205765Y366985D02*
X205727Y382220D01*
X213345Y382239D01*
X215890Y379706D01*
X215903Y374628D01*
X213370Y372082D01*
X205753Y372063D01*
X210831Y372076D02*
X215922Y367010D01*
X221000Y367023D02*
X226078Y367036D01*
X223539Y367029D01*
X223501Y382264D01*
X220969Y379719D01*
X243815Y382315D02*
X238743Y379763D01*
X233677Y374672D01*
X233690Y369594D01*
X236235Y367061D01*
X241314Y367074D01*
X243846Y369619D01*
X243840Y372158D01*
X241295Y374691D01*
X233677Y374672D01*
X398969Y93547D02*
X393890D01*
X396429D01*
Y80851D01*
X393890Y78312D01*
X391351D01*
X388812Y80851D01*
X145799Y142999D02*
Y127765D01*
X155956D01*
X161034D02*
X166113D01*
X163574D01*
Y142999D01*
X161034Y140460D01*
X515112Y113028D02*
X512573Y115568D01*
X507495D01*
X504955Y113028D01*
Y102872D01*
X507495Y100332D01*
X512573D01*
X515112Y102872D01*
X520190Y100332D02*
X525269D01*
X522730D01*
Y115568D01*
X520190Y113028D01*
X166027Y37640D02*
X163488Y40180D01*
X158409D01*
X155870Y37640D01*
Y27484D01*
X158409Y24945D01*
X163488D01*
X166027Y27484D01*
X181262Y24945D02*
X171105D01*
X181262Y35101D01*
Y37640D01*
X178723Y40180D01*
X173644D01*
X171105Y37640D01*
X271691Y90472D02*
X269152Y93012D01*
X264073D01*
X261534Y90472D01*
Y80316D01*
X264073Y77776D01*
X269152D01*
X271691Y80316D01*
X276769Y90472D02*
X279308Y93012D01*
X284387D01*
X286926Y90472D01*
Y87933D01*
X284387Y85394D01*
X281847D01*
X284387D01*
X286926Y82855D01*
Y80316D01*
X284387Y77776D01*
X279308D01*
X276769Y80316D01*
X286423Y142288D02*
X283884Y144827D01*
X278805D01*
X276266Y142288D01*
Y132132D01*
X278805Y129593D01*
X283884D01*
X286423Y132132D01*
X299119Y129593D02*
Y144827D01*
X291501Y137210D01*
X301658D01*
X104141Y505458D02*
X101602Y507998D01*
X96523D01*
X93984Y505458D01*
Y495302D01*
X96523Y492762D01*
X101602D01*
X104141Y495302D01*
X119376Y507998D02*
X109219D01*
Y500380D01*
X114298Y502919D01*
X116837D01*
X119376Y500380D01*
Y495302D01*
X116837Y492762D01*
X111758D01*
X109219Y495302D01*
X223521Y513078D02*
X220982Y515617D01*
X215903D01*
X213364Y513078D01*
Y502922D01*
X215903Y500382D01*
X220982D01*
X223521Y502922D01*
X238756Y515617D02*
X233678Y513078D01*
X228599Y508000D01*
Y502922D01*
X231138Y500382D01*
X236217D01*
X238756Y502922D01*
Y505461D01*
X236217Y508000D01*
X228599D01*
X451359Y138936D02*
X448820Y141475D01*
X443741D01*
X441202Y138936D01*
Y128780D01*
X443741Y126241D01*
X448820D01*
X451359Y128780D01*
X456437Y138936D02*
X458976Y141475D01*
X464055D01*
X466594Y138936D01*
Y136397D01*
X464055Y133858D01*
X466594Y131319D01*
Y128780D01*
X464055Y126241D01*
X458976D01*
X456437Y128780D01*
Y131319D01*
X458976Y133858D01*
X456437Y136397D01*
Y138936D01*
X458976Y133858D02*
X464055D01*
X602743Y82548D02*
X600204Y85087D01*
X595125D01*
X592586Y82548D01*
Y72392D01*
X595125Y69852D01*
X600204D01*
X602743Y72392D01*
X607821D02*
X610360Y69852D01*
X615439D01*
X617978Y72392D01*
Y82548D01*
X615439Y85087D01*
X610360D01*
X607821Y82548D01*
Y80009D01*
X610360Y77470D01*
X617978D01*
X295913Y546098D02*
X293374Y548638D01*
X288295D01*
X285756Y546098D01*
Y535942D01*
X288295Y533402D01*
X293374D01*
X295913Y535942D01*
X300991Y533402D02*
X306070D01*
X303530D01*
Y548638D01*
X300991Y546098D01*
X313687D02*
X316226Y548638D01*
X321305D01*
X323844Y546098D01*
Y535942D01*
X321305Y533402D01*
X316226D01*
X313687Y535942D01*
Y546098D01*
X257812Y513078D02*
X255273Y515617D01*
X250194D01*
X247655Y513078D01*
Y502922D01*
X250194Y500382D01*
X255273D01*
X257812Y502922D01*
X262890Y500382D02*
X267969D01*
X265430D01*
Y515617D01*
X262890Y513078D01*
X275586Y500382D02*
X280665D01*
X278125D01*
Y515617D01*
X275586Y513078D01*
X295913Y408938D02*
X293374Y411478D01*
X288295D01*
X285756Y408938D01*
Y398782D01*
X288295Y396242D01*
X293374D01*
X295913Y398782D01*
X300991Y396242D02*
X306070D01*
X303530D01*
Y411478D01*
X300991Y408938D01*
X323844Y396242D02*
X313687D01*
X323844Y406399D01*
Y408938D01*
X321305Y411478D01*
X316226D01*
X313687Y408938D01*
X464823Y209548D02*
Y194312D01*
X472441D01*
X474980Y196852D01*
Y207008D01*
X472441Y209548D01*
X464823D01*
X480058Y194312D02*
X485137D01*
X482598D01*
Y209548D01*
X480058Y207008D01*
X552200Y228344D02*
Y213109D01*
X559818D01*
X562357Y215648D01*
Y225804D01*
X559818Y228344D01*
X552200D01*
X577592Y213109D02*
X567435D01*
X577592Y223265D01*
Y225804D01*
X575053Y228344D01*
X569974D01*
X567435Y225804D01*
X264416Y9912D02*
X279652D01*
Y17529D01*
X277112Y20069D01*
X274573D01*
X272034Y17529D01*
Y9912D01*
Y17529D01*
X269495Y20069D01*
X266956D01*
X264416Y17529D01*
Y9912D01*
X269495Y27686D02*
Y32764D01*
X272034Y35303D01*
X279652D01*
Y27686D01*
X277112Y25147D01*
X274573Y27686D01*
Y35303D01*
X266956Y42921D02*
X269495D01*
Y40382D01*
Y45460D01*
Y42921D01*
X277112D01*
X279652Y45460D01*
X600711Y490979D02*
X595633D01*
X598172D01*
Y478284D01*
X595633Y475745D01*
X593093D01*
X590554Y478284D01*
X605789Y488440D02*
X608328Y490979D01*
X613407D01*
X615946Y488440D01*
Y485901D01*
X613407Y483362D01*
X610868D01*
X613407D01*
X615946Y480823D01*
Y478284D01*
X613407Y475745D01*
X608328D01*
X605789Y478284D01*
X224790Y224792D02*
Y234948D01*
X222251Y237488D01*
X217173D01*
X214633Y234948D01*
Y224792D01*
X217173Y222253D01*
X222251D01*
X219712Y227331D02*
X224790Y222253D01*
X222251D02*
X224790Y224792D01*
X229868Y222253D02*
X234947D01*
X232408D01*
Y237488D01*
X229868Y234948D01*
X231391Y321563D02*
Y331720D01*
X228852Y334259D01*
X223773D01*
X221234Y331720D01*
Y321563D01*
X223773Y319024D01*
X228852D01*
X226312Y324102D02*
X231391Y319024D01*
X228852D02*
X231391Y321563D01*
X246626Y319024D02*
X236469D01*
X246626Y329181D01*
Y331720D01*
X244087Y334259D01*
X239008D01*
X236469Y331720D01*
X231053Y133148D02*
Y148384D01*
X238671D01*
X241210Y145844D01*
Y140766D01*
X238671Y138227D01*
X231053D01*
X236132D02*
X241210Y133148D01*
X246288D02*
X251367D01*
X248828D01*
Y148384D01*
X246288Y145844D01*
X229784Y47042D02*
Y62277D01*
X237402D01*
X239941Y59738D01*
Y54660D01*
X237402Y52121D01*
X229784D01*
X234862D02*
X239941Y47042D01*
X255176D02*
X245019D01*
X255176Y57199D01*
Y59738D01*
X252637Y62277D01*
X247558D01*
X245019Y59738D01*
X62996Y30736D02*
Y45971D01*
X70614D01*
X73153Y43432D01*
Y38354D01*
X70614Y35815D01*
X62996D01*
X68074D02*
X73153Y30736D01*
X78231Y43432D02*
X80770Y45971D01*
X85849D01*
X88388Y43432D01*
Y40893D01*
X85849Y38354D01*
X83309D01*
X85849D01*
X88388Y35815D01*
Y33276D01*
X85849Y30736D01*
X80770D01*
X78231Y33276D01*
X509274Y207013D02*
Y222248D01*
X516892D01*
X519431Y219708D01*
Y214630D01*
X516892Y212091D01*
X509274D01*
X514352D02*
X519431Y207013D01*
X532127D02*
Y222248D01*
X524509Y214630D01*
X534666D01*
X545596Y160530D02*
Y175765D01*
X553214D01*
X555753Y173226D01*
Y168148D01*
X553214Y165609D01*
X545596D01*
X550675D02*
X555753Y160530D01*
X570988Y175765D02*
X560831D01*
Y168148D01*
X565910Y170687D01*
X568449D01*
X570988Y168148D01*
Y163070D01*
X568449Y160530D01*
X563370D01*
X560831Y163070D01*
X588013Y226056D02*
X603247D01*
Y218438D01*
X600708Y215899D01*
X595630D01*
X593091Y218438D01*
Y226056D01*
Y220977D02*
X588013Y215899D01*
X600708Y210821D02*
X603247Y208282D01*
Y203203D01*
X600708Y200664D01*
X598169D01*
X595630Y203203D01*
X593091Y200664D01*
X590552D01*
X588013Y203203D01*
Y208282D01*
X590552Y210821D01*
X593091D01*
X595630Y208282D01*
X598169Y210821D01*
X600708D01*
X595630Y208282D02*
Y203203D01*
X204984Y554230D02*
Y569465D01*
X212602D01*
X215141Y566926D01*
Y561848D01*
X212602Y559309D01*
X204984D01*
X210063D02*
X215141Y554230D01*
X220219D02*
X225298D01*
X222758D01*
Y569465D01*
X220219Y566926D01*
X232915D02*
X235454Y569465D01*
X240533D01*
X243072Y566926D01*
Y564387D01*
X240533Y561848D01*
X237994D01*
X240533D01*
X243072Y559309D01*
Y556770D01*
X240533Y554230D01*
X235454D01*
X232915Y556770D01*
X134626Y201933D02*
X134626Y217168D01*
X142244Y217168D01*
X144783Y214628D01*
X144783Y209550D01*
X142244Y207011D01*
X134626Y207011D01*
X139705Y207011D02*
X144783Y201933D01*
X149861Y201933D02*
X154939Y201932D01*
X152400Y201933D01*
X152401Y217167D01*
X149861Y214628D01*
X170175Y201932D02*
X170175Y217167D01*
X162557Y209550D01*
X172714Y209550D01*
X178335Y303482D02*
X178294Y318717D01*
X185911Y318737D01*
X188457Y316205D01*
X188471Y311126D01*
X185938Y308580D01*
X178321Y308560D01*
X183399Y308574D02*
X188491Y303509D01*
X193570Y303522D02*
X198648Y303536D01*
X196109Y303529D01*
X196068Y318764D01*
X193536Y316218D01*
X216381Y318818D02*
X206225Y318791D01*
X206245Y311174D01*
X211317Y313726D01*
X213856Y313733D01*
X216402Y311201D01*
X216415Y306122D01*
X213883Y303577D01*
X208805Y303563D01*
X206259Y306095D01*
X262896Y469902D02*
Y485137D01*
X270514D01*
X273053Y482598D01*
Y477520D01*
X270514Y474981D01*
X262896D01*
X267974D02*
X273053Y469902D01*
X278131D02*
X283210D01*
X280670D01*
Y485137D01*
X278131Y482598D01*
X290827Y485137D02*
X300984D01*
Y482598D01*
X290827Y472442D01*
Y469902D01*
X109221Y145794D02*
X104143D01*
X106682D01*
Y133098D01*
X104143Y130559D01*
X101603D01*
X99064Y133098D01*
X121917Y130559D02*
Y145794D01*
X114299Y138176D01*
X124456D01*
X173229Y410462D02*
X168151D01*
X170690D01*
Y397766D01*
X168151Y395227D01*
X165611D01*
X163072Y397766D01*
X188464Y410462D02*
X183386Y407922D01*
X178307Y402844D01*
Y397766D01*
X180846Y395227D01*
X185925D01*
X188464Y397766D01*
Y400305D01*
X185925Y402844D01*
X178307D01*
X322745Y141780D02*
X320206Y144319D01*
X315127D01*
X312588Y141780D01*
Y131624D01*
X315127Y129085D01*
X320206D01*
X322745Y131624D01*
X327823Y144319D02*
X337980D01*
Y141780D01*
X327823Y131624D01*
Y129085D01*
X336804Y297688D02*
Y300227D01*
X339343D01*
Y297688D01*
X336804D01*
X357124Y32256D02*
X367281D01*
X362202Y37335D02*
Y27178D01*
X468884Y287269D02*
Y272034D01*
X476502D01*
X479041Y274573D01*
Y277112D01*
X476502Y279652D01*
X468884D01*
X476502D01*
X479041Y282191D01*
Y284730D01*
X476502Y287269D01*
X468884D01*
X484119Y272034D02*
X489197D01*
X486658D01*
Y282191D01*
X484119D01*
X496815Y272034D02*
Y287269D01*
Y277112D02*
X504432Y282191D01*
X496815Y277112D02*
X504432Y272034D01*
X519668D02*
X514589D01*
X512050Y274573D01*
Y279652D01*
X514589Y282191D01*
X519668D01*
X522207Y279652D01*
Y277112D01*
X512050D01*
X527285Y282191D02*
Y272034D01*
Y277112D01*
X529824Y279652D01*
X532364Y282191D01*
X534903D01*
X542520Y287269D02*
Y272034D01*
X550138D01*
X552677Y274573D01*
Y277112D01*
X550138Y279652D01*
X542520D01*
X550138D01*
X552677Y282191D01*
Y284730D01*
X550138Y287269D01*
X542520D01*
X557755Y272034D02*
X562834D01*
X560294D01*
Y287269D01*
X557755D01*
X570451Y272034D02*
X575530D01*
X572990D01*
Y282191D01*
X570451D01*
X583147Y272034D02*
Y282191D01*
X590765D01*
X593304Y279652D01*
Y272034D01*
X598382D02*
Y287269D01*
Y277112D02*
X606000Y282191D01*
X598382Y277112D02*
X606000Y272034D01*
X621235D02*
X616156D01*
X613617Y274573D01*
Y279652D01*
X616156Y282191D01*
X621235D01*
X623774Y279652D01*
Y277112D01*
X613617D01*
X628852Y282191D02*
Y272034D01*
Y277112D01*
X631391Y279652D01*
X633931Y282191D01*
X636470D01*
M02*
