G04*
G04 #@! TF.GenerationSoftware,Altium Limited,Altium Designer,20.1.14 (287)*
G04*
G04 Layer_Color=128*
%FSLAX44Y44*%
%MOMM*%
G71*
G04*
G04 #@! TF.SameCoordinates,F73B8E14-7BBA-4DA7-B101-32C151AF21F3*
G04*
G04*
G04 #@! TF.FilePolarity,Positive*
G04*
G01*
G75*
%ADD77C,0.0508*%
D77*
X555374Y316950D02*
X565274D01*
X560324Y312000D02*
Y321900D01*
X555374Y361950D02*
X565274D01*
X560324Y357000D02*
Y366900D01*
X620374Y316950D02*
X630274D01*
X625324Y312000D02*
Y321900D01*
X620374Y361950D02*
X630274D01*
X625324Y357000D02*
Y366900D01*
X410387Y510540D02*
X412387D01*
X411387Y509540D02*
Y511540D01*
X428737Y510540D02*
X430737D01*
X429737Y509540D02*
Y511540D01*
X401212Y501365D02*
X403212D01*
X402212Y500365D02*
Y502365D01*
X419562Y501365D02*
X421562D01*
X420562Y500365D02*
Y502365D01*
X437912Y501365D02*
X439912D01*
X438912Y500365D02*
Y502365D01*
X410387Y492190D02*
X412387D01*
X411387Y491190D02*
Y493190D01*
X428737Y492190D02*
X430737D01*
X429737Y491190D02*
Y493190D01*
X401212Y483015D02*
X403212D01*
X402212Y482015D02*
Y484015D01*
X419562Y483015D02*
X421562D01*
X420562Y482015D02*
Y484015D01*
X437912Y483015D02*
X439912D01*
X438912Y482015D02*
Y484015D01*
X410387Y473840D02*
X412387D01*
X411387Y472840D02*
Y474840D01*
X428737Y473840D02*
X430737D01*
X429737Y472840D02*
Y474840D01*
X110000Y295148D02*
X118600D01*
X114300Y290848D02*
Y299448D01*
X130000Y295148D02*
X138600D01*
X134300Y290848D02*
Y299448D01*
X156492Y64218D02*
X159492D01*
X157992Y62718D02*
Y65718D01*
X146492Y64218D02*
X149492D01*
X147992Y62718D02*
Y65718D01*
X151492Y69218D02*
X154492D01*
X152992Y67718D02*
Y70718D01*
X146492Y74218D02*
X149492D01*
X147992Y72718D02*
Y75718D01*
X156492Y74218D02*
X159492D01*
X157992Y72718D02*
Y75718D01*
X108780Y373380D02*
X117280D01*
X113030Y369130D02*
Y377630D01*
X184980Y373380D02*
X193480D01*
X189230Y369130D02*
Y377630D01*
X324470Y17360D02*
X333070D01*
X328770Y13060D02*
Y21660D01*
X304470Y17360D02*
X313070D01*
X308770Y13060D02*
Y21660D01*
X575074Y539176D02*
X583674D01*
X579374Y534876D02*
Y543476D01*
X575074Y519176D02*
X583674D01*
X579374Y514876D02*
Y523476D01*
X107510Y231140D02*
X116010D01*
X111760Y226890D02*
Y235390D01*
X183710Y231140D02*
X192210D01*
X187960Y226890D02*
Y235390D01*
X110050Y331470D02*
X118550D01*
X114300Y327220D02*
Y335720D01*
X186250Y331470D02*
X194750D01*
X190500Y327220D02*
Y335720D01*
X110668Y178982D02*
X119268D01*
X114968Y174682D02*
Y183282D01*
X130668Y178982D02*
X139268D01*
X134968Y174682D02*
Y183282D01*
X129398Y417742D02*
X137998D01*
X133698Y413442D02*
Y422042D01*
X109398Y417742D02*
X117998D01*
X113698Y413442D02*
Y422042D01*
X454660Y106934D02*
X461772D01*
X458216Y103378D02*
Y110490D01*
X468630Y72136D02*
X475742D01*
X472186Y68580D02*
Y75692D01*
X274306Y173990D02*
X304306D01*
X289306Y158990D02*
Y188990D01*
X334010Y314198D02*
X341122D01*
X337566Y310642D02*
Y317754D01*
X359410Y314200D02*
X366522D01*
X362966Y310644D02*
Y317756D01*
X384814Y314198D02*
X391926D01*
X388370Y310642D02*
Y317754D01*
X410214Y314200D02*
X417326D01*
X413770Y310644D02*
Y317756D01*
X435614Y314200D02*
X442726D01*
X439170Y310644D02*
Y317756D01*
X484364Y342646D02*
X514364D01*
X499364Y327646D02*
Y357646D01*
X485394Y175260D02*
X492506D01*
X488950Y171704D02*
Y178816D01*
X369856Y356870D02*
X376968D01*
X373412Y353314D02*
Y360426D01*
X308864Y424180D02*
X315976D01*
X312420Y420624D02*
Y427736D01*
X111924Y64820D02*
X119036D01*
X115480Y61264D02*
Y68376D01*
X303784Y495300D02*
X310896D01*
X307340Y491744D02*
Y498856D01*
X242062Y472948D02*
X249174D01*
X245618Y469392D02*
Y476504D01*
X308610Y459232D02*
X315722D01*
X312166Y455676D02*
Y462788D01*
X159004Y546100D02*
X166116D01*
X162560Y542544D02*
Y549656D01*
X296164Y520700D02*
X303276D01*
X299720Y517144D02*
Y524256D01*
X129794Y561340D02*
X136906D01*
X133350Y557784D02*
Y564896D01*
X291592Y275844D02*
X298704D01*
X295148Y272288D02*
Y279400D01*
X544322Y98806D02*
X551434D01*
X547878Y95250D02*
Y102362D01*
X265470Y386334D02*
X272582D01*
X269026Y382778D02*
Y389890D01*
X246888Y273050D02*
X254000D01*
X250444Y269494D02*
Y276606D01*
X440436Y166370D02*
X447548D01*
X443992Y162814D02*
Y169926D01*
X96176Y75488D02*
X103288D01*
X99732Y71932D02*
Y79044D01*
X554736Y60960D02*
X561848D01*
X558292Y57404D02*
Y64516D01*
M02*
