G04*
G04 #@! TF.GenerationSoftware,Altium Limited,Altium Designer,20.1.14 (287)*
G04*
G04 Layer_Color=32768*
%FSLAX44Y44*%
%MOMM*%
G71*
G04*
G04 #@! TF.SameCoordinates,F73B8E14-7BBA-4DA7-B101-32C151AF21F3*
G04*
G04*
G04 #@! TF.FilePolarity,Positive*
G04*
G01*
G75*
%ADD75C,0.1000*%
%ADD76C,0.0500*%
D75*
X289948Y436956D02*
Y446456D01*
X285198Y441706D02*
X294698D01*
X277948Y436206D02*
X301948D01*
X277948Y447206D02*
X301948D01*
Y436206D02*
Y447206D01*
X277948Y436206D02*
Y447206D01*
X159000Y95594D02*
Y100594D01*
X145000Y95594D02*
Y100594D01*
Y95594D02*
X159000D01*
X145000Y100594D02*
X159000D01*
X150250Y98094D02*
X153750D01*
X152000Y96344D02*
Y99844D01*
X508000Y190830D02*
Y200330D01*
X503250Y195580D02*
X512750D01*
X496000Y190080D02*
X520000D01*
X496000Y201080D02*
X520000D01*
Y190080D02*
Y201080D01*
X496000Y190080D02*
Y201080D01*
X556006Y185496D02*
Y194996D01*
X551256Y190246D02*
X560756D01*
X544006Y184746D02*
X568006D01*
X544006Y195746D02*
X568006D01*
Y184746D02*
Y195746D01*
X544006Y184746D02*
Y195746D01*
X233412Y114618D02*
X242912D01*
X238162Y109868D02*
Y119368D01*
X243662Y102618D02*
Y126618D01*
X232662Y102618D02*
Y126618D01*
X243662D01*
X232662Y102618D02*
X243662D01*
X233412Y84258D02*
X242912D01*
X238162Y79508D02*
Y89008D01*
X243662Y72258D02*
Y96258D01*
X232662Y72258D02*
Y96258D01*
X243662D01*
X232662Y72258D02*
X243662D01*
X73392Y84378D02*
X82892D01*
X78142Y79628D02*
Y89128D01*
X83642Y72378D02*
Y96378D01*
X72642Y72378D02*
Y96378D01*
X83642D01*
X72642Y72378D02*
X83642D01*
X511632Y163830D02*
X521132D01*
X516382Y159080D02*
Y168580D01*
X510882Y151830D02*
Y175830D01*
X521882Y151830D02*
Y175830D01*
X510882Y151830D02*
X521882D01*
X510882Y175830D02*
X521882D01*
X527126Y162814D02*
X536626D01*
X531876Y158064D02*
Y167564D01*
X537376Y150814D02*
Y174814D01*
X526376Y150814D02*
Y174814D01*
X537376D01*
X526376Y150814D02*
X537376D01*
X584454Y186004D02*
Y195504D01*
X579704Y190754D02*
X589204D01*
X572454Y185254D02*
X596454D01*
X572454Y196254D02*
X596454D01*
Y185254D02*
Y196254D01*
X572454Y185254D02*
Y196254D01*
X186944Y558114D02*
Y567614D01*
X182194Y562864D02*
X191694D01*
X174944Y557364D02*
X198944D01*
X174944Y568364D02*
X198944D01*
Y557364D02*
Y568364D01*
X174944Y557364D02*
Y568364D01*
X289694Y454736D02*
Y464236D01*
X284944Y459486D02*
X294444D01*
X277694Y464986D02*
X301694D01*
X277694Y453986D02*
X301694D01*
X277694D02*
Y464986D01*
X301694Y453986D02*
Y464986D01*
D76*
X550324Y306950D02*
Y371950D01*
Y306950D02*
X635324D01*
Y371950D01*
X550324D02*
X635324D01*
X136380Y535660D02*
X178580D01*
Y500660D02*
Y535660D01*
X136380Y500660D02*
X178580D01*
X136380D02*
Y535660D01*
X338062Y644590D02*
X523062D01*
Y574590D02*
Y644590D01*
Y574590D02*
X528062D01*
Y379590D02*
Y574590D01*
X333062Y379590D02*
X528062D01*
X333062D02*
Y574590D01*
X338062D01*
Y644590D01*
X156300Y264648D02*
Y314648D01*
X92300Y264648D02*
X156300D01*
X92300D02*
Y314648D01*
X156300D01*
X131492Y89468D02*
X174492D01*
Y48968D02*
Y89468D01*
X131492Y48968D02*
X174492D01*
X131492D02*
Y89468D01*
X410686Y-3172D02*
Y56828D01*
Y-3172D02*
X509686D01*
Y56828D01*
X410686D02*
X509686D01*
X286770Y-2140D02*
Y47860D01*
X350770D01*
Y-2140D02*
Y47860D01*
X286770Y-2140D02*
X350770D01*
X559874Y497176D02*
Y561176D01*
Y497176D02*
X609874D01*
Y561176D01*
X559874D02*
X609874D01*
X156968Y148482D02*
Y198482D01*
X92968Y148482D02*
X156968D01*
X92968D02*
Y198482D01*
X156968D01*
X91698Y437242D02*
X155698D01*
X91698Y387242D02*
Y437242D01*
Y387242D02*
X155698D01*
Y437242D01*
M02*
