G04*
G04 #@! TF.GenerationSoftware,Altium Limited,Altium Designer,20.1.14 (287)*
G04*
G04 Layer_Color=2752767*
%FSLAX44Y44*%
%MOMM*%
G71*
G04*
G04 #@! TF.SameCoordinates,F73B8E14-7BBA-4DA7-B101-32C151AF21F3*
G04*
G04*
G04 #@! TF.FilePolarity,Positive*
G04*
G01*
G75*
%ADD77C,0.0508*%
%ADD78C,0.0677*%
D77*
X558292Y314918D02*
Y318982D01*
X562356D01*
Y314918D01*
X558292D01*
Y359918D02*
Y363982D01*
X562356D01*
Y359918D01*
X558292D01*
X623292Y314918D02*
Y318982D01*
X627356D01*
Y314918D01*
X623292D01*
Y359918D02*
Y363982D01*
X627356D01*
Y359918D01*
X623292D01*
X114300Y293116D02*
X112268Y297180D01*
X116332D01*
X114300Y293116D01*
X134300D02*
X132268Y297180D01*
X136332D01*
X134300Y293116D01*
X157992Y62186D02*
X159008Y63202D01*
X160024D01*
X159008Y64218D01*
X160024Y65234D01*
X159008D01*
X157992Y66250D01*
X156976Y65234D01*
X155960D01*
X156976Y64218D01*
X155960Y63202D01*
X156976D01*
X157992Y62186D01*
X147992D02*
X149008Y63202D01*
X150024D01*
X149008Y64218D01*
X150024Y65234D01*
X149008D01*
X147992Y66250D01*
X146976Y65234D01*
X145960D01*
X146976Y64218D01*
X145960Y63202D01*
X146976D01*
X147992Y62186D01*
X152992Y67186D02*
X154008Y68202D01*
X155024D01*
X154008Y69218D01*
X155024Y70234D01*
X154008D01*
X152992Y71250D01*
X151976Y70234D01*
X150960D01*
X151976Y69218D01*
X150960Y68202D01*
X151976D01*
X152992Y67186D01*
X147992Y72186D02*
X149008Y73202D01*
X150024D01*
X149008Y74218D01*
X150024Y75234D01*
X149008D01*
X147992Y76250D01*
X146976Y75234D01*
X145960D01*
X146976Y74218D01*
X145960Y73202D01*
X146976D01*
X147992Y72186D01*
X157992D02*
X159008Y73202D01*
X160024D01*
X159008Y74218D01*
X160024Y75234D01*
X159008D01*
X157992Y76250D01*
X156976Y75234D01*
X155960D01*
X156976Y74218D01*
X155960Y73202D01*
X156976D01*
X157992Y72186D01*
X110998Y371348D02*
X112014Y373380D01*
X110998Y375412D01*
X113030Y374396D01*
X115062Y375412D01*
X114046Y373380D01*
X115062Y371348D01*
X113030Y372364D01*
X110998Y371348D01*
X187198D02*
X188214Y373380D01*
X187198Y375412D01*
X189230Y374396D01*
X191262Y375412D01*
X190246Y373380D01*
X191262Y371348D01*
X189230Y372364D01*
X187198Y371348D01*
X328770Y15328D02*
X326738Y19392D01*
X330802D01*
X328770Y15328D01*
X308770D02*
X306738Y19392D01*
X310802D01*
X308770Y15328D01*
X579374Y537144D02*
X577342Y541208D01*
X581406D01*
X579374Y537144D01*
Y517144D02*
X577342Y521208D01*
X581406D01*
X579374Y517144D01*
X109728Y229108D02*
X110744Y231140D01*
X109728Y233172D01*
X111760Y232156D01*
X113792Y233172D01*
X112776Y231140D01*
X113792Y229108D01*
X111760Y230124D01*
X109728Y229108D01*
X185928D02*
X186944Y231140D01*
X185928Y233172D01*
X187960Y232156D01*
X189992Y233172D01*
X188976Y231140D01*
X189992Y229108D01*
X187960Y230124D01*
X185928Y229108D01*
X112268Y329438D02*
X113284Y331470D01*
X112268Y333502D01*
X114300Y332486D01*
X116332Y333502D01*
X115316Y331470D01*
X116332Y329438D01*
X114300Y330454D01*
X112268Y329438D01*
X188468D02*
X189484Y331470D01*
X188468Y333502D01*
X190500Y332486D01*
X192532Y333502D01*
X191516Y331470D01*
X192532Y329438D01*
X190500Y330454D01*
X188468Y329438D01*
X114968Y176950D02*
X112936Y181014D01*
X117000D01*
X114968Y176950D01*
X134968D02*
X132936Y181014D01*
X137000D01*
X134968Y176950D01*
X133698Y415710D02*
X131666Y419774D01*
X135730D01*
X133698Y415710D01*
X113698D02*
X111666Y419774D01*
X115730D01*
X113698Y415710D01*
X457200Y105918D02*
Y104902D01*
X459232D01*
Y105918D01*
X460248D01*
Y107950D01*
X459232D01*
Y108966D01*
X457200D01*
Y107950D01*
X456184D01*
Y105918D01*
X457200D01*
X471170Y71120D02*
Y70104D01*
X473202D01*
Y71120D01*
X474218D01*
Y73152D01*
X473202D01*
Y74168D01*
X471170D01*
Y73152D01*
X470154D01*
Y71120D01*
X471170D01*
X287274Y171958D02*
X288290D01*
X289306Y172974D01*
X290322Y171958D01*
X291338D01*
Y172974D01*
X290322Y173990D01*
X291338Y175006D01*
Y176022D01*
X290322D01*
X289306Y175006D01*
X288290Y176022D01*
X287274D01*
Y175006D01*
X288290Y173990D01*
X287274Y172974D01*
Y171958D01*
X336550Y313182D02*
Y312166D01*
X338582D01*
Y313182D01*
X339598D01*
Y315214D01*
X338582D01*
Y316230D01*
X336550D01*
Y315214D01*
X335534D01*
Y313182D01*
X336550D01*
X361950Y313184D02*
Y312168D01*
X363982D01*
Y313184D01*
X364998D01*
Y315216D01*
X363982D01*
Y316232D01*
X361950D01*
Y315216D01*
X360934D01*
Y313184D01*
X361950D01*
X387354Y313182D02*
Y312166D01*
X389386D01*
Y313182D01*
X390402D01*
Y315214D01*
X389386D01*
Y316230D01*
X387354D01*
Y315214D01*
X386338D01*
Y313182D01*
X387354D01*
X412754Y313184D02*
Y312168D01*
X414786D01*
Y313184D01*
X415802D01*
Y315216D01*
X414786D01*
Y316232D01*
X412754D01*
Y315216D01*
X411738D01*
Y313184D01*
X412754D01*
X438154D02*
Y312168D01*
X440186D01*
Y313184D01*
X441202D01*
Y315216D01*
X440186D01*
Y316232D01*
X438154D01*
Y315216D01*
X437138D01*
Y313184D01*
X438154D01*
X497332Y340614D02*
X498348D01*
X499364Y341630D01*
X500380Y340614D01*
X501396D01*
Y341630D01*
X500380Y342646D01*
X501396Y343662D01*
Y344678D01*
X500380D01*
X499364Y343662D01*
X498348Y344678D01*
X497332D01*
Y343662D01*
X498348Y342646D01*
X497332Y341630D01*
Y340614D01*
X487934Y174244D02*
Y173228D01*
X489966D01*
Y174244D01*
X490982D01*
Y176276D01*
X489966D01*
Y177292D01*
X487934D01*
Y176276D01*
X486918D01*
Y174244D01*
X487934D01*
X372396Y355854D02*
Y354838D01*
X374428D01*
Y355854D01*
X375444D01*
Y357886D01*
X374428D01*
Y358902D01*
X372396D01*
Y357886D01*
X371380D01*
Y355854D01*
X372396D01*
X311404Y423164D02*
Y422148D01*
X313436D01*
Y423164D01*
X314452D01*
Y425196D01*
X313436D01*
Y426212D01*
X311404D01*
Y425196D01*
X310388D01*
Y423164D01*
X311404D01*
X114464Y63804D02*
Y62788D01*
X116496D01*
Y63804D01*
X117512D01*
Y65836D01*
X116496D01*
Y66852D01*
X114464D01*
Y65836D01*
X113448D01*
Y63804D01*
X114464D01*
X306324Y494284D02*
Y493268D01*
X308356D01*
Y494284D01*
X309372D01*
Y496316D01*
X308356D01*
Y497332D01*
X306324D01*
Y496316D01*
X305308D01*
Y494284D01*
X306324D01*
X244602Y471932D02*
Y470916D01*
X246634D01*
Y471932D01*
X247650D01*
Y473964D01*
X246634D01*
Y474980D01*
X244602D01*
Y473964D01*
X243586D01*
Y471932D01*
X244602D01*
X311150Y458216D02*
Y457200D01*
X313182D01*
Y458216D01*
X314198D01*
Y460248D01*
X313182D01*
Y461264D01*
X311150D01*
Y460248D01*
X310134D01*
Y458216D01*
X311150D01*
X161544Y545084D02*
Y544068D01*
X163576D01*
Y545084D01*
X164592D01*
Y547116D01*
X163576D01*
Y548132D01*
X161544D01*
Y547116D01*
X160528D01*
Y545084D01*
X161544D01*
X298704Y519684D02*
Y518668D01*
X300736D01*
Y519684D01*
X301752D01*
Y521716D01*
X300736D01*
Y522732D01*
X298704D01*
Y521716D01*
X297688D01*
Y519684D01*
X298704D01*
X132334Y560324D02*
Y559308D01*
X134366D01*
Y560324D01*
X135382D01*
Y562356D01*
X134366D01*
Y563372D01*
X132334D01*
Y562356D01*
X131318D01*
Y560324D01*
X132334D01*
X294132Y274828D02*
Y273812D01*
X296164D01*
Y274828D01*
X297180D01*
Y276860D01*
X296164D01*
Y277876D01*
X294132D01*
Y276860D01*
X293116D01*
Y274828D01*
X294132D01*
X546862Y97790D02*
Y96774D01*
X548894D01*
Y97790D01*
X549910D01*
Y99822D01*
X548894D01*
Y100838D01*
X546862D01*
Y99822D01*
X545846D01*
Y97790D01*
X546862D01*
X268010Y385318D02*
Y384302D01*
X270042D01*
Y385318D01*
X271058D01*
Y387350D01*
X270042D01*
Y388366D01*
X268010D01*
Y387350D01*
X266994D01*
Y385318D01*
X268010D01*
X249428Y272034D02*
Y271018D01*
X251460D01*
Y272034D01*
X252476D01*
Y274066D01*
X251460D01*
Y275082D01*
X249428D01*
Y274066D01*
X248412D01*
Y272034D01*
X249428D01*
X442976Y165354D02*
Y164338D01*
X445008D01*
Y165354D01*
X446024D01*
Y167386D01*
X445008D01*
Y168402D01*
X442976D01*
Y167386D01*
X441960D01*
Y165354D01*
X442976D01*
X98716Y74472D02*
Y73456D01*
X100748D01*
Y74472D01*
X101764D01*
Y76504D01*
X100748D01*
Y77520D01*
X98716D01*
Y76504D01*
X97700D01*
Y74472D01*
X98716D01*
X557276Y59944D02*
Y58928D01*
X559308D01*
Y59944D01*
X560324D01*
Y61976D01*
X559308D01*
Y62992D01*
X557276D01*
Y61976D01*
X556260D01*
Y59944D01*
X557276D01*
D78*
X413419Y510540D02*
G03*
X413419Y510540I-2032J0D01*
G01*
X431769D02*
G03*
X431769Y510540I-2032J0D01*
G01*
X404244Y501365D02*
G03*
X404244Y501365I-2032J0D01*
G01*
X422594D02*
G03*
X422594Y501365I-2032J0D01*
G01*
X440944D02*
G03*
X440944Y501365I-2032J0D01*
G01*
X413419Y492190D02*
G03*
X413419Y492190I-2032J0D01*
G01*
X431769D02*
G03*
X431769Y492190I-2032J0D01*
G01*
X404244Y483015D02*
G03*
X404244Y483015I-2032J0D01*
G01*
X422594D02*
G03*
X422594Y483015I-2032J0D01*
G01*
X440944D02*
G03*
X440944Y483015I-2032J0D01*
G01*
X413419Y473840D02*
G03*
X413419Y473840I-2032J0D01*
G01*
X431769D02*
G03*
X431769Y473840I-2032J0D01*
G01*
M02*
