G04*
G04 #@! TF.GenerationSoftware,Altium Limited,Altium Designer,20.1.14 (287)*
G04*
G04 Layer_Physical_Order=1*
G04 Layer_Color=255*
%FSLAX44Y44*%
%MOMM*%
G71*
G04*
G04 #@! TF.SameCoordinates,F73B8E14-7BBA-4DA7-B101-32C151AF21F3*
G04*
G04*
G04 #@! TF.FilePolarity,Positive*
G04*
G01*
G75*
G04:AMPARAMS|DCode=16|XSize=1.35mm|YSize=0.6mm|CornerRadius=0.075mm|HoleSize=0mm|Usage=FLASHONLY|Rotation=0.000|XOffset=0mm|YOffset=0mm|HoleType=Round|Shape=RoundedRectangle|*
%AMROUNDEDRECTD16*
21,1,1.3500,0.4500,0,0,0.0*
21,1,1.2000,0.6000,0,0,0.0*
1,1,0.1500,0.6000,-0.2250*
1,1,0.1500,-0.6000,-0.2250*
1,1,0.1500,-0.6000,0.2250*
1,1,0.1500,0.6000,0.2250*
%
%ADD16ROUNDEDRECTD16*%
%ADD17R,1.2700X0.5588*%
%ADD18R,0.8500X0.8500*%
%ADD19R,2.0000X0.9000*%
%ADD20R,0.9000X2.0000*%
%ADD21R,1.3300X1.3300*%
%ADD22R,0.7000X0.9000*%
%ADD23R,1.1640X0.3358*%
G04:AMPARAMS|DCode=24|XSize=1.164mm|YSize=0.3358mm|CornerRadius=0.1679mm|HoleSize=0mm|Usage=FLASHONLY|Rotation=180.000|XOffset=0mm|YOffset=0mm|HoleType=Round|Shape=RoundedRectangle|*
%AMROUNDEDRECTD24*
21,1,1.1640,0.0000,0,0,180.0*
21,1,0.8281,0.3358,0,0,180.0*
1,1,0.3358,-0.4141,0.0000*
1,1,0.3358,0.4141,0.0000*
1,1,0.3358,0.4141,0.0000*
1,1,0.3358,-0.4141,0.0000*
%
%ADD24ROUNDEDRECTD24*%
%ADD25R,0.5000X0.2000*%
%ADD26R,0.5000X0.5000*%
%ADD27R,1.8000X1.9000*%
%ADD28R,1.9000X1.9000*%
%ADD29R,2.1000X1.6000*%
%ADD30R,0.4000X1.3500*%
%ADD31R,0.5000X0.3000*%
%ADD32R,0.8500X0.8500*%
%ADD33R,0.9000X0.7000*%
%ADD62C,0.5000*%
%ADD63C,0.3000*%
%ADD64C,0.2500*%
%ADD65C,1.4980*%
%ADD66R,1.4980X1.4980*%
%ADD67C,0.3000*%
%ADD68R,1.3680X1.3680*%
%ADD69C,1.3680*%
%ADD70C,0.4000*%
%ADD71C,1.4000*%
%ADD72R,1.3680X1.3680*%
%ADD73C,1.2700*%
%ADD74C,3.5000*%
G36*
X141165Y60616D02*
X141238Y60610D01*
X141311Y60601D01*
X141383Y60587D01*
X141454Y60570D01*
X141525Y60550D01*
X141594Y60525D01*
X141661Y60497D01*
X141728Y60465D01*
X141792Y60430D01*
X141854Y60392D01*
X141915Y60351D01*
X141973Y60306D01*
X142029Y60258D01*
X142082Y60208D01*
X142132Y60155D01*
X142180Y60099D01*
X142225Y60041D01*
X142266Y59981D01*
X142304Y59918D01*
X142339Y59854D01*
X142371Y59788D01*
X142399Y59720D01*
X142423Y59651D01*
X142444Y59580D01*
X142461Y59509D01*
X142475Y59437D01*
X142484Y59364D01*
X142490Y59291D01*
X142492Y59218D01*
X142490Y59145D01*
X142484Y59072D01*
X142475Y58999D01*
X142461Y58927D01*
X142444Y58856D01*
X142423Y58785D01*
X142399Y58716D01*
X142371Y58649D01*
X142339Y58582D01*
X142304Y58518D01*
X142266Y58456D01*
X142225Y58395D01*
X142180Y58337D01*
X142132Y58281D01*
X142082Y58228D01*
X142029Y58178D01*
X141973Y58130D01*
X141915Y58085D01*
X141854Y58044D01*
X141792Y58006D01*
X141728Y57971D01*
X141661Y57939D01*
X141594Y57911D01*
X141525Y57887D01*
X141454Y57866D01*
X141383Y57849D01*
X141311Y57835D01*
X141238Y57826D01*
X141165Y57820D01*
X141092Y57818D01*
X133992D01*
Y60618D01*
X141092D01*
X141165Y60616D01*
D02*
G37*
G36*
Y65616D02*
X141238Y65610D01*
X141311Y65601D01*
X141383Y65587D01*
X141454Y65570D01*
X141525Y65550D01*
X141594Y65525D01*
X141661Y65497D01*
X141728Y65465D01*
X141792Y65430D01*
X141854Y65392D01*
X141915Y65351D01*
X141973Y65306D01*
X142029Y65258D01*
X142082Y65208D01*
X142132Y65155D01*
X142180Y65099D01*
X142225Y65041D01*
X142266Y64981D01*
X142304Y64918D01*
X142339Y64854D01*
X142371Y64787D01*
X142399Y64720D01*
X142423Y64651D01*
X142444Y64580D01*
X142461Y64509D01*
X142475Y64437D01*
X142484Y64364D01*
X142490Y64291D01*
X142492Y64218D01*
X142490Y64145D01*
X142484Y64072D01*
X142475Y63999D01*
X142461Y63927D01*
X142444Y63856D01*
X142423Y63785D01*
X142399Y63716D01*
X142371Y63649D01*
X142339Y63582D01*
X142304Y63518D01*
X142266Y63456D01*
X142225Y63395D01*
X142180Y63337D01*
X142132Y63281D01*
X142082Y63228D01*
X142029Y63178D01*
X141973Y63130D01*
X141915Y63085D01*
X141854Y63044D01*
X141792Y63006D01*
X141728Y62971D01*
X141661Y62939D01*
X141594Y62911D01*
X141525Y62887D01*
X141454Y62866D01*
X141383Y62849D01*
X141311Y62835D01*
X141238Y62826D01*
X141165Y62820D01*
X141092Y62818D01*
X133992D01*
Y65618D01*
X141092D01*
X141165Y65616D01*
D02*
G37*
G36*
Y70616D02*
X141238Y70610D01*
X141311Y70601D01*
X141383Y70587D01*
X141454Y70570D01*
X141525Y70550D01*
X141594Y70525D01*
X141661Y70497D01*
X141728Y70465D01*
X141792Y70430D01*
X141854Y70392D01*
X141915Y70351D01*
X141973Y70306D01*
X142029Y70258D01*
X142082Y70208D01*
X142132Y70155D01*
X142180Y70099D01*
X142225Y70041D01*
X142266Y69981D01*
X142304Y69918D01*
X142339Y69854D01*
X142371Y69788D01*
X142399Y69720D01*
X142423Y69651D01*
X142444Y69580D01*
X142461Y69509D01*
X142475Y69437D01*
X142484Y69364D01*
X142490Y69291D01*
X142492Y69218D01*
X142490Y69145D01*
X142484Y69072D01*
X142475Y68999D01*
X142461Y68927D01*
X142444Y68856D01*
X142423Y68785D01*
X142399Y68716D01*
X142371Y68649D01*
X142339Y68582D01*
X142304Y68518D01*
X142266Y68456D01*
X142225Y68395D01*
X142180Y68337D01*
X142132Y68281D01*
X142082Y68228D01*
X142029Y68178D01*
X141973Y68130D01*
X141915Y68085D01*
X141854Y68044D01*
X141792Y68006D01*
X141728Y67971D01*
X141661Y67939D01*
X141594Y67911D01*
X141525Y67887D01*
X141454Y67866D01*
X141383Y67849D01*
X141311Y67835D01*
X141238Y67826D01*
X141165Y67820D01*
X141092Y67818D01*
X133992D01*
Y70618D01*
X141092D01*
X141165Y70616D01*
D02*
G37*
G36*
Y75616D02*
X141238Y75610D01*
X141311Y75601D01*
X141383Y75587D01*
X141454Y75570D01*
X141525Y75550D01*
X141594Y75525D01*
X141661Y75497D01*
X141728Y75465D01*
X141792Y75430D01*
X141854Y75392D01*
X141915Y75351D01*
X141973Y75306D01*
X142029Y75258D01*
X142082Y75208D01*
X142132Y75155D01*
X142180Y75099D01*
X142225Y75041D01*
X142266Y74981D01*
X142304Y74918D01*
X142339Y74854D01*
X142371Y74788D01*
X142399Y74720D01*
X142423Y74651D01*
X142444Y74580D01*
X142461Y74509D01*
X142475Y74437D01*
X142484Y74364D01*
X142490Y74291D01*
X142492Y74218D01*
X142490Y74145D01*
X142484Y74072D01*
X142475Y73999D01*
X142461Y73927D01*
X142444Y73856D01*
X142423Y73785D01*
X142399Y73716D01*
X142371Y73649D01*
X142339Y73582D01*
X142304Y73518D01*
X142266Y73456D01*
X142225Y73395D01*
X142180Y73337D01*
X142132Y73281D01*
X142082Y73228D01*
X142029Y73178D01*
X141973Y73130D01*
X141915Y73085D01*
X141854Y73044D01*
X141792Y73006D01*
X141728Y72971D01*
X141661Y72939D01*
X141594Y72911D01*
X141525Y72887D01*
X141454Y72866D01*
X141383Y72849D01*
X141311Y72835D01*
X141238Y72826D01*
X141165Y72820D01*
X141092Y72818D01*
X133992D01*
Y75618D01*
X141092D01*
X141165Y75616D01*
D02*
G37*
G36*
Y80616D02*
X141238Y80610D01*
X141311Y80601D01*
X141383Y80587D01*
X141454Y80570D01*
X141525Y80549D01*
X141594Y80525D01*
X141661Y80497D01*
X141728Y80465D01*
X141792Y80430D01*
X141854Y80392D01*
X141915Y80351D01*
X141973Y80306D01*
X142029Y80258D01*
X142082Y80208D01*
X142132Y80155D01*
X142180Y80099D01*
X142225Y80041D01*
X142266Y79981D01*
X142304Y79918D01*
X142339Y79854D01*
X142371Y79787D01*
X142399Y79720D01*
X142423Y79651D01*
X142444Y79580D01*
X142461Y79509D01*
X142475Y79437D01*
X142484Y79364D01*
X142490Y79291D01*
X142492Y79218D01*
X142490Y79145D01*
X142484Y79072D01*
X142475Y78999D01*
X142461Y78927D01*
X142444Y78856D01*
X142423Y78785D01*
X142399Y78716D01*
X142371Y78649D01*
X142339Y78582D01*
X142304Y78518D01*
X142266Y78456D01*
X142225Y78395D01*
X142180Y78337D01*
X142132Y78281D01*
X142082Y78228D01*
X142029Y78178D01*
X141973Y78130D01*
X141915Y78085D01*
X141854Y78044D01*
X141792Y78006D01*
X141728Y77971D01*
X141661Y77939D01*
X141594Y77911D01*
X141525Y77887D01*
X141454Y77866D01*
X141383Y77849D01*
X141311Y77835D01*
X141238Y77826D01*
X141165Y77820D01*
X141092Y77818D01*
X133992D01*
Y80618D01*
X141092D01*
X141165Y80616D01*
D02*
G37*
G36*
X160242Y79968D02*
X161492D01*
Y58468D01*
X160242D01*
Y51468D01*
X157742D01*
Y58468D01*
X156242D01*
Y51468D01*
X153742D01*
Y58468D01*
X152242D01*
Y51468D01*
X149742D01*
Y58468D01*
X148242D01*
Y51468D01*
X145742D01*
Y58468D01*
X144492D01*
Y79968D01*
X145742D01*
Y86968D01*
X148242D01*
Y79968D01*
X149742D01*
Y86968D01*
X152242D01*
Y79968D01*
X153742D01*
Y86968D01*
X156242D01*
Y79968D01*
X157742D01*
Y86968D01*
X160242D01*
Y79968D01*
D02*
G37*
G36*
X171992Y77818D02*
X164892D01*
X164819Y77820D01*
X164746Y77826D01*
X164673Y77835D01*
X164601Y77849D01*
X164530Y77866D01*
X164459Y77887D01*
X164390Y77911D01*
X164323Y77939D01*
X164256Y77971D01*
X164192Y78006D01*
X164130Y78044D01*
X164069Y78085D01*
X164011Y78130D01*
X163955Y78178D01*
X163902Y78228D01*
X163852Y78281D01*
X163804Y78337D01*
X163759Y78395D01*
X163718Y78456D01*
X163680Y78518D01*
X163645Y78582D01*
X163613Y78649D01*
X163585Y78716D01*
X163561Y78785D01*
X163540Y78856D01*
X163523Y78927D01*
X163509Y78999D01*
X163500Y79072D01*
X163494Y79145D01*
X163492Y79218D01*
X163494Y79291D01*
X163500Y79364D01*
X163509Y79437D01*
X163523Y79509D01*
X163540Y79580D01*
X163561Y79651D01*
X163585Y79720D01*
X163613Y79787D01*
X163645Y79854D01*
X163680Y79918D01*
X163718Y79981D01*
X163759Y80041D01*
X163804Y80099D01*
X163852Y80155D01*
X163902Y80208D01*
X163955Y80258D01*
X164011Y80306D01*
X164069Y80351D01*
X164130Y80392D01*
X164192Y80430D01*
X164256Y80465D01*
X164323Y80497D01*
X164390Y80525D01*
X164459Y80549D01*
X164530Y80570D01*
X164601Y80587D01*
X164673Y80601D01*
X164746Y80610D01*
X164819Y80616D01*
X164892Y80618D01*
X171992D01*
Y77818D01*
D02*
G37*
G36*
Y72818D02*
X164892D01*
X164819Y72820D01*
X164746Y72826D01*
X164673Y72835D01*
X164601Y72849D01*
X164530Y72866D01*
X164459Y72887D01*
X164390Y72911D01*
X164323Y72939D01*
X164256Y72971D01*
X164192Y73006D01*
X164130Y73044D01*
X164069Y73085D01*
X164011Y73130D01*
X163955Y73178D01*
X163902Y73228D01*
X163852Y73281D01*
X163804Y73337D01*
X163759Y73395D01*
X163718Y73456D01*
X163680Y73518D01*
X163645Y73582D01*
X163613Y73649D01*
X163585Y73716D01*
X163561Y73785D01*
X163540Y73856D01*
X163523Y73927D01*
X163509Y73999D01*
X163500Y74072D01*
X163494Y74145D01*
X163492Y74218D01*
X163494Y74291D01*
X163500Y74364D01*
X163509Y74437D01*
X163523Y74509D01*
X163540Y74580D01*
X163561Y74651D01*
X163585Y74720D01*
X163613Y74788D01*
X163645Y74854D01*
X163680Y74918D01*
X163718Y74981D01*
X163759Y75041D01*
X163804Y75099D01*
X163852Y75155D01*
X163902Y75208D01*
X163955Y75258D01*
X164011Y75306D01*
X164069Y75351D01*
X164130Y75392D01*
X164192Y75430D01*
X164256Y75465D01*
X164323Y75497D01*
X164390Y75525D01*
X164459Y75550D01*
X164530Y75570D01*
X164601Y75587D01*
X164673Y75601D01*
X164746Y75610D01*
X164819Y75616D01*
X164892Y75618D01*
X171992D01*
Y72818D01*
D02*
G37*
G36*
Y67818D02*
X164892D01*
X164819Y67820D01*
X164746Y67826D01*
X164673Y67835D01*
X164601Y67849D01*
X164530Y67866D01*
X164459Y67887D01*
X164390Y67911D01*
X164323Y67939D01*
X164256Y67971D01*
X164192Y68006D01*
X164130Y68044D01*
X164069Y68085D01*
X164011Y68130D01*
X163955Y68178D01*
X163902Y68228D01*
X163852Y68281D01*
X163804Y68337D01*
X163759Y68395D01*
X163718Y68456D01*
X163680Y68518D01*
X163645Y68582D01*
X163613Y68649D01*
X163585Y68716D01*
X163561Y68785D01*
X163540Y68856D01*
X163523Y68927D01*
X163509Y68999D01*
X163500Y69072D01*
X163494Y69145D01*
X163492Y69218D01*
X163494Y69291D01*
X163500Y69364D01*
X163509Y69437D01*
X163523Y69509D01*
X163540Y69580D01*
X163561Y69651D01*
X163585Y69720D01*
X163613Y69788D01*
X163645Y69854D01*
X163680Y69918D01*
X163718Y69981D01*
X163759Y70041D01*
X163804Y70099D01*
X163852Y70155D01*
X163902Y70208D01*
X163955Y70258D01*
X164011Y70306D01*
X164069Y70351D01*
X164130Y70392D01*
X164192Y70430D01*
X164256Y70465D01*
X164323Y70497D01*
X164390Y70525D01*
X164459Y70550D01*
X164530Y70570D01*
X164601Y70587D01*
X164673Y70601D01*
X164746Y70610D01*
X164819Y70616D01*
X164892Y70618D01*
X171992D01*
Y67818D01*
D02*
G37*
G36*
Y62818D02*
X164892D01*
X164819Y62820D01*
X164746Y62826D01*
X164673Y62835D01*
X164601Y62849D01*
X164530Y62866D01*
X164459Y62887D01*
X164390Y62911D01*
X164323Y62939D01*
X164256Y62971D01*
X164192Y63006D01*
X164130Y63044D01*
X164069Y63085D01*
X164011Y63130D01*
X163955Y63178D01*
X163902Y63228D01*
X163852Y63281D01*
X163804Y63337D01*
X163759Y63395D01*
X163718Y63456D01*
X163680Y63518D01*
X163645Y63582D01*
X163613Y63649D01*
X163585Y63716D01*
X163561Y63785D01*
X163540Y63856D01*
X163523Y63927D01*
X163509Y63999D01*
X163500Y64072D01*
X163494Y64145D01*
X163492Y64218D01*
X163494Y64291D01*
X163500Y64364D01*
X163509Y64437D01*
X163523Y64509D01*
X163540Y64580D01*
X163561Y64651D01*
X163585Y64720D01*
X163613Y64787D01*
X163645Y64854D01*
X163680Y64918D01*
X163718Y64981D01*
X163759Y65041D01*
X163804Y65099D01*
X163852Y65155D01*
X163902Y65208D01*
X163955Y65258D01*
X164011Y65306D01*
X164069Y65351D01*
X164130Y65392D01*
X164192Y65430D01*
X164256Y65465D01*
X164323Y65497D01*
X164390Y65525D01*
X164459Y65550D01*
X164530Y65570D01*
X164601Y65587D01*
X164673Y65601D01*
X164746Y65610D01*
X164819Y65616D01*
X164892Y65618D01*
X171992D01*
Y62818D01*
D02*
G37*
G36*
Y57818D02*
X164892D01*
X164819Y57820D01*
X164746Y57826D01*
X164673Y57835D01*
X164601Y57849D01*
X164530Y57866D01*
X164459Y57887D01*
X164390Y57911D01*
X164323Y57939D01*
X164256Y57971D01*
X164192Y58006D01*
X164130Y58044D01*
X164069Y58085D01*
X164011Y58130D01*
X163955Y58178D01*
X163902Y58228D01*
X163852Y58281D01*
X163804Y58337D01*
X163759Y58395D01*
X163718Y58456D01*
X163680Y58518D01*
X163645Y58582D01*
X163613Y58649D01*
X163585Y58716D01*
X163561Y58785D01*
X163540Y58856D01*
X163523Y58927D01*
X163509Y58999D01*
X163500Y59072D01*
X163494Y59145D01*
X163492Y59218D01*
X163494Y59291D01*
X163500Y59364D01*
X163509Y59437D01*
X163523Y59509D01*
X163540Y59580D01*
X163561Y59651D01*
X163585Y59720D01*
X163613Y59788D01*
X163645Y59854D01*
X163680Y59918D01*
X163718Y59981D01*
X163759Y60041D01*
X163804Y60099D01*
X163852Y60155D01*
X163902Y60208D01*
X163955Y60258D01*
X164011Y60306D01*
X164069Y60351D01*
X164130Y60392D01*
X164192Y60430D01*
X164256Y60465D01*
X164323Y60497D01*
X164390Y60525D01*
X164459Y60550D01*
X164530Y60570D01*
X164601Y60587D01*
X164673Y60601D01*
X164746Y60610D01*
X164819Y60616D01*
X164892Y60618D01*
X171992D01*
Y57818D01*
D02*
G37*
D16*
X145630Y527660D02*
D03*
Y518160D02*
D03*
Y508660D02*
D03*
X169330D02*
D03*
Y527660D02*
D03*
D17*
X564388Y146558D02*
D03*
Y137160D02*
D03*
Y127762D02*
D03*
X590296D02*
D03*
Y146558D02*
D03*
D18*
X339000Y118290D02*
D03*
Y102790D02*
D03*
X517652Y139830D02*
D03*
Y124330D02*
D03*
X304202Y103298D02*
D03*
Y118798D02*
D03*
X84074Y536070D02*
D03*
Y520570D02*
D03*
X227584Y528190D02*
D03*
Y543690D02*
D03*
X477012Y124330D02*
D03*
Y139830D02*
D03*
X275844Y528320D02*
D03*
Y543820D02*
D03*
X254254Y528320D02*
D03*
Y543820D02*
D03*
X320712Y118668D02*
D03*
Y103168D02*
D03*
D19*
X345562Y567190D02*
D03*
Y554490D02*
D03*
Y541790D02*
D03*
Y529090D02*
D03*
Y516390D02*
D03*
Y503690D02*
D03*
Y490990D02*
D03*
Y478290D02*
D03*
Y465590D02*
D03*
Y452890D02*
D03*
Y440190D02*
D03*
Y427490D02*
D03*
Y414790D02*
D03*
Y402090D02*
D03*
X515562D02*
D03*
Y414790D02*
D03*
Y427490D02*
D03*
Y440190D02*
D03*
Y452890D02*
D03*
Y465590D02*
D03*
Y478290D02*
D03*
Y490990D02*
D03*
Y503690D02*
D03*
Y516390D02*
D03*
Y529090D02*
D03*
Y541790D02*
D03*
Y554490D02*
D03*
Y567190D02*
D03*
D20*
X373412Y392090D02*
D03*
X386112D02*
D03*
X398812D02*
D03*
X411512D02*
D03*
X424212D02*
D03*
X436912D02*
D03*
X449612D02*
D03*
X462312D02*
D03*
X475012D02*
D03*
X487712D02*
D03*
D21*
X402212Y510540D02*
D03*
X420562D02*
D03*
X438912D02*
D03*
X402212Y492190D02*
D03*
X420562D02*
D03*
X438912D02*
D03*
X402212Y473840D02*
D03*
X420562D02*
D03*
X438912D02*
D03*
D22*
X297448Y441706D02*
D03*
X282448D02*
D03*
X515500Y195580D02*
D03*
X500500D02*
D03*
X563506Y190246D02*
D03*
X548506D02*
D03*
X591954Y190754D02*
D03*
X576954D02*
D03*
X194444Y562864D02*
D03*
X179444D02*
D03*
X282194Y459486D02*
D03*
X297194D02*
D03*
D23*
X250779Y410822D02*
D03*
X210647Y195430D02*
D03*
X241889Y291442D02*
D03*
D24*
X250779Y423822D02*
D03*
X235377Y417322D02*
D03*
X195245Y201930D02*
D03*
X210647Y208430D02*
D03*
X226487Y297942D02*
D03*
X241889Y304442D02*
D03*
D25*
X167742Y79218D02*
D03*
Y74218D02*
D03*
Y69218D02*
D03*
Y64218D02*
D03*
Y59218D02*
D03*
X138242D02*
D03*
Y64218D02*
D03*
Y69218D02*
D03*
Y74218D02*
D03*
Y79218D02*
D03*
D26*
X152992Y69218D02*
D03*
D27*
X498186Y20828D02*
D03*
X422186D02*
D03*
D28*
X472186D02*
D03*
X448186D02*
D03*
D29*
X491186Y46328D02*
D03*
X429186D02*
D03*
D30*
X473186Y47578D02*
D03*
X447186D02*
D03*
X466686D02*
D03*
X453686D02*
D03*
X460186D02*
D03*
D31*
X155500Y98094D02*
D03*
X148500D02*
D03*
D32*
X207812Y41198D02*
D03*
X192312D02*
D03*
X275122Y103428D02*
D03*
X259622D02*
D03*
X583822Y97790D02*
D03*
X568322D02*
D03*
X296548Y426212D02*
D03*
X281048D02*
D03*
D33*
X238162Y122118D02*
D03*
Y107118D02*
D03*
X238162Y91758D02*
D03*
Y76758D02*
D03*
X78142Y91878D02*
D03*
Y76878D02*
D03*
X516382Y156330D02*
D03*
Y171330D02*
D03*
X531876Y170314D02*
D03*
Y155314D02*
D03*
D62*
X134300Y295148D02*
X221194D01*
X223988Y297942D01*
X114300Y295148D02*
Y331470D01*
X97783Y352425D02*
X189865D01*
X84074Y194936D02*
Y366134D01*
Y505004D01*
Y366134D02*
X97783Y352425D01*
X78142Y189004D02*
X84074Y194936D01*
X98418Y209280D01*
X304202Y118668D02*
X320712D01*
X266102D02*
X304202D01*
X472710Y71612D02*
X483186Y61136D01*
X472186Y72136D02*
X472710Y71612D01*
X488686Y46328D02*
X491186D01*
X483186Y51828D02*
X488686Y46328D01*
X483186Y51828D02*
Y61136D01*
X498186Y20828D02*
Y40828D01*
X492686Y46328D02*
X498186Y40828D01*
X491186Y46328D02*
X492686D01*
X472186Y20828D02*
X498186D01*
X448186D02*
X472186D01*
X422186D02*
X448186D01*
X429186Y28328D02*
Y46328D01*
X422186Y21328D02*
X429186Y28328D01*
X422186Y20828D02*
Y21328D01*
X447186Y71520D02*
X461264Y85598D01*
X584962Y88527D02*
Y96650D01*
X582033Y85598D02*
X584962Y88527D01*
X461264Y85598D02*
X582033D01*
X583822Y97790D02*
X584962Y96650D01*
X583822Y97790D02*
X590296Y104264D01*
X458916Y106234D02*
X477012Y124330D01*
X304202Y103168D02*
X320712D01*
X302452Y103428D02*
X303457Y102423D01*
X515562Y402090D02*
X521062D01*
X555334Y367818D01*
Y366940D02*
Y367818D01*
Y366940D02*
X560324Y361950D01*
X429737Y510540D02*
X438912D01*
Y473840D02*
Y483015D01*
X355053Y565190D02*
X377645Y542597D01*
Y535107D02*
Y542597D01*
Y535107D02*
X402212Y510540D01*
X438912D02*
X495562Y567190D01*
X515562D01*
X411387Y510540D02*
X420562D01*
X402212D02*
X411387D01*
X402212Y492190D02*
Y501365D01*
Y510540D01*
X357196Y315214D02*
X362966D01*
X334658Y337752D02*
X357196Y315214D01*
X345562Y354970D02*
X386334Y314198D01*
X345562Y354970D02*
Y402090D01*
X411226Y313944D02*
Y314147D01*
X401534Y323839D02*
Y351576D01*
Y323839D02*
X411226Y314147D01*
X331538Y337752D02*
X334658D01*
X331538D02*
Y408257D01*
X436118Y313690D02*
Y340106D01*
X474004Y391082D02*
X475012Y392090D01*
X474004Y377992D02*
Y391082D01*
X436118Y340106D02*
X474004Y377992D01*
X386112Y366998D02*
X401534Y351576D01*
X500500Y194580D02*
Y195580D01*
X490423Y184503D02*
X500500Y194580D01*
X490423Y176733D02*
Y184503D01*
X488950Y175260D02*
X490423Y176733D01*
X81071Y118668D02*
X220620D01*
X531876Y170314D02*
X532876Y171314D01*
X540496D01*
X540512Y171330D01*
X531876Y155314D02*
X532876D01*
X530876D02*
X531876D01*
X532876D02*
X541632Y146558D01*
X516382Y156330D02*
X529860D01*
X530876Y155314D01*
X540512Y171330D02*
Y182252D01*
X546506Y188246D01*
X547506D01*
X548506Y189246D01*
Y190246D01*
X576700Y190500D02*
X576954Y190754D01*
X563760Y190500D02*
X576700D01*
X563506Y190246D02*
X563760Y190500D01*
X515500Y195580D02*
X516382Y194698D01*
X576954Y136906D02*
Y190754D01*
X516382Y171330D02*
Y194698D01*
X488950Y175260D02*
Y177344D01*
X547878Y98806D02*
X567306D01*
X568322Y97790D01*
X526672Y120012D02*
X547878Y98806D01*
X386112Y366998D02*
Y392090D01*
X98418Y209280D02*
Y254000D01*
X165100D02*
X187960Y231140D01*
X98418Y254000D02*
X165100D01*
X111760Y231140D02*
X114701Y228199D01*
Y179249D02*
Y228199D01*
X189865Y352425D02*
Y372745D01*
Y332105D02*
Y352425D01*
X189230Y373380D02*
X189865Y372745D01*
Y332105D02*
X190500Y331470D01*
X373412Y356870D02*
Y392090D01*
Y419240D01*
X333895Y410614D02*
X335886D01*
X331538Y408257D02*
X333895Y410614D01*
X340062Y414790D02*
X345562D01*
X335886Y410614D02*
X340062Y414790D01*
X256898Y195430D02*
X323850Y262382D01*
X326779Y427490D02*
X345562D01*
X323850Y424561D02*
X326779Y427490D01*
X323850Y262382D02*
Y424561D01*
X296548Y426212D02*
X297183Y426847D01*
X311404Y425196D02*
X312420Y424180D01*
X297564Y425196D02*
X311404D01*
X78142Y115739D02*
Y189004D01*
X301273Y67106D02*
X308770Y59609D01*
Y17360D02*
Y59609D01*
X78142Y61907D02*
X87929Y52120D01*
X411387Y492190D02*
X420562D01*
X402212D02*
X411387D01*
X402212Y483015D02*
Y492190D01*
Y473840D02*
Y483015D01*
X429737Y492190D02*
X438912D01*
X420562D02*
X429737D01*
X420562Y501365D02*
Y510540D01*
Y492190D02*
Y501365D01*
Y483015D02*
Y492190D01*
Y473840D02*
Y483015D01*
X429737Y473840D02*
X438912D01*
X420562D02*
X429737D01*
X411387D02*
X420562D01*
X402212D02*
X411387D01*
X438912Y501365D02*
Y510540D01*
Y492190D02*
Y501365D01*
X296548Y426212D02*
X297564Y425196D01*
X320810Y541790D02*
X345562D01*
X299720Y520700D02*
X320810Y541790D01*
X324350Y478290D02*
X345562D01*
X307340Y495300D02*
X324350Y478290D01*
X245618Y472948D02*
X259080Y459486D01*
X282194D01*
X281748Y426912D02*
Y441406D01*
X281448Y441706D02*
X281748Y441406D01*
X257303Y441706D02*
X281448D01*
X180849Y518160D02*
X257303Y441706D01*
X312166Y459232D02*
X314250D01*
X345062Y466090D02*
X345562Y465590D01*
X320608D02*
X345562D01*
X314250Y459232D02*
X320608Y465590D01*
X179444Y561864D02*
Y562864D01*
X163680Y546100D02*
X179444Y561864D01*
X162560Y546100D02*
X163680D01*
X180849Y518160D02*
X190879Y528190D01*
X145630Y518160D02*
X180849D01*
X119902D02*
X145630D01*
X102362Y535700D02*
X119902Y518160D01*
X141880Y527660D02*
X145630D01*
X133350Y536190D02*
X141880Y527660D01*
X133350Y536190D02*
Y561340D01*
X169330Y527660D02*
X173080D01*
X189110Y543690D01*
X227584D01*
X84074Y520570D02*
X107897D01*
X119807Y508660D01*
X145630D01*
X189484Y544330D02*
X189484Y544330D01*
X320712Y103168D02*
X320901Y102979D01*
X338811D01*
X339000Y102790D01*
X320712Y118668D02*
X320901Y118479D01*
X338811D01*
X339000Y118290D01*
X132334Y560324D02*
X133350Y561340D01*
X89408Y560324D02*
X132334D01*
X576954Y121971D02*
Y136906D01*
X564388Y137160D02*
X576700D01*
X576954Y136906D01*
X568322Y113339D02*
X576954Y121971D01*
X591954Y146852D02*
Y190754D01*
X591660Y146558D02*
X591954Y146852D01*
X590296Y146558D02*
X591660D01*
X281048Y277114D02*
Y343601D01*
Y246504D02*
Y277114D01*
X293878D02*
X295148Y275844D01*
X281048Y277114D02*
X293878D01*
X210647Y195430D02*
X256898D01*
X279400Y341953D02*
X281048Y343601D01*
X245209Y307762D02*
X279400Y341953D01*
X526672Y120012D02*
Y124330D01*
X269026Y386334D02*
X269748Y387056D01*
Y394352D01*
X254099Y410001D02*
X269748Y394352D01*
X241889Y291442D02*
X244388D01*
X250444Y273050D02*
Y285386D01*
X244388Y291442D02*
X250444Y285386D01*
X286514Y554490D02*
X345562D01*
X275844Y543820D02*
X286514Y554490D01*
X114758Y178772D02*
X114968Y178982D01*
X114701Y179249D02*
X114968Y178982D01*
X241889Y304442D02*
X244388D01*
X245209Y305263D01*
X281048Y426212D02*
X281748Y426912D01*
X279400Y424564D02*
X281048Y426212D01*
X297321Y441833D02*
X297448Y441706D01*
X298206Y440948D01*
X297194Y459486D02*
X297321Y459359D01*
X344804Y440948D02*
X345562Y440190D01*
Y567190D02*
X347562Y565190D01*
X84074Y536070D02*
X84444Y535700D01*
X179444Y562864D02*
Y563864D01*
X178444Y564864D02*
X179444Y563864D01*
X194056Y544330D02*
X194444Y544718D01*
X254189Y528255D02*
X254254Y528320D01*
X254189Y543755D02*
X254254Y543820D01*
X78142Y115739D02*
X81071Y118668D01*
X99732Y75488D02*
X101002Y74218D01*
X155500Y98094D02*
X163994D01*
X203872Y62344D02*
X207812Y58404D01*
X221890Y119938D02*
X222406Y120454D01*
X237162Y76758D02*
X238162D01*
Y107118D02*
X238162Y107118D01*
Y122118D02*
X238522Y122478D01*
X255932Y107118D02*
X259622Y103428D01*
X262292Y122478D02*
X266102Y118668D01*
X303457Y102423D02*
X304202Y101678D01*
X301052Y101548D02*
X302582D01*
X303457Y102423D01*
X245209Y305263D02*
Y307762D01*
X297321Y441833D02*
Y459359D01*
X402212Y448040D02*
Y473840D01*
X70104Y518974D02*
Y541020D01*
Y518974D02*
X84074Y505004D01*
Y520570D01*
X445465Y164897D02*
X451945D01*
X443992Y166370D02*
X445465Y164897D01*
X194444Y544718D02*
Y562864D01*
X568322Y100330D02*
Y113339D01*
X590296Y104264D02*
Y127762D01*
X78142Y61907D02*
Y76878D01*
Y91878D02*
Y115739D01*
X207812Y41198D02*
Y58404D01*
X238162Y76758D02*
X247814Y67106D01*
X238162Y91758D02*
Y107118D01*
X237162Y91758D02*
X238162D01*
X301273Y67106D02*
X304202Y70035D01*
X113698Y377724D02*
Y417742D01*
X279400Y341953D02*
Y424564D01*
X304202Y70035D02*
Y101678D01*
X134968Y178982D02*
X169798D01*
X112656Y376682D02*
X113698Y377724D01*
X192746Y201930D02*
X195245D01*
X250779Y423822D02*
X253278D01*
X255668Y426212D01*
X347562Y565190D02*
X355053D01*
X84444Y535700D02*
X102362D01*
X517652Y139830D02*
X518841Y138641D01*
X525569D01*
X516382Y156330D02*
X516382Y156330D01*
X515382Y171330D02*
X516382D01*
X515562Y529090D02*
X551249D01*
X515562Y516390D02*
X516955Y517783D01*
X577981D01*
X579374Y519176D01*
X561335Y539176D02*
X579374D01*
X227584Y528190D02*
X227649Y528255D01*
X190879Y528190D02*
X227584D01*
X226944Y544330D02*
X227584Y543690D01*
X227649Y543755D01*
X189484Y544330D02*
X194056D01*
X226944D01*
X254254Y528320D02*
X275844D01*
X254254Y543820D02*
X275844D01*
X189902Y56820D02*
X192312Y54410D01*
X139356Y98094D02*
X148500D01*
X207812Y58404D02*
X218808D01*
X238162Y107118D02*
X255932D01*
X224070Y122118D02*
X238162D01*
X238522Y122478D02*
X262292D01*
X210647Y208430D02*
X242974D01*
X373412Y419240D02*
X402212Y448040D01*
X541632Y146558D02*
X564388D01*
X525569Y138641D02*
X536448Y127762D01*
X564388D01*
X517652Y124330D02*
X526672D01*
X551249Y529090D02*
X561335Y539176D01*
X192312Y41198D02*
Y54410D01*
X218808Y58404D02*
X237162Y76758D01*
X451945Y164897D02*
X477012Y139830D01*
X558292Y60960D02*
Y85090D01*
X214542Y69138D02*
X237162Y91758D01*
X133698Y417742D02*
X232918D01*
X255668Y426212D02*
X281048D01*
X477012Y139830D02*
X517652D01*
X227649Y528255D02*
X254189D01*
X227649Y543755D02*
X254189D01*
X247814Y67106D02*
X301273D01*
X275122Y103428D02*
X302452D01*
X169798Y178982D02*
X192746Y201930D01*
X477012Y124330D02*
X517652D01*
X70104Y541020D02*
X89408Y560324D01*
X242974Y208430D02*
X281048Y246504D01*
X298206Y440948D02*
X344804D01*
D63*
X472710Y48054D02*
X473186Y47578D01*
X472710Y48054D02*
Y71612D01*
X447186Y47578D02*
Y71520D01*
X131144Y52120D02*
X138242Y59218D01*
X87929Y52120D02*
X131144D01*
X137742Y79218D02*
X138242D01*
X137242Y79718D02*
X137742Y79218D01*
X137242Y79718D02*
Y80218D01*
X133768Y83692D02*
X137242Y80218D01*
X167742Y79218D02*
X168066D01*
X168566Y79718D01*
X163994Y98094D02*
X168566Y93522D01*
X201998Y64218D02*
X203872Y62344D01*
X222406Y120454D02*
X224070Y122118D01*
X220620Y118668D02*
X221890Y119938D01*
X133768Y83692D02*
Y92506D01*
X139356Y98094D01*
X168566Y79718D02*
Y93522D01*
X171416Y56820D02*
X189902D01*
X169018Y59218D02*
X171416Y56820D01*
X167742Y74218D02*
X176170D01*
X171992Y69138D02*
X214542D01*
X167742Y64218D02*
X201998D01*
X176170Y74218D02*
X220620Y118668D01*
D64*
X137992Y64468D02*
X138242Y64218D01*
X136992Y64468D02*
X137992D01*
X136766Y64694D02*
X136992Y64468D01*
X136766Y64694D02*
Y64820D01*
X115480D02*
X136766D01*
X127672Y70602D02*
X129136Y69138D01*
X138162D02*
X138242Y69218D01*
X127672Y70602D02*
Y74218D01*
X129136Y69138D02*
X138162D01*
X127672Y74218D02*
X138242D01*
X101002D02*
X127672D01*
D65*
X560324Y316950D02*
D03*
X625324D02*
D03*
Y361950D02*
D03*
D66*
X560324D02*
D03*
D67*
X411387Y510540D02*
D03*
X429737D02*
D03*
X402212Y501365D02*
D03*
X420562D02*
D03*
X438912D02*
D03*
X411387Y492190D02*
D03*
X429737D02*
D03*
X402212Y483015D02*
D03*
X420562D02*
D03*
X438912D02*
D03*
X411387Y473840D02*
D03*
X429737D02*
D03*
D68*
X114300Y295148D02*
D03*
X328770Y17360D02*
D03*
X114968Y178982D02*
D03*
X113698Y417742D02*
D03*
D69*
X134300Y295148D02*
D03*
X308770Y17360D02*
D03*
X579374Y539176D02*
D03*
X134968Y178982D02*
D03*
X133698Y417742D02*
D03*
D70*
X157992Y64218D02*
D03*
X147992D02*
D03*
X152992Y69218D02*
D03*
X147992Y74218D02*
D03*
X157992D02*
D03*
D71*
X113030Y373380D02*
D03*
X189230D02*
D03*
X111760Y231140D02*
D03*
X187960D02*
D03*
X114300Y331470D02*
D03*
X190500D02*
D03*
D72*
X579374Y519176D02*
D03*
D73*
X458216Y106934D02*
D03*
X472186Y72136D02*
D03*
X337566Y314198D02*
D03*
X362966Y314200D02*
D03*
X388370Y314198D02*
D03*
X413770Y314200D02*
D03*
X439170D02*
D03*
X488950Y175260D02*
D03*
X373412Y356870D02*
D03*
X312420Y424180D02*
D03*
X115480Y64820D02*
D03*
X307340Y495300D02*
D03*
X245618Y472948D02*
D03*
X312166Y459232D02*
D03*
X162560Y546100D02*
D03*
X299720Y520700D02*
D03*
X133350Y561340D02*
D03*
X295148Y275844D02*
D03*
X547878Y98806D02*
D03*
X269026Y386334D02*
D03*
X250444Y273050D02*
D03*
X443992Y166370D02*
D03*
X99732Y75488D02*
D03*
X558292Y60960D02*
D03*
D74*
X289306Y173990D02*
D03*
X499364Y342646D02*
D03*
M02*
