G04*
G04 #@! TF.GenerationSoftware,Altium Limited,Altium Designer,20.1.14 (287)*
G04*
G04 Layer_Color=8421504*
%FSLAX44Y44*%
%MOMM*%
G71*
G04*
G04 #@! TF.SameCoordinates,6EDE4AF6-213E-4635-A875-022B84C130C8*
G04*
G04*
G04 #@! TF.FilePolarity,Positive*
G04*
G01*
G75*
%ADD16R,0.4000X1.3500*%
%ADD17R,2.1000X1.6000*%
%ADD18R,1.9000X1.9000*%
%ADD19R,1.8000X1.9000*%
%ADD20R,1.3300X1.3300*%
%ADD21R,2.0000X0.9000*%
%ADD22R,0.9000X2.0000*%
%ADD23R,0.5000X0.2000*%
%ADD24R,0.5000X0.5000*%
%ADD25R,0.8500X0.8500*%
G04:AMPARAMS|DCode=26|XSize=1.35mm|YSize=0.6mm|CornerRadius=0.075mm|HoleSize=0mm|Usage=FLASHONLY|Rotation=0.000|XOffset=0mm|YOffset=0mm|HoleType=Round|Shape=RoundedRectangle|*
%AMROUNDEDRECTD26*
21,1,1.3500,0.4500,0,0,0.0*
21,1,1.2000,0.6000,0,0,0.0*
1,1,0.1500,0.6000,-0.2250*
1,1,0.1500,-0.6000,-0.2250*
1,1,0.1500,-0.6000,0.2250*
1,1,0.1500,0.6000,0.2250*
%
%ADD26ROUNDEDRECTD26*%
%ADD27R,1.2700X0.5588*%
%ADD28R,0.8500X0.8500*%
%ADD29R,0.7000X0.9000*%
%ADD30R,1.1640X0.3358*%
G04:AMPARAMS|DCode=31|XSize=1.164mm|YSize=0.3358mm|CornerRadius=0.1679mm|HoleSize=0mm|Usage=FLASHONLY|Rotation=180.000|XOffset=0mm|YOffset=0mm|HoleType=Round|Shape=RoundedRectangle|*
%AMROUNDEDRECTD31*
21,1,1.1640,0.0000,0,0,180.0*
21,1,0.8281,0.3358,0,0,180.0*
1,1,0.3358,-0.4141,0.0000*
1,1,0.3358,0.4141,0.0000*
1,1,0.3358,0.4141,0.0000*
1,1,0.3358,-0.4141,0.0000*
%
%ADD31ROUNDEDRECTD31*%
%ADD32R,0.5000X0.3000*%
%ADD33R,0.9000X0.7000*%
G36*
X152740Y81370D02*
X150440D01*
Y87370D01*
X152740D01*
Y81370D01*
D02*
G37*
G36*
X148740D02*
X146440D01*
Y87370D01*
X148740D01*
Y81370D01*
D02*
G37*
G36*
X141632Y80924D02*
X141699Y80919D01*
X141765Y80910D01*
X141831Y80898D01*
X141897Y80882D01*
X141961Y80863D01*
X142024Y80841D01*
X142086Y80815D01*
X142147Y80787D01*
X142206Y80754D01*
X142263Y80719D01*
X142318Y80681D01*
X142371Y80641D01*
X142422Y80597D01*
X142471Y80551D01*
X142517Y80502D01*
X142561Y80451D01*
X142601Y80398D01*
X142639Y80343D01*
X142675Y80286D01*
X142706Y80227D01*
X142735Y80166D01*
X142761Y80104D01*
X142783Y80041D01*
X142802Y79977D01*
X142818Y79911D01*
X142830Y79845D01*
X142840Y79770D01*
X142830Y79695D01*
X142818Y79629D01*
X142802Y79563D01*
X142783Y79499D01*
X142761Y79436D01*
X142735Y79374D01*
X142706Y79313D01*
X142675Y79254D01*
X142639Y79197D01*
X142601Y79142D01*
X142561Y79089D01*
X142517Y79038D01*
X142471Y78989D01*
X142422Y78943D01*
X142371Y78899D01*
X142318Y78858D01*
X142263Y78821D01*
X142206Y78786D01*
X142147Y78753D01*
X142086Y78725D01*
X142024Y78699D01*
X141961Y78677D01*
X141897Y78657D01*
X141831Y78642D01*
X141765Y78630D01*
X141699Y78621D01*
X141632Y78616D01*
X141565Y78614D01*
X141498Y78616D01*
X141440Y78620D01*
X134840D01*
Y80920D01*
X141440D01*
X141498Y80924D01*
X141565Y80926D01*
X141632Y80924D01*
D02*
G37*
G36*
Y75924D02*
X141699Y75919D01*
X141765Y75910D01*
X141831Y75898D01*
X141897Y75882D01*
X141961Y75863D01*
X142024Y75841D01*
X142086Y75815D01*
X142147Y75786D01*
X142206Y75754D01*
X142263Y75719D01*
X142318Y75681D01*
X142371Y75641D01*
X142422Y75597D01*
X142471Y75551D01*
X142517Y75502D01*
X142561Y75451D01*
X142601Y75398D01*
X142639Y75343D01*
X142675Y75286D01*
X142706Y75227D01*
X142735Y75166D01*
X142761Y75104D01*
X142783Y75041D01*
X142802Y74977D01*
X142818Y74911D01*
X142830Y74845D01*
X142840Y74770D01*
X142830Y74695D01*
X142818Y74629D01*
X142802Y74563D01*
X142783Y74499D01*
X142761Y74436D01*
X142735Y74374D01*
X142706Y74313D01*
X142675Y74254D01*
X142639Y74197D01*
X142601Y74142D01*
X142561Y74089D01*
X142517Y74038D01*
X142471Y73989D01*
X142422Y73943D01*
X142371Y73899D01*
X142318Y73859D01*
X142263Y73821D01*
X142206Y73786D01*
X142147Y73753D01*
X142086Y73725D01*
X142024Y73699D01*
X141961Y73677D01*
X141897Y73657D01*
X141831Y73642D01*
X141765Y73630D01*
X141699Y73621D01*
X141632Y73616D01*
X141565Y73614D01*
X141498Y73616D01*
X141440Y73620D01*
X134840D01*
Y75920D01*
X141440D01*
X141498Y75924D01*
X141565Y75926D01*
X141632Y75924D01*
D02*
G37*
G36*
X152490Y70870D02*
X145990D01*
Y79870D01*
X152490D01*
Y70870D01*
D02*
G37*
G36*
X141632Y70924D02*
X141699Y70919D01*
X141765Y70910D01*
X141831Y70898D01*
X141897Y70883D01*
X141961Y70863D01*
X142024Y70841D01*
X142086Y70815D01*
X142147Y70786D01*
X142206Y70754D01*
X142263Y70719D01*
X142318Y70681D01*
X142371Y70641D01*
X142422Y70597D01*
X142471Y70551D01*
X142517Y70502D01*
X142561Y70451D01*
X142601Y70398D01*
X142639Y70343D01*
X142675Y70286D01*
X142706Y70227D01*
X142735Y70166D01*
X142761Y70104D01*
X142783Y70041D01*
X142802Y69977D01*
X142818Y69911D01*
X142830Y69845D01*
X142840Y69770D01*
X142830Y69695D01*
X142818Y69629D01*
X142802Y69563D01*
X142783Y69499D01*
X142761Y69436D01*
X142735Y69374D01*
X142706Y69313D01*
X142675Y69254D01*
X142639Y69197D01*
X142601Y69142D01*
X142561Y69089D01*
X142517Y69038D01*
X142471Y68989D01*
X142422Y68943D01*
X142371Y68899D01*
X142318Y68858D01*
X142263Y68821D01*
X142206Y68786D01*
X142147Y68753D01*
X142086Y68725D01*
X142024Y68699D01*
X141961Y68677D01*
X141897Y68657D01*
X141831Y68642D01*
X141765Y68630D01*
X141699Y68621D01*
X141632Y68616D01*
X141565Y68614D01*
X141498Y68616D01*
X141440Y68620D01*
X134840D01*
Y70920D01*
X141440D01*
X141498Y70924D01*
X141565Y70926D01*
X141632Y70924D01*
D02*
G37*
G36*
Y65924D02*
X141699Y65919D01*
X141765Y65910D01*
X141831Y65898D01*
X141897Y65882D01*
X141961Y65863D01*
X142024Y65841D01*
X142086Y65815D01*
X142147Y65786D01*
X142206Y65754D01*
X142263Y65719D01*
X142318Y65681D01*
X142371Y65641D01*
X142422Y65597D01*
X142471Y65551D01*
X142517Y65502D01*
X142561Y65451D01*
X142601Y65398D01*
X142639Y65343D01*
X142675Y65286D01*
X142706Y65227D01*
X142735Y65166D01*
X142761Y65104D01*
X142783Y65041D01*
X142802Y64977D01*
X142818Y64911D01*
X142830Y64845D01*
X142840Y64770D01*
X142830Y64695D01*
X142818Y64629D01*
X142802Y64563D01*
X142783Y64499D01*
X142761Y64436D01*
X142735Y64374D01*
X142706Y64313D01*
X142675Y64254D01*
X142639Y64197D01*
X142601Y64142D01*
X142561Y64089D01*
X142517Y64038D01*
X142471Y63989D01*
X142422Y63943D01*
X142371Y63899D01*
X142318Y63858D01*
X142263Y63821D01*
X142206Y63786D01*
X142147Y63753D01*
X142086Y63725D01*
X142024Y63699D01*
X141961Y63677D01*
X141897Y63657D01*
X141831Y63642D01*
X141765Y63630D01*
X141699Y63621D01*
X141632Y63616D01*
X141565Y63614D01*
X141498Y63616D01*
X141440Y63620D01*
X134840D01*
Y65920D01*
X141440D01*
X141498Y65924D01*
X141565Y65926D01*
X141632Y65924D01*
D02*
G37*
G36*
X152490Y59670D02*
X145990D01*
Y68670D01*
X152490D01*
Y59670D01*
D02*
G37*
G36*
X141632Y60924D02*
X141699Y60919D01*
X141765Y60910D01*
X141831Y60898D01*
X141897Y60883D01*
X141961Y60863D01*
X142024Y60841D01*
X142086Y60815D01*
X142147Y60786D01*
X142206Y60754D01*
X142263Y60719D01*
X142318Y60681D01*
X142371Y60641D01*
X142422Y60597D01*
X142471Y60551D01*
X142517Y60502D01*
X142561Y60451D01*
X142601Y60398D01*
X142639Y60343D01*
X142675Y60286D01*
X142706Y60227D01*
X142735Y60166D01*
X142761Y60104D01*
X142783Y60041D01*
X142802Y59977D01*
X142818Y59911D01*
X142830Y59845D01*
X142840Y59770D01*
X142830Y59695D01*
X142818Y59629D01*
X142802Y59563D01*
X142783Y59499D01*
X142761Y59436D01*
X142735Y59374D01*
X142706Y59313D01*
X142675Y59254D01*
X142639Y59197D01*
X142601Y59142D01*
X142561Y59089D01*
X142517Y59038D01*
X142471Y58989D01*
X142422Y58943D01*
X142371Y58899D01*
X142318Y58859D01*
X142263Y58821D01*
X142206Y58786D01*
X142147Y58753D01*
X142086Y58725D01*
X142024Y58699D01*
X141961Y58677D01*
X141897Y58657D01*
X141831Y58642D01*
X141765Y58630D01*
X141699Y58621D01*
X141632Y58616D01*
X141565Y58614D01*
X141498Y58616D01*
X141440Y58620D01*
X134840D01*
Y60920D01*
X141440D01*
X141498Y60924D01*
X141565Y60926D01*
X141632Y60924D01*
D02*
G37*
G36*
X152740Y52170D02*
X150440D01*
Y58170D01*
X152740D01*
Y52170D01*
D02*
G37*
G36*
X148740D02*
X146440D01*
Y58170D01*
X148740D01*
Y52170D01*
D02*
G37*
G36*
X160740Y81370D02*
X158440D01*
Y87370D01*
X160740D01*
Y81370D01*
D02*
G37*
G36*
X156740D02*
X154440D01*
Y87370D01*
X156740D01*
Y81370D01*
D02*
G37*
G36*
X165682Y80924D02*
X165740Y80920D01*
X172340D01*
Y78620D01*
X165740D01*
X165682Y78616D01*
X165615Y78614D01*
X165548Y78616D01*
X165481Y78621D01*
X165415Y78630D01*
X165349Y78642D01*
X165283Y78657D01*
X165219Y78677D01*
X165156Y78699D01*
X165094Y78725D01*
X165033Y78753D01*
X164974Y78786D01*
X164917Y78821D01*
X164862Y78858D01*
X164809Y78899D01*
X164758Y78943D01*
X164709Y78989D01*
X164663Y79038D01*
X164619Y79089D01*
X164578Y79142D01*
X164541Y79197D01*
X164506Y79254D01*
X164473Y79313D01*
X164445Y79374D01*
X164419Y79436D01*
X164397Y79499D01*
X164377Y79563D01*
X164362Y79629D01*
X164350Y79695D01*
X164340Y79770D01*
X164350Y79845D01*
X164362Y79911D01*
X164377Y79977D01*
X164397Y80041D01*
X164419Y80104D01*
X164445Y80166D01*
X164473Y80227D01*
X164506Y80286D01*
X164541Y80343D01*
X164578Y80398D01*
X164619Y80451D01*
X164663Y80502D01*
X164709Y80551D01*
X164758Y80597D01*
X164809Y80641D01*
X164862Y80681D01*
X164917Y80719D01*
X164974Y80754D01*
X165033Y80787D01*
X165094Y80815D01*
X165156Y80841D01*
X165219Y80863D01*
X165283Y80882D01*
X165349Y80898D01*
X165415Y80910D01*
X165481Y80919D01*
X165548Y80924D01*
X165615Y80926D01*
X165682Y80924D01*
D02*
G37*
G36*
Y75924D02*
X165740Y75920D01*
X172340D01*
Y73620D01*
X165740D01*
X165682Y73616D01*
X165615Y73614D01*
X165548Y73616D01*
X165481Y73621D01*
X165415Y73630D01*
X165349Y73642D01*
X165283Y73657D01*
X165219Y73677D01*
X165156Y73699D01*
X165094Y73725D01*
X165033Y73753D01*
X164974Y73786D01*
X164917Y73821D01*
X164862Y73859D01*
X164809Y73899D01*
X164758Y73943D01*
X164709Y73989D01*
X164663Y74038D01*
X164619Y74089D01*
X164578Y74142D01*
X164541Y74197D01*
X164506Y74254D01*
X164473Y74313D01*
X164445Y74374D01*
X164419Y74436D01*
X164397Y74499D01*
X164377Y74563D01*
X164362Y74629D01*
X164350Y74695D01*
X164340Y74770D01*
X164350Y74845D01*
X164362Y74911D01*
X164377Y74977D01*
X164397Y75041D01*
X164419Y75104D01*
X164445Y75166D01*
X164473Y75227D01*
X164506Y75286D01*
X164541Y75343D01*
X164578Y75398D01*
X164619Y75451D01*
X164663Y75502D01*
X164709Y75551D01*
X164758Y75597D01*
X164809Y75641D01*
X164862Y75681D01*
X164917Y75719D01*
X164974Y75754D01*
X165033Y75786D01*
X165094Y75815D01*
X165156Y75841D01*
X165219Y75863D01*
X165283Y75882D01*
X165349Y75898D01*
X165415Y75910D01*
X165481Y75919D01*
X165548Y75924D01*
X165615Y75926D01*
X165682Y75924D01*
D02*
G37*
G36*
X161190Y70870D02*
X154690D01*
Y79870D01*
X161190D01*
Y70870D01*
D02*
G37*
G36*
X165682Y70924D02*
X165740Y70920D01*
X172340D01*
Y68620D01*
X165740D01*
X165682Y68616D01*
X165615Y68614D01*
X165548Y68616D01*
X165481Y68621D01*
X165415Y68630D01*
X165349Y68642D01*
X165283Y68657D01*
X165219Y68677D01*
X165156Y68699D01*
X165094Y68725D01*
X165033Y68753D01*
X164974Y68786D01*
X164917Y68821D01*
X164862Y68858D01*
X164809Y68899D01*
X164758Y68943D01*
X164709Y68989D01*
X164663Y69038D01*
X164619Y69089D01*
X164578Y69142D01*
X164541Y69197D01*
X164506Y69254D01*
X164473Y69313D01*
X164445Y69374D01*
X164419Y69436D01*
X164397Y69499D01*
X164377Y69563D01*
X164362Y69629D01*
X164350Y69695D01*
X164340Y69770D01*
X164350Y69845D01*
X164362Y69911D01*
X164377Y69977D01*
X164397Y70041D01*
X164419Y70104D01*
X164445Y70166D01*
X164473Y70227D01*
X164506Y70286D01*
X164541Y70343D01*
X164578Y70398D01*
X164619Y70451D01*
X164663Y70502D01*
X164709Y70551D01*
X164758Y70597D01*
X164809Y70641D01*
X164862Y70681D01*
X164917Y70719D01*
X164974Y70754D01*
X165033Y70786D01*
X165094Y70815D01*
X165156Y70841D01*
X165219Y70863D01*
X165283Y70883D01*
X165349Y70898D01*
X165415Y70910D01*
X165481Y70919D01*
X165548Y70924D01*
X165615Y70926D01*
X165682Y70924D01*
D02*
G37*
G36*
Y65924D02*
X165740Y65920D01*
X172340D01*
Y63620D01*
X165740D01*
X165682Y63616D01*
X165615Y63614D01*
X165548Y63616D01*
X165481Y63621D01*
X165415Y63630D01*
X165349Y63642D01*
X165283Y63657D01*
X165219Y63677D01*
X165156Y63699D01*
X165094Y63725D01*
X165033Y63753D01*
X164974Y63786D01*
X164917Y63821D01*
X164862Y63858D01*
X164809Y63899D01*
X164758Y63943D01*
X164709Y63989D01*
X164663Y64038D01*
X164619Y64089D01*
X164578Y64142D01*
X164541Y64197D01*
X164506Y64254D01*
X164473Y64313D01*
X164445Y64374D01*
X164419Y64436D01*
X164397Y64499D01*
X164377Y64563D01*
X164362Y64629D01*
X164350Y64695D01*
X164340Y64770D01*
X164350Y64845D01*
X164362Y64911D01*
X164377Y64977D01*
X164397Y65041D01*
X164419Y65104D01*
X164445Y65166D01*
X164473Y65227D01*
X164506Y65286D01*
X164541Y65343D01*
X164578Y65398D01*
X164619Y65451D01*
X164663Y65502D01*
X164709Y65551D01*
X164758Y65597D01*
X164809Y65641D01*
X164862Y65681D01*
X164917Y65719D01*
X164974Y65754D01*
X165033Y65786D01*
X165094Y65815D01*
X165156Y65841D01*
X165219Y65863D01*
X165283Y65882D01*
X165349Y65898D01*
X165415Y65910D01*
X165481Y65919D01*
X165548Y65924D01*
X165615Y65926D01*
X165682Y65924D01*
D02*
G37*
G36*
X161190Y59670D02*
X154690D01*
Y68670D01*
X161190D01*
Y59670D01*
D02*
G37*
G36*
X165682Y60924D02*
X165740Y60920D01*
X172340D01*
Y58620D01*
X165740D01*
X165682Y58616D01*
X165615Y58614D01*
X165548Y58616D01*
X165481Y58621D01*
X165415Y58630D01*
X165349Y58642D01*
X165283Y58657D01*
X165219Y58677D01*
X165156Y58699D01*
X165094Y58725D01*
X165033Y58753D01*
X164974Y58786D01*
X164917Y58821D01*
X164862Y58859D01*
X164809Y58899D01*
X164758Y58943D01*
X164709Y58989D01*
X164663Y59038D01*
X164619Y59089D01*
X164578Y59142D01*
X164541Y59197D01*
X164506Y59254D01*
X164473Y59313D01*
X164445Y59374D01*
X164419Y59436D01*
X164397Y59499D01*
X164377Y59563D01*
X164362Y59629D01*
X164350Y59695D01*
X164340Y59770D01*
X164350Y59845D01*
X164362Y59911D01*
X164377Y59977D01*
X164397Y60041D01*
X164419Y60104D01*
X164445Y60166D01*
X164473Y60227D01*
X164506Y60286D01*
X164541Y60343D01*
X164578Y60398D01*
X164619Y60451D01*
X164663Y60502D01*
X164709Y60551D01*
X164758Y60597D01*
X164809Y60641D01*
X164862Y60681D01*
X164917Y60719D01*
X164974Y60754D01*
X165033Y60786D01*
X165094Y60815D01*
X165156Y60841D01*
X165219Y60863D01*
X165283Y60883D01*
X165349Y60898D01*
X165415Y60910D01*
X165481Y60919D01*
X165548Y60924D01*
X165615Y60926D01*
X165682Y60924D01*
D02*
G37*
G36*
X160740Y52170D02*
X158440D01*
Y58170D01*
X160740D01*
Y52170D01*
D02*
G37*
G36*
X156740D02*
X154440D01*
Y58170D01*
X156740D01*
Y52170D01*
D02*
G37*
D16*
X460186Y47578D02*
D03*
X453686D02*
D03*
X466686D02*
D03*
X447186D02*
D03*
X473186D02*
D03*
D17*
X429186Y46328D02*
D03*
X491186D02*
D03*
D18*
X448186Y20828D02*
D03*
X472186D02*
D03*
D19*
X422186D02*
D03*
X498186D02*
D03*
D20*
X438912Y473840D02*
D03*
X420562D02*
D03*
X402212D02*
D03*
X438912Y492190D02*
D03*
X420562D02*
D03*
X402212D02*
D03*
X438912Y510540D02*
D03*
X420562D02*
D03*
X402212D02*
D03*
D21*
X515562Y567190D02*
D03*
Y554490D02*
D03*
Y541790D02*
D03*
Y529090D02*
D03*
Y516390D02*
D03*
Y503690D02*
D03*
Y490990D02*
D03*
Y478290D02*
D03*
Y465590D02*
D03*
Y452890D02*
D03*
Y440190D02*
D03*
Y427490D02*
D03*
Y414790D02*
D03*
Y402090D02*
D03*
X345562D02*
D03*
Y414790D02*
D03*
Y427490D02*
D03*
Y440190D02*
D03*
Y452890D02*
D03*
Y465590D02*
D03*
Y478290D02*
D03*
Y490990D02*
D03*
Y503690D02*
D03*
Y516390D02*
D03*
Y529090D02*
D03*
Y541790D02*
D03*
Y554490D02*
D03*
Y567190D02*
D03*
D22*
X487712Y392090D02*
D03*
X475012D02*
D03*
X462312D02*
D03*
X449612D02*
D03*
X436912D02*
D03*
X424212D02*
D03*
X411512D02*
D03*
X398812D02*
D03*
X386112D02*
D03*
X373412D02*
D03*
D23*
X138840Y79770D02*
D03*
Y74770D02*
D03*
Y69770D02*
D03*
Y64770D02*
D03*
Y59770D02*
D03*
X168340D02*
D03*
Y64770D02*
D03*
Y69770D02*
D03*
Y74770D02*
D03*
Y79770D02*
D03*
D24*
X153590Y69770D02*
D03*
D25*
X97920Y104140D02*
D03*
X82420D02*
D03*
X97920Y90170D02*
D03*
X82420D02*
D03*
X207812Y41198D02*
D03*
X192312D02*
D03*
X275122Y103428D02*
D03*
X259622D02*
D03*
X583822Y97790D02*
D03*
X568322D02*
D03*
X296548Y426212D02*
D03*
X281048D02*
D03*
D26*
X145630Y527660D02*
D03*
Y518160D02*
D03*
Y508660D02*
D03*
X169330D02*
D03*
Y527660D02*
D03*
D27*
X564388Y146558D02*
D03*
Y137160D02*
D03*
Y127762D02*
D03*
X590296D02*
D03*
Y146558D02*
D03*
D28*
X339000Y118290D02*
D03*
Y102790D02*
D03*
X304202Y103298D02*
D03*
Y118798D02*
D03*
X84074Y536070D02*
D03*
Y520570D02*
D03*
X227584Y528190D02*
D03*
Y543690D02*
D03*
X477012Y124330D02*
D03*
Y139830D02*
D03*
X275844Y528320D02*
D03*
Y543820D02*
D03*
X254254Y528320D02*
D03*
Y543820D02*
D03*
X320712Y118668D02*
D03*
Y103168D02*
D03*
D29*
X297448Y441706D02*
D03*
X282448D02*
D03*
X515500Y195580D02*
D03*
X500500D02*
D03*
X563506Y190246D02*
D03*
X548506D02*
D03*
X591954Y190754D02*
D03*
X576954D02*
D03*
X194444Y562864D02*
D03*
X179444D02*
D03*
X282194Y459486D02*
D03*
X297194D02*
D03*
D30*
X250779Y410822D02*
D03*
X210647Y195430D02*
D03*
X241889Y291442D02*
D03*
D31*
X250779Y423822D02*
D03*
X235377Y417322D02*
D03*
X195245Y201930D02*
D03*
X210647Y208430D02*
D03*
X226487Y297942D02*
D03*
X241889Y304442D02*
D03*
D32*
X155500Y98094D02*
D03*
X148500D02*
D03*
D33*
X238162Y122118D02*
D03*
Y107118D02*
D03*
X238162Y91758D02*
D03*
Y76758D02*
D03*
X64770Y91320D02*
D03*
Y76320D02*
D03*
X516382Y156330D02*
D03*
Y171330D02*
D03*
X531876Y170314D02*
D03*
Y155314D02*
D03*
M02*
