G04*
G04 #@! TF.GenerationSoftware,Altium Limited,Altium Designer,20.1.14 (287)*
G04*
G04 Layer_Physical_Order=2*
G04 Layer_Color=16711680*
%FSLAX44Y44*%
%MOMM*%
G71*
G04*
G04 #@! TF.SameCoordinates,6EDE4AF6-213E-4635-A875-022B84C130C8*
G04*
G04*
G04 #@! TF.FilePolarity,Positive*
G04*
G01*
G75*
%ADD63C,0.5000*%
%ADD65C,0.4000*%
%ADD66C,0.3000*%
%ADD67C,1.3680*%
%ADD68R,1.3680X1.3680*%
%ADD69C,1.4980*%
%ADD70R,1.4980X1.4980*%
%ADD71C,1.4000*%
%ADD72R,1.3680X1.3680*%
%ADD73C,1.2700*%
%ADD74C,3.5000*%
G36*
X643890Y5080D02*
X54610D01*
Y572151D01*
X643890D01*
Y5080D01*
D02*
G37*
%LPC*%
G36*
X133350Y569282D02*
X131294Y569011D01*
X129379Y568218D01*
X127734Y566956D01*
X126472Y565311D01*
X125679Y563396D01*
X125408Y561340D01*
X125679Y559285D01*
X126472Y557369D01*
X127734Y555724D01*
X129379Y554462D01*
X131294Y553669D01*
X133350Y553398D01*
X135406Y553669D01*
X137321Y554462D01*
X138966Y555724D01*
X140228Y557369D01*
X141021Y559285D01*
X141292Y561340D01*
X141021Y563396D01*
X140228Y565311D01*
X138966Y566956D01*
X137321Y568218D01*
X135406Y569011D01*
X133350Y569282D01*
D02*
G37*
G36*
X579374Y547612D02*
X577191Y547325D01*
X575156Y546482D01*
X573409Y545141D01*
X572068Y543394D01*
X571225Y541359D01*
X570938Y539176D01*
X571225Y536993D01*
X572068Y534958D01*
X573409Y533211D01*
X575156Y531870D01*
X577191Y531027D01*
X579374Y530740D01*
X581557Y531027D01*
X583592Y531870D01*
X585339Y533211D01*
X586680Y534958D01*
X587523Y536993D01*
X587810Y539176D01*
X587523Y541359D01*
X586680Y543394D01*
X585339Y545141D01*
X583592Y546482D01*
X581557Y547325D01*
X579374Y547612D01*
D02*
G37*
G36*
X431007Y514407D02*
Y511810D01*
X433604D01*
X433543Y512116D01*
X432650Y513453D01*
X431313Y514346D01*
X431007Y514407D01*
D02*
G37*
G36*
X428467D02*
X428161Y514346D01*
X426824Y513453D01*
X425931Y512116D01*
X425871Y511810D01*
X428467D01*
Y514407D01*
D02*
G37*
G36*
X412657D02*
Y511810D01*
X415253D01*
X415193Y512116D01*
X414300Y513453D01*
X412963Y514346D01*
X412657Y514407D01*
D02*
G37*
G36*
X410117D02*
X409811Y514346D01*
X408474Y513453D01*
X407581Y512116D01*
X407520Y511810D01*
X410117D01*
Y514407D01*
D02*
G37*
G36*
X587738Y527540D02*
X571010D01*
Y510812D01*
X587738D01*
Y527540D01*
D02*
G37*
G36*
X433604Y509270D02*
X431007D01*
Y506674D01*
X431313Y506734D01*
X432650Y507627D01*
X433543Y508964D01*
X433604Y509270D01*
D02*
G37*
G36*
X428467D02*
X425871D01*
X425931Y508964D01*
X426824Y507627D01*
X428161Y506734D01*
X428467Y506674D01*
Y509270D01*
D02*
G37*
G36*
X415253D02*
X412657D01*
Y506674D01*
X412963Y506734D01*
X414300Y507627D01*
X415193Y508964D01*
X415253Y509270D01*
D02*
G37*
G36*
X410117D02*
X407520D01*
X407581Y508964D01*
X408474Y507627D01*
X409811Y506734D01*
X410117Y506674D01*
Y509270D01*
D02*
G37*
G36*
X162560Y554042D02*
X160504Y553771D01*
X158589Y552978D01*
X156944Y551716D01*
X155682Y550071D01*
X154889Y548156D01*
X154618Y546100D01*
X154889Y544044D01*
X155682Y542129D01*
X156944Y540484D01*
X158589Y539222D01*
X160504Y538429D01*
X162560Y538158D01*
X164451Y538407D01*
X185059Y517799D01*
X186390Y516909D01*
X187960Y516597D01*
X292943D01*
X294104Y515084D01*
X295749Y513822D01*
X297665Y513029D01*
X299720Y512758D01*
X301611Y513007D01*
X310891Y503726D01*
X310172Y502650D01*
X309396Y502971D01*
X307340Y503242D01*
X305285Y502971D01*
X303369Y502178D01*
X301724Y500916D01*
X300563Y499403D01*
X234069D01*
X232499Y499090D01*
X231168Y498201D01*
X228239Y495272D01*
X227349Y493941D01*
X227037Y492371D01*
Y292354D01*
X227349Y290784D01*
X228239Y289453D01*
X242751Y274941D01*
X242502Y273050D01*
X242773Y270994D01*
X243566Y269079D01*
X244828Y267434D01*
X246473Y266172D01*
X248389Y265379D01*
X250444Y265108D01*
X252500Y265379D01*
X254415Y266172D01*
X256060Y267434D01*
X257322Y269079D01*
X258115Y270994D01*
X258386Y273050D01*
X258115Y275105D01*
X257322Y277021D01*
X256060Y278666D01*
X254415Y279928D01*
X252500Y280721D01*
X250444Y280992D01*
X248553Y280743D01*
X235243Y294053D01*
Y490672D01*
X235768Y491197D01*
X300563D01*
X301724Y489684D01*
X303369Y488422D01*
X305285Y487629D01*
X307340Y487358D01*
X309396Y487629D01*
X311311Y488422D01*
X312956Y489684D01*
X314218Y491329D01*
X315011Y493245D01*
X315282Y495300D01*
X315011Y497355D01*
X314690Y498132D01*
X315766Y498851D01*
X323557Y491061D01*
Y441119D01*
X314311Y431873D01*
X312420Y432122D01*
X310364Y431851D01*
X308449Y431058D01*
X306804Y429796D01*
X305542Y428151D01*
X304749Y426236D01*
X304478Y424180D01*
X304749Y422124D01*
X305542Y420209D01*
X306804Y418564D01*
X308449Y417302D01*
X310364Y416509D01*
X312420Y416238D01*
X314475Y416509D01*
X316391Y417302D01*
X318036Y418564D01*
X319298Y420209D01*
X320091Y422124D01*
X320362Y424180D01*
X320113Y426071D01*
X330561Y436519D01*
X331451Y437850D01*
X331763Y439420D01*
Y492760D01*
X331451Y494330D01*
X330561Y495661D01*
X307413Y518809D01*
X307662Y520700D01*
X307391Y522756D01*
X306598Y524671D01*
X305336Y526316D01*
X303691Y527578D01*
X301775Y528371D01*
X299720Y528642D01*
X297665Y528371D01*
X295749Y527578D01*
X294104Y526316D01*
X292943Y524803D01*
X189660D01*
X170253Y544209D01*
X170502Y546100D01*
X170231Y548156D01*
X169438Y550071D01*
X168176Y551716D01*
X166531Y552978D01*
X164615Y553771D01*
X162560Y554042D01*
D02*
G37*
G36*
X440182Y505232D02*
Y502635D01*
X442779D01*
X442718Y502941D01*
X441825Y504278D01*
X440488Y505171D01*
X440182Y505232D01*
D02*
G37*
G36*
X437642D02*
X437336Y505171D01*
X435999Y504278D01*
X435106Y502941D01*
X435046Y502635D01*
X437642D01*
Y505232D01*
D02*
G37*
G36*
X421832D02*
Y502635D01*
X424428D01*
X424368Y502941D01*
X423475Y504278D01*
X422138Y505171D01*
X421832Y505232D01*
D02*
G37*
G36*
X419292D02*
X418986Y505171D01*
X417649Y504278D01*
X416756Y502941D01*
X416696Y502635D01*
X419292D01*
Y505232D01*
D02*
G37*
G36*
X403482D02*
Y502635D01*
X406078D01*
X406018Y502941D01*
X405125Y504278D01*
X403788Y505171D01*
X403482Y505232D01*
D02*
G37*
G36*
X400942D02*
X400636Y505171D01*
X399299Y504278D01*
X398406Y502941D01*
X398345Y502635D01*
X400942D01*
Y505232D01*
D02*
G37*
G36*
X442779Y500095D02*
X440182D01*
Y497499D01*
X440488Y497559D01*
X441825Y498452D01*
X442718Y499789D01*
X442779Y500095D01*
D02*
G37*
G36*
X437642D02*
X435046D01*
X435106Y499789D01*
X435999Y498452D01*
X437336Y497559D01*
X437642Y497499D01*
Y500095D01*
D02*
G37*
G36*
X424428D02*
X421832D01*
Y497499D01*
X422138Y497559D01*
X423475Y498452D01*
X424368Y499789D01*
X424428Y500095D01*
D02*
G37*
G36*
X419292D02*
X416696D01*
X416756Y499789D01*
X417649Y498452D01*
X418986Y497559D01*
X419292Y497499D01*
Y500095D01*
D02*
G37*
G36*
X406078D02*
X403482D01*
Y497499D01*
X403788Y497559D01*
X405125Y498452D01*
X406018Y499789D01*
X406078Y500095D01*
D02*
G37*
G36*
X400942D02*
X398345D01*
X398406Y499789D01*
X399299Y498452D01*
X400636Y497559D01*
X400942Y497499D01*
Y500095D01*
D02*
G37*
G36*
X431007Y496057D02*
Y493460D01*
X433604D01*
X433543Y493766D01*
X432650Y495103D01*
X431313Y495996D01*
X431007Y496057D01*
D02*
G37*
G36*
X428467D02*
X428161Y495996D01*
X426824Y495103D01*
X425931Y493766D01*
X425871Y493460D01*
X428467D01*
Y496057D01*
D02*
G37*
G36*
X412657D02*
Y493460D01*
X415253D01*
X415193Y493766D01*
X414300Y495103D01*
X412963Y495996D01*
X412657Y496057D01*
D02*
G37*
G36*
X410117D02*
X409811Y495996D01*
X408474Y495103D01*
X407581Y493766D01*
X407520Y493460D01*
X410117D01*
Y496057D01*
D02*
G37*
G36*
X433604Y490920D02*
X431007D01*
Y488324D01*
X431313Y488384D01*
X432650Y489277D01*
X433543Y490614D01*
X433604Y490920D01*
D02*
G37*
G36*
X428467D02*
X425871D01*
X425931Y490614D01*
X426824Y489277D01*
X428161Y488384D01*
X428467Y488324D01*
Y490920D01*
D02*
G37*
G36*
X415253D02*
X412657D01*
Y488324D01*
X412963Y488384D01*
X414300Y489277D01*
X415193Y490614D01*
X415253Y490920D01*
D02*
G37*
G36*
X410117D02*
X407520D01*
X407581Y490614D01*
X408474Y489277D01*
X409811Y488384D01*
X410117Y488324D01*
Y490920D01*
D02*
G37*
G36*
X440182Y486881D02*
Y484285D01*
X442779D01*
X442718Y484591D01*
X441825Y485928D01*
X440488Y486821D01*
X440182Y486881D01*
D02*
G37*
G36*
X437642D02*
X437336Y486821D01*
X435999Y485928D01*
X435106Y484591D01*
X435046Y484285D01*
X437642D01*
Y486881D01*
D02*
G37*
G36*
X421832D02*
Y484285D01*
X424428D01*
X424368Y484591D01*
X423475Y485928D01*
X422138Y486821D01*
X421832Y486881D01*
D02*
G37*
G36*
X419292D02*
X418986Y486821D01*
X417649Y485928D01*
X416756Y484591D01*
X416696Y484285D01*
X419292D01*
Y486881D01*
D02*
G37*
G36*
X403482D02*
Y484285D01*
X406078D01*
X406018Y484591D01*
X405125Y485928D01*
X403788Y486821D01*
X403482Y486881D01*
D02*
G37*
G36*
X400942D02*
X400636Y486821D01*
X399299Y485928D01*
X398406Y484591D01*
X398345Y484285D01*
X400942D01*
Y486881D01*
D02*
G37*
G36*
X442779Y481745D02*
X440182D01*
Y479148D01*
X440488Y479209D01*
X441825Y480102D01*
X442718Y481439D01*
X442779Y481745D01*
D02*
G37*
G36*
X437642D02*
X435046D01*
X435106Y481439D01*
X435999Y480102D01*
X437336Y479209D01*
X437642Y479148D01*
Y481745D01*
D02*
G37*
G36*
X424428D02*
X421832D01*
Y479148D01*
X422138Y479209D01*
X423475Y480102D01*
X424368Y481439D01*
X424428Y481745D01*
D02*
G37*
G36*
X419292D02*
X416696D01*
X416756Y481439D01*
X417649Y480102D01*
X418986Y479209D01*
X419292Y479148D01*
Y481745D01*
D02*
G37*
G36*
X406078D02*
X403482D01*
Y479148D01*
X403788Y479209D01*
X405125Y480102D01*
X406018Y481439D01*
X406078Y481745D01*
D02*
G37*
G36*
X400942D02*
X398345D01*
X398406Y481439D01*
X399299Y480102D01*
X400636Y479209D01*
X400942Y479148D01*
Y481745D01*
D02*
G37*
G36*
X431007Y477706D02*
Y475110D01*
X433604D01*
X433543Y475416D01*
X432650Y476753D01*
X431313Y477646D01*
X431007Y477706D01*
D02*
G37*
G36*
X428467D02*
X428161Y477646D01*
X426824Y476753D01*
X425931Y475416D01*
X425871Y475110D01*
X428467D01*
Y477706D01*
D02*
G37*
G36*
X412657D02*
Y475110D01*
X415253D01*
X415193Y475416D01*
X414300Y476753D01*
X412963Y477646D01*
X412657Y477706D01*
D02*
G37*
G36*
X410117D02*
X409811Y477646D01*
X408474Y476753D01*
X407581Y475416D01*
X407520Y475110D01*
X410117D01*
Y477706D01*
D02*
G37*
G36*
X433604Y472570D02*
X431007D01*
Y469973D01*
X431313Y470034D01*
X432650Y470927D01*
X433543Y472264D01*
X433604Y472570D01*
D02*
G37*
G36*
X428467D02*
X425871D01*
X425931Y472264D01*
X426824Y470927D01*
X428161Y470034D01*
X428467Y469973D01*
Y472570D01*
D02*
G37*
G36*
X415253D02*
X412657D01*
Y469973D01*
X412963Y470034D01*
X414300Y470927D01*
X415193Y472264D01*
X415253Y472570D01*
D02*
G37*
G36*
X410117D02*
X407520D01*
X407581Y472264D01*
X408474Y470927D01*
X409811Y470034D01*
X410117Y469973D01*
Y472570D01*
D02*
G37*
G36*
X312166Y467174D02*
X310110Y466903D01*
X308195Y466110D01*
X306550Y464848D01*
X305288Y463203D01*
X304495Y461287D01*
X304224Y459232D01*
X304473Y457341D01*
X266125Y418993D01*
X265236Y417662D01*
X264923Y416092D01*
Y393111D01*
X263410Y391950D01*
X262148Y390305D01*
X261355Y388390D01*
X261084Y386334D01*
X261355Y384278D01*
X262148Y382363D01*
X263410Y380718D01*
X265055Y379456D01*
X266971Y378663D01*
X269026Y378392D01*
X271082Y378663D01*
X272997Y379456D01*
X274642Y380718D01*
X275904Y382363D01*
X276697Y384278D01*
X276968Y386334D01*
X276697Y388390D01*
X275904Y390305D01*
X274642Y391950D01*
X273129Y393111D01*
Y414393D01*
X310275Y451539D01*
X312166Y451290D01*
X314221Y451561D01*
X316137Y452354D01*
X317782Y453616D01*
X319044Y455261D01*
X319837Y457177D01*
X320108Y459232D01*
X319837Y461287D01*
X319044Y463203D01*
X317782Y464848D01*
X316137Y466110D01*
X314221Y466903D01*
X312166Y467174D01*
D02*
G37*
G36*
X122062Y426106D02*
X105334D01*
Y409378D01*
X122062D01*
Y426106D01*
D02*
G37*
G36*
X133698Y426178D02*
X131515Y425891D01*
X129480Y425048D01*
X127733Y423707D01*
X126392Y421960D01*
X125549Y419925D01*
X125262Y417742D01*
X125549Y415559D01*
X126392Y413524D01*
X127733Y411777D01*
X129480Y410436D01*
X131515Y409593D01*
X133698Y409306D01*
X135881Y409593D01*
X137916Y410436D01*
X139663Y411777D01*
X141004Y413524D01*
X141847Y415559D01*
X142134Y417742D01*
X141847Y419925D01*
X141004Y421960D01*
X139663Y423707D01*
X137916Y425048D01*
X135881Y425891D01*
X133698Y426178D01*
D02*
G37*
G36*
X189230Y381978D02*
X187005Y381685D01*
X184931Y380826D01*
X183151Y379459D01*
X181784Y377679D01*
X180925Y375605D01*
X180632Y373380D01*
X180925Y371155D01*
X181784Y369081D01*
X183151Y367301D01*
X184931Y365934D01*
X187005Y365075D01*
X189230Y364782D01*
X191455Y365075D01*
X193529Y365934D01*
X195309Y367301D01*
X196676Y369081D01*
X197535Y371155D01*
X197827Y373380D01*
X197535Y375605D01*
X196676Y377679D01*
X195309Y379459D01*
X193529Y380826D01*
X191455Y381685D01*
X189230Y381978D01*
D02*
G37*
G36*
X113030D02*
X110805Y381685D01*
X108731Y380826D01*
X106951Y379459D01*
X105584Y377679D01*
X104725Y375605D01*
X104432Y373380D01*
X104725Y371155D01*
X105584Y369081D01*
X106951Y367301D01*
X108731Y365934D01*
X110805Y365075D01*
X113030Y364782D01*
X115255Y365075D01*
X117329Y365934D01*
X119109Y367301D01*
X120476Y369081D01*
X121335Y371155D01*
X121628Y373380D01*
X121335Y375605D01*
X120476Y377679D01*
X119109Y379459D01*
X117329Y380826D01*
X115255Y381685D01*
X113030Y381978D01*
D02*
G37*
G36*
X374682Y365670D02*
Y358140D01*
X382211D01*
X382073Y359191D01*
X381177Y361353D01*
X379752Y363210D01*
X377895Y364635D01*
X375733Y365531D01*
X374682Y365670D01*
D02*
G37*
G36*
X372142D02*
X371091Y365531D01*
X368929Y364635D01*
X367072Y363210D01*
X365647Y361353D01*
X364751Y359191D01*
X364613Y358140D01*
X372142D01*
Y365670D01*
D02*
G37*
G36*
X569338Y370964D02*
X551310D01*
Y352936D01*
X569338D01*
Y370964D01*
D02*
G37*
G36*
X625324Y371042D02*
X622971Y370732D01*
X620778Y369824D01*
X618895Y368379D01*
X617450Y366496D01*
X616542Y364303D01*
X616232Y361950D01*
X616542Y359597D01*
X617450Y357404D01*
X618895Y355521D01*
X620778Y354076D01*
X622971Y353168D01*
X625324Y352858D01*
X627677Y353168D01*
X629870Y354076D01*
X631753Y355521D01*
X633198Y357404D01*
X634106Y359597D01*
X634416Y361950D01*
X634106Y364303D01*
X633198Y366496D01*
X631753Y368379D01*
X629870Y369824D01*
X627677Y370732D01*
X625324Y371042D01*
D02*
G37*
G36*
X382211Y355600D02*
X374682D01*
Y348070D01*
X375733Y348209D01*
X377895Y349105D01*
X379752Y350530D01*
X381177Y352387D01*
X382073Y354549D01*
X382211Y355600D01*
D02*
G37*
G36*
X372142D02*
X364613D01*
X364751Y354549D01*
X365647Y352387D01*
X367072Y350530D01*
X368929Y349105D01*
X371091Y348209D01*
X372142Y348070D01*
Y355600D01*
D02*
G37*
G36*
X500634Y362658D02*
Y343916D01*
X519376D01*
X519114Y346575D01*
X517968Y350352D01*
X516107Y353834D01*
X513603Y356885D01*
X510551Y359389D01*
X507070Y361250D01*
X503293Y362396D01*
X500634Y362658D01*
D02*
G37*
G36*
X498094D02*
X495435Y362396D01*
X491658Y361250D01*
X488176Y359389D01*
X485125Y356885D01*
X482621Y353834D01*
X480760Y350352D01*
X479614Y346575D01*
X479352Y343916D01*
X498094D01*
Y362658D01*
D02*
G37*
G36*
X190500Y340067D02*
X188275Y339775D01*
X186201Y338916D01*
X184421Y337549D01*
X183054Y335769D01*
X182195Y333695D01*
X181903Y331470D01*
X182195Y329245D01*
X183054Y327171D01*
X184421Y325391D01*
X186201Y324024D01*
X188275Y323165D01*
X190500Y322873D01*
X192725Y323165D01*
X194799Y324024D01*
X196579Y325391D01*
X197946Y327171D01*
X198805Y329245D01*
X199097Y331470D01*
X198805Y333695D01*
X197946Y335769D01*
X196579Y337549D01*
X194799Y338916D01*
X192725Y339775D01*
X190500Y340067D01*
D02*
G37*
G36*
X114300D02*
X112075Y339775D01*
X110001Y338916D01*
X108221Y337549D01*
X106854Y335769D01*
X105995Y333695D01*
X105702Y331470D01*
X105995Y329245D01*
X106854Y327171D01*
X108221Y325391D01*
X110001Y324024D01*
X112075Y323165D01*
X114300Y322873D01*
X116525Y323165D01*
X118599Y324024D01*
X120379Y325391D01*
X121746Y327171D01*
X122605Y329245D01*
X122898Y331470D01*
X122605Y333695D01*
X121746Y335769D01*
X120379Y337549D01*
X118599Y338916D01*
X116525Y339775D01*
X114300Y340067D01*
D02*
G37*
G36*
X519376Y341376D02*
X500634D01*
Y322634D01*
X503293Y322896D01*
X507070Y324042D01*
X510551Y325903D01*
X513603Y328407D01*
X516107Y331459D01*
X517968Y334940D01*
X519114Y338717D01*
X519376Y341376D01*
D02*
G37*
G36*
X498094D02*
X479352D01*
X479614Y338717D01*
X480760Y334940D01*
X482621Y331459D01*
X485125Y328407D01*
X488176Y325903D01*
X491658Y324042D01*
X495435Y322896D01*
X498094Y322634D01*
Y341376D01*
D02*
G37*
G36*
X561594Y326899D02*
Y318220D01*
X570273D01*
X570096Y319568D01*
X569085Y322008D01*
X567477Y324104D01*
X565382Y325711D01*
X562942Y326722D01*
X561594Y326899D01*
D02*
G37*
G36*
X559054D02*
X557706Y326722D01*
X555266Y325711D01*
X553171Y324104D01*
X551563Y322008D01*
X550552Y319568D01*
X550375Y318220D01*
X559054D01*
Y326899D01*
D02*
G37*
G36*
X338836Y322998D02*
Y315468D01*
X346366D01*
X346227Y316519D01*
X345331Y318681D01*
X343906Y320538D01*
X342049Y321963D01*
X339887Y322859D01*
X338836Y322998D01*
D02*
G37*
G36*
X336296D02*
X335245Y322859D01*
X333083Y321963D01*
X331226Y320538D01*
X329801Y318681D01*
X328905Y316519D01*
X328767Y315468D01*
X336296D01*
Y322998D01*
D02*
G37*
G36*
X625324Y326042D02*
X622971Y325732D01*
X620778Y324824D01*
X618895Y323379D01*
X617450Y321496D01*
X616542Y319303D01*
X616232Y316950D01*
X616542Y314597D01*
X617450Y312404D01*
X618895Y310521D01*
X620778Y309076D01*
X622971Y308168D01*
X625324Y307858D01*
X627677Y308168D01*
X629870Y309076D01*
X631753Y310521D01*
X633198Y312404D01*
X634106Y314597D01*
X634416Y316950D01*
X634106Y319303D01*
X633198Y321496D01*
X631753Y323379D01*
X629870Y324824D01*
X627677Y325732D01*
X625324Y326042D01*
D02*
G37*
G36*
X570273Y315680D02*
X561594D01*
Y307001D01*
X562942Y307178D01*
X565382Y308189D01*
X567477Y309797D01*
X569085Y311892D01*
X570096Y314332D01*
X570273Y315680D01*
D02*
G37*
G36*
X559054D02*
X550375D01*
X550552Y314332D01*
X551563Y311892D01*
X553171Y309797D01*
X555266Y308189D01*
X557706Y307178D01*
X559054Y307001D01*
Y315680D01*
D02*
G37*
G36*
X439170Y322142D02*
X437114Y321871D01*
X435199Y321078D01*
X433554Y319816D01*
X432292Y318171D01*
X431499Y316255D01*
X431228Y314200D01*
X431499Y312145D01*
X432292Y310229D01*
X433554Y308584D01*
X435199Y307322D01*
X437114Y306529D01*
X439170Y306258D01*
X441226Y306529D01*
X443141Y307322D01*
X444786Y308584D01*
X446048Y310229D01*
X446841Y312145D01*
X447112Y314200D01*
X446841Y316255D01*
X446048Y318171D01*
X444786Y319816D01*
X443141Y321078D01*
X441226Y321871D01*
X439170Y322142D01*
D02*
G37*
G36*
X413770D02*
X411715Y321871D01*
X409799Y321078D01*
X408154Y319816D01*
X406892Y318171D01*
X406099Y316255D01*
X405828Y314200D01*
X406099Y312145D01*
X406892Y310229D01*
X408154Y308584D01*
X409799Y307322D01*
X411715Y306529D01*
X413770Y306258D01*
X415826Y306529D01*
X417741Y307322D01*
X419386Y308584D01*
X420648Y310229D01*
X421441Y312145D01*
X421712Y314200D01*
X421441Y316255D01*
X420648Y318171D01*
X419386Y319816D01*
X417741Y321078D01*
X415826Y321871D01*
X413770Y322142D01*
D02*
G37*
G36*
X362966D02*
X360910Y321871D01*
X358995Y321078D01*
X357350Y319816D01*
X356088Y318171D01*
X355295Y316255D01*
X355024Y314200D01*
X355295Y312145D01*
X356088Y310229D01*
X357350Y308584D01*
X358995Y307322D01*
X360910Y306529D01*
X362966Y306258D01*
X365022Y306529D01*
X366937Y307322D01*
X368582Y308584D01*
X369844Y310229D01*
X370637Y312145D01*
X370908Y314200D01*
X370637Y316255D01*
X369844Y318171D01*
X368582Y319816D01*
X366937Y321078D01*
X365022Y321871D01*
X362966Y322142D01*
D02*
G37*
G36*
X388370Y322140D02*
X386315Y321869D01*
X384399Y321076D01*
X382754Y319814D01*
X381492Y318169D01*
X380699Y316254D01*
X380428Y314198D01*
X380699Y312143D01*
X381492Y310227D01*
X382754Y308582D01*
X384399Y307320D01*
X386315Y306527D01*
X388370Y306256D01*
X390425Y306527D01*
X392341Y307320D01*
X393986Y308582D01*
X395248Y310227D01*
X396041Y312143D01*
X396312Y314198D01*
X396041Y316254D01*
X395248Y318169D01*
X393986Y319814D01*
X392341Y321076D01*
X390425Y321869D01*
X388370Y322140D01*
D02*
G37*
G36*
X346366Y312928D02*
X338836D01*
Y305399D01*
X339887Y305537D01*
X342049Y306433D01*
X343906Y307858D01*
X345331Y309715D01*
X346227Y311877D01*
X346366Y312928D01*
D02*
G37*
G36*
X336296D02*
X328767D01*
X328905Y311877D01*
X329801Y309715D01*
X331226Y307858D01*
X333083Y306433D01*
X335245Y305537D01*
X336296Y305399D01*
Y312928D01*
D02*
G37*
G36*
X122664Y303512D02*
X105936D01*
Y286784D01*
X122664D01*
Y303512D01*
D02*
G37*
G36*
X134300Y303584D02*
X132117Y303297D01*
X130082Y302454D01*
X128335Y301113D01*
X126994Y299366D01*
X126151Y297331D01*
X125864Y295148D01*
X126151Y292965D01*
X126994Y290930D01*
X128335Y289183D01*
X130082Y287842D01*
X132117Y286999D01*
X134300Y286712D01*
X136483Y286999D01*
X138518Y287842D01*
X140265Y289183D01*
X141606Y290930D01*
X142449Y292965D01*
X142736Y295148D01*
X142449Y297331D01*
X141606Y299366D01*
X140265Y301113D01*
X138518Y302454D01*
X136483Y303297D01*
X134300Y303584D01*
D02*
G37*
G36*
X296418Y284643D02*
Y277114D01*
X303948D01*
X303809Y278165D01*
X302913Y280327D01*
X301488Y282184D01*
X299631Y283609D01*
X297469Y284505D01*
X296418Y284643D01*
D02*
G37*
G36*
X293878D02*
X292827Y284505D01*
X290665Y283609D01*
X288808Y282184D01*
X287383Y280327D01*
X286487Y278165D01*
X286348Y277114D01*
X293878D01*
Y284643D01*
D02*
G37*
G36*
X303948Y274574D02*
X296418D01*
Y267045D01*
X297469Y267183D01*
X299631Y268079D01*
X301488Y269504D01*
X302913Y271361D01*
X303809Y273523D01*
X303948Y274574D01*
D02*
G37*
G36*
X293878D02*
X286348D01*
X286487Y273523D01*
X287383Y271361D01*
X288808Y269504D01*
X290665Y268079D01*
X292827Y267183D01*
X293878Y267045D01*
Y274574D01*
D02*
G37*
G36*
X187960Y239737D02*
X185735Y239445D01*
X183661Y238586D01*
X181881Y237219D01*
X180514Y235439D01*
X179655Y233365D01*
X179363Y231140D01*
X179655Y228915D01*
X180514Y226841D01*
X181881Y225061D01*
X183661Y223694D01*
X185735Y222835D01*
X187960Y222542D01*
X190185Y222835D01*
X192259Y223694D01*
X194039Y225061D01*
X195406Y226841D01*
X196265Y228915D01*
X196558Y231140D01*
X196265Y233365D01*
X195406Y235439D01*
X194039Y237219D01*
X192259Y238586D01*
X190185Y239445D01*
X187960Y239737D01*
D02*
G37*
G36*
X111760D02*
X109535Y239445D01*
X107461Y238586D01*
X105681Y237219D01*
X104314Y235439D01*
X103455Y233365D01*
X103162Y231140D01*
X103455Y228915D01*
X104314Y226841D01*
X105681Y225061D01*
X107461Y223694D01*
X109535Y222835D01*
X111760Y222542D01*
X113985Y222835D01*
X116059Y223694D01*
X117839Y225061D01*
X119206Y226841D01*
X120065Y228915D01*
X120358Y231140D01*
X120065Y233365D01*
X119206Y235439D01*
X117839Y237219D01*
X116059Y238586D01*
X113985Y239445D01*
X111760Y239737D01*
D02*
G37*
G36*
X393930Y198872D02*
X391577Y198562D01*
X389384Y197654D01*
X387501Y196209D01*
X386056Y194326D01*
X385148Y192133D01*
X384838Y189780D01*
X385148Y187427D01*
X386056Y185234D01*
X387501Y183351D01*
X389384Y181906D01*
X391577Y180998D01*
X393930Y180688D01*
X396283Y180998D01*
X398476Y181906D01*
X400359Y183351D01*
X401804Y185234D01*
X402712Y187427D01*
X403022Y189780D01*
X402712Y192133D01*
X401804Y194326D01*
X400359Y196209D01*
X398476Y197654D01*
X396283Y198562D01*
X393930Y198872D01*
D02*
G37*
G36*
X290576Y194002D02*
Y175260D01*
X309318D01*
X309056Y177918D01*
X307910Y181696D01*
X306049Y185177D01*
X303545Y188229D01*
X300494Y190733D01*
X297012Y192594D01*
X293235Y193740D01*
X290576Y194002D01*
D02*
G37*
G36*
X288036D02*
X285378Y193740D01*
X281600Y192594D01*
X278118Y190733D01*
X275067Y188229D01*
X272563Y185177D01*
X270702Y181696D01*
X269556Y177918D01*
X269294Y175260D01*
X288036D01*
Y194002D01*
D02*
G37*
G36*
X123332Y187346D02*
X106604D01*
Y170618D01*
X123332D01*
Y187346D01*
D02*
G37*
G36*
X134968Y187418D02*
X132785Y187131D01*
X130750Y186288D01*
X129003Y184947D01*
X127662Y183200D01*
X126819Y181165D01*
X126532Y178982D01*
X126819Y176799D01*
X127662Y174764D01*
X129003Y173017D01*
X130750Y171676D01*
X132785Y170833D01*
X134968Y170546D01*
X137151Y170833D01*
X139186Y171676D01*
X140933Y173017D01*
X142274Y174764D01*
X143117Y176799D01*
X143404Y178982D01*
X143117Y181165D01*
X142274Y183200D01*
X140933Y184947D01*
X139186Y186288D01*
X137151Y187131D01*
X134968Y187418D01*
D02*
G37*
G36*
X245618Y480890D02*
X243563Y480619D01*
X241647Y479826D01*
X240002Y478564D01*
X238740Y476919D01*
X237947Y475004D01*
X237676Y472948D01*
X237947Y470892D01*
X238740Y468977D01*
X240002Y467332D01*
X241515Y466171D01*
Y364744D01*
X241828Y363174D01*
X242717Y361843D01*
X324827Y279733D01*
Y198794D01*
X319916D01*
Y180766D01*
X337944D01*
Y185677D01*
X348957D01*
Y134309D01*
X325869Y111220D01*
X324980Y109889D01*
X324667Y108319D01*
Y25724D01*
X320406D01*
Y8996D01*
X337134D01*
Y25724D01*
X332873D01*
Y106620D01*
X355961Y129708D01*
X356851Y131039D01*
X357163Y132609D01*
Y185677D01*
X364061D01*
X386269Y163469D01*
X387600Y162579D01*
X389170Y162267D01*
X437215D01*
X438376Y160754D01*
X440021Y159492D01*
X441936Y158699D01*
X443992Y158428D01*
X446048Y158699D01*
X447963Y159492D01*
X449608Y160754D01*
X450870Y162399D01*
X451663Y164314D01*
X451934Y166370D01*
X451663Y168426D01*
X450870Y170341D01*
X449608Y171986D01*
X447963Y173248D01*
X446048Y174041D01*
X443992Y174312D01*
X441936Y174041D01*
X440021Y173248D01*
X438376Y171986D01*
X437215Y170473D01*
X390869D01*
X368661Y192681D01*
X367330Y193570D01*
X365760Y193883D01*
X337944D01*
Y198794D01*
X333033D01*
Y281432D01*
X332720Y283002D01*
X331831Y284333D01*
X249721Y366443D01*
Y466171D01*
X251234Y467332D01*
X252496Y468977D01*
X253289Y470892D01*
X253560Y472948D01*
X253289Y475004D01*
X252496Y476919D01*
X251234Y478564D01*
X249589Y479826D01*
X247673Y480619D01*
X245618Y480890D01*
D02*
G37*
G36*
X309318Y172720D02*
X290576D01*
Y153978D01*
X293235Y154240D01*
X297012Y155386D01*
X300494Y157247D01*
X303545Y159751D01*
X306049Y162803D01*
X307910Y166284D01*
X309056Y170061D01*
X309318Y172720D01*
D02*
G37*
G36*
X288036D02*
X269294D01*
X269556Y170061D01*
X270702Y166284D01*
X272563Y162803D01*
X275067Y159751D01*
X278118Y157247D01*
X281600Y155386D01*
X285378Y154240D01*
X288036Y153978D01*
Y172720D01*
D02*
G37*
G36*
X393930Y153872D02*
X391577Y153562D01*
X389384Y152654D01*
X387501Y151209D01*
X386056Y149326D01*
X385148Y147133D01*
X384838Y144780D01*
X385148Y142427D01*
X386056Y140234D01*
X387501Y138351D01*
X389384Y136906D01*
X391577Y135998D01*
X393930Y135688D01*
X396283Y135998D01*
X398476Y136906D01*
X400359Y138351D01*
X401804Y140234D01*
X402712Y142427D01*
X403022Y144780D01*
X402712Y147133D01*
X401804Y149326D01*
X400359Y151209D01*
X398476Y152654D01*
X396283Y153562D01*
X393930Y153872D01*
D02*
G37*
G36*
X328930D02*
X326577Y153562D01*
X324384Y152654D01*
X322501Y151209D01*
X321056Y149326D01*
X320148Y147133D01*
X319838Y144780D01*
X320148Y142427D01*
X320331Y141984D01*
X292366Y114019D01*
X134160D01*
X132590Y113706D01*
X131259Y112817D01*
X101623Y83181D01*
X99732Y83430D01*
X97676Y83159D01*
X95761Y82366D01*
X94116Y81104D01*
X92854Y79459D01*
X92061Y77544D01*
X91790Y75488D01*
X92061Y73432D01*
X92854Y71517D01*
X94116Y69872D01*
X95761Y68610D01*
X97676Y67817D01*
X99732Y67546D01*
X101788Y67817D01*
X103703Y68610D01*
X105348Y69872D01*
X106610Y71517D01*
X107403Y73432D01*
X107674Y75488D01*
X107425Y77379D01*
X135859Y105813D01*
X294066D01*
X295636Y106125D01*
X296967Y107015D01*
X326134Y136181D01*
X326577Y135998D01*
X328930Y135688D01*
X331283Y135998D01*
X333476Y136906D01*
X335359Y138351D01*
X336804Y140234D01*
X337712Y142427D01*
X338022Y144780D01*
X337712Y147133D01*
X336804Y149326D01*
X335359Y151209D01*
X333476Y152654D01*
X331283Y153562D01*
X328930Y153872D01*
D02*
G37*
G36*
X459486Y115733D02*
Y108204D01*
X467015D01*
X466877Y109255D01*
X465981Y111417D01*
X464556Y113274D01*
X462699Y114699D01*
X460537Y115595D01*
X459486Y115733D01*
D02*
G37*
G36*
X456946D02*
X455895Y115595D01*
X453733Y114699D01*
X451876Y113274D01*
X450451Y111417D01*
X449555Y109255D01*
X449417Y108204D01*
X456946D01*
Y115733D01*
D02*
G37*
G36*
X549148Y107605D02*
Y100076D01*
X556678D01*
X556539Y101127D01*
X555643Y103289D01*
X554218Y105146D01*
X552361Y106571D01*
X550199Y107467D01*
X549148Y107605D01*
D02*
G37*
G36*
X546608D02*
X545557Y107467D01*
X543395Y106571D01*
X541538Y105146D01*
X540113Y103289D01*
X539217Y101127D01*
X539078Y100076D01*
X546608D01*
Y107605D01*
D02*
G37*
G36*
X467015Y105664D02*
X459486D01*
Y98134D01*
X460537Y98273D01*
X462699Y99169D01*
X464556Y100594D01*
X465981Y102451D01*
X466877Y104613D01*
X467015Y105664D01*
D02*
G37*
G36*
X456946D02*
X449417D01*
X449555Y104613D01*
X450451Y102451D01*
X451876Y100594D01*
X453733Y99169D01*
X455895Y98273D01*
X456946Y98134D01*
Y105664D01*
D02*
G37*
G36*
X556678Y97536D02*
X549148D01*
Y90007D01*
X550199Y90145D01*
X552361Y91041D01*
X554218Y92466D01*
X555643Y94323D01*
X556539Y96485D01*
X556678Y97536D01*
D02*
G37*
G36*
X546608D02*
X539078D01*
X539217Y96485D01*
X540113Y94323D01*
X541538Y92466D01*
X543395Y91041D01*
X545557Y90145D01*
X546608Y90007D01*
Y97536D01*
D02*
G37*
G36*
X473456Y80935D02*
Y73406D01*
X480985D01*
X480847Y74457D01*
X479951Y76619D01*
X478526Y78476D01*
X476669Y79901D01*
X474507Y80797D01*
X473456Y80935D01*
D02*
G37*
G36*
X470916D02*
X469865Y80797D01*
X467703Y79901D01*
X465846Y78476D01*
X464421Y76619D01*
X463525Y74457D01*
X463386Y73406D01*
X470916D01*
Y80935D01*
D02*
G37*
G36*
X158590Y78363D02*
X157215Y78089D01*
X156049Y77311D01*
X155271Y76145D01*
X154997Y74770D01*
X155078Y74362D01*
X153998Y73282D01*
X153590Y73363D01*
X153182Y73282D01*
X152102Y74362D01*
X152183Y74770D01*
X151910Y76145D01*
X151131Y77311D01*
X149965Y78089D01*
X148590Y78363D01*
X147215Y78089D01*
X146049Y77311D01*
X145271Y76145D01*
X144997Y74770D01*
X145271Y73395D01*
X146049Y72229D01*
X147215Y71451D01*
X148590Y71177D01*
X148784Y71216D01*
X149757Y70354D01*
Y69186D01*
X148784Y68324D01*
X148590Y68363D01*
X147215Y68089D01*
X146049Y67311D01*
X145271Y66145D01*
X144997Y64770D01*
X145271Y63395D01*
X146049Y62229D01*
X147215Y61451D01*
X148590Y61177D01*
X149965Y61451D01*
X151131Y62229D01*
X151910Y63395D01*
X152183Y64770D01*
X152102Y65178D01*
X153182Y66258D01*
X153590Y66177D01*
X153998Y66258D01*
X155078Y65178D01*
X154997Y64770D01*
X155271Y63395D01*
X156049Y62229D01*
X157215Y61451D01*
X158590Y61177D01*
X159965Y61451D01*
X161131Y62229D01*
X161910Y63395D01*
X162183Y64770D01*
X161910Y66145D01*
X161131Y67311D01*
X159965Y68089D01*
X158590Y68363D01*
X158396Y68324D01*
X157423Y69186D01*
Y70354D01*
X158396Y71216D01*
X158590Y71177D01*
X159965Y71451D01*
X161131Y72229D01*
X161910Y73395D01*
X162183Y74770D01*
X161910Y76145D01*
X161131Y77311D01*
X159965Y78089D01*
X158590Y78363D01*
D02*
G37*
G36*
X116750Y73619D02*
Y66090D01*
X124279D01*
X124141Y67141D01*
X123245Y69303D01*
X121820Y71160D01*
X119963Y72585D01*
X117801Y73481D01*
X116750Y73619D01*
D02*
G37*
G36*
X114210D02*
X113159Y73481D01*
X110997Y72585D01*
X109140Y71160D01*
X107715Y69303D01*
X106819Y67141D01*
X106680Y66090D01*
X114210D01*
Y73619D01*
D02*
G37*
G36*
X480985Y70866D02*
X473456D01*
Y63337D01*
X474507Y63475D01*
X476669Y64371D01*
X478526Y65796D01*
X479951Y67653D01*
X480847Y69815D01*
X480985Y70866D01*
D02*
G37*
G36*
X470916D02*
X463386D01*
X463525Y69815D01*
X464421Y67653D01*
X465846Y65796D01*
X467703Y64371D01*
X469865Y63475D01*
X470916Y63337D01*
Y70866D01*
D02*
G37*
G36*
X124279Y63550D02*
X116750D01*
Y56020D01*
X117801Y56159D01*
X119963Y57055D01*
X121820Y58480D01*
X123245Y60337D01*
X124141Y62499D01*
X124279Y63550D01*
D02*
G37*
G36*
X114210D02*
X106680D01*
X106819Y62499D01*
X107715Y60337D01*
X109140Y58480D01*
X110997Y57055D01*
X113159Y56159D01*
X114210Y56020D01*
Y63550D01*
D02*
G37*
G36*
X488950Y183202D02*
X486894Y182931D01*
X484979Y182138D01*
X483334Y180876D01*
X482072Y179231D01*
X481279Y177316D01*
X481008Y175260D01*
X481279Y173204D01*
X482072Y171289D01*
X483334Y169644D01*
X484847Y168483D01*
Y130302D01*
X485159Y128732D01*
X486049Y127401D01*
X550599Y62851D01*
X550350Y60960D01*
X550621Y58905D01*
X551414Y56989D01*
X552676Y55344D01*
X554321Y54082D01*
X556236Y53289D01*
X558292Y53018D01*
X560348Y53289D01*
X562263Y54082D01*
X563908Y55344D01*
X565170Y56989D01*
X565963Y58905D01*
X566234Y60960D01*
X565963Y63015D01*
X565170Y64931D01*
X563908Y66576D01*
X562263Y67838D01*
X560348Y68631D01*
X558292Y68902D01*
X556401Y68653D01*
X493053Y132001D01*
Y168483D01*
X494566Y169644D01*
X495828Y171289D01*
X496621Y173204D01*
X496892Y175260D01*
X496621Y177316D01*
X495828Y179231D01*
X494566Y180876D01*
X492921Y182138D01*
X491006Y182931D01*
X488950Y183202D01*
D02*
G37*
G36*
X310040Y26654D02*
Y18630D01*
X318064D01*
X317909Y19809D01*
X316963Y22090D01*
X315460Y24050D01*
X313500Y25553D01*
X311219Y26499D01*
X310040Y26654D01*
D02*
G37*
G36*
X307500Y26654D02*
X306321Y26499D01*
X304039Y25553D01*
X302080Y24050D01*
X300577Y22090D01*
X299631Y19809D01*
X299476Y18630D01*
X307500D01*
Y26654D01*
D02*
G37*
G36*
X318064Y16090D02*
X310040D01*
Y8066D01*
X311219Y8221D01*
X313500Y9167D01*
X315460Y10670D01*
X316963Y12629D01*
X317909Y14911D01*
X318064Y16090D01*
D02*
G37*
G36*
X307500D02*
X299476D01*
X299631Y14911D01*
X300577Y12629D01*
X302080Y10670D01*
X304039Y9167D01*
X306321Y8221D01*
X307500Y8066D01*
Y16090D01*
D02*
G37*
%LPD*%
D63*
X328930Y189780D02*
Y281432D01*
X245618Y364744D02*
X328930Y281432D01*
X353060Y189780D02*
X365760D01*
X328930D02*
X353060D01*
X328770Y17360D02*
Y108319D01*
X353060Y132609D01*
Y189780D01*
X365760D02*
X389170Y166370D01*
X443992D01*
X245618Y364744D02*
Y472948D01*
X134160Y109916D02*
X294066D01*
X328930Y144780D01*
X99732Y75488D02*
X134160Y109916D01*
X488950Y130302D02*
Y175260D01*
Y130302D02*
X558292Y60960D01*
X115480Y64693D02*
Y64820D01*
X231140Y492371D02*
X234069Y495300D01*
X231140Y292354D02*
Y492371D01*
X234069Y495300D02*
X307340D01*
X231140Y292354D02*
X250444Y273050D01*
X187960Y520700D02*
X299720D01*
X162560Y546100D02*
X187960Y520700D01*
X299720D02*
X327660Y492760D01*
X312420Y424180D02*
X327660Y439420D01*
Y492760D01*
X269026Y386334D02*
Y416092D01*
X312166Y459232D01*
D65*
X148590Y74770D02*
D03*
X158590D02*
D03*
X148590Y64770D02*
D03*
X153590Y69770D02*
D03*
X158590Y64770D02*
D03*
D66*
X429737Y473840D02*
D03*
X411387D02*
D03*
X438912Y483015D02*
D03*
X420562D02*
D03*
X402212D02*
D03*
X429737Y492190D02*
D03*
X411387D02*
D03*
X438912Y501365D02*
D03*
X420562D02*
D03*
X402212D02*
D03*
X429737Y510540D02*
D03*
X411387D02*
D03*
D67*
X134300Y295148D02*
D03*
X308770Y17360D02*
D03*
X579374Y539176D02*
D03*
X134968Y178982D02*
D03*
X133698Y417742D02*
D03*
D68*
X114300Y295148D02*
D03*
X328770Y17360D02*
D03*
X114968Y178982D02*
D03*
X113698Y417742D02*
D03*
D69*
X393930Y189780D02*
D03*
Y144780D02*
D03*
X328930D02*
D03*
X560324Y316950D02*
D03*
X625324D02*
D03*
Y361950D02*
D03*
D70*
X328930Y189780D02*
D03*
X560324Y361950D02*
D03*
D71*
X113030Y373380D02*
D03*
X189230D02*
D03*
X111760Y231140D02*
D03*
X187960D02*
D03*
X114300Y331470D02*
D03*
X190500D02*
D03*
D72*
X579374Y519176D02*
D03*
D73*
X295148Y275844D02*
D03*
X458216Y106934D02*
D03*
X472186Y72136D02*
D03*
X337566Y314198D02*
D03*
X362966Y314200D02*
D03*
X388370Y314198D02*
D03*
X413770Y314200D02*
D03*
X439170D02*
D03*
X488950Y175260D02*
D03*
X373412Y356870D02*
D03*
X312420Y424180D02*
D03*
X115480Y64820D02*
D03*
X307340Y495300D02*
D03*
X245618Y472948D02*
D03*
X312166Y459232D02*
D03*
X162560Y546100D02*
D03*
X299720Y520700D02*
D03*
X133350Y561340D02*
D03*
X547878Y98806D02*
D03*
X269026Y386334D02*
D03*
X250444Y273050D02*
D03*
X443992Y166370D02*
D03*
X99732Y75488D02*
D03*
X558292Y60960D02*
D03*
D74*
X289306Y173990D02*
D03*
X499364Y342646D02*
D03*
M02*
