G04*
G04 #@! TF.GenerationSoftware,Altium Limited,Altium Designer,20.1.14 (287)*
G04*
G04 Layer_Color=16711935*
%FSLAX44Y44*%
%MOMM*%
G71*
G04*
G04 #@! TF.SameCoordinates,6EDE4AF6-213E-4635-A875-022B84C130C8*
G04*
G04*
G04 #@! TF.FilePolarity,Positive*
G04*
G01*
G75*
%ADD10C,0.2000*%
G36*
X234188Y416938D02*
X234244Y416934D01*
X234318Y416929D01*
X234401Y416915D01*
X234494Y416901D01*
X234595Y416878D01*
X234702Y416855D01*
X234817Y416823D01*
X234933Y416781D01*
X235053Y416730D01*
X235168Y416675D01*
X235284Y416610D01*
X235400Y416532D01*
X235506Y416444D01*
X235511Y416439D01*
X235529Y416421D01*
X235557Y416393D01*
X235594Y416351D01*
X235635Y416300D01*
X235686Y416240D01*
X235737Y416171D01*
X235793Y416092D01*
X235848Y416005D01*
X235903Y415903D01*
X235954Y415797D01*
X236005Y415681D01*
X236047Y415556D01*
X236088Y415427D01*
X236116Y415288D01*
X236135Y415140D01*
X235349Y415034D01*
Y415043D01*
X235344Y415061D01*
X235335Y415098D01*
X235321Y415145D01*
X235307Y415200D01*
X235289Y415260D01*
X235266Y415330D01*
X235242Y415404D01*
X235178Y415565D01*
X235099Y415723D01*
X235053Y415801D01*
X235002Y415875D01*
X234951Y415940D01*
X234891Y416000D01*
X234886Y416005D01*
X234877Y416014D01*
X234859Y416028D01*
X234831Y416046D01*
X234803Y416069D01*
X234762Y416092D01*
X234720Y416120D01*
X234669Y416143D01*
X234614Y416171D01*
X234554Y416199D01*
X234489Y416222D01*
X234420Y416245D01*
X234346Y416264D01*
X234267Y416277D01*
X234188Y416287D01*
X234101Y416291D01*
X234077D01*
X234045Y416287D01*
X234008D01*
X233957Y416277D01*
X233902Y416273D01*
X233842Y416259D01*
X233772Y416245D01*
X233703Y416222D01*
X233624Y416199D01*
X233546Y416166D01*
X233467Y416129D01*
X233389Y416083D01*
X233310Y416032D01*
X233236Y415977D01*
X233162Y415908D01*
X233158Y415903D01*
X233144Y415889D01*
X233125Y415871D01*
X233102Y415838D01*
X233074Y415801D01*
X233042Y415755D01*
X233005Y415704D01*
X232968Y415644D01*
X232936Y415579D01*
X232899Y415505D01*
X232866Y415431D01*
X232839Y415344D01*
X232815Y415256D01*
X232797Y415163D01*
X232783Y415061D01*
X232778Y414960D01*
Y414955D01*
Y414937D01*
Y414909D01*
X232783Y414867D01*
X232788Y414826D01*
X232797Y414770D01*
X232806Y414710D01*
X232825Y414646D01*
X232843Y414576D01*
X232866Y414502D01*
X232894Y414428D01*
X232926Y414354D01*
X232968Y414280D01*
X233019Y414206D01*
X233070Y414137D01*
X233134Y414068D01*
X233139Y414063D01*
X233148Y414054D01*
X233171Y414035D01*
X233199Y414012D01*
X233232Y413984D01*
X233273Y413957D01*
X233324Y413924D01*
X233379Y413892D01*
X233440Y413860D01*
X233509Y413827D01*
X233583Y413800D01*
X233661Y413772D01*
X233745Y413749D01*
X233837Y413730D01*
X233930Y413721D01*
X234031Y413716D01*
X234073D01*
X234119Y413721D01*
X234184Y413726D01*
X234267Y413735D01*
X234359Y413753D01*
X234466Y413772D01*
X234586Y413800D01*
X234498Y413111D01*
X234484D01*
X234470Y413115D01*
X234452D01*
X234410Y413120D01*
X234322D01*
X234290Y413115D01*
X234244Y413111D01*
X234193Y413106D01*
X234138Y413097D01*
X234073Y413088D01*
X234004Y413074D01*
X233934Y413055D01*
X233782Y413009D01*
X233703Y412981D01*
X233624Y412944D01*
X233546Y412907D01*
X233472Y412861D01*
X233467Y412856D01*
X233453Y412847D01*
X233435Y412833D01*
X233407Y412810D01*
X233379Y412783D01*
X233342Y412750D01*
X233310Y412709D01*
X233269Y412662D01*
X233232Y412607D01*
X233195Y412547D01*
X233162Y412482D01*
X233134Y412408D01*
X233107Y412329D01*
X233088Y412242D01*
X233074Y412149D01*
X233070Y412052D01*
Y412048D01*
Y412034D01*
Y412010D01*
X233074Y411978D01*
X233079Y411946D01*
X233084Y411899D01*
X233093Y411853D01*
X233107Y411802D01*
X233144Y411692D01*
X233167Y411631D01*
X233195Y411571D01*
X233227Y411511D01*
X233269Y411451D01*
X233315Y411396D01*
X233366Y411340D01*
X233370Y411336D01*
X233379Y411326D01*
X233393Y411312D01*
X233416Y411294D01*
X233449Y411275D01*
X233481Y411248D01*
X233523Y411225D01*
X233569Y411197D01*
X233620Y411169D01*
X233675Y411146D01*
X233740Y411118D01*
X233805Y411100D01*
X233879Y411081D01*
X233953Y411067D01*
X234036Y411058D01*
X234119Y411054D01*
X234165D01*
X234193Y411058D01*
X234235Y411063D01*
X234281Y411067D01*
X234332Y411077D01*
X234387Y411091D01*
X234507Y411123D01*
X234568Y411146D01*
X234632Y411178D01*
X234697Y411211D01*
X234762Y411248D01*
X234822Y411294D01*
X234882Y411345D01*
X234886Y411349D01*
X234896Y411359D01*
X234910Y411377D01*
X234933Y411400D01*
X234956Y411428D01*
X234984Y411465D01*
X235011Y411511D01*
X235044Y411557D01*
X235076Y411618D01*
X235108Y411682D01*
X235145Y411752D01*
X235173Y411830D01*
X235205Y411913D01*
X235229Y412001D01*
X235252Y412098D01*
X235270Y412205D01*
X236056Y412066D01*
Y412061D01*
Y412057D01*
X236047Y412029D01*
X236038Y411992D01*
X236024Y411936D01*
X236005Y411867D01*
X235982Y411793D01*
X235954Y411710D01*
X235922Y411618D01*
X235880Y411521D01*
X235834Y411419D01*
X235779Y411317D01*
X235719Y411215D01*
X235654Y411114D01*
X235580Y411017D01*
X235497Y410924D01*
X235404Y410841D01*
X235400Y410836D01*
X235381Y410822D01*
X235353Y410799D01*
X235312Y410772D01*
X235261Y410739D01*
X235201Y410702D01*
X235131Y410665D01*
X235053Y410624D01*
X234965Y410582D01*
X234868Y410545D01*
X234766Y410508D01*
X234655Y410476D01*
X234535Y410448D01*
X234406Y410425D01*
X234272Y410411D01*
X234133Y410406D01*
X234082D01*
X234045Y410411D01*
X233999D01*
X233943Y410420D01*
X233883Y410425D01*
X233819Y410434D01*
X233745Y410448D01*
X233671Y410462D01*
X233509Y410503D01*
X233421Y410527D01*
X233338Y410559D01*
X233255Y410591D01*
X233171Y410633D01*
X233167Y410638D01*
X233153Y410642D01*
X233130Y410656D01*
X233097Y410675D01*
X233060Y410698D01*
X233019Y410725D01*
X232973Y410758D01*
X232922Y410795D01*
X232811Y410882D01*
X232700Y410989D01*
X232594Y411109D01*
X232543Y411178D01*
X232496Y411248D01*
X232492Y411252D01*
X232487Y411266D01*
X232473Y411285D01*
X232460Y411317D01*
X232441Y411349D01*
X232423Y411396D01*
X232399Y411442D01*
X232376Y411497D01*
X232358Y411557D01*
X232335Y411618D01*
X232298Y411756D01*
X232270Y411909D01*
X232265Y411987D01*
X232261Y412071D01*
Y412075D01*
Y412089D01*
Y412112D01*
X232265Y412140D01*
Y412177D01*
X232275Y412219D01*
X232279Y412269D01*
X232288Y412320D01*
X232316Y412440D01*
X232358Y412565D01*
X232381Y412630D01*
X232413Y412699D01*
X232446Y412764D01*
X232487Y412829D01*
X232492Y412833D01*
X232496Y412843D01*
X232510Y412861D01*
X232529Y412884D01*
X232552Y412912D01*
X232580Y412944D01*
X232612Y412981D01*
X232654Y413023D01*
X232695Y413064D01*
X232746Y413106D01*
X232797Y413152D01*
X232857Y413199D01*
X232922Y413240D01*
X232991Y413286D01*
X233065Y413328D01*
X233144Y413365D01*
X233139D01*
X233121Y413370D01*
X233088Y413379D01*
X233051Y413393D01*
X233000Y413407D01*
X232945Y413430D01*
X232885Y413453D01*
X232820Y413485D01*
X232751Y413517D01*
X232677Y413559D01*
X232603Y413601D01*
X232529Y413652D01*
X232460Y413707D01*
X232390Y413767D01*
X232321Y413837D01*
X232261Y413910D01*
X232256Y413915D01*
X232247Y413929D01*
X232233Y413952D01*
X232210Y413984D01*
X232187Y414026D01*
X232159Y414072D01*
X232131Y414128D01*
X232104Y414192D01*
X232076Y414266D01*
X232043Y414345D01*
X232020Y414428D01*
X231997Y414521D01*
X231974Y414618D01*
X231960Y414719D01*
X231951Y414826D01*
X231946Y414941D01*
Y414951D01*
Y414978D01*
X231951Y415024D01*
X231956Y415080D01*
X231965Y415154D01*
X231979Y415237D01*
X231997Y415330D01*
X232025Y415431D01*
X232057Y415542D01*
X232094Y415653D01*
X232145Y415773D01*
X232205Y415894D01*
X232275Y416014D01*
X232358Y416134D01*
X232455Y416250D01*
X232561Y416361D01*
X232570Y416365D01*
X232589Y416384D01*
X232621Y416416D01*
X232672Y416453D01*
X232732Y416495D01*
X232802Y416545D01*
X232889Y416596D01*
X232982Y416652D01*
X233088Y416707D01*
X233208Y416758D01*
X233333Y416809D01*
X233472Y416851D01*
X233615Y416888D01*
X233772Y416920D01*
X233934Y416938D01*
X234105Y416943D01*
X234142D01*
X234188Y416938D01*
D02*
G37*
G36*
X237096Y417318D02*
X237119Y417308D01*
X237156Y417294D01*
X237207Y417276D01*
X237267Y417248D01*
X237341Y417216D01*
X237424Y417174D01*
X237517Y417132D01*
X237619Y417077D01*
X237725Y417022D01*
X237840Y416957D01*
X237956Y416888D01*
X238081Y416809D01*
X238206Y416726D01*
X238330Y416638D01*
X238460Y416541D01*
X238469Y416545D01*
X238492Y416559D01*
X238529Y416578D01*
X238585Y416601D01*
X238649Y416633D01*
X238733Y416666D01*
X238820Y416703D01*
X238922Y416735D01*
X239033Y416772D01*
X239158Y416809D01*
X239287Y416841D01*
X239421Y416874D01*
X239569Y416897D01*
X239717Y416915D01*
X239870Y416929D01*
X240032Y416934D01*
X240069D01*
X240115Y416929D01*
X240180D01*
X240254Y416920D01*
X240346Y416911D01*
X240443Y416897D01*
X240554Y416883D01*
X240674Y416860D01*
X240799Y416832D01*
X240928Y416800D01*
X241063Y416758D01*
X241201Y416712D01*
X241335Y416656D01*
X241474Y416592D01*
X241608Y416518D01*
X241617Y416513D01*
X241640Y416499D01*
X241677Y416471D01*
X241724Y416439D01*
X241784Y416398D01*
X241853Y416347D01*
X241927Y416282D01*
X242010Y416213D01*
X242098Y416134D01*
X242186Y416046D01*
X242274Y415949D01*
X242366Y415843D01*
X242454Y415727D01*
X242542Y415607D01*
X242625Y415478D01*
X242699Y415339D01*
X242704Y415330D01*
X242713Y415307D01*
X242736Y415260D01*
X242759Y415205D01*
X242787Y415135D01*
X242819Y415048D01*
X242852Y414951D01*
X242889Y414840D01*
X242925Y414719D01*
X242958Y414590D01*
X242990Y414447D01*
X243018Y414299D01*
X243041Y414142D01*
X243060Y413975D01*
X243074Y413804D01*
X243078Y413629D01*
Y413624D01*
Y413619D01*
Y413605D01*
Y413587D01*
Y413564D01*
X243074Y413536D01*
Y413467D01*
X243064Y413388D01*
X243060Y413291D01*
X243046Y413180D01*
X243032Y413060D01*
X243009Y412930D01*
X242986Y412792D01*
X242953Y412653D01*
X242916Y412505D01*
X242870Y412357D01*
X242819Y412205D01*
X242764Y412057D01*
X242694Y411909D01*
X242690Y411899D01*
X242676Y411876D01*
X242653Y411835D01*
X242625Y411779D01*
X242583Y411715D01*
X242537Y411641D01*
X242477Y411557D01*
X242412Y411470D01*
X242338Y411377D01*
X242260Y411280D01*
X242172Y411178D01*
X242070Y411081D01*
X241969Y410984D01*
X241853Y410892D01*
X241733Y410804D01*
X241603Y410725D01*
X241594Y410721D01*
X241571Y410707D01*
X241534Y410688D01*
X241479Y410661D01*
X241409Y410633D01*
X241331Y410596D01*
X241243Y410559D01*
X241136Y410522D01*
X241026Y410485D01*
X240905Y410448D01*
X240771Y410411D01*
X240633Y410383D01*
X240489Y410355D01*
X240337Y410337D01*
X240180Y410323D01*
X240018Y410318D01*
X239976D01*
X239930Y410323D01*
X239870D01*
X239791Y410332D01*
X239699Y410342D01*
X239597Y410355D01*
X239486Y410369D01*
X239366Y410392D01*
X239237Y410420D01*
X239102Y410457D01*
X238968Y410494D01*
X238830Y410545D01*
X238691Y410601D01*
X238552Y410665D01*
X238418Y410739D01*
X238409Y410744D01*
X238386Y410758D01*
X238349Y410781D01*
X238303Y410818D01*
X238243Y410859D01*
X238173Y410910D01*
X238099Y410975D01*
X238016Y411044D01*
X237928Y411123D01*
X237840Y411211D01*
X237748Y411308D01*
X237660Y411414D01*
X237572Y411530D01*
X237484Y411650D01*
X237406Y411779D01*
X237332Y411918D01*
X237327Y411927D01*
X237313Y411950D01*
X237295Y411992D01*
X237272Y412052D01*
X237244Y412121D01*
X237212Y412209D01*
X237179Y412306D01*
X237142Y412417D01*
X237110Y412537D01*
X237078Y412667D01*
X237045Y412810D01*
X237018Y412958D01*
X236990Y413115D01*
X236971Y413277D01*
X236962Y413448D01*
X236957Y413624D01*
Y413633D01*
Y413661D01*
Y413702D01*
X236962Y413758D01*
X236967Y413827D01*
X236971Y413906D01*
X236976Y413998D01*
X236985Y414100D01*
X236999Y414206D01*
X237018Y414317D01*
X237036Y414437D01*
X237059Y414558D01*
X237087Y414683D01*
X237119Y414803D01*
X237156Y414927D01*
X237198Y415048D01*
X237202Y415057D01*
X237207Y415075D01*
X237221Y415108D01*
X237244Y415154D01*
X237267Y415210D01*
X237300Y415270D01*
X237337Y415344D01*
X237378Y415418D01*
X237429Y415501D01*
X237480Y415588D01*
X237540Y415681D01*
X237605Y415773D01*
X237674Y415866D01*
X237753Y415958D01*
X237836Y416051D01*
X237924Y416139D01*
X237919Y416143D01*
X237896Y416157D01*
X237868Y416176D01*
X237822Y416203D01*
X237771Y416240D01*
X237711Y416277D01*
X237642Y416319D01*
X237568Y416365D01*
X237484Y416411D01*
X237401Y416462D01*
X237216Y416564D01*
X237027Y416656D01*
X236930Y416698D01*
X236837Y416735D01*
X237087Y417322D01*
X237096Y417318D01*
D02*
G37*
G36*
X193834Y196434D02*
X193839Y196438D01*
X193848Y196447D01*
X193862Y196461D01*
X193885Y196480D01*
X193913Y196503D01*
X193950Y196535D01*
X193992Y196568D01*
X194033Y196605D01*
X194089Y196642D01*
X194144Y196688D01*
X194204Y196729D01*
X194269Y196780D01*
X194343Y196826D01*
X194417Y196877D01*
X194583Y196979D01*
X194588Y196984D01*
X194602Y196993D01*
X194630Y197007D01*
X194662Y197021D01*
X194699Y197044D01*
X194745Y197071D01*
X194801Y197099D01*
X194856Y197132D01*
X194986Y197196D01*
X195124Y197261D01*
X195268Y197326D01*
X195406Y197381D01*
Y196623D01*
X195397Y196618D01*
X195379Y196609D01*
X195342Y196591D01*
X195295Y196568D01*
X195240Y196540D01*
X195170Y196503D01*
X195097Y196461D01*
X195018Y196415D01*
X194930Y196360D01*
X194838Y196304D01*
X194643Y196175D01*
X194445Y196031D01*
X194255Y195874D01*
X194251Y195870D01*
X194232Y195856D01*
X194209Y195833D01*
X194177Y195800D01*
X194135Y195759D01*
X194089Y195712D01*
X194038Y195657D01*
X193983Y195602D01*
X193927Y195537D01*
X193867Y195467D01*
X193751Y195324D01*
X193645Y195172D01*
X193599Y195093D01*
X193557Y195014D01*
X193049D01*
Y201435D01*
X193834D01*
Y196434D01*
D02*
G37*
G36*
X196964Y201926D02*
X196987Y201916D01*
X197024Y201902D01*
X197075Y201884D01*
X197135Y201856D01*
X197209Y201824D01*
X197292Y201782D01*
X197385Y201740D01*
X197486Y201685D01*
X197593Y201630D01*
X197708Y201565D01*
X197824Y201495D01*
X197949Y201417D01*
X198074Y201334D01*
X198199Y201246D01*
X198328Y201149D01*
X198337Y201153D01*
X198360Y201167D01*
X198397Y201186D01*
X198453Y201209D01*
X198517Y201241D01*
X198601Y201274D01*
X198689Y201311D01*
X198790Y201343D01*
X198901Y201380D01*
X199026Y201417D01*
X199155Y201449D01*
X199289Y201482D01*
X199437Y201505D01*
X199585Y201523D01*
X199738Y201537D01*
X199900Y201542D01*
X199937D01*
X199983Y201537D01*
X200048D01*
X200121Y201528D01*
X200214Y201519D01*
X200311Y201505D01*
X200422Y201491D01*
X200542Y201468D01*
X200667Y201440D01*
X200797Y201408D01*
X200931Y201366D01*
X201069Y201320D01*
X201203Y201264D01*
X201342Y201200D01*
X201476Y201126D01*
X201485Y201121D01*
X201508Y201107D01*
X201545Y201080D01*
X201592Y201047D01*
X201652Y201005D01*
X201721Y200955D01*
X201795Y200890D01*
X201878Y200821D01*
X201966Y200742D01*
X202054Y200654D01*
X202142Y200557D01*
X202234Y200451D01*
X202322Y200335D01*
X202410Y200215D01*
X202493Y200086D01*
X202567Y199947D01*
X202572Y199938D01*
X202581Y199914D01*
X202604Y199868D01*
X202627Y199813D01*
X202655Y199743D01*
X202687Y199656D01*
X202720Y199559D01*
X202757Y199448D01*
X202794Y199327D01*
X202826Y199198D01*
X202858Y199055D01*
X202886Y198907D01*
X202909Y198750D01*
X202928Y198583D01*
X202941Y198412D01*
X202946Y198237D01*
Y198232D01*
Y198227D01*
Y198213D01*
Y198195D01*
Y198172D01*
X202941Y198144D01*
Y198075D01*
X202932Y197996D01*
X202928Y197899D01*
X202914Y197788D01*
X202900Y197668D01*
X202877Y197538D01*
X202854Y197400D01*
X202821Y197261D01*
X202784Y197113D01*
X202738Y196965D01*
X202687Y196813D01*
X202632Y196665D01*
X202562Y196517D01*
X202558Y196507D01*
X202544Y196484D01*
X202521Y196443D01*
X202493Y196387D01*
X202451Y196323D01*
X202405Y196249D01*
X202345Y196165D01*
X202280Y196078D01*
X202206Y195985D01*
X202128Y195888D01*
X202040Y195786D01*
X201938Y195689D01*
X201837Y195592D01*
X201721Y195500D01*
X201601Y195412D01*
X201471Y195333D01*
X201462Y195329D01*
X201439Y195315D01*
X201402Y195296D01*
X201347Y195269D01*
X201277Y195241D01*
X201199Y195204D01*
X201111Y195167D01*
X201005Y195130D01*
X200894Y195093D01*
X200773Y195056D01*
X200639Y195019D01*
X200501Y194991D01*
X200357Y194963D01*
X200205Y194945D01*
X200048Y194931D01*
X199886Y194926D01*
X199844D01*
X199798Y194931D01*
X199738D01*
X199659Y194940D01*
X199567Y194950D01*
X199465Y194963D01*
X199354Y194977D01*
X199234Y195000D01*
X199104Y195028D01*
X198971Y195065D01*
X198836Y195102D01*
X198698Y195153D01*
X198559Y195208D01*
X198420Y195273D01*
X198286Y195347D01*
X198277Y195352D01*
X198254Y195366D01*
X198217Y195389D01*
X198171Y195426D01*
X198111Y195467D01*
X198041Y195518D01*
X197967Y195583D01*
X197884Y195652D01*
X197796Y195731D01*
X197708Y195819D01*
X197616Y195916D01*
X197528Y196022D01*
X197440Y196138D01*
X197353Y196258D01*
X197274Y196387D01*
X197200Y196526D01*
X197195Y196535D01*
X197181Y196558D01*
X197163Y196600D01*
X197140Y196660D01*
X197112Y196729D01*
X197080Y196817D01*
X197047Y196914D01*
X197010Y197025D01*
X196978Y197146D01*
X196946Y197275D01*
X196913Y197418D01*
X196886Y197566D01*
X196858Y197723D01*
X196839Y197885D01*
X196830Y198056D01*
X196826Y198232D01*
Y198241D01*
Y198269D01*
Y198310D01*
X196830Y198366D01*
X196835Y198435D01*
X196839Y198514D01*
X196844Y198606D01*
X196853Y198708D01*
X196867Y198814D01*
X196886Y198925D01*
X196904Y199045D01*
X196927Y199166D01*
X196955Y199291D01*
X196987Y199411D01*
X197024Y199536D01*
X197066Y199656D01*
X197071Y199665D01*
X197075Y199683D01*
X197089Y199716D01*
X197112Y199762D01*
X197135Y199818D01*
X197168Y199878D01*
X197205Y199951D01*
X197246Y200026D01*
X197297Y200109D01*
X197348Y200196D01*
X197408Y200289D01*
X197473Y200381D01*
X197542Y200474D01*
X197621Y200566D01*
X197704Y200659D01*
X197792Y200747D01*
X197787Y200751D01*
X197764Y200765D01*
X197736Y200784D01*
X197690Y200811D01*
X197639Y200848D01*
X197579Y200885D01*
X197510Y200927D01*
X197436Y200973D01*
X197353Y201019D01*
X197269Y201070D01*
X197084Y201172D01*
X196895Y201264D01*
X196798Y201306D01*
X196705Y201343D01*
X196955Y201930D01*
X196964Y201926D01*
D02*
G37*
G36*
X227346Y297443D02*
Y297434D01*
Y297420D01*
Y297401D01*
Y297374D01*
X227342Y297346D01*
X227337Y297272D01*
X227328Y297193D01*
X227314Y297101D01*
X227291Y297004D01*
X227258Y296907D01*
Y296902D01*
X227249Y296888D01*
X227240Y296865D01*
X227226Y296833D01*
X227212Y296791D01*
X227189Y296745D01*
X227161Y296694D01*
X227134Y296638D01*
X227101Y296574D01*
X227060Y296509D01*
X226972Y296366D01*
X226866Y296213D01*
X226741Y296056D01*
X226736Y296051D01*
X226722Y296038D01*
X226704Y296014D01*
X226676Y295982D01*
X226639Y295940D01*
X226593Y295894D01*
X226542Y295839D01*
X226477Y295779D01*
X226408Y295709D01*
X226334Y295635D01*
X226251Y295557D01*
X226158Y295469D01*
X226057Y295381D01*
X225950Y295289D01*
X225835Y295191D01*
X225714Y295090D01*
X225710Y295085D01*
X225701Y295081D01*
X225687Y295067D01*
X225668Y295053D01*
X225645Y295030D01*
X225617Y295007D01*
X225548Y294946D01*
X225460Y294877D01*
X225368Y294789D01*
X225261Y294697D01*
X225151Y294595D01*
X225030Y294489D01*
X224915Y294378D01*
X224795Y294267D01*
X224684Y294151D01*
X224573Y294040D01*
X224476Y293934D01*
X224383Y293828D01*
X224309Y293731D01*
X224305Y293726D01*
X224295Y293708D01*
X224277Y293680D01*
X224249Y293647D01*
X224221Y293601D01*
X224194Y293550D01*
X224157Y293490D01*
X224124Y293426D01*
X224092Y293356D01*
X224055Y293282D01*
X223995Y293120D01*
X223972Y293037D01*
X223953Y292954D01*
X223944Y292871D01*
X223939Y292788D01*
Y292783D01*
Y292764D01*
Y292741D01*
X223944Y292709D01*
X223949Y292668D01*
X223958Y292621D01*
X223967Y292570D01*
X223981Y292515D01*
X223999Y292455D01*
X224023Y292390D01*
X224050Y292325D01*
X224083Y292261D01*
X224120Y292191D01*
X224166Y292127D01*
X224217Y292062D01*
X224277Y292002D01*
X224281Y291997D01*
X224291Y291988D01*
X224309Y291974D01*
X224337Y291951D01*
X224369Y291928D01*
X224411Y291900D01*
X224457Y291868D01*
X224508Y291840D01*
X224568Y291808D01*
X224633Y291780D01*
X224707Y291752D01*
X224781Y291729D01*
X224864Y291706D01*
X224952Y291692D01*
X225044Y291683D01*
X225141Y291678D01*
X225197D01*
X225234Y291683D01*
X225285Y291687D01*
X225340Y291697D01*
X225400Y291706D01*
X225469Y291720D01*
X225539Y291738D01*
X225613Y291761D01*
X225687Y291789D01*
X225765Y291821D01*
X225839Y291863D01*
X225913Y291909D01*
X225987Y291960D01*
X226052Y292020D01*
X226057Y292025D01*
X226066Y292034D01*
X226084Y292057D01*
X226103Y292080D01*
X226131Y292117D01*
X226158Y292159D01*
X226191Y292210D01*
X226218Y292265D01*
X226251Y292325D01*
X226283Y292399D01*
X226311Y292473D01*
X226339Y292556D01*
X226357Y292649D01*
X226376Y292746D01*
X226385Y292848D01*
X226389Y292959D01*
X227198Y292875D01*
Y292871D01*
Y292866D01*
X227194Y292852D01*
Y292834D01*
X227189Y292788D01*
X227175Y292728D01*
X227161Y292654D01*
X227143Y292566D01*
X227120Y292469D01*
X227092Y292367D01*
X227055Y292256D01*
X227013Y292145D01*
X226963Y292029D01*
X226903Y291914D01*
X226838Y291803D01*
X226759Y291697D01*
X226676Y291595D01*
X226579Y291502D01*
X226574Y291498D01*
X226556Y291484D01*
X226523Y291456D01*
X226482Y291429D01*
X226426Y291392D01*
X226362Y291350D01*
X226283Y291308D01*
X226195Y291262D01*
X226094Y291220D01*
X225987Y291179D01*
X225867Y291137D01*
X225738Y291100D01*
X225599Y291068D01*
X225451Y291045D01*
X225294Y291031D01*
X225127Y291026D01*
X225086D01*
X225040Y291031D01*
X224975Y291036D01*
X224896Y291040D01*
X224808Y291054D01*
X224707Y291068D01*
X224600Y291091D01*
X224485Y291119D01*
X224369Y291151D01*
X224244Y291193D01*
X224124Y291244D01*
X224004Y291304D01*
X223888Y291369D01*
X223778Y291447D01*
X223671Y291539D01*
X223667Y291544D01*
X223648Y291563D01*
X223620Y291590D01*
X223588Y291632D01*
X223546Y291678D01*
X223500Y291738D01*
X223449Y291808D01*
X223398Y291886D01*
X223352Y291974D01*
X223301Y292071D01*
X223255Y292177D01*
X223214Y292288D01*
X223181Y292409D01*
X223153Y292533D01*
X223135Y292668D01*
X223130Y292806D01*
Y292811D01*
Y292825D01*
Y292843D01*
Y292871D01*
X223135Y292908D01*
X223140Y292945D01*
X223144Y292991D01*
X223149Y293042D01*
X223167Y293158D01*
X223195Y293287D01*
X223237Y293421D01*
X223288Y293560D01*
Y293564D01*
X223297Y293578D01*
X223306Y293597D01*
X223320Y293624D01*
X223334Y293657D01*
X223357Y293698D01*
X223380Y293745D01*
X223412Y293795D01*
X223445Y293851D01*
X223482Y293911D01*
X223574Y294045D01*
X223625Y294114D01*
X223680Y294188D01*
X223745Y294262D01*
X223810Y294341D01*
X223815Y294345D01*
X223828Y294359D01*
X223847Y294382D01*
X223879Y294415D01*
X223921Y294457D01*
X223972Y294507D01*
X224027Y294567D01*
X224097Y294637D01*
X224175Y294711D01*
X224268Y294794D01*
X224365Y294886D01*
X224476Y294988D01*
X224596Y295094D01*
X224725Y295210D01*
X224869Y295335D01*
X225021Y295464D01*
X225030Y295469D01*
X225053Y295492D01*
X225086Y295520D01*
X225132Y295561D01*
X225192Y295608D01*
X225252Y295663D01*
X225322Y295723D01*
X225396Y295788D01*
X225553Y295922D01*
X225627Y295991D01*
X225701Y296056D01*
X225770Y296121D01*
X225830Y296176D01*
X225886Y296227D01*
X225927Y296273D01*
X225936Y296283D01*
X225959Y296310D01*
X225996Y296352D01*
X226043Y296403D01*
X226094Y296467D01*
X226149Y296537D01*
X226204Y296615D01*
X226255Y296694D01*
X223121D01*
Y297447D01*
X227346D01*
Y297443D01*
D02*
G37*
G36*
X228206Y297938D02*
X228229Y297928D01*
X228266Y297914D01*
X228317Y297896D01*
X228377Y297868D01*
X228451Y297836D01*
X228534Y297794D01*
X228627Y297752D01*
X228729Y297697D01*
X228835Y297642D01*
X228950Y297577D01*
X229066Y297507D01*
X229191Y297429D01*
X229316Y297346D01*
X229440Y297258D01*
X229570Y297161D01*
X229579Y297165D01*
X229602Y297179D01*
X229639Y297198D01*
X229695Y297221D01*
X229759Y297253D01*
X229843Y297286D01*
X229930Y297323D01*
X230032Y297355D01*
X230143Y297392D01*
X230268Y297429D01*
X230397Y297461D01*
X230531Y297494D01*
X230679Y297517D01*
X230827Y297535D01*
X230980Y297549D01*
X231142Y297554D01*
X231179D01*
X231225Y297549D01*
X231290D01*
X231364Y297540D01*
X231456Y297531D01*
X231553Y297517D01*
X231664Y297503D01*
X231784Y297480D01*
X231909Y297452D01*
X232038Y297420D01*
X232173Y297378D01*
X232311Y297332D01*
X232445Y297276D01*
X232584Y297212D01*
X232718Y297138D01*
X232727Y297133D01*
X232750Y297119D01*
X232787Y297092D01*
X232834Y297059D01*
X232894Y297017D01*
X232963Y296967D01*
X233037Y296902D01*
X233120Y296833D01*
X233208Y296754D01*
X233296Y296666D01*
X233384Y296569D01*
X233476Y296463D01*
X233564Y296347D01*
X233652Y296227D01*
X233735Y296098D01*
X233809Y295959D01*
X233814Y295950D01*
X233823Y295926D01*
X233846Y295880D01*
X233869Y295825D01*
X233897Y295756D01*
X233929Y295668D01*
X233962Y295571D01*
X233999Y295460D01*
X234035Y295339D01*
X234068Y295210D01*
X234100Y295067D01*
X234128Y294919D01*
X234151Y294762D01*
X234170Y294595D01*
X234184Y294424D01*
X234188Y294249D01*
Y294244D01*
Y294239D01*
Y294225D01*
Y294207D01*
Y294184D01*
X234184Y294156D01*
Y294087D01*
X234174Y294008D01*
X234170Y293911D01*
X234156Y293800D01*
X234142Y293680D01*
X234119Y293550D01*
X234096Y293412D01*
X234063Y293273D01*
X234026Y293125D01*
X233980Y292977D01*
X233929Y292825D01*
X233874Y292677D01*
X233804Y292529D01*
X233800Y292519D01*
X233786Y292496D01*
X233763Y292455D01*
X233735Y292399D01*
X233693Y292335D01*
X233647Y292261D01*
X233587Y292177D01*
X233522Y292090D01*
X233448Y291997D01*
X233370Y291900D01*
X233282Y291798D01*
X233180Y291701D01*
X233079Y291604D01*
X232963Y291512D01*
X232843Y291424D01*
X232713Y291345D01*
X232704Y291341D01*
X232681Y291327D01*
X232644Y291308D01*
X232589Y291281D01*
X232519Y291253D01*
X232441Y291216D01*
X232353Y291179D01*
X232246Y291142D01*
X232136Y291105D01*
X232015Y291068D01*
X231881Y291031D01*
X231743Y291003D01*
X231599Y290975D01*
X231447Y290957D01*
X231290Y290943D01*
X231128Y290938D01*
X231086D01*
X231040Y290943D01*
X230980D01*
X230901Y290952D01*
X230809Y290962D01*
X230707Y290975D01*
X230596Y290989D01*
X230476Y291012D01*
X230347Y291040D01*
X230212Y291077D01*
X230078Y291114D01*
X229940Y291165D01*
X229801Y291220D01*
X229662Y291285D01*
X229528Y291359D01*
X229519Y291364D01*
X229496Y291378D01*
X229459Y291401D01*
X229413Y291438D01*
X229353Y291479D01*
X229283Y291530D01*
X229209Y291595D01*
X229126Y291664D01*
X229038Y291743D01*
X228950Y291831D01*
X228858Y291928D01*
X228770Y292034D01*
X228682Y292150D01*
X228594Y292270D01*
X228516Y292399D01*
X228442Y292538D01*
X228437Y292547D01*
X228423Y292570D01*
X228405Y292612D01*
X228382Y292672D01*
X228354Y292741D01*
X228322Y292829D01*
X228289Y292926D01*
X228252Y293037D01*
X228220Y293158D01*
X228188Y293287D01*
X228155Y293430D01*
X228128Y293578D01*
X228100Y293735D01*
X228081Y293897D01*
X228072Y294068D01*
X228067Y294244D01*
Y294253D01*
Y294281D01*
Y294322D01*
X228072Y294378D01*
X228077Y294447D01*
X228081Y294526D01*
X228086Y294618D01*
X228095Y294720D01*
X228109Y294826D01*
X228128Y294937D01*
X228146Y295057D01*
X228169Y295178D01*
X228197Y295303D01*
X228229Y295423D01*
X228266Y295548D01*
X228308Y295668D01*
X228312Y295677D01*
X228317Y295695D01*
X228331Y295728D01*
X228354Y295774D01*
X228377Y295830D01*
X228410Y295890D01*
X228447Y295963D01*
X228488Y296038D01*
X228539Y296121D01*
X228590Y296208D01*
X228650Y296301D01*
X228715Y296393D01*
X228784Y296486D01*
X228863Y296578D01*
X228946Y296671D01*
X229034Y296759D01*
X229029Y296763D01*
X229006Y296777D01*
X228978Y296796D01*
X228932Y296823D01*
X228881Y296860D01*
X228821Y296897D01*
X228752Y296939D01*
X228678Y296985D01*
X228594Y297031D01*
X228511Y297082D01*
X228326Y297184D01*
X228137Y297276D01*
X228040Y297318D01*
X227947Y297355D01*
X228197Y297942D01*
X228206Y297938D01*
D02*
G37*
%LPC*%
G36*
X240013Y416208D02*
X239967D01*
X239935Y416203D01*
X239893D01*
X239847Y416199D01*
X239791Y416194D01*
X239736Y416185D01*
X239671Y416180D01*
X239602Y416166D01*
X239458Y416139D01*
X239310Y416097D01*
X239158Y416042D01*
X239163Y416037D01*
X239176Y416032D01*
X239195Y416018D01*
X239227Y416000D01*
X239264Y415977D01*
X239306Y415954D01*
X239357Y415926D01*
X239408Y415898D01*
X239468Y415871D01*
X239537Y415838D01*
X239676Y415778D01*
X239833Y415723D01*
X239995Y415676D01*
X239787Y415057D01*
X239777D01*
X239754Y415066D01*
X239717Y415080D01*
X239666Y415094D01*
X239602Y415117D01*
X239532Y415145D01*
X239449Y415177D01*
X239361Y415210D01*
X239269Y415251D01*
X239172Y415297D01*
X239070Y415348D01*
X238968Y415404D01*
X238867Y415464D01*
X238770Y415528D01*
X238673Y415598D01*
X238580Y415672D01*
X238571Y415662D01*
X238548Y415639D01*
X238511Y415598D01*
X238465Y415542D01*
X238404Y415473D01*
X238344Y415385D01*
X238275Y415279D01*
X238206Y415163D01*
X238136Y415024D01*
X238067Y414872D01*
X238007Y414706D01*
X237947Y414521D01*
X237901Y414322D01*
X237864Y414109D01*
X237840Y413878D01*
X237831Y413629D01*
Y413619D01*
Y413596D01*
Y413554D01*
X237836Y413499D01*
X237840Y413430D01*
X237845Y413351D01*
X237854Y413263D01*
X237864Y413166D01*
X237877Y413064D01*
X237896Y412958D01*
X237919Y412843D01*
X237942Y412727D01*
X237974Y412611D01*
X238011Y412496D01*
X238053Y412385D01*
X238099Y412274D01*
X238104Y412269D01*
X238113Y412246D01*
X238127Y412219D01*
X238150Y412177D01*
X238178Y412131D01*
X238210Y412071D01*
X238247Y412010D01*
X238293Y411941D01*
X238344Y411872D01*
X238404Y411798D01*
X238465Y411724D01*
X238534Y411650D01*
X238612Y411576D01*
X238691Y411502D01*
X238779Y411437D01*
X238871Y411372D01*
X238876Y411368D01*
X238894Y411359D01*
X238922Y411345D01*
X238959Y411322D01*
X239010Y411299D01*
X239065Y411271D01*
X239130Y411239D01*
X239204Y411211D01*
X239287Y411178D01*
X239375Y411151D01*
X239468Y411123D01*
X239569Y411100D01*
X239671Y411077D01*
X239782Y411063D01*
X239898Y411054D01*
X240013Y411049D01*
X240055D01*
X240106Y411054D01*
X240170Y411058D01*
X240249Y411067D01*
X240346Y411081D01*
X240448Y411104D01*
X240563Y411128D01*
X240683Y411165D01*
X240808Y411206D01*
X240942Y411257D01*
X241072Y411322D01*
X241206Y411396D01*
X241335Y411483D01*
X241460Y411581D01*
X241580Y411696D01*
X241585Y411705D01*
X241608Y411729D01*
X241636Y411766D01*
X241677Y411816D01*
X241724Y411886D01*
X241779Y411969D01*
X241835Y412066D01*
X241890Y412182D01*
X241950Y412311D01*
X242006Y412454D01*
X242061Y412611D01*
X242107Y412783D01*
X242149Y412972D01*
X242177Y413175D01*
X242195Y413393D01*
X242204Y413629D01*
Y413633D01*
Y413642D01*
Y413661D01*
Y413684D01*
X242200Y413712D01*
Y413749D01*
Y413790D01*
X242195Y413832D01*
X242190Y413883D01*
X242186Y413938D01*
X242172Y414058D01*
X242153Y414192D01*
X242126Y414336D01*
X242093Y414488D01*
X242052Y414646D01*
X242006Y414803D01*
X241945Y414964D01*
X241876Y415117D01*
X241793Y415270D01*
X241696Y415413D01*
X241590Y415542D01*
X241580Y415551D01*
X241562Y415570D01*
X241525Y415602D01*
X241479Y415644D01*
X241418Y415695D01*
X241345Y415755D01*
X241257Y415815D01*
X241160Y415875D01*
X241053Y415935D01*
X240933Y415995D01*
X240804Y416055D01*
X240665Y416102D01*
X240512Y416148D01*
X240355Y416180D01*
X240189Y416199D01*
X240013Y416208D01*
D02*
G37*
G36*
X199881Y200816D02*
X199835D01*
X199803Y200811D01*
X199761D01*
X199715Y200807D01*
X199659Y200802D01*
X199604Y200793D01*
X199539Y200788D01*
X199470Y200774D01*
X199326Y200747D01*
X199179Y200705D01*
X199026Y200650D01*
X199031Y200645D01*
X199044Y200640D01*
X199063Y200626D01*
X199095Y200608D01*
X199132Y200585D01*
X199174Y200562D01*
X199225Y200534D01*
X199276Y200506D01*
X199336Y200478D01*
X199405Y200446D01*
X199544Y200386D01*
X199701Y200331D01*
X199863Y200284D01*
X199655Y199665D01*
X199645D01*
X199622Y199674D01*
X199585Y199688D01*
X199534Y199702D01*
X199470Y199725D01*
X199400Y199753D01*
X199317Y199785D01*
X199229Y199818D01*
X199137Y199859D01*
X199040Y199905D01*
X198938Y199956D01*
X198836Y200012D01*
X198735Y200072D01*
X198638Y200136D01*
X198540Y200206D01*
X198448Y200280D01*
X198439Y200271D01*
X198416Y200247D01*
X198379Y200206D01*
X198333Y200150D01*
X198272Y200081D01*
X198212Y199993D01*
X198143Y199887D01*
X198074Y199771D01*
X198004Y199632D01*
X197935Y199480D01*
X197875Y199314D01*
X197815Y199129D01*
X197768Y198930D01*
X197732Y198717D01*
X197708Y198486D01*
X197699Y198237D01*
Y198227D01*
Y198204D01*
Y198162D01*
X197704Y198107D01*
X197708Y198038D01*
X197713Y197959D01*
X197722Y197871D01*
X197732Y197774D01*
X197745Y197673D01*
X197764Y197566D01*
X197787Y197451D01*
X197810Y197335D01*
X197843Y197219D01*
X197880Y197104D01*
X197921Y196993D01*
X197967Y196882D01*
X197972Y196877D01*
X197981Y196854D01*
X197995Y196826D01*
X198018Y196785D01*
X198046Y196739D01*
X198078Y196679D01*
X198115Y196618D01*
X198162Y196549D01*
X198212Y196480D01*
X198272Y196406D01*
X198333Y196332D01*
X198402Y196258D01*
X198480Y196184D01*
X198559Y196110D01*
X198647Y196045D01*
X198739Y195980D01*
X198744Y195976D01*
X198762Y195967D01*
X198790Y195953D01*
X198827Y195930D01*
X198878Y195907D01*
X198934Y195879D01*
X198998Y195847D01*
X199072Y195819D01*
X199155Y195786D01*
X199243Y195759D01*
X199336Y195731D01*
X199437Y195708D01*
X199539Y195685D01*
X199650Y195671D01*
X199766Y195662D01*
X199881Y195657D01*
X199923D01*
X199974Y195662D01*
X200038Y195666D01*
X200117Y195675D01*
X200214Y195689D01*
X200316Y195712D01*
X200431Y195735D01*
X200551Y195772D01*
X200676Y195814D01*
X200810Y195865D01*
X200940Y195930D01*
X201074Y196004D01*
X201203Y196091D01*
X201328Y196189D01*
X201448Y196304D01*
X201453Y196313D01*
X201476Y196336D01*
X201504Y196374D01*
X201545Y196424D01*
X201592Y196494D01*
X201647Y196577D01*
X201702Y196674D01*
X201758Y196789D01*
X201818Y196919D01*
X201874Y197062D01*
X201929Y197219D01*
X201975Y197390D01*
X202017Y197580D01*
X202045Y197783D01*
X202063Y198001D01*
X202072Y198237D01*
Y198241D01*
Y198250D01*
Y198269D01*
Y198292D01*
X202068Y198320D01*
Y198357D01*
Y198398D01*
X202063Y198440D01*
X202059Y198491D01*
X202054Y198546D01*
X202040Y198666D01*
X202022Y198800D01*
X201994Y198944D01*
X201961Y199096D01*
X201920Y199254D01*
X201874Y199411D01*
X201814Y199572D01*
X201744Y199725D01*
X201661Y199878D01*
X201564Y200021D01*
X201458Y200150D01*
X201448Y200159D01*
X201430Y200178D01*
X201393Y200210D01*
X201347Y200252D01*
X201287Y200303D01*
X201213Y200363D01*
X201125Y200423D01*
X201028Y200483D01*
X200921Y200543D01*
X200801Y200603D01*
X200672Y200663D01*
X200533Y200710D01*
X200380Y200756D01*
X200223Y200788D01*
X200057Y200807D01*
X199881Y200816D01*
D02*
G37*
G36*
X231123Y296828D02*
X231077D01*
X231045Y296823D01*
X231003D01*
X230957Y296819D01*
X230901Y296814D01*
X230846Y296805D01*
X230781Y296800D01*
X230712Y296786D01*
X230568Y296759D01*
X230420Y296717D01*
X230268Y296662D01*
X230273Y296657D01*
X230286Y296652D01*
X230305Y296638D01*
X230337Y296620D01*
X230374Y296597D01*
X230416Y296574D01*
X230467Y296546D01*
X230518Y296518D01*
X230578Y296490D01*
X230647Y296458D01*
X230786Y296398D01*
X230943Y296343D01*
X231105Y296296D01*
X230897Y295677D01*
X230887D01*
X230864Y295686D01*
X230827Y295700D01*
X230776Y295714D01*
X230712Y295737D01*
X230642Y295765D01*
X230559Y295797D01*
X230471Y295830D01*
X230379Y295871D01*
X230282Y295917D01*
X230180Y295968D01*
X230078Y296024D01*
X229977Y296084D01*
X229880Y296148D01*
X229783Y296218D01*
X229690Y296292D01*
X229681Y296283D01*
X229658Y296259D01*
X229621Y296218D01*
X229575Y296162D01*
X229514Y296093D01*
X229454Y296005D01*
X229385Y295899D01*
X229316Y295783D01*
X229246Y295644D01*
X229177Y295492D01*
X229117Y295326D01*
X229057Y295141D01*
X229011Y294942D01*
X228974Y294729D01*
X228950Y294498D01*
X228941Y294249D01*
Y294239D01*
Y294216D01*
Y294174D01*
X228946Y294119D01*
X228950Y294050D01*
X228955Y293971D01*
X228964Y293883D01*
X228974Y293786D01*
X228987Y293685D01*
X229006Y293578D01*
X229029Y293463D01*
X229052Y293347D01*
X229084Y293231D01*
X229121Y293116D01*
X229163Y293005D01*
X229209Y292894D01*
X229214Y292889D01*
X229223Y292866D01*
X229237Y292838D01*
X229260Y292797D01*
X229288Y292751D01*
X229320Y292691D01*
X229357Y292631D01*
X229403Y292561D01*
X229454Y292492D01*
X229514Y292418D01*
X229575Y292344D01*
X229644Y292270D01*
X229722Y292196D01*
X229801Y292122D01*
X229889Y292057D01*
X229981Y291992D01*
X229986Y291988D01*
X230004Y291979D01*
X230032Y291965D01*
X230069Y291942D01*
X230120Y291919D01*
X230175Y291891D01*
X230240Y291859D01*
X230314Y291831D01*
X230397Y291798D01*
X230485Y291771D01*
X230578Y291743D01*
X230679Y291720D01*
X230781Y291697D01*
X230892Y291683D01*
X231008Y291674D01*
X231123Y291669D01*
X231165D01*
X231216Y291674D01*
X231280Y291678D01*
X231359Y291687D01*
X231456Y291701D01*
X231558Y291724D01*
X231673Y291747D01*
X231793Y291784D01*
X231918Y291826D01*
X232052Y291877D01*
X232182Y291942D01*
X232316Y292016D01*
X232445Y292104D01*
X232570Y292201D01*
X232690Y292316D01*
X232695Y292325D01*
X232718Y292348D01*
X232746Y292386D01*
X232787Y292436D01*
X232834Y292506D01*
X232889Y292589D01*
X232945Y292686D01*
X233000Y292801D01*
X233060Y292931D01*
X233116Y293074D01*
X233171Y293231D01*
X233217Y293403D01*
X233259Y293592D01*
X233287Y293795D01*
X233305Y294013D01*
X233314Y294249D01*
Y294253D01*
Y294262D01*
Y294281D01*
Y294304D01*
X233310Y294332D01*
Y294369D01*
Y294410D01*
X233305Y294452D01*
X233300Y294503D01*
X233296Y294558D01*
X233282Y294678D01*
X233263Y294812D01*
X233236Y294956D01*
X233203Y295108D01*
X233162Y295266D01*
X233116Y295423D01*
X233055Y295584D01*
X232986Y295737D01*
X232903Y295890D01*
X232806Y296033D01*
X232700Y296162D01*
X232690Y296171D01*
X232672Y296190D01*
X232635Y296222D01*
X232589Y296264D01*
X232528Y296315D01*
X232454Y296375D01*
X232367Y296435D01*
X232270Y296495D01*
X232163Y296555D01*
X232043Y296615D01*
X231914Y296675D01*
X231775Y296722D01*
X231622Y296768D01*
X231465Y296800D01*
X231299Y296819D01*
X231123Y296828D01*
D02*
G37*
%LPD*%
D10*
X228557Y406322D02*
X257599D01*
X228557D02*
Y428322D01*
X257599D01*
Y406322D02*
Y428322D01*
X217467Y190930D02*
Y212930D01*
X188425D02*
X217467D01*
X188425Y190930D02*
Y212930D01*
Y190930D02*
X217467D01*
X248709Y286942D02*
Y308942D01*
X219667D02*
X248709D01*
X219667Y286942D02*
Y308942D01*
Y286942D02*
X248709D01*
M02*
